<?xml version="1.0" encoding="UTF-8"?>
<!-- Created with Inkscape (http://www.inkscape.org/) -->
<svg width="100mm" height="50mm" version="1.1" viewBox="0 0 100 50" xmlns="http://www.w3.org/2000/svg">
 <g stroke-width=".40411">
  <path id="color-primary" d="m32 45.682c0-2.4021 0.04335-2.1018-0.95036-2.5578-1.6492-0.04488-1.912-0.16488-3.7223-0.16977-2.7238 0-3.0952 0.08945-3.2867 0.79158-0.14831 0.54384-0.56282 0.79158-1.3246 0.79158s-1.1763-0.24773-1.3246-0.79158c-0.18943-0.69485-0.56281-0.79158-3.056-0.79158h-2.8402v-2.9811c0-2.7216 0.03618-3.0006-0.41389-3.6197-0.69438-0.74674-1.8472-0.79745-4.7437-0.87763-3.3123-0.06986-4.3325-0.3701-4.3325-1.2749 0-0.60519-0.30898-0.74541-1.6426-0.74541-1.395 0-1.6805-0.1448-1.894-0.96089-0.13828-0.5285-0.13374-1.3166 0.010137-1.7513 0.20364-0.61544 0.052072-0.81883-0.68482-0.91907-0.89793-0.12221-0.95142-0.31096-1.0457-3.6908-0.14134-5.0669 0.16266-6.9262 1.1325-6.9262 0.61823 0 0.80205-0.34238 0.90311-1.6821 0.12509-1.6583 0.14876-1.6821 1.6745-1.6821 1.1868 0 1.5475-0.1582 1.5473-0.6787-4.21e-4 -1.0387 1.0923-1.3685 5.3885-1.6262 2.2766-0.13657 4.4576-0.49321 5.1577-0.84341 1.2015-0.60102 1.2033-0.6068 0.18156-0.60833-1.015-0.0015-1.0293-0.04592-0.89453-2.7729 0.1519-3.0734-0.12554-2.8585 3.78-2.9286 1.7195-0.030815 2.2673-0.18401 2.2694-0.63437 0.0016-0.37976 0.48599-0.63837 1.3438-0.71769 1.1103-0.10277 1.341 0.011967 1.341 0.67001 0 0.74737 0.22429 0.78609 3.8167 0.65882l3.8167-0.13523 0.12367-2.2169 0.12382-2.2169h2.6614c1.9711 0 2.6614 0.13986 2.6614 0.53918 0 0.75624 3.2176 1.026 9.684 0.81183 3.6462-0.12072 5.4419-0.33271 5.6351-0.66517 0.42782-0.73638 6.5496-0.42336 6.5496 0.3349 0 0.4201 0.60028 0.56393 2.3726 0.56846 1.3049 0.00299 2.605 0.14764 2.8892 0.3207 0.38998 0.23752 0.44992 1.3607 0.24448 4.5813-0.09575 5.4842 0.03478 5.7743 1.0984 5.7314 1.0227 0.02573 2.4738 0.21583 3.2247 0.42238 0.92179 0.25358 1.6914 0.23295 2.3697-0.06342 0.74357-0.32498 1.7283-0.31445 3.7898 0.04054 1.5319 0.26374 3.362 0.53313 4.0669 0.59864 0.70491 0.06552 1.4515 0.2198 1.6592 0.3429 0.20765 0.12311 1.2092 0.33559 2.2256 0.47219 2.2582 0.3035 7.8656 2.0194 10.07 3.0815 0.89111 0.42935 2.6086 1.6773 3.8167 2.7732 2.0212 1.8336 2.1965 2.135 2.1965 3.7757 0 1.6104-0.18703 1.9526-1.9316 3.5332-1.0624 0.96257-2.6597 2.1064-3.5496 2.5419-3.8247 1.8716-10.795 3.5735-17.006 4.1525-1.3616 0.12685-2.6751 0.38511-2.9189 0.57376-0.44789 0.34664-1.8918 0.21829-2.6587-0.23632-0.2292-0.13583-1.946-0.11129-3.8152 0.05475-3.2556 0.07629-2.9065 1.9182-3.137 5.8022-0.06924 2.4338-0.21371 4.5616-0.32113 4.7283-0.10745 0.16672-1.2984 0.30314-2.6467 0.30314-1.9039 0-2.4513 0.13254-2.4513 0.59367 0 0.47823-0.64186 0.59368-3.3009 0.59368-2.6591 0-3.3009-0.11548-3.3009-0.59368 0-0.48036-0.76793-0.61256-4.023-0.69262-7.2444-0.17818-10.977 0.05146-11.355 0.69879-0.24319 0.41683-1.056 0.58752-2.798 0.58752h-2.4552z" fill="#450000"/>
  <path id="color-darker" d="m36.957 47.209c0.61216-1.3912 5.5545-0.29867 1.6053-0.29958-0.51643-0.37373-1.7127 1.3306-1.6053 0.29958zm-4.9287-2.3747c0.64368-3.6076 0.29334 4.7097-7.8e-5 0zm5.7192-1.6716c-2.0867-2.4651 3.0061-2.644 1.5319-0.7429 4.1353 0.40531-0.88952 0.5571-1.5319 0.7429zm-9.6681-0.60414c-2.0184-0.21053-2.319-0.33288-0.11104-0.32648 1.1105-0.10875 3.3759 0.37152 1.7652-1.1247-1.0269-2.8947-4.6357-0.83968-5.7417-0.39179-0.40156-2.2658-0.19252-4.5766-0.24498-6.8644 2.3306 0.0893 4.6461-0.21804 6.937-0.5153 1.338 1.8866 8.2108 2.0091 6.1-0.9258-1.744 0.05116-8.0564-0.55274-2.8638-1.1267-1.89-0.3746-5.176-0.97445-7.6709-1.3104 1.2156 1.3439-3.9253 0.69714-5.1008 1.3345-1.9356 0.63654-2.9743-0.87509-5.1215-0.03994-2.1288-0.89594-6.9765 0.82884-7.457-1.7081 1.1817-0.64137 7.5323-0.4626 3.2745-0.83726-1.7545 0.097681-5.1063 0.12386-3.8837-0.95729-1.3926-1.4581 1.2494-5.1529-0.73109-3.4761-0.54133-0.93983 0.33331-3.1127 0.65719-1.2357-0.5445-2.9784 8.3467-1.3865 3.8902-2.2218-2.2035 1.0068-5.8518-2.9849-5.1799 0.975-0.58676 2.6845 0.8448 3.6599-0.13568 6.332 2.7196 2.4893-4.1885 1.2029-3.122 0.95521 1.6458-1.7811-2.3811-2.8024-2.264-0.57143-0.59334-2.1202-0.20067-4.3658-0.22896-6.5435 1.86 0.34392 5.5352-0.93383 1.5613-0.79259-3.6176-0.8998 1.5132-2.3838 0.4748-4.6226 0.90339-1.3205 3.3631-0.22811 3.6939-2.3014 2.7714-1.0969 10.2-0.46275 10.156-2.1749-1.9931-1.0575-1.3279-7.262 2.4234-5.6723 2.2688-0.27557 3.425 1.1259 0.37741 0.91171-1.0923 0.33434-3.8292-0.82755-3.1826 1.0458 0.17393 1.1068-0.33758 2.8967 1.4768 2.3686 1.4678-0.22691 2.8716-0.27286 3.4244-0.43826 1.8691-4.6219 1.1416 3.5943 1.4306 5.2303 0.32486 0.13343 0.44942-3.0605 0.90746-0.356 0.286-1.8712 0.0047-4.8523 0.86496-6.1436 1.6425 0.78837 4.2772 3.1397 4.0969 0.64072 0.44555 0.40509 0.81094 0.00748 1.4914-1.5283-0.60427-1.1335-7.9514-0.087958-4.5956-1.7556 2.2499-0.1255 4.5054-0.084966 6.758-0.12431 0.0825-1.4909 0.16492-2.9817 0.24749-4.4726 1.792 0.24021 4.5416-0.77929 5.3066 1.2797 3.9953 0.57126 8.1206-0.01825 12.173-0.0181 0.99886 0.28322 3.4524-0.87424 3.1102 0.73714 0.9459 4.2921-3.5066 1.9106-6.0249 1.9464-2.9412-0.86567-7.6522 2.5574-9.3602-0.31381 0.15926-3.428-5.8484-2.0828-4.7775 1.1782-1.4989 2.5177-0.98875 8.4842 3.1103 6.9424 1.6468-3.1856 0.53229 5.5618 1.3624 1.3411 0.37763-1.678-0.40404-6.579 1.866-3.9738 2.1808-1.9909 5.2655 1.4789 8.4156 0.3413 3.5416 1.2671 1.6209-2.6117 4.6141-2.6498 1.4751 2.3235 0.61201 6.7513 4.977 5.7027 2.4616-0.01855 1.5629-4.3048 4.8088-3.7086 0.41612-0.91045 2.0208 1.8675 1.8505-0.59249-0.14753-1.247 1.644 3.2777-0.48084 3.1918 1.9462 0.90643 6.1042 1.6733 9.0667 0.98526 3.3988 0.10935 7.0163 0.7527 10.122 1.6569-1.332 0.39997 1.1865 2.1469-0.84328 0.73244-2.2445 0.13254 2.2244 3.2986 3.821 3.3198-2.1155 0.42042-3.3986 0.22625-4.3047-0.27352-1.4059 0.59065-6.41-2.1569-3.293 0.25277 2.0317 1.6778-1.7486 1.5665-2.5781-0.0075-0.89194-0.49218-0.59947 2.6448-2.5262 1.6429-1.7142 1.2795-0.67387 0.43503-1.465-0.31992 0.51791 1.0287-2.8229 1.6991-0.83634 2.1242-2.951 0.63101 1.4737 0.40852 0.3723 2.6252 0.57104 2.1764-3.8323 0.37354-1.0463 2.2524-2.3664 1.254-3.5474 0.95015-6.9463 1.5299-2.3422 0.82873-2.191-1.3854-3.9356 0.45687-2.3147 0.51989-6.7448 1.3406-7.9719 0.64058 0.16744-1.8774-1.2294 1.0195-1.0495-1.4514-0.86239-0.2077-5.541 2.2646-1.8991 1.6813 1.04 0.0733 3.9334-0.06014 1.425 0.40863-2.676 0.57188-5.3552 2.2069-7.9844 0.5346-3.0704 0.47805-2.4867-2.7199-1.8137-3.0396-2.4615-2.9357-2.1512 4.5248-1.0429 5.4964 5.1227 0.44202 10.299 0.16682 15.398-0.26651 3.8035 1.1733 6.0337-2.1166 9.4839-0.76155 2.0992-0.42832 6.482 1.0735 2.1501 1.6891-0.42292 0.57174 4.3666 0.48839 1.3077 0.99834-2.9237-0.71403-3.198 5.364-3.608 4.6726-0.28943-2.679-4.88 0.81068-4.2962-3.0601-0.48971-2.5372-2.013-3.2039-4.1678-2.7462-0.70977-1.2152-2.4363 4.0479-2.305 0.46619-1.0675-1.6934-1 2.1046 0.22003 2.3383 0.42655 2.7622-1.3065 6.2442-3.1311 2.159-0.35742-1.596-2.1788-0.75125-3.3875-0.92788-2.3677-0.154-5.5008 0.08901-6.3792 1.3477 0.29634-2.5675-4.3037 0.54612-2.9722-2.7386 0.24595-2.5015-0.48652-2.1232-0.78915-1.0041 0.89378-2.5246-2.6289 0.07973-1.034-1.4839-4.4323-0.17339-2.0631 6.0393-4.1567 7.7312-0.98529 0.01705-1.9556-0.19146-2.9286-0.30078zm36.517-8.317c-0.13989-0.81825-4.4114 0.95472-0.73003 0.27681l0.73003-0.27675zm-20.175-3.7043c-1.3158-2.6483 3.9029-0.75108 2.52-3.9595-0.01248-1.9749 0.37415 1.3761 0.55435 1.9724 0.19689 0.64576 0.16832-2.7726 0.33852-2.6076 0.59666 4.5018 0.86134-1.6272 0.42148-3.3332-2.671-0.62767-1.3714 3.6326-2.1894 5.9212-1.0363-2.3044 1.4824-7.4324-3.0336-6.5529-2.5524-0.4912-0.02074 3.2077-1.4583 4.3379-0.43546 1.5617-1.2354 3.2148 1.4026 3.0431-2.2756-1.7395 2.453 0.23707-0.051 1.1212-0.60086 0.18615-5.3045 0.45735-3.2507 0.48676 1.3986-0.17738 4.2538 0.62484 4.7461-0.42942zm-1.4876-4.7622c1.6092-1.5171 4.0173 0.36088 0.79333 0.48215-0.37506-0.05819-2.1447 0.39433-0.79333-0.48215zm-0.58636-1.6535c0.46414-1.5054 0.21591 1.7622 0 0zm-9.3164 6.1677c-1.7823-1.531-2.5386 1.7609 0 0zm-11.038-0.57834c0.63955-2.1599-1.3428-5.5454 0.20632-8.2002-3.3224-0.70345-8.0486-1.2827-6.7655 3.4993-0.05193 1.601-0.09684 3.2022-0.14581 4.8033 2.3495-0.72288 4.2334 0.86013 6.705-0.10232zm18.147 0.33921c-1.6536-0.36663-0.82017 0.72489 0 0zm20.314-1.3078c1.3751 0.24618 7.3086 0.86912 6.281-3.0744 1.9527-4.237-5.3739-1.9177-6.1657-4.6577-1.7298-0.27445-6.86-0.25645-2.2973 0.6337 2.1598-0.45189 4.8817 3.2598 1.4722 1.2242-0.49037-1.0299-6.0546 0.41036-3.3476 0.23858 4.2608 0.66366-4.7191 0.06881-2.75 3.0307 1.6897 2.122 2.7131 4.9835 6.2749 2.879l0.53255-0.27394zm-28.62-0.16123c1.1899-1.0821 3.4561 0.4985 2.6406-2.1638v-3.9066c-1.9642 0.86797-3.7014-1.1674-5.1222-0.95693-1.3193 1.011-8.3309 0.23351-5.1021 2.3289 3.1611-1.0362 3.719 3.9909 0.73686 2.1777-3.0678-0.63354-2.0324 2.2175 0.81616 2.0916 1.7567 0.49569 4.5647 2.2758 6.0307 0.42912zm-0.13536-2.6455c-0.04725-2.5549 0.58802 0.77247 0.05256 0.99624l-0.03836-0.37499zm19.897 3.1708c-0.6425-0.78606-1.4786 1.224 0 0zm-39.249-1.671c0.99306-1.6926-1.0341-1.0429-0.01575-3.3494-1.3226-1.91-4.382 3.9932-1.062 1.7306-0.06768 0.47659 0.28784 2.9072 1.0777 1.6188zm0.54185-2.7614c-0.80983-0.36256 0.32484 1.7527 0 0zm9.4902-0.79158c-0.80988-0.36248 0.32487 1.7527 0 0zm16.615-0.29129c-1.3802-1.9908-3.0888 0.94501 0 0zm-35.464-0.90818c-2.3527-1.3168-2.9595 1.4598 0 0zm8.665 0.08631c-1.111-1.595-0.97238 1.541 0 0zm10.185-0.46999c-0.80988-0.36254 0.32486 1.7527 0 0zm45.794 0.2721c-1.038-2.0981-0.41804 1.8172 0 0zm-28.539-0.59367c1.6319-0.49566 3.6627-0.6486 0.74078-1.1201-2.2565-1.0126-0.83218 0.69798-1.3597 0.92224-1.137-0.06702 0.2786 1.2082 0.61892 0.1979zm11.269-0.25458c0.27945-2.0088-7.1401-0.13418-2.4603-0.0365 0.77788 0.43319 1.7462 0.89835 2.4603 0.0365zm-19.427-0.38033c-1.6535-0.36664-0.82031 0.72489 0 0zm42.256-0.92136c2.4324-1.0244-1.9471-1.7802-2.3781-1.8353 2.6102-0.14076-0.54138 3.6128 1.9778 2.1322l0.40026-0.29692zm-28.659-0.49687c-0.80988-0.36236 0.32486 1.7526 0 0zm-36.504-1.1131c-0.23346-3.9688-0.87542 3.7328 0 0zm52.149-0.30226c-0.0062-2.0612-2.3489-2.1993-1.2156 0.26196-0.44012 1.2014-2.2946 0.23871 0.02838 1.1036 0.90891 0.2311 1.209-0.72561 1.1872-1.3655zm-9.6041 0.38468c0.67531-1.9612-2.3498-1.9505-4.6724-1.7234-2.4021-0.0558 3.2481 2.4801 4.3899 1.4404l0.28252 0.28299zm-42.513-2.4577c-0.10371-2.0147-0.93241 2.3441 0 0zm51.87-2.3742c-0.84958-5.5489-0.93401 5.3083 0 0zm-9.9028 28.737c1.3619-1.2332 2.0692 0.82107 0 0zm9.0776-0.24024c2.1549-1.6701 1.6679 1.454 0 0zm-44.021-3.1565c1.8556-4.5296-3.9903-4.3041-7.0058-4.3053-3.2834 1.1131-2.9298-3.0506-0.13724-1.2454 4.122 0.92107 8.5448-0.13538 12.653 0.74405-1.2145 1.8031 1.0543 3.7904-0.41065 5.7777-2.006-0.29823-4.9133-0.97597-4.7904 1.7897-0.33033-0.88166-0.35695-1.8356-0.30842-2.7608zm-12.84-7.1586c-1.8854-3.0331 4.6145-2.9811 5.2579-1.8222 0.10261 1.4808 0.44616 3.2832-1.7095 2.6385-1.1816-0.082723-2.7931 0.30205-3.5484-0.81633zm1.8717-0.21436c-1.6534-0.36664-0.82031 0.7249 0 0zm49.007-0.15666c-0.45654-0.95261 9.0315-0.0075 3.4809 0.33964-1.1669-9e-3 -2.3419-0.08227-3.4809-0.33964zm22.582-0.66058c-0.42888-2.0315 4.9658-1.7796 1.3099-0.04652-0.35962 0.33333-0.91627 0.25599-1.3099 0.04652zm5.6819-0.13104c1.6558-1.3767 2.678 1.3519 0.08328 0.15367zm9.6965-1.9789c0.01825-1.5925 1.4878 1.483 0 0zm-19.695-0.46247c2.6864-1.1622-0.29119 1.1541 0 0zm8.9668-1.5165c1.246-1.321 0.11306 1.3791 0 0zm14.856-6.2669c-0.82493-1.7056 2.1447 2.1651 0 0zm-1.6676-1.1228c-1.317 0.22909-3.0373-1.3238-3.2815-1.7452 0.74036-0.18283 6.1002 2.8563 3.2815 1.7452zm-6.9444-1.2186c-0.08421-0.76066-3.5514 0.55983-1.4322-1.319-0.09981-1.2155-2.3622-0.73855-1.1315 0.4039-1.4177-0.49521 0.03478 2.4348-1.3476 0.03635 0.06051-2.4655 2.9919-1.4672 4.372-0.45005-3.398-1.0666 2.2828 2.5011-0.46082 1.3288zm-49.362-10.229c0.32709-2.1273 3.9184 0.52235 0.82522 0.7454-0.56469 0.29411-0.95355-0.24817-0.82522-0.7454zm22.281-0.11847c1.586-2.1677 2.5727 1.5467 0 0zm0.06784-1.575c-0.19288-2.1331-1.6771-3.9612-4.4752-3.2221-3.028 0.5149-2.1726-1.6573 0.41526-0.75644 3.0097 0.22034 2.3394 0.86263 5.0309 1.7183 0.99008 0.6083 0.91513 2.8662-0.97093 2.2602zm4.7269-1.156c-0.04725-2.5549 0.58802 0.77247 0.05255 0.99624l-0.03836-0.37499zm-42.944 0.34127c0.48202-2.0349 4.664 0.40018 0.75528 0.353l-0.4581-0.10546z" fill="#380000"/>
 </g>
</svg>
