<?xml version="1.0" encoding="UTF-8"?>
<!-- Created with Inkscape (http://www.inkscape.org/) -->
<svg width="100mm" height="65mm" version="1.1" viewBox="0 0 100 65" xmlns="http://www.w3.org/2000/svg">
 <g stroke-width=".62838">
  <path id="color-primary" d="m15.825 62.324c0-0.34561-1.5379-0.62838-3.4176-0.62838h-3.4176l-0.33002-2.6706c-0.18152-1.4689-0.44723-5.1452-0.59049-8.1697-0.14326-3.0245-0.5613-5.8615-0.92897-6.3045-0.36768-0.44301-1.589-0.87564-2.7141-0.96135-1.1251-0.085738-2.1217-0.23204-2.2146-0.32488-0.092958-0.092862-0.31286-1.8883-0.48868-3.9896l-0.31968-3.8206 2.0267-0.40845c1.4829-0.29885 1.7914-0.55499 1.1497-0.95461-0.49205-0.3064-0.7042-0.9966-0.48329-1.5723 0.27448-0.71528-0.078498-1.2056-1.1652-1.6188-1.4172-0.53884-1.559-0.93069-1.559-4.3105 0-3.4594 0.11115-3.7456 1.5999-4.1193 0.87992-0.22088 1.8501-0.2469 2.1559-0.05795 0.59025 0.3648 1.3988-0.62961 1.7809-2.1904 0.12694-0.51844 0.46531-4.3359 0.75194-8.4832 0.28663-4.1473 0.54419-7.6113 0.57236-7.6977 0.02817-0.08645 1.6065-0.15699 3.5073-0.15699 2.5052 0 3.4561-0.23655 3.4561-0.85973 0-0.64681 1.2451-0.88633 5.0271-0.96705 4.0992-0.0874 5.0271 0.066737 5.0271 0.83609 0 0.7813 0.7018 0.87787 4.0845 0.56197 2.976-0.2779 4.0845-0.17622 4.0845 0.37492 0 0.416 0.24952 0.60213 0.55449 0.41365 1.1028-0.68155 37.09-0.43562 38.394 0.26239 1.4701 0.78679 1.682 1.8913 0.36273 1.8913-1.6569 0-1.707 1.2503-0.07481 1.8708 0.88483 0.33642 1.6088 1.0428 1.6088 1.5698 0 0.52699-0.07077 0.97824-0.15699 1.0028-0.55378 0.15746-12.233 1.3282-15.867 1.5906-6.3342 0.45733-6.4494 0.76867-0.31419 0.84916l5.3413 0.07006 0.95632 2.049 0.95632 2.049c0.23085 0.87443 3.0282 1.6354 3.7492 1.8081 3.7982 0.90224 7.6128 1.7809 8.4768 1.9526 5.0761 1.0086 10.781 2.9174 16.997 5.6864 3.2305 1.4392 3.498 1.7204 3.6398 3.8267 0.0844 1.2504 0.31096 2.5288 0.50391 2.841 0.19285 0.31217-0.31391 0.74074-1.1263 0.95235-0.8124 0.21161-3.1915 1.2934-5.2869 2.4041-2.0954 1.1106-6.6198 2.9073-10.054 3.9927-3.4344 1.0853-6.6685 2.148-7.1869 2.3614-1.4403 0.59299-2.7424 0.74592-3.9274 1.0132-1.5108 0.34081-2.4771 1.0733-2.9675 1.4052-1.15 0.72794-1.5839 1.3809-2.6781 2.4837-0.94504 0.95242-1.584 1.9488-1.42 2.2142 0.16411 0.26543-2.1026 0.33281-5.0369 0.14986-2.9516-0.18406-5.3352-0.08265-5.3352 0.22705 0 0.30792 1.7673 0.56976 3.9274 0.58185 7.3935 0.04133 14.61 0.49455 16.024 1.0062 1.9469 0.7045 1.7745 2.2008-0.31419 2.727l-1.7281 0.43531 1.4139 1.1474c3.5128 2.8507 1.0147 3.3041-21.522 3.9063-25.282 0.67554-24.821 0.64593-24.821 1.5954 0 0.56679-1.4872 0.78548-5.3413 0.78548-3.1419 0-5.3413-0.25873-5.3413-0.62838z" fill="#400"/>
  <path id="color-darker" d="m15.825 62.28c3.1953-0.807 7.3877-0.79769 10.488-0.51089-1.5895 1.7677-7.0865 0.83258-10.128 0.7947l-0.26923-0.13324zm11.417-1.5678c1.0157-1.3796 5.6004 0.0014 1.9222 0.24094-0.64071-0.03824-1.3195 0.04133-1.9222-0.24094zm15.132-0.74354c5.9556-0.10331 11.918-0.15152 17.87 0.07624-6.5667 0.18596-13.15 0.18596-19.717 0 0.61408-0.05367 1.2309-0.05605 1.8465-0.07624zm-33.762-3.7456c-0.51062-2.049 0.95864-4.9509 0.92898-1.1481-0.36871 1.7685 0.19294 2.6357 2.0555 2.2423 3.6088 0.114 7.2176 0.22824 10.826 0.34236-4.5098 0.25726-8.5242-0.22278-12.913 0.91076-0.67876 1.1684-0.78431-2.0815-0.89773-2.3473zm19.781 2.3299c-1.7003-1.7232 4.6708 1.2978 0.94258 0.42004l-0.50222-0.1862zm41.642 0.19285c3.8309-0.45275 0.25334 0.97539 0 4.75e-4zm-35.987-1.8069c3.1022-1.9531 7.8773-0.40118 11.584-0.86217 2.2475 0.42729 7.0276-0.65486 7.8246-0.07885-0.66863 3.6065-6.7327 1.1725-9.6012 1.9255-3.0315-0.39368-7.3843 0.79935-9.8072-0.98456zm29.704-0.10141c2.0743-0.72689 2.8607-1.919 5.49-0.76698 1.9447-0.04441 4.287 1.3749 0.79658 1.1048-1.629-0.0304-6.3974 0.19926-6.2866-0.33784zm-33.475-1.4266c-2.0166-0.34449-2.5687-0.56698-0.19428-0.54558 1.5386-0.66004 4.0891 1.8944 1.0635 0.73193l-0.8693-0.1862zm-13.611-1.534c0.52835-2.1343-4.9875 1.4372-2.951-1.6334 1.4275-0.22206 3.9395-0.87566 1.0339-1.7267 2.5283 0.47403 5.1049 0.59615 7.6737 0.67381-1.0145 0.41109-5.4713 0.37323-3.5008 1.3968 0.21848 0.65733-3.1169 3.1228-2.2558 1.2895zm17.483-0.72456c2.6618-2.3691 7.4711-0.39769 10.933-0.91894 2.3102-0.31134 7.1492 0.90385 7.6252-1.6852-1.4454 1.5142-4.3052-0.31284-1.1011-0.2849 3.1515-2.7178 7.2203-4.1273 11.375-4.2897 1.8001 0.12112 2.1966-0.14345 1.6663-0.87462 1.7211 0.03943 4.6283-0.98527 2.2303 1.0064-3.7018-0.23816-3.3138 1.4777-0.86051 0.74012-1.8484 1.0415-1.3169 3.8704-3.4728 3.7883-2.5646 0.57988-7.7236-1.4861-8.8273 0.74423 4.8116-0.41339 9.8159-0.11851 14.598 0.70616-1.8332 1.3756 7.2554 0.59938 2.051 1.4932-4.1584 0.5059-8.0715-0.71172-12.04-1.3747-4.0129-0.29146-7.4926 2.052-11.585 1.6297-4.0451 0.10308-8.1204 0.58112-12.153 0.18121-0.43163-0.02684-0.57102-0.52896-0.43914-0.86136zm39.358 0.5001c0.17432-2.1049 1.7276 1.9764 0 0zm-50.369-2.3261c2.9533-1.7446 3.0441-7.3384 1.5614-9.3186 0.12134 2.2138-0.47422 2.225-1.1703 0.26291-0.60045 3.5444-6.126 0.23465-8.8883 1.2057-1.8251 0.59004-6.916-1.0864-2.5614-1.6673 2.8385-1.1188 8.9045 1.6441 9.4263-2.1115 0.24376-1.8813 0.44415-3.7678 0.66393-5.652-3.6544 0.0893-7.3448-0.2375-10.967 0.30141-3.1223 1.4058 0.0074 6.065-2.8457 7.4804 0.30917 4.7405-1.2334-0.61342-0.8605-2.5395 0.01116-2.5345-0.26166 0.89865-0.41086 1.7343 0.26798 4.8088-5.4344 2.1347-4.6799-1.5063-1.1944-2.827 0.84647-3.4647 2.9036-5.0442-0.49985-1.614-0.01805-3.8582-3.5019-4.2778-0.45525-3.4411 0.14452-7.578 4.5409-7.7149 1.1454-2.4675 0.5592-6.4421 5.0531-6.5456 3.4578-0.47973-0.12027-2.3101-0.60439-2.4778 2.6219 0.36133 2.1888-3.9898 3.38-1.4499 2.1491 0.16388 2.2454-1.5235 3.706-0.43066 1.8305-3.3093 1.0306 2.0669-1.475 0.91715 0.12901 1.1745 4.0782 0.39902 3.6342-1.6374-0.7807 2.8899 2.0092 0.37432 1.8355 1.0401 2.794 1.4356 7.4814 0.86286 10.885 0.2792 1.6361-2.4971 4.997-1.1244 7.582-1.5447 2.7509 0.01425 0.1653-0.19784-1.1668-0.35637-5.075-0.51825 1.9607-0.57791 3.8241-0.49863 2.1246 0.21612 8.1251-0.30754 8.1937 0.89768-2.4216 0.21921-3.2377 0.56112-0.35955 0.58002 2.4415 0.31212 8.9896-0.7827 9.1899 0.83674-1.6396 0.43208-8.6501 0.90822-3.6976 1.075 2.3129 0.06484 4.626 0.12374 6.939 0.18572 0.63754 1.366 1.2751 2.732 1.9126 4.098-1.46-0.38024-5.3126-0.48695-1.6839 0.41962 4.1174 1.2571 8.5762 1.6394 12.526 3.2537-3.5179 0.24842-7.3297-0.8725-10.923-1.397-1.6839-0.73642-7.7869-0.3785-5.2887-3.2733-1.6823 2.3173-3.7124-0.31215-3.8067-0.22064-2.2767 0.90055-5.8487-3.7276-4.3322-3.4501-1.9329-0.94648-1.9371 1.6213-3.6735 2.3828-0.45023 2.3346 2.0969 4.9378 3.1202 2.1338 2.5681-0.64747 4.9335 0.48571 7.2345 1.3431-1.1764 2.8202 5.8881 3.5572 5.2682 7.2178 0.90602 1.9293-1.7253 1.5671-0.15699 4.0713 0.27099 3.5316-0.15414 7.7449-1.9404 10.921-2.2594 3.2849-5.9188 4.5603-9.21 5.8821-0.84353 2.6023-2.3018 3.2519-4.2489 1.2168-4.5282-1.1421 7.4765-3.2237 2.3155-6.4784-3.42-3.9472 6.1062-5.0773 3.8301-0.4778 0.84586 1.1488 0.78995 2.8476 1.8908 3.6689 1.3475-1.6119 1.244-3.9096 3.5412-4.6816 0.04845-2.1204-0.54905-4.5574 2.406-4.4148 1.425-2.5831-0.98484-3.0521-2.0837-4.1954 3.0999-0.29994 2.848-3.7529 0.1235-4.7101 0.0532-2.1143-1.2017-6.0174-1.9579-1.6703 1.1486-3.4879-5.9391-6.1059-3.8371-1.1046 2.3724 4.1919-4.1002-0.5937-4.8066 1.0169-0.08788-2.2074 2.2853-6.1012-1.9138-4.3466-3.8581 0.52421-10.639 0.16126-8.6293 6.1065 0.36915 1.101-0.50749 3.5596 1.3994 2.9849 2.4072 0.09666 4.9244-0.29203 7.233 0.46232 1.1601 1.9038 1.2545 4.8822-2.2212 3.9344-2.1741-1.0121-8.7367 1.7555-4.9998 3.7723 1.8242 0.14701 3.7884 0.10474 0.91827 0.55387-3.9541 0.84132-1.2846 4.2129 1.5601 3.4155 1.7171 0.28683 7.5766 0.32017 4.1191 1.4455 3.169 1.3766-3.4734 0.32775-4.2415 1.5937-2.3795 0.54259-5.3986 2.6988-1.0659 2.8808 0.8921 2.2124-2.4049-0.33744-2.4237 1.1073-3.8057-1.6601-8.2736-0.6047-12.298-0.23394-0.29783 1.2949 6.0406 2.0798 7.1231 2.511 2.4738-1.77-1.0053 2.1415-2.6632 1.1286-2.5849-0.019-6.2576 0.79185-8.2464-0.89124zm5.6732-4.9012c-2.7829-3.4479-2.9936 3.1436 0 0zm-0.26183-2.113c-3.3787-0.40601-1.068 0.93535 0 0zm24.794-4.1323c-0.70141-0.91965-0.05201 5.1032 0.10878 1.3246l-0.02565-0.68656-0.08407-0.63802zm-16.217 1.4752c0.57734-6.0646-5.2167-1.0491-8.5348-2.9982 1.81-1.4597 9.001 0.39601 6.0468-3.9827-1.3337 1.5078-4.2221 0.64351-6.3049 0.77363-1.9883-0.6531-0.9486 1.8051-1.1986 2.938v4.5228c3.2695-0.23512 6.6869 0.24655 9.8257-0.73594l0.13894-0.23156 0.02684-0.28597zm-32.84-2.7296c-2.9043-1.6837-0.082793 3.8014 0.29025 0.25479l-0.29025-0.25479zm3.3686-6.5924c-0.71473-3.9546-1.7562 5.3323-0.05187 0.66828zm14.401-5.985c0.16834-3.2213 0.05854-7.5184-4.1597-5.0373-2.4828 0.1368-6.8074-3.18-8.3783 0.54485 0.01354 2.8085 0.53147 5.5855 0.81998 8.3749 3.8851 0.16886 7.7806 0.19736 11.655 0.54281 0.22434-1.4526 0.05398-2.96 0.06343-4.4253zm-7.0178-4.0678c2.0037-0.40211 6.8685 0.28866 2.0423 0.25344-0.06449 0.02137-3.854-0.0304-2.0423-0.25344zm18.665 6.6376c3.4949-1.7591 0.08004-3.6861-2.3252-2.6898-4.7234-0.41451 5.7654-2.8163 4.7279 1.0626 0.12588 1.8894 1.2115-6.2689 0.5016-6.1558-3.0907 0.75834-6.3167 0.38603-9.4728 0.45847 0.08857 2.5411-0.26448 5.1625 0.41892 7.6345 1.8796 0.83018 4.2695 0.31972 6.1496-0.30994zm1.6502-5.2928c0.67286-2.3816 0.32305 2.8076 0 0zm-28.526 3.3906c-1.0426-0.62028 0.38095 2.9635 0 0zm-2.4846-0.26182c-2.3151-0.70697-0.97678 1.1389 0 0zm48.556-5.59c-1.1652-2.526-2.2956 0.79401-0.03088 0.64398l0.03088-0.64389zm-28.462-3.6132c-0.68712-0.4341-0.0018 5.7091 0.11234 1.4139l-0.02807-0.75333zm9.1584-0.3021c-1.6578-0.33169-9.2812 0.13015-4.0786 0.2318 0.75549-0.03895 5.5582 0.13015 4.0786-0.2318zm12.119-3.1141c-0.598-1.5714-7.5865 0.15865-3.5519-1.4879 2.1859-0.15295 3.109-0.44698 0.29507-0.39449-1.3526 0.0047-5.1305-0.21898-3.0222 0.97166-2.4204-0.3896-2.0511 4.75 0.22111 2.2127 2.0277-0.1197 1.411 1.5625 3.7488-0.09025 2.2782-1.0504 2.3292 3.4607 2.4898-0.18121l-0.057-0.55774-0.12374-0.47262zm-24.235 1.6696c-4.0829-1.8411 3.4743-0.0931 1.2145-1.7408-2.4865-0.67531-5.4015 1.5358-7.237 0.82479 1.408 1.1638 4.4742 1.9783 6.0225 0.91601zm20.149 34.943c-0.81736-0.88369 2.7474-0.62847 2.2192-1.7718-0.42232 2.3656 4.929 1.6011 1.4076 2.6473-1.2218-0.0019-2.6513-0.03396-3.6269-0.87552zm27.546-12.46c-1.7741-2.2013 2.0845-5.181 1.7336-1.8908-1.5362 0.25066-0.94314 2.1606-1.7336 1.8908zm1.3191-2.3565c-0.63287-1.9739-1.528 2.2202 0 0zm11.361-0.99494c0.67281-2.3816 0.3231 2.8075 0 0zm-8.1331-1.0473c0.1064-3.9692 3.69-4.0618 7.1409-2.6849 1.603 0.23465 3.527 1.1591 0.47894 1.0058-2.6733-0.26695-7.2031 0.25094-7.5659 2.4855l-0.05391-0.80629zm-24.593-2.1413c-1.5706-5.56 10.419-0.68863 4.8699 1.9342-2.1635 0.28569-5.633 1.9737-4.8699-1.9342zm5.6555-0.21518c-2.6078-2.5406-1.9216 1.5422 0 0zm31 1.5709c1.256-2.6077 1.9385 1.0173 0.03895 0.66571zm11.73-1.5195c-0.33064-1.1574-0.63384-4.9582 0.41734-1.8479 0.4233 0.85935-0.0855 4.8463-0.41734 1.8479zm-11.939-1.2463c1.4849-3.1324 2.4206 0.13751 0 0zm-17.545-0.84735c0.739-3.4009 3.098 2.5124 0.76798-0.2993-0.37568 0.12112-0.75423 1.8508-0.76798 0.2993zm17.702-1.5158c-3.4675-5.3949 6.473 1.7802 0 0zm-17.123-1.1548c2.3581-2.7239 1.3518 1.6455-0.42921 0.76162l0.07909-0.28771 0.35029-0.47391zm23.407-0.10189c-2.4086-0.50597-3.3923-2.4674-0.29569-1.0235 1.6468 0.43006 6.1161 2.9733 1.8831 1.5618l-0.73924-0.24408zm-10.454-0.32718c3.6034-1.0674 0.05154 1.875 0 0zm-3.9985-0.95689c-1.0863-0.56107-4.2605-3.447 2.1519-3.6017 2.4892 1.1543 7.2519 1.2738 8.4281 3.0392-2.6959-0.54385-5.1312-0.77349-7.3387-1.2715-2.4801-2.2071 2.6227 3.6347-1.5945 2.1035l-0.75506-0.10949-0.89181-0.16008zm-69.136-11.746c-0.40632 0-0.54749-6.324-0.07797-6.782 0.32988 2.4563 2.1024 6.5509 0.7553 8.2686-0.22577-0.49552-0.45154-0.99104-0.67732-1.4866zm61.281-3.3083c3.3787-0.40601 1.068 0.93534 0 0zm-40.845-0.65569c1.7392-0.048925 3.7487-4.0542 2.892-0.81356-0.04014 1.397-5.5886 1.3623-2.892 0.81356zm32.205-0.51236c0.7827-3.5762 7.7473 1.1685 2.3378 0.45669-0.70136-0.03325-2.1559 0.69742-2.3378-0.45669zm11.859-0.14392c-1.8068-2.4808 3.1775 2.6421 0.35359 0.42695l-0.35359-0.42698zm-2.0933-0.11519c-3.0752-0.80199-6.0883-1.0537-8.9876-2.3212 3.8104-0.85507 5.0868 1.6787 8.8756 0.85642 0.04608 0.71568 1.979 2.334 0.1121 1.4648zm-44.187-1.5674c1.3687-3.9894 0.53901 4.5904 1e-5 0zm6.641 1.1008c0.4422-2.967 5.7039-1.1495 8.3862-1.6092 3.0755 0.31856 8.938-0.41444 10.274 1.0105-0.45788 1.6915-6.3621 0.56428-9.1029 0.9244-3.1808-0.069825-6.4088 0.11923-9.5572-0.32568zm-4.5014-2.8475c-1.3006-0.59515-6.1233-0.61731-2.0697-1.7724 2.5561-1.2723 9.9512-0.48564 4.5259 1.9404-1.1283-1.2072-1.9837-0.45548-0.50528 0.39442-0.45626-6.413e-4 -2.0017 0.25215-1.9509-0.56245zm22.07 0.34264c3.3788-0.40603 1.068 0.93544 0 0zm-42.573-1.1548c1.4789-1.8966 3.2767 0.18905 0.35908 0.94259l-0.2536-0.27688zm28.864 0.35302c0.74007-1.1156-3.4276-0.82952 0.17242-1.0442 5.2087-0.073387 10.474-0.44042 15.652 0.19784-2.1848 0.62339-4.3853 1.1005-6.3579 0.77066-2.7385 0.96237-7.1326 0.97033-9.4671 0.076zm5.8625-0.48115c-1.53-0.44249-5.3796 0.30702-1.7367 0.26168 0.08241 0.00713 2.8913 0.00237 1.7367-0.26168zm18.855 0.63526c3.8309-0.45277 0.25327 0.97544 0 4.513e-4zm8.3141-0.19285c1.7276-1.9764 0.17409 2.1049 0 0zm-50.271-0.62847c0.17418-2.1049 1.7276 1.9764 0 0zm-4.294-0.41893c-1.6797-3.1264 6.3016-0.7709 1.8296 0.41893-0.62712-0.016625-1.2818-0.070538-1.8296-0.41893zm45.924-0.024462c2.3349-0.4716 4.3133 0.47258 0.87471 0.26676-0.18264 0.0095-1.9187-0.068638-0.87471-0.26676zm-38.995-0.58677c-0.88766-2.7702 3.5012-0.62429 1.6614-0.06935-1.7699-2.4917-0.42818 1.4098-1.6614 0.069587z" fill="#370000"/>
 </g>
</svg>
