<?xml version="1.0" encoding="UTF-8"?>
<!-- Created with Inkscape (http://www.inkscape.org/) -->
<svg width="100mm" height="50mm" version="1.1" viewBox="0 0 100 50" xmlns="http://www.w3.org/2000/svg">
 <g stroke-width=".26458">
  <path id="color-brighter" d="m14.215 49.003c-1.5053 0.36014-2.0765-0.65489-2.4731-1.9271-1.3026-1.625-0.84247-5.0616-3.4512-5.0029-1.1345-0.27844-0.23962-2.3044-0.52452-3.3144 0.72179-3.3698-2.5472-4.8191-1.3824-8.3399-0.072662-1.6403 2.6768-1.5795-0.072796-2.0129-1.0651-2.1894-0.96321-6.7178 1.6075-6.9067-2.7797-1.1307-1.3191-5.5955 0.12125-7.2309 0.82285-1.692-0.72875-5.2573 0.74346-5.9927 2.6152 0.099333 2.3419-3.512 3.6758-5.1487 0.41694-1.2769 0.98964-2.3007 2.4976-1.8042 3.9999 0.086593 7.9993 0.19777 11.999 0.30208 0.17787 2.4287 2.4046 2.9058 4.5126 2.7163 0.60214 0.60352 0.1584 2.2489 0.3657 3.2457-0.55798 1.671 2.4548 0.30094 1.8616 1.9629 0.55599 2.2801-1.2023 2.7135-2.8761 2.5455 1.6123 2.1264-0.6457 6.4643 3.5997 5.7281 3.0389 0.32717 6.1629 0.35112 9.1549 0.1662 0.19387-2.4982 1.0905-6.6845 4.2964-5.337 3.9612-1.5795 8.3533-1.1842 12.529-1.264 3.8069 0.27206 7.2261 1.8257 11.007 2.2566 3.4825 1.3849 7.0414 2.8334 10.179 4.8933 3.0331 1.289 6.3591 2.3677 9.3283 4.039 1.4892 0.65641 4.4684 2.408 3.4997 4.2444-1.6739 2.9465-5.4717 3.3977-8.2596 4.8736-3.7204 0.84255-6.2285 3.3908-9.9986 4.3861-3.09 1.8185-6.6008 2.6525-10.158 2.823-5.0838 2.1975-10.732 1.1336-16.028 0.5882-2.4431-1.563-5.8938 0.35378-6.0786-3.6467-0.15304-1.8903-0.72343-3.7528-2.1849-1.7381-2.8727 0.93725-4.7566-2.7633-7.3395 0.08963-1.3683 1.2011-3.9157-0.38553-2.9529 2.4555-2.1117 2.6177 0.76259 1.5825 1.6385 2.4981-0.10924 0.96884 0.40231 2.6361-0.05901 3.2088-1.6442-0.73135-1.8253 0.30304-1.655 1.7616 0.84054 4.0952-5.1361 0.89693-4.9973 5.015-3.95 0.10621-8.1155-0.03735-12.125-0.1334z" fill="#430000"/>
  <path id="color-primary" d="m20.049 1.4009c-2.2603-0.01982-4.5157 0.13996-6.7717 0.25528-1.0113 2.1854-2.3105 4.4071-2.8513 6.6487-1.9621-0.23422 1.09 1.5858-0.023 3.1214 0.60592 1.9848-2.574 1.6256-2.0389 0.60611 0.92016 2.7895-2.7326 3.514-1.2248 6.1848 0.38985-2.0179 1.8879-0.17895 0.3484 0.45656 1.9167-0.19818 3.7398 0.57272 0.67521 0.41383-2.254-0.08267-0.29169 0.17209 0.83486 0.36095 0.46118 0.15592-3.403 0.06833-1.8434 0.29522 2.5954 0.51004 0.45006-0.28875-0.33163 0.79057 1.783 1.1987 1.0188 1.1905-0.45994 2.1344-0.50408 2.8524 1.8525 1.2607 3.629 2.1224 1.7679 1.8891-0.3501 3.8961-1.5584 1.9511-1.2703-0.02649-2.2127-0.0288-0.92363 0.39182-2.3954 0.24096 2.23 0.66202-0.88549 0.66858-1.2259 0.91395 2.7452 0.69182 0.08035 1.5561-0.34323 1.9362-0.21234 2.939 1.1684 2.9013 2.1337 0.13994 4.4464 4.384 4.9201 0.37052-0.91356-0.10672-0.38279-4.2924-0.31514-1.9079 0.23075 3.1296 0.57189-1.243 0.49524-2.2985 0.57177 0.97576 0.40094 5.7773 0.88399 5.9879 0.98505 2.2671-1.7721 0.76424-1.1706 0.01954-0.65936 1.948-3.2741 0.5772-4.8633 0.7451 0.069728 0.98656 0.074129 5.8187 0.77226 2.7713 1.5079 1.7876 5.1277-0.65776 5.6156 2.3255-0.36578 1.2053 3.0199 2.2296 1.9899-0.13701 0.171-0.94884 1.9177-2.1981 1.861-2.5844 0.17925 1.6681-0.26265 5.511-1.0713 3.6133 0.47918 2.7242 2.6075-2.4603 4.403-1.4283 0.78324-3.8382 1.2704 2.5057 2.5588-0.20747 0.45241-1.4649 0.80942-2.8358 1.1821-0.62509 1.5289 0.32077 5.0383-2.2939 4.8277 0.85142-0.94237 0.62981-1.5218 2.8711 0.38787 2.3933-2.3968-0.70959-3.856 6.0783-1.233 3.4534 1.9202-0.17866 2.1787-1.8502 2.1955-3.4985 2.2737 0.81587 1.7748-2.1889 1.4021-3.275-3.7455 0.78441-0.57352-2.4065-1.2279-4.2287 2.2039 0.87967 2.7676-2.2636 3.4405-2.2259 0.17186 1.8542 5.2963 0.04503 2.265 0.04382 1.6559-0.30896 1.2829-0.43845-0.19-0.47201 1.5643-1.4762 2.2519 0.19358 2.2016 0.32373 0.43044-3.5414-0.14411 1.6021 0.64213 1.8219 1.586-0.9259 1.486 0.57946 3.0758-0.94775 1.2345 0.79561 0.96947 4.9606 2.341 5.1506-0.95833-3.514 2.7835-1.5726 4.1634-0.5061 2.9645 1.4054 4.1522-2.7027 6.3798-2.4216 0.21442-2.3708 1.8825 0.4415 2.7881-0.59144 1.5327 1.9176 0.15208-2.3436 2.7602-0.79467 1.3942 2.4148-0.51132-2.3776 1.1536-0.13534-0.10798-2.0121 1.1888 2.6287 1.5996 0.93314 0.19481 2.2012 2.218-2.3086-0.77693-0.85847 1.2292-1.7159 1.7326-1.7403 2.6435-3.4958 1.6322-0.49232 2.3215 2.0283 3.638 0.03617 1.1616 0.58622 3.093 1.7683 3.2653 0.16246 0.52343-2.0361 4.9362-2.1048 3.7374 0.56595-1.5749-0.29996-5.6488 0.65647-1.8961 1.0439 1.7132 0.8967 1.0564-0.62766 2.4222-0.06774 0.48408-0.74133 3.8823-0.93942 0.85984-0.50234 0.27649-0.90817-0.0036-2.1831 0.98141-1.9841 0.78728-0.72078 1.576-1.8388 0.09836-2.7823-0.19154 3.2153-2.8519 1.3801-4.5346 0.69117-2.1264-0.99749-0.70816-1.6562 0.04428-2.4388 0.9521-0.82212 1.719-0.23994 1.2158-0.93651 1.3441-0.47421 3.4039-0.08416 3.8278-0.48563-0.28926-1.712 1.6489 0.38863 0.43426-1.7223 1.1594-0.29518-1.0059 0.09673-0.67417 0.20987-0.49308-3.1703-4.0717-2.6861-6.1969-2.4707-1.0829 0.70856-4.0991 1.2512-3.2174-0.4533-0.85942-1.2884-1.3934-2.3706-1.6242-2.5589-0.75795-1.0693-2.1311 1.6615-1.7234 0.45217 2.0656-1.9061-3.9113-2.1838-1.2253-0.35918-1.0978 1.6756-4.1547-1.1487-3.708-0.30241 1.0249 2.5616-3.2896 2.5359-1.7672-0.0036 2.9015-0.98758-1.2616-2.8664-2.225-0.49756-1.7572 2.2664-1.0987-1.801-2.1584-1.6563-1.5933 1.7366-3.1063-1.0678-2.803-2.205 2.6448-0.60266 6.3477-0.27103 9.3727-0.23118 4.064 0.40622-2.7707-1.1685-4.0099-0.54205-2.6922 0.34026-6.4471-0.40048-8.4546 1.0233 1.4153-0.17017 2.9666 0.95115 0.92538 0.92866-1.8881-0.06008-5.477 3.6707-5.1236 0.33327 0.28122-1.9854-2.151 2.9448-1.958 3.9037-2.7656 1.6278-6.4259 0.39193-9.554 0.52451-3.7468 0.3545-1.9104-4.5838-2.8281-6.1552 1.8418 0.76709 3.8125-3.0256 1.8093-3.3479-2.4326 0.15389 0.10036-3.6387-1.8097-4.2363-2.4442 0.42272-3.7421-0.78538-4.6665-2.6391-2.116-0.28775-4.2658-0.30153-6.3992-0.32021zm7.2667 3.6215c-0.8644 0.4925 1.1892 2.1217 0.01654 2.0645 2.1945 0.29774 1.6578 2.2504 3.0571 4.2631 0.34331 3.7941-4.827-0.2687-6.4178-0.36583-1.8589 1.3545-3.5006-1.168-4.8457-2.1939-2.0867-0.12207-3.6226-1.5102-4.5316 0.13816-1.1028 1.1429-3.4604 0.33661-1.735-0.87266 0.77914-0.87897-2.5848 0.28752-0.8753-1.4114-1.1007-2.0228 3.2574-0.63491 4.0635-1.2924 2.1423 0.50812 5.0095-0.49418 6.6829 0.39559 0.39718-1.0369 3.5136-0.26854 4.5854-0.72521zm-6.8311 0.25528c0.8449 1.1807-0.48792 2.9857 0.71239 0.7673l-0.34238-0.45001zm5.6394 0.085783c-0.27146 0.82897 0.99078 0.9811 0 0zm5.3268 0.060978c0.32002 1.8299-0.28642 1.9877-8e-6 0zm-12.836 0.11731c0.2317 1.6291 1.5522 1.0149 0 0zm6.1867 0.0863c-0.27146 0.82897 0.99078 0.9811 0 0zm-12.448 0.014986c-0.9735 0.4584 0.2127 1.2871 0 0zm9.525 0.26458c-0.9735 0.4584 0.2127 1.2871 0 0zm-5.0478 0.00103c-0.66985 0.63604 1.1694 0.19362 0 0zm1.387 0.25063c-0.87425 0.43216 0.83837 0.43093 0 0zm-2.682 0.011885c0.05464 1.3645 1.1791 1.3691 0 0zm-2.5942 0.42943c-1.0358 0.66747 0.55651 0.7286 0 0zm1.0082 0.027388c-0.06904 0.79212 0.95894 0.85911 0 0zm-0.38447 0.79892c-0.85893-0.011365 0.06307 0.48076 0.21497 0.07183zm4.2333 1.7033c1.52 0.62156 1.0526 5.2398-1.0675 3.2913-1.0612-0.08005-0.48021-3.8068 0.99621-3.112l-0.03094-0.1267zm0.4222 0.60461c-0.38699 1.7805 0.40215 1.2055 0 0zm7.0745 2.1611c1.4522 0.61066-0.89054 0.34556 0 0zm38.995 0.14056c0.66308 1.4357 2.7663 2.2975 4.2967 1.3491 3.924 0.74936 7.3645 2.9232 11.047 4.3367-0.46138-1.0673-2.5993-1.1995-3.6339-1.9754-1.3414-0.68182-3.1623-1.606-4.9361-2.1706-2.2614-0.72504-4.7297-0.36113-6.7732-1.5398zm-18.344 0.77515c0.73624 1.3467 3.1878-0.06058 0.31316-0.23151zm-28.941 0.17157c0.82002 0.3916-1.1514 0.10443 0 0zm-2.6892 1.8355c-1.0027 1.891 0.04163 1.2788 1.3146 2.0872-1.6718 0.61426-2.3219 2.1731-2.6098 4.2871-0.07048 1.1381-0.13125 3.6491-0.16629 1.1015-0.15674-2.7562-0.08518-4.1765-0.08985-6.849 0.69024-0.89516 1.2375 0.63072 1.5513-0.62684zm4.2457 0.27595c-0.0074 1.8195-1.4071-0.06839-0.18345 0.2005zm7.2187 0.76636c0.99676 1.7069-0.5332 8.1739-1.0745 3.5705 0.21068-1.0804-0.63497-3.5445 1.0745-3.5705zm23.806 0c3.4405-0.81806 0.44648 4.5826-0.50784 2.7363 0.84078-1.8719-2.3814-1.3098-0.39378-2.7222l0.3896-0.01175zm-30.31 0.02481c1.5604 0.246 0.08174 2.8472 0.30453 0.45174 0.35657-0.23427-0.6996-0.34122-0.30453-0.45174zm8.9989 0.19895c0.31783 1.201-0.30747 1.46 0 0zm-8.0321 0.54984c1.3975 0.02998 2.795 0.05995 4.1925 0.08992 0.13548 1.595-0.2695 6.1154-0.30902 2.1503-0.15899-4.0536-0.39339 1.0173-0.68078 2.0134l-3.3758 1e-3c0.05745-1.4182 0.11515-2.8364 0.17312-4.2545zm33.926 0.37258c1.2487 0.92778-1.5612 0.75321 0 0zm-44.691 0.29869c0.34903 0.84424-0.33751 1.0585 0 0zm70.957 0.63924c1.5179 2.8504 2.945 1.645 5.1909 2.5719 2.1992 1.377 2.3574 0.39935 0.35035-0.1474-1.8504-0.90579-3.8704-1.1919-5.5412-2.4245zm-59.833 0.25631c-0.38699 1.7805 0.40215 1.2055 0 0zm9.9188 0.30541c0.86516 1.4193-1.0688 1.921 0 0zm-0.91674 0.52917c0.7156 1.7852 0.78816 3.9729-1.8156 3.1743-0.42259-1.0398 0.10596-3.0841 1.8156-3.1743zm16.914 0.57774c0.3539 1.1069-0.27479 2.3116 0 0zm-1.2831 0.05271c1.32 0.70402-0.88995 1.0295 0 0zm3.3161 0.1974c1.8244 0.21554-1.9946 0.42827 0 0zm-1.464 0.05633c1.1495 0.59509-0.73776 0.52118 0 0zm-33.628 0.13332c0.31783 1.201-0.30747 1.46 0 0zm38.394 0.42478c2.4824 0.78507-0.97589 1.6377 0 0zm-21.746 0.09095c0.40396 0.80041-0.33549 1.7317 0 0zm43.601 0.32298c2.0327-1.0369 4.3791 2.3412 1.4793 1.8269-1.6617 0.02866-1.9716-0.0099-1.9173-0.62056 0.17238-0.67762-0.16854-1.0082 0.43799-1.2063zm-17.918 0.26045c3.1855 0.64127-0.71452 4.569 0.79375 6.8838-0.81549 1.6341 2.4694-0.54664 1.3915 2.0912-0.46576 0.44808-1.6075-0.28388-2.3676 0.49276-0.36664-1.1077 0.73614-5.0747 0.17562-4.9778-0.47466 4.1572-0.16527-1.3655 0.05677-3.0104 0.28008-0.69884-1.2708-0.84638-0.05004-1.4796zm1.9311 0c0.47384 2.3566-0.72735 3.1767 0 0zm20.523 0.13074c1.3039 0.71492 0.205 2.4281-0.77919 0.20352 0.33763 0.2132 0.50593-0.0645 0.77919-0.20352zm10.257 0.30386c0.27206 1.4966 4.6071 2.0923 1.9528 1.0439-0.29722-0.50059-1.5099-0.32136-1.9528-1.0439zm-50.732 0.46147c-0.18572 2.0231 0.21238 5.8749-0.47814 7.0597 0.05555-2.1717-0.78956-5.3312 0.47814-7.0597zm15.786 0.13953c-0.11088 2.4774 0.06557 4.9869-0.34066 7.4362-2.6699-0.06018-0.52304-4.8342-1.5864-6.7573-0.55626-1.0469 1.3937-0.43086 1.927-0.67891zm-37.415 0.08062c1.8051-0.22999 2.9891 0.31023 2.4753 2.2169v4.0752c-1.679-0.17533-5.3445 0.80486-4.6061-1.9914 0.82345-1.5071-0.68827-4.8024 2.1308-4.3008zm30.047 0.05374c0.61752 1.7556-0.75591 3.2866-0.23442 0.50069l0.17912-0.48002 0.0553-0.02067zm5.889 0.27492c-0.42483 1.385 0.44418 0.7525 0 0zm0.51935 0.08837c-0.38137 1.5332 0.44928 1.0354 0 0zm-22.215 0.17621c0.34903 0.84424-0.33751 1.0585 0 0zm22.735 0.31988c-0.0033 2.3094-1.126 0.01076-0.48256 2.3993-0.15895 1.4579-0.16448 5.8964 0.57041 2.1121 0.02323-1.5009 0.08238-3.0182-0.08785-4.5114zm-27.886 0.05219c0.06416 0.73036-0.0089 3.6897 0.23009 1.58 0.44691-2.0541 0.21951 5.4651-0.12794 1.2601 0.14619 1.9304-0.634 2.2372-2.3594 1.4211-3.2223 0.82613-3.186-4.7067 0.1427-3.9903 0.70327-0.10215 1.4096-0.18165 2.1145-0.2709zm66.508 0.17157c1.1833 1.3509 2.1415 1.0582 0 0zm-72.706 0.19431c0.23778 1.5049-0.07361 5.9364-0.05065 1.9182 0.0078-0.63942-0.01393-1.2809 0.05065-1.9182zm36.193 0.2899c0.42452 0.6135-0.28748 0.89386 0 0zm-21.625 0.13901c3.372-1.3381 3.2154 3.2563 2.6112 4.2674-2.4231-0.25778-5.663-1.404-4.101-3.7042 0.24591 1.2434 0.14749-1.3951 1.4898-0.56327zm9.3581 0.03411c1.2139 0.0074 2.8426-0.40826 2.3172 1.3722 0.09328 1.2171 0.32016 2.5647-1.3345 2.0674-1.6661 0.50388-0.75858-1.5659-0.98268-2.504zm17.969 0.05633c0.99996 1.2492-0.40586 5.7363-0.48858 1.9844 0.08826-0.654 0.02208-1.476 0.48858-1.9844zm-48.036 0.03514c0.4245 0.61348-0.28746 0.89389 0 0zm67.06 0.27338c-1.5672 0.75978 4.1766 0.97007 1.3048 0.26303l-0.70486-0.21574zm-19.92 0.42633c0.30914 1.7252-0.22006 2.9522-0.04038 0.29565zm-47.101 0.4909c0.31783 1.201-0.30747 1.46 0 0zm53.663 0.04082c0.94402 0.23522 3.0569-0.69842 2.5575 0.98029 0.35611 1.3007 0.62387 3.0753-0.61287 1.218-1.7298 0.32648-7.2619-0.49074-3.7025-2.15 0.58521-0.03764 1.1716-0.04779 1.7579-0.04836zm-60.435 0.12971c-1.0299 0.49536 1.6755 0.50491 0 0zm2.3709 0.16846c-1.6456 0.21163 1.4476 0.21137 0 0zm0.2744 0.52813c-0.85893-0.01137 0.063072 0.48076 0.21497 0.07183zm-1.3007 0.0016c-1.4884 0.15084 1.3796 0.22363 0 0zm82.528 0.52758c-0.85894-0.01137 0.06309 0.48077 0.21497 0.07183zm-44.194 0.2589c1.3302 1.8467-1.0352 3.2469 0 0zm-32.946 0.06459c0.4245 0.61348-0.28746 0.89389 0 0zm-0.48989 0.13229c0.31783 1.201-0.30747 1.46 0 0zm16.499 1.1307c1.9522 0.2173-2.2552 0.15111 0 0zm0.82837 0.76223c0.13429 1.4566 0.05577 4.7388-1.3049 2.3724-0.48628-1.877-1.887-2.6903 1.3049-2.3724zm0.40514 0.52658c0.30914 1.7252-0.22006 2.9522-0.04038 0.29565zm-4.6447 0.18087c0.52766 1.8659 0.95688 6.4733-1.1762 5.3914-1.7134 0.77507-6.2694 0.31092-4.7515-1.8093 0.55677 1.3237 0.28784-2.408 0.37712-3.2183 1.7565-0.13012 3.8057 0.29603 5.5505-0.36378zm26.465 0.35088c1.007 0.69928-1.0462 1.6674 0 0zm-27.486 0.38653c-0.92714 1.6079 0.38005 6.2767 0.23409 1.9787-0.05944-0.63345 0.10919-1.4228-0.23409-1.9787zm-3.9636 0.02119c-0.66165 1.0155-0.08222 3.3723 0.05055 0.78618 0.09979-0.30985 0.59312-0.71338-0.05055-0.78618zm25.764 0.08062c0.31783 1.201-0.30747 1.46 0 0zm-24.235 0.07338c-0.85892-0.01137 0.06306 0.48076 0.21497 0.07183zm26.161 0.262c0.53598 1.4335 2.1077 1.8372 2.879 2.8027-0.68917 0.93049 0.1744 2.5406-1.8191 1.9298-3.656 0.52036 1.9365-3.8274-1.4973-4.013 1.0236-0.36252 0.26205-0.33948 0.4374-0.71954zm-1.3684 0.07286c0.90309 0.48594-0.77563 1.2006 0 0zm-2.4732 0.15038c1.0186 0.40218-0.66601 1.8841 0 0zm-0.65474 0.12195c1.1384 1.1516-0.94362 1.2374 0 0zm-19.912 0.25322c-0.21387 1.6472 0.14631 3.5281 0.08172 0.69505l-0.03211-0.46354zm19.03 0.02273c0.34903 0.84424-0.33751 1.0585 0 0zm40.536 0.61443c-1.9019 0.12823-3.3215 2.3223-0.83923 0.58653-0.42042 0.08469 1.3667-0.4164 0.83923-0.58653zm-76.811 0.41342c-0.37644 0.75905 0.45876 0.92114 0 0zm7.4445 0.17312c0.889 0.89059-0.88614 0.96439 0 0zm27.664 0c0.9217 0.72444-1.3119 0.54886 0 0zm-33.088 0.03411c-1.4884 0.15085 1.3796 0.22363 0 0zm45.376 0.49506c1.3778 0.66948-1.3282 0.53917 0 0zm-38.776 0.04496c1.1334 0.78403-1.2826 0.52308 0 0zm-6.797 0.01188c-5.1836 0.30519 2.5308 0.81879 0 0zm60.012 0.20774c-1.3798 0.4203 0.54514 2.4527-0.01342 0.84491 0.53891 0.09249 0.70689-1.0154 0.01342-0.84491zm-34.966 0.03255c0.82001 0.39159-1.1514 0.10443 0 0zm33.24 0.05633c-1.2527 1.0059-1.2979 2.9777 0.38034 1.3002-1.5277 0.15172 0.23569-0.50406-0.38034-1.3002zm-38.652 0.22428c0.3539 1.1069-0.27479 2.3116 0 0zm-19.437 0.77928c-1.4884 0.15084 1.3796 0.22363 0 0zm9.5028 0.26303c0.82001 0.3916-1.1514 0.10443 0 0zm2.6681 0.0016c-1.4884 0.15084 1.3796 0.22363 0 0zm37.712 0.0708c-1.2348 1.3999 0.45303 0.33396 0 0zm8.2367 2.8908c-5.1207 1.2292 2.3245 1.3162 0 0zm-18.761 0.11576c0.3493 1.3462 3.2531 0.9103 0.56606 0.07104zm4.9341 0.18242c-2.1741 0.39501 3.2386 2.1112 0.73422 0.19844l-0.16537-0.10473zm2.8024 1.2041c-1.7995 0.67733 1.7435 0.51731 0 0zm3.4396 0.37775c-1.8034 0.54201 1.7513 0.38765 0 0zm-26.969 1.5456c1.7199 0.47642-1.3477 0.53966 0 0zm-22.971 0.48421c-2.0616-0.02751 2.3288 0.6978 0-1.1e-5z" fill="#390000"/>
  <path id="color-darker" d="m20.175 1.3379c-3.896 0.027145 1.3928 0.30574 1.4232 0.041858-0.47338-0.045875-0.94858-0.032468-1.4232-0.041858zm10.587 2.914c-1.5548 0.42128 2.141 0.067882 0 0zm-2.359 0.26613c-1.4884 0.15085 1.3796 0.22363 0 0zm3.3481 0.098185c-0.20906 1.453 0.0081 4.3414-1.6576 2.5353-3.1026-2.2014-0.18383 2.4203 0.32896 3.7349 1.3599 2.6892-0.3073-2.4946 1.4403-1.6399 3.1317 0.16638-1.243-1.1266-0.07415-3.0662l-0.0375-1.564zm-13.531 5.1186c-0.34639 1.2954 0.33097 1.5936 0 0zm36.928 1.758c-1.7501 0.49814 1.0436 0.50193 0 0zm-4.9754 0.51522c-1.0358 0.66747 0.55651 0.7286 0 0zm-31.37 0.84491c-2.1198 0.92133-5.1783 0.09754-7.6711 1.1363-1.5268 1.4892-2.2951 0.6909-3.6382 1.5507 1.3522 0.47548 2.0527 0.24273 0.15108 0.76933 1.9984-0.11409 3.0264-1.4715 5.2344-1.2182 1.5599-0.92031 1.7169 1.0044 0.97481 1.1149 3.0573 0.74501 5.5318-0.84946 8.4533-0.13119 1.9896 0.0071 4.7136-1.1556 3.7247 2.022-0.2874 5.6448-0.24087 11.299-0.14151 16.947 1.7549 0.60343 2.4372-2.4061 2.249 0.39688-3.0833-0.11164-6.2216 0.2573-9.2604-0.26458-0.58396-3.0497-0.7124 2.4329-1.3607-0.44811-1.4165-0.59671-3.4597-0.44004-3.8143 1.0904-1.191 0.11976-5.6097-1.2037-5.0115-0.21233 3.0853 1.0929 6.44 1.5757 9.7142 1.7131 1.9928 0.04263 3.1947-1.2892 4.2136-0.20566 2.3249-0.93695 5.1878-0.47465 7.8944-0.97072 0.65202 1.0376 0.07381 2.67 0.94572 0.4222 0.52276-2.9161-3.2161-3.2219-4.5458-4.5173 0.17844-1.1309-0.70123-3.5718 1.2742-2.9539 0.9561 0.0863 2.5641-0.48278 2.0704 1.0597-0.48936 2.1092 1.014 2.8874 2.1362 0.76421 2.2531-1.1111 0.47219-1.6553-0.77035-1.8679 0.20699-2.2705 0.2381-4.5565 0.21846-6.8384 1.8284-0.04563 3.6952 0.11836 5.494-0.14202-2.744 0.35218-4.1716-1.5338-6.2826-2.7976-0.56454 1.3855-0.18864 3.4214-2.2709 2.9277-1.2435 0.22062-2.3748 0.32913-1.7966-1.2687-0.70673-3.6995 5.4152-2.2913 4.6689-6.3867-0.48088-2.8836-0.09937 1.7026-2.0316 0.31287-1.8278 0.18756-4.8306-1.9733-5.1896-0.52511-1.7777-1.5464-2.6514 0.82918-4.6403-1.0498-0.34298-0.11546-0.63258-0.35625-0.99186-0.42853zm47.863 0.12092c-2.3266-0.04303 1.0402 1.4616 0.63885 0.09692zm-48.449 1.9167c1.664 1.4023-1.6 1.777 0 0zm31.618 0.47077c-3.2513 0.14942 2.9905 0.18188 0 0zm-21.61 0.39326c1.0845 2.1518-1.2505 1.9147-0.31109 0.14264l0.31109-0.14263zm15.698 0.72967c-1.5857 2.4519 0.46288 2.5967 2.1649 3.234-0.25119 1.0455-0.08406 2.8613-0.73299 1.9911-0.79237 0.41781-3.2699 1.12-3.7337-0.12347-0.51677-1.2371-1.6785-3.804-1.6262-0.97098-0.16882 1.1597-0.05486 3.5061-0.83658 2.7791-0.63723 0.21211-0.82256 0.54328-1.1426-0.29317 0.05857 1.4642-0.93974 6.1624 0.70591 4.325 1.9973 0.21246-0.04437 4.9832 1.2568 5.0379 2.1215-1.0306 2.5077-3.5284 1.6616-5.515-0.01472-1.491-0.0052-2.982-8e-3 -4.473 1.5009-0.19125 3.4492 0.4978 4.6251-0.53537-0.13333-1.4193 0.34176-4.7192 1.8804-2.2189 1.141 0.76447 1.0135-1.9573 0.44135-0.19017-0.80322-0.88676 0.0091-4.2376-1.8796-2.1906-1.262 0.88274-1.997 0.0516-2.7764-0.85628zm-35.131 0.20412c-1.6786 0.16188 1.4432 0.23976 0 0zm15.801 0.0987c-0.05875 1.3676-0.12368 2.734-0.18036 4.101-1.4716 0.17041-3.3787-0.43073-4.5314 0.47073-0.73693-1.8103 0.16557-4.1827-0.74736-1.9259 0.21429-0.282-2.481 2.9865-2.2397 2.7781 2.3797 0.97398 3.8331-1.7993 6.405-1.0583 1.322 0.33781 1.6019-0.34262 1.3628-1.5279-0.02287-0.94591-0.04604-1.8918-0.06906-2.8377zm-15.769 0.43098c-1.4884 0.15085 1.3796 0.22363 0 0zm43.572 0.49506c-2.7823 0.4007-0.49681 3.0086 0.2504 3.8383-2.4197 1.2346 1.5477-0.67038 0.85305 1.3426-0.09589 2.7303 1.2134 6.5523-1.6802 8.1625-1.5959 0.703-1.1945 3.0481 0.66833 2.267 0.9865-0.08195 2.3937 0.44712 2.4451-0.99298 0.71775-1.3352 1.2892-1.3598-0.15205-2.1282 0.41488-2.9039-0.42933-6.5697 0.34254-9.057 2.5813-1.3977 5.7015 1.9575 7.5266 1.4871 2.3139-0.94388 0.95019 3.0071 3.5659 1.4035 0.78632-0.69404-2.51-2.9624-4.3151-2.7885-3.0966-0.87465-6.1738-0.98015-8.6116-3.0671-0.22771-0.30654-0.23709-0.65029-0.89304-0.46717zm-32.318 0.51315c-0.24728 1.3614 0.16034 2.7965 0.08409 0.61187l-0.03293-0.39276zm3.6773 0.49093c-0.38138 1.5332 0.44928 1.0354 0 0zm57.985 0.21601c-0.0707 0.99607 2.8585 1.7293 1.4279 0.43568-0.48952-0.10148-0.92408-0.39286-1.4279-0.43568zm-69.388 0.33331c-1.4532 2.4712-4.0963-0.19709-5.5291 1.2679 1.484 0.04449 3.386 0.71378 0.84331 0.77215 1.8186 0.35499-1.6642 1.1613 0.96548 0.90192 2.0122 0.44184-2.7792 0.63011-0.16408 0.74414 2.6168 0.32667 4.544 0.8436 3.922-2.547l0.01446-0.59056zm30.97 0.12041c-0.31121 0.88474 1.0223 0.88228 0 0zm-35.06 0.20826c-2.7138 0.17038 2.467 0.20735 0 0zm1.5989 1.3255c0.82002 0.3916-1.1514 0.10443 0 0zm3.3554 0.18862c-0.0601 1.2725-0.11275 5.4295 0.03876 4.9909 0.04033-1.6626 0.07768-3.3309-0.03876-4.9909zm44.626 0.70487c0.0068 2.0685-2.1724 5.2337 0.05079 6.5755 0.85519 0.80063 2.4267-0.66092 1.2232-1.8671-0.71914-1.7835 0.84112-2.2465 1.6512-2.6776-1.713 0.0183-2.9122-0.12543-2.9252-2.0308zm-27.321 0.52917c1.006 2.8134-6.3077 1.2215-2.3883 0.1402 0.79448-0.07126 1.5921-0.09467 2.3883-0.1402zm20.589 0.19844c-1.9786 0.87854-5.6137-0.12577-4.7155 3.0928 0.24272 0.80907-0.62252 2.6807 0.7276 2.4278 1.9568 0.44485 4.4536 1.7816 4.0933-1.4474 0.31998-1.3289-0.01402-2.7294-0.10542-4.0731zm-9.911 0.02532c0.42452 0.6135-0.28748 0.89387 0 0zm-6.0802 0.11937c-1.2618-0.01064-3.8152 1.1742-1.1976 0.8359 1.1929 0.34595 3.7434-0.58703 1.1976-0.8359zm8.8139 0.59324c-1.7792-0.17439-2.3282 0.73898-0.23461 0.5147 1.402 0.13176 2.9842-0.48775 0.23461-0.5147zm9.1984 0.03824c-0.32503 1.9257 0.34715 1.463 0 0zm17.753 0.03772c-1.2207 0.59866 0.42977 0.95936 0 0zm-64.063 0.09715c-1.2662 0.53576 3.7553 0.21958 0.36794 0.01912l-0.36794-0.019113zm41.758 0.73846c3.3651 0.16504 0.04167 5.6409-0.81649 1.994-0.07025-0.66199-0.17447-1.9839 0.81649-1.994zm12.75 0.48989c-0.5653 0.72344 1.2243 0.39243 0 0zm-9.5012 0.15968c-0.24728 1.3614 0.16029 2.7965 0.08412 0.61187l-0.03289-0.39276-0.05116-0.21911zm17.988 0.42736c-0.26245 1.8194 0.31727 2.5229 0 0zm-14.554 0.34158c-0.38699 1.7805 0.40216 1.2055 0 0zm-18.785 0.79375c-0.34639 1.2954 0.33094 1.5936 0 0zm34.714 0.1633c-1.391 1.021 1.2026 0.31902 0 0zm-63.424 0.70074c-3.2513 0.14942 2.9905 0.18188 0 0zm62.802 0.3266c-0.37641 0.759 0.45873 0.92118 0 0zm-62.495 0.19947c-1.9364-0.3329-1.0939 0.79822-0.35812 1.1369-2.6188 0.49922 0.61677 1.348 1.1271 1.4655 0.96705 0.51702 4.2087 3.097 3.4174-0.3297 0.4886-3.2234-1.8848-0.0431-3.1545-2.0123-0.24542-0.30357-0.70097-0.2248-1.0318-0.26041zm21.366 0.0047c3.0828 0.99707-5.0727 0.97563-1.5056 0.07803 0.50002-0.05378 1.0029-0.0779 1.5056-0.07803zm49.682 0.2372c-0.13257 0.59386 1.2057 0.36032 0 0zm-14.156 0.0181c-1.2553 2.3875-3.3082 0.01944-5.1071 2.1943-1.1611 0.15388-4.7866 1.4314-1.6067 1.4138 2.3687-1.3912 6.0654-0.84488 7.5643-3.2931l-0.23814-0.16776-0.61237-0.14728zm-47.763 0.56896c-0.26655 0.07109 1.8116 2.9352 1.6759 3.6427-0.12869-3.6875 3.9071-1.3316 6.1299-2.4887-0.72955-1.0919-4.8599 0.26198-6.4307-1.12l-0.69131-0.03235-0.68368-0.0016zm58.826 0.50178c-1.4884 0.15086 1.3796 0.22363 0 0zm-29.994 0.36277c0.17845 1.8947-0.68929 2.8652-2.3881 2.8287-2.5551 0.28956 0.67886 1.4268 0.31091 3.0538-0.29385-3.3021 3.5014-0.29854 3.7201-1.1325-0.63725-1.8853 2.4997-2.5418 0.1207-2.3759-2.147 2.1146-1.635-1.1634-1.7636-2.3742zm-21.46 1.4392c-0.24725 1.3614 0.16032 2.7965 0.08409 0.61187l-0.03292-0.39276-0.05116-0.21911zm-4.7661 0.16278c-0.29813 1.7896 0.32522 1.9664 0 0zm63.503 1.0692c-0.99565 0.23601-3.0772 1.3709-0.709 0.60978-0.22618 0.07005 1.2803-0.45549 0.709-0.60978zm-47.568 0.1209c-3.2422 1.62 5.2076 0.34756 1.4314 0.32866-0.3803-0.06488-1.3754 0.36094-1.4314-0.32866zm18.301 0.54777c0.82001 0.39159-1.1514 0.10443 0 0zm5.9598 0.23203c-0.96698 0.6531 1.2919 0.517 0 0zm8.4062 0.52917c-1.816 1.1216 1.5576 0.83919 0 0zm-28.555 0.041341c-1.7318 0.51377 2.1798 0.42251 0 0zm26.874 0.20206c-2.3374 1.3705 0.90482 1.0494 0 0zm-2.0221 0.02119c-2.1231 1.6354 1.5777 0.79729 0 0zm-56.877 0.28314c-2.8174 0.26393 2.9541 0.36505 0.48798 7.73e-4zm58.621 4.2183c-1.9156 0.10883-0.0205 1.0375 0.48285 0.05637zm-49.653 0.03049c-1.9946 0.42824 1.8244 0.21555 0 0zm15.035 0.23978c-1.738-0.86485-2.7055 3.8714-0.98082 1.7761 0.81978-0.47732 3.9638-1.62 0.98082-1.7761zm-1.7425 3.6365c-2.6893 0.30576-2.1662 3.855 0.56286 1.7945 0.49058-0.90538 1.15-1.978-0.56286-1.7945z" fill="#2b0000"/>
 </g>
</svg>
