<?xml version="1.0" encoding="UTF-8"?>
<!-- Created with Inkscape (http://www.inkscape.org/) -->
<svg width="100mm" height="100mm" version="1.1" viewBox="0 0 100 100" xmlns="http://www.w3.org/2000/svg">
 <g stroke-width="1.194">
  <path id="color-primary" d="m34.023 96.107c-2.016-0.20311-7.5464-0.5457-3.3715-2.8212 2.6969-3.937-0.03112-8.4511-4.9507-7.1344-7.094-0.61756-14.586-0.59996-21.144-3.6053-5.0701-3.7346 2.6861-6.1878 5.1625-7.9429 1.0132-4.0314 6.3191-3.0008 7.6247-6.4836 4.1322-0.34656 3.9-4.786 4.1306-7.8012 0.38774-1.8465 0.41808-3.3502-1.9565-2.5477-4.575 0.26318-9.4319 0.30046-13.39 2.7682-4.2391-1.2432-3.0789-7.3266-3.4389-10.759 0.3492-3.7899-1.4203-12.105 5.0781-11.012 4.3243 0.33792 8.6113 1.0746 12.9 1.6175 1.7797-1.7991 2.8803-10.779-1.815-9.2814-2.88-0.23466-1.0258-6.0495-5.6253-4.5312-3.8564-0.33009-0.81638-6.8274-5.8475-6.2681-5.1331 0.10229-4.2983-7.0214 0.74862-5.6405 4.8283-0.05134 9.6352-0.47141 14.258-1.8645 3.8416-1.0523 11.823 1.1967 10.402-5.1656-0.072-2.4654-2.606-5.4959 1.7345-4.8133 5.9358-0.05868 11.971-0.15114 17.804 1.0457 3.5305 0.85642-3.5149 2.7437 0.98874 2.7049 6.2451 0.7651 12.649 0.19688 18.826 1.3285-0.7349 3.4182-7.6118 1.3902-10.715 1.7755-2.0512-0.50782-7.397 0.70339-3.1297 2.2397 7.7491 2.6852 16.158 2.4946 24.254 3.3998 4.3041 0.78315 9.891-0.2731 13.237 2.6325-2.9863 2.3293-7.9263 2.9061-11.99 3.5242-9.9896 0.93977-20.098 0.2973-30.041 1.7089 2.9142 2.1866 8.1322 5.6528 11.451 8.7616 4.2063 1.8967 7.5822 5.942 12.593 5.4812 4.8713 0.64302 11.08-1.0821 14.604 3.2107 3.9026 3.6625 6.5073 9.8437 3.0635 14.629-2.5353 3.8465-6.6999 6.9074-11.607 6.6369-4.429 0.3498-9.0571-0.0013-13.286 1.5096-2.1216 4.0954-5.1913 7.7089-8.6053 10.917-3.013 2.0913 1.4723 1.3935 3.0077 1.7903 8.9066 0.91095 17.903 1.4181 26.659 3.3009 3.9501 0.53749 5.3715 4.8545 0.10796 3.8331-10.654 1.0938-21.418 1.6508-31.932 3.7073-3.0578-0.0116-5.776 3.2632-0.98822 2.9692 3.2205 0.53321 10.314-1.2258 11.337 1.3247-5.5352 1.6874-11.572 0.34308-17.086 2.0391-2.1078 5.2856-8.6478 3.6617-13.323 3.408-1.9118-0.17512-3.8207-0.37868-5.7284-0.59174z" fill="#460000"/>
  <path id="color-darker" d="m37.421 95.229c-3.4212 0.59903-10.958 0.71956-5.8918-3.8008 0.55709-2.906-3.3274-6.8626 2.1643-6.2594 7.2042-0.0072 14.416 0.70675 21.588 1.3662 3.0839 0.15064 1.9329 0.51168 0.79125 2.3309 3.3463 2.6895 8.1933-0.30552 12.144 0.50036 5.745 1.6155-2.6601 2.9195-4.8759 2.3047-4.1396-0.05648-8.37-0.36792-12.412 0.71255 0.585 4.2623-7.6193 1.9039-10.728 2.7435-0.92705 0.0316-1.854 0.06544-2.7809 0.10188zm25.184-9.5724c1.1308-2.7254 6.3094 0.10268 1.6037 0.40622-0.5271 0.06072-1.2455 0.07424-1.6037-0.40622zm-39.616-5.8631c-4.6162 0.29232-13.366-1.9763-15.349-0.53617 1.0214 3.7647-8.7153 0.37892-2.6844-2.0304 3.2605-0.87731 6.8002-1.9787 7.0262-5.4252 3.931-0.57772 3.9201-4.7783 7.8743-3.3566 3.8027-1.2273-1.6513-9.6556 4.0078-9.28 0.83775 2.2481 0.50337 7.592 2.0927 2.6026 3.2339-1.0639-1.2644-3.5355 1.8857-3.24 3.1756-0.8098 6.5132 0.70999 3.5871 2.0106 4.3228 1.7141 3.9963-4.9658 6.4011-4.6835-0.63986 6.2819 7.2386 2.7632 10.629 5.7288 3.6607 4.8108 8.9828 2.0668 13.034-0.59756 2.6212 0.2748 7.1363-5.0474 5.7426 0.524-0.67074 2.6803 4.7311 1.9195 1.006 3.8538-2.1165 3.5235-5.9108 7.3403-6.9432 10.733 4.7206 0.63246 9.8123 0.36176 14.242 2.3776-6.8024 1.4094-13.815 1.5451-20.709 2.3798-9.5629 0.97184-19.16 0.24544-28.667-0.86888-1.057-0.08016-2.1154-0.14652-3.1746-0.1916zm10.125-0.99551c-2.8012-1.2333-3.8198 1.4627-0.45772 0.54692 0.3139 0.24288 1.3426-0.48073 0.45772-0.54692zm-17.007-5.334c-4.1591-1.2858 0.26145 3.9699 0.33565 4.4825 0.35135-1.3603 0.78409-3.3721-0.33565-4.4825zm39.715 1.2789c-1.9209-3.563-4.3009 4.7206-0.5155 0.93473 0.2558-0.27848 0.46273-0.55542 0.5155-0.93473zm-24.221-4.7059c-2.1338-2.7242-6.2344 1.7277-1.3198 0.82748 0.51243-0.0662 1.2146-0.21704 1.3198-0.82748zm-5.1722-2.9426c-1.9267-1.7047-4.0493 1.9095-0.79526 0.36512zm11.833-0.46598c-1.118-4.8451-2.9783 4.2281 0 0zm22.365-0.45698c1.2376-1.7366 2.9645-4.0817-0.3186-2.0751-2.4449 1.0046-4.0223 5.723-0.02 2.7516 0.26988-0.14572 0.27032-0.42495 0.3386-0.67647zm25.169 13.753c2.1931-0.93107 8.4731 0.64572 2.7357 0.49458-0.2804-0.1164-4.1414 0.30616-2.7357-0.49458zm-2.7249-19.182c-5.303-1.0867 3.1158-1.4561 4.8862-1.7714 4.7917 0.64796-2.4971 2.76-4.2196 1.7653l-0.6666 0.0064zm-78.841-1.6988c-1.9213-0.9908-0.71618-6.3623 0.62539-2.5015 2.3432 0.89695 4.7406 4.0166 0.51672 3.8219-0.6126-0.16426-1.0508-0.72375-1.1421-1.3204zm88.53-1.8328c1.7272-2.535 3.898-2.2443 1.0379 0.25072-1.5223 1.7608-4.2036 2.9866-1.0379-0.25072zm-73.874 0c1.2715-1.2768 7.2484-1.0576 2.7501 0.30748-0.28727 0.04724-5.1459 0.63375-2.7501-0.30748zm20.891 0.39756c2.8013-1.2333 3.8198 1.4627 0.45768 0.54691-0.31392 0.24288-1.3426-0.48075-0.45768-0.54691zm-8.1746-1.5748c-2.8869-3.3394 5.8353 1.6948 0.76029 0.4711-0.25344-0.157-0.50685-0.31408-0.76029-0.4711zm38.044-11.856c-1.1465-2.0929-0.84276-4.2995-3.4932-1.6602-3.2345 2.3149-9.5293-1.7003-10.723 2.0808-1.9453-1.3275-4.3817-2.1239-5.4309 0.32976-3.2924 1.7564-7.8876-0.49716-9.7968-1.0224-2.6916 3.1553-9.8429-1.7341-10.576 1.0121 3.1444 4.3905 13.164-1.139 13.125 5.9964-1.292 4.3057-10.582 4.1984-12.054 0.99595 2.5001-3.3709 9.0251 1.524 10.261-2.3556-5.0559-0.63738-10.225-0.23058-15.002-1.8536-2.3558-1.1267-0.41776-3.9819-3.982-3.4264-2.7079-0.4338-7.5243-2.4456-8.5915 0.98367-1.3166-4.6122-6.8834-2.012-8.51-5.8247 4.5261-1.2246 10.215 1.0218 15.191 0.72014 4.4061 0.48945-0.35487-8.8617 3.4513-9.5821 2.4678 2.0971-1.9214 10.083 2.6956 8.6645 1.4331-2.4913 0.97477-7.3385 1.3141-8.945-3.3898-1.1143 2.2055-1.6839 2.0082-3.2347 3.1348 2.9612 1.4418-0.44195 0.15027-2.1339 2.5904-4.0891 8.4075-2.6304 12.629-2.7626 5.0903-0.13237 10.476-0.09642 14.658 3.0691 4.6236 3.0986 8.3622 7.3319 13.561 9.6793 5.2128 4.368 11.897 2.4152 17.973 3.2144 2.8498-0.25677 7.2916 6.2401 3.0588 2.5367-4.2316-2.5946-0.68438 5.4552-6.139 3.7009-5.2533-0.42842-10.526 0.22428-15.78-0.1826zm-11.784-8.3769c-2.1468-1.3885 0.88522 5.8738 0 0zm11.283 1.3441c0.47878-2.3908-9.637 2.0367-3.0536 1.1007 1.0766-0.17619 2.1232-0.54309 3.0536-1.1007zm-26.643-0.46534c-2.2591-4.2031-3.8774 2.0551 0 0zm18.858-2.508c-0.58126-1.9591-6.008-7.2266-4.0337-2.3495 0.52156 1.1741 7.042 6.7344 4.0337 2.3495zm25.724 22.235c3.5534-1.4937 1.7648 2.4465 0 0zm-42.463-1.1527c2.8013-1.2333 3.8198 1.4627 0.45768 0.54692-0.31392 0.24288-1.3426-0.48076-0.45768-0.54692zm-33.475-1.6707c-3.1333-0.0124-10.013-0.58742-5.6461-4.9616 2.78-2.0006 5.0076 3.0173 8.2614 2.053 2.6266 0.51383 5.083 5.8444 0.50621 3.4972-1.041-0.19376-2.0814-0.39016-3.1215-0.58868zm14.098 0.49348c2.8013-1.2333 3.8198 1.4627 0.45768 0.54692-0.31391 0.24289-1.3426-0.48075-0.45768-0.54692zm36.029-2.752c-4.2624-2.8953 6.7488 1.4873 0.9306 0.38704zm34.706-1.1772c0.78997-4.6938 0.78567 4.5438 0.0116 0.24656zm-84.36-2.3544c2.2783-0.54446 7.3617-5.8648 6.3708-0.98158-1.1762 1.4912-5.4778 3.7621-6.3708 0.98158zm-8.7045-2.2808c0.35199-2.2577 1.5943-3.4049 0.95541-0.35144-0.23367 1.5801-0.93581 4.343-0.95541 0.35144zm14.927-15.966c2.0986-4.7364 2.3029 5.1495-0.10509 0.47078l0.0568-0.25436zm-5.6173-5.886c-2.7487-3.2508 8.7794-3.2682 2.3003-0.86996-0.34283 1.6209 1.7328 3.4484-1.2689 1.7854-0.40321-0.23804-0.69305-0.60384-1.0314-0.91539zm45.315-1.9562c2.6524-0.9681 4.8841 1.0742 0.95349 0.58498 0.0092 0.01068-2.4503-0.30286-0.95349-0.58498zm6.6567-0.29192c4.4468-1.6248 1.5245 2.6867 0 0zm-9.8871-1.4746c2.8013-1.2333 3.8198 1.4627 0.45768 0.54692-0.31392 0.24289-1.3426-0.48075-0.45768-0.54692zm-48.745-3.8708c-0.463-2.7207 6.5728-0.71425 8.777-1.6676 5.7848-1.6939 12.486-1.2382 17.796-3.2567 3.4386-2.9112-3.1569-9.3539 2.8678-8.3266 4.8268-0.25695 9.6854 0.16426 14.442 0.92733 2.1081 1.4869 1.9836 7.4017 5.4731 3.959 5.4838-0.95285 11.378-0.57181 16.769 0.1491 0.55924 3.3433-7.1988 1.5687-9.921 1.8108-2.8235-0.52415-7.3894 0.83913-2.7386 2.6178 9.5402 2.678 19.676 1.9371 29.319 4.1365-10.308 0.6422-20.659-0.02668-30.947-0.62337-1.7224 0.09677-6.3499-1.4396-4.8465 0.72192-4.7752 0.91637-9.7828 0.28702-14.649 0.48342-2.4142-0.28164-7.6003 0.36373-4.3673-2.2191-5.5952-1.5151-11.488-0.59953-16.829 1.3342-3.6786 0.51798-7.506 0.94629-11.144-0.04676zm42.26-10.454c-4.0166-1.7868-8.6363-0.76127-12.927-1.0415 4.1936 0.04004 9.2122 2.3744 12.912 1.0605z" fill="#340101"/>
 </g>
</svg>
