<?xml version="1.0" encoding="UTF-8"?>
<!-- Created with Inkscape (http://www.inkscape.org/) -->
<svg width="100mm" height="35mm" version="1.1" viewBox="0 0 100 35" xmlns="http://www.w3.org/2000/svg">
 <g stroke-width=".32607">
  <path id="color-primary" d="m53.621 32.765c-0.6274-0.16259-1.236-0.44975-1.3524-0.63813-0.11646-0.18838-0.52003-0.26188-0.89688-0.16334-0.37685 0.09859-0.76736 0.04621-0.86778-0.11634-0.28485-0.46089-1.3255-0.34732-1.7745 0.19364-0.33458 0.40315-1.4876 0.48911-6.5613 0.48911h-6.1554v-4.2932c0-2.3613-0.09267-4.2006-0.20592-4.0873-0.11326 0.11326-0.18619 1.0785-0.16207 2.1451 0.03155 1.3967-0.07049 1.917-0.36471 1.8598-0.22469-0.04362-1.0688-0.2737-1.8758-0.51118-1.6247-0.23707-1.3722-0.76153-1.6146-0.50746-0.40423 0.36582-1.6315 0.48539-5.3444 0.5207-4.687 0.04461-4.8274 0.06618-5.1003 0.78398-0.25202 0.66286-0.44602 0.72225-1.9022 0.58233-1.4363-0.13802-1.6466-0.0769-1.8407 0.53452-0.18793 0.59212-0.47261 0.69036-2.0007 0.69036-1.2829 0-1.8342-0.13693-1.9693-0.48911-0.12795-0.33341-0.64977-0.4891-1.6394-0.4891-0.88475 0-1.373 0.12733-1.2501 0.32606 0.12573 0.20343-0.52843 0.32606-1.7392 0.32606-1.4243 0-1.9907-0.13015-2.1285-0.4891-0.12832-0.33441-0.65138-0.48911-1.6538-0.48911-1.1324 0-1.5455-0.14844-1.8151-0.65213-0.19927-0.37234-0.68273-0.65214-1.1268-0.65214-0.60808 0-0.82724-0.22516-1.0044-1.0319-0.5649-2.572-0.019558-4.8373 1.1645-4.8373 0.8036 0 0.81416-0.65729 0.035591-2.214-1.0482-2.0957-1.0935-3.1436-0.20308-4.701 0.99275-1.7364 1.006-2.1415 0.074497-2.2738-1.6075-0.2283-1.596-5.525 0.012423-5.7532 0.41034-0.058169 0.92251-0.38835 1.1382-0.73365 0.29781-0.47687 0.76525-0.62784 1.944-0.62784 0.85355 0 1.5519-0.14673 1.5519-0.32606 0-0.18115 0.86952-0.32606 1.9564-0.32606 1.0869 0 1.9564 0.14492 1.9564 0.32606 0 0.17934 0.66029 0.32606 1.4673 0.32606 1.0869 0 1.4673-0.1268 1.4673-0.4891 0-0.38041 0.43476-0.48911 1.9564-0.48911 1.7623 0 1.9564 0.067042 1.9564 0.67632 0 0.60843 0.16869 0.66735 1.6806 0.58711 1.4757-0.07838 1.713-0.00123 1.9459 0.62796 0.25279 0.68333 0.46187 0.71979 4.4332 0.77293 4.9943 0.066795 5.3336 0.088239 5.9613 0.37681 0.269 0.12366 1.2594-0.057179 2.201-0.40183l1.7119-0.62666 0.06704 2.1728c0.03796 1.2307 0.14399 0.30497 0.24455-2.135l0.17753-4.3079 5.9492-0.11794c5.2342-0.10377 6.0533-0.049665 6.8154 0.45033 0.75092 0.4926 0.92823 0.5062 1.3323 0.10216 0.25632-0.25632 0.85764-0.45826 1.3363-0.44875 0.47863 0.00986 1.6773-0.13964 2.6636-0.33146 2.4626-0.47892 6.8777 0.0037 7.8604 0.85912 0.45032 0.39202 0.5818 0.38622 0.93661-0.041285 0.33717-0.40627 1.3308-0.49733 5.4269-0.49733h5.0141l0.06815 2.8531c0.03746 1.5692 0.09292 3.3667 0.12326 3.9943 0.03032 0.62768 0.08455 1.8015 0.12065 2.6086 0.03599 0.80702-0.0191 0.75295 0.22863 0.97821 0.34979 0.31802 1.01-0.06889 1.4054 0.19022 0.14345 0.09403-0.25175 0.62865 0.26676 0.43998 0.57141-0.20795 0.7981-0.39157 2.4195-0.39752 1.1287-0.0037 0.67838 0.09243 0.99238-0.14075 0.314-0.23319 0.31522-0.5801 0.56547-1.2197 0.17678-0.46498 0.54373-0.93072 0.81542-1.035 0.2717-0.10426 0.3393-0.49854 0.53692-0.72531 0.21884-0.25111 0.72965-0.35972 0.71432-0.69876-0.06099-1.3494 0.26229-3.0324 0.30548-3.7498l0.0785-1.3043 4.9781-0.090087c5.3994-0.097728 6.2713 0.097851 6.2713 1.4058 0 0.49702 0.18663 0.8037 0.4891 0.8037 0.32189 0 0.48911 0.32203 0.48911 0.94191 0 0.81802-0.14987 0.97003-1.1393 1.1557-1.1009 0.20652-1.1228 0.23887-0.651 0.959 0.26857 0.4099 0.40412 0.82946 0.30123 0.93236-0.1029 0.1029 0.52019 0.66912 1.3846 1.2583 4.4045 3.0018 5.1076 3.9678 5.0801 6.9804-0.01775 1.9475-0.0258 1.9635-1.7631 3.5016-0.9599 0.84986-1.9287 1.5468-2.1529 1.5488-0.22417 0.0024-0.40757 0.15032-0.40757 0.32966 0 0.17934-0.15288 0.32606-0.33971 0.32606-0.18684 0-0.68686 0.42437-1.0276 0.64087-0.51236 0.32553-1.0218 0.98279-1.5288 0.98948-0.35867 0-0.54604 0.19753-0.82454 0.27896-0.53541 0.15656-0.90626 0.9028-1.6244 0.4022-0.27665-0.22959-0.40208-0.13302-0.43747 0.33681-0.04437 0.58928 0.12053 0.64968 1.5649 0.57302 0.92769-0.04917 1.7798 0.07962 2.0031 0.30287 0.21371 0.21372 0.57932 0.38857 0.81246 0.38857 0.2536 0 0.42389 0.39296 0.42389 0.97821 0 0.64285-0.16418 0.97821-0.47888 0.97821-0.31041 0-0.40648 0.18864-0.27308 0.53626 0.4405 1.1479-0.73991 1.4202-6.1578 1.4202h-5.1548v-2.7308c0-3.2476 0.2736-3.1696-0.65926-4.2644-0.26794-0.31446-0.29389 0.56353-1.1793-0.38136-1.1365-1.2129-2.4541-1.565-4.3021-1.1498-0.97954 0.22009-1.3616 0.20121-1.3688-0.06766-0.0048-0.20512-0.16439-0.10734-0.35318 0.21718-0.2653 0.45607-0.86411 6.2099-0.93119 8.9474-0.0075 0.30545-1.1131 0.40759-4.4119 0.40759-3.7845 0-4.4019-0.07185-4.4019-0.51244 0-0.34212-0.24384-0.48093-0.73365-0.41764-0.40351 0.05213-0.90399-0.07566-1.143-0.0037-0.28413 0.08516-0.44896-0.23807-0.55677-0.06372-0.10783 0.17443-0.41139 0.23449-0.67467 0.13347-0.26325-0.10106-0.47866-0.03709-0.47866 0.14192 0 0.7846-4.913 1.217-7.173 0.6313z" fill="#400"/>
  <path id="color-darker" d="m54.812 32.775c-1.2977-0.05497-3.6409-1.0056-0.80194-0.90478 1.5036-0.17495 6.7995 1.2224 2.7119 1.1493-0.59029-0.09674-1.3899 0.11511-1.91-0.24454zm9.7317-0.24455c1.4207-1.1272 3.9827 0.51406 0.8602 0.30033l-0.39395-0.07001zm3.0976 0c2.5479-0.49473 6.3973 0.34123 5.199-3.737-4.69e-4 -2.1087 0.31881-7.6205 0.0075-7.9273-0.26702 3.2933-3.7997 0.57353-6.076 1.2846-0.98223 0.30206-3.3337-0.77286-3.0437 0.80864-0.13835 2.8966 0.36512 5.9082-0.40634 8.7118-1.895 1.3906-1.854-0.90543-0.50025 0.07456-0.9459-1.8861-1.1718 0.24168-1.3136-2.4383-0.71009-2.1249 1.0154-6.5519-0.21762-7.1964-0.32613 2.7533-0.23308 5.5329-0.31232 8.2999-0.0679-2.7716-0.1359-5.5432-0.20384-8.3148h-9.7626c0.11116 2.9754-0.27333 6.0303 0.28573 8.9417 2.333 0.36105-2.0289 1.6429-2.2326-0.30676-1.6573-2.1972 0.30148-6.4426-0.98777-8.7768-3.5773 0.29071-7.174 0.10254-10.76 0.11621-0.06482 0.78291-0.05644 4.0018-0.21207 1.7701-0.6942-4.1809-0.79542 2.2405-0.75603 3.7743-0.01232 1.4211-0.02416 2.8422-0.03623 4.2633 3.267 0.07826 6.5792-0.21554 9.8082 0.29831-3.3277 0.53716-6.7407 0.27222-10.108 0.37446-0.08615-2.7257 0.21155-5.5068-0.21959-8.189-1.0143 1.1214 1.1696 5.1434-2.1274 3.3623-2.1198 0.44066-2.079-4.5424-2.5671-0.8185-2.5121 0.4544-6.2232-0.91544-8.9167 0.40749-1.852-0.19138-1.8202-3.0186-1.8176-0.0329-1.3784 0.31992-3.6574-0.7747-4.9484 0.12814-1.0283-0.27905-2.4653-1.4565-1.1629 0.22264-0.055 0.12788-4.6112-0.99263-6.4534-0.62329-3.252 0.1437-5.6922-1.2926-4.7203-4.9117 0.078552-2.1807-3.0175-5.5123 0.90548-4.6906 3.2373 0.64057 2.3171-2.8339-0.36064-1.9475-2.9903 0.252 1.1788-3.5245-1.8887-3.2886-1.0446-1.2142-0.64604-6.6572 1.1385-4.8109-0.70599 1.6079 0.26264 7.029 0.52873 2.3953-0.59082-2.8322 0.60891-4.9145 3.5898-4.6133 2.492-1.2334 5.1538 2.0273 7.2007-0.54617 2.7456-0.81246 3.4025 2.0466 6.2323 1.061 1.1384-0.012324-0.61385 3.0637 1.4718 1.3984 2.9469 0.68643 7.6383-0.87549 9.4856 1.2579 0.19654 2.6642 0.65936-0.44743 2.1734-0.02293-2.6432-0.21989-1.4031-0.63352 0.30763-1.138 1.5123-0.87274 2.2036-0.55636 1.8801 1.2301 0.1985 1.6769 0.26898-2.7968 0.33881-3.9145-0.0806-1.4392-0.07801-2.7932 1.744-2.2806 3.0178 0.00493 6.0608-0.24879 9.0587 0.10143 2.9132 0.18733-2.6544 0.81015-4.2693 0.54823-2.4081 0.64676-7.4638-2.2567-6.2363 2.2738-0.02071 1.9229 0.0037 7.8307 0.46539 2.8411 1.2361-1.2387-0.98449 5.6744 2.4253 3.9808 3.522-0.10685 7.2675 0.59135 10.642-0.24393 0.26826-1.0764-2.0206 1.2231-1.3926-1.5547 0.25468-1.8702-0.71525-6.9876 0.71715-7.1309 2.6155-0.28909 4.9245-1.2742 7.8162-1.2355 0.85838-0.1887-1.3858 1.3936 0.90538 0.64475 0.0062-1.3211 4.3689-0.12003 4.329 0.94212 2.1539-1.8836 5.2735-0.88088 7.9072-1.1307 0.97659 0.27073 3.0222-0.5556 3.3254 0.40618 0.15346 3.3303-0.03919 6.8025 0.53083 10.011 2.162-0.48417 2.4393 4.0605-0.09378 3.7734-0.47161 2.1413 2.8532 2.507 2.108 4.9256 0.36613-0.35082 2.0162 0.9119 1.6127-1.3997-0.06679-1.3928-0.10574-5.2506 0.91618-1.8455-1.2254 1.8748 0.49377 5.1144 1.6002 3.6482-0.7279 0.44648 3.049-1.1695 0.60615-1.0809-1.485 0.16429-2.8294-4.6068-0.44028-6.0601 1.6835-1.3543-4.7132-2.6141-3.77 0.32152 0.18186 1.4313 0.0024 6.8519-0.43321 2.6176-0.27437-2.4428-0.86171-5.3002 2.302-5.0394 1.5018-2.0926 3.1735-2.6564 3.149-1.4135 0.45014-4.2067-0.13914 5.2994 1.569 1.0518 3.4549-1.0659 7.5408-0.92302 10.828 0.77189-1.2729 0.46097-4.3281-2.14-3.9205 0.38004-0.08615 1.315-0.17862 2.9887-0.20066 0.67657-0.096-4.6396-1.9072 1.8439 0.48868 2.1341-2.3283-0.83015-2.0124 1.1493-1.7328 2.8373 2.9257-0.40953-2.3033 5.5008 2.071 4.3579 3.379-0.54161-3.4392 1.6747-2.7802-0.3958 0.22407-1.6662-0.83379-5.5096-0.6622-1.7016 0.24247 1.4396 0.33182 2.7349-1.5203 2.201-3.0673 1.2586-0.61352-3.2528-1.3102-2.6914-0.09354 1.6826-1.0286 2.3503-1.5526 1.0218-0.8087 0.77343-1.1168 2.0257-0.98655 3.7226-1.7646-2.0801-5.1663-2.2655-7.5272-2.2593-2.0489 2.6952 0.94535 9.1172-2.9392 9.6374-1.2385-0.01109-2.6531 0.24087-3.7907-0.30046zm-33.464-6.4532c-1.5146-0.61534-2.9517 0.71194-0.39115 0.16261zm-7.0717-0.78142c-0.58596-0.23287 0.2193 1.392 0 0zm-4.7062-1.7379c2.1245 0.04954 3.3968 2.2126 4.8884 0.10488-0.99238-0.90062-1.2037-4.1618-1.2804-4.6642-0.14056 1.5251-0.43501 3.77-1.0743 1.1504-2.2807 0.22482-6.1467 0.47352-7.3347 0.83664-1.2727-1.8574-5.6605-1.2808-3.7188 1.226-0.30805 1.0238-2.5656 2.003 0.31138 2.0892 2.4415 0.86659 1.2228-1.4672 1.8588-2.8026 2.3097-0.16325 0.96848 3.8129 3.9972 2.7662 0.642 1.0625 1.0041-1.6555 2.3524-0.70644zm-14.801-0.41773c-1.1785-2.3729 3.4323-1.4281 1.4858-2.4945 0.7856-1.5404 0.45995-2.1448 0.11048-1.5123-3.0558-3.536-3.1003 4.366-1.7785 5.1768 0.28806-0.31411 0.1558-0.79866 0.18221-1.1699zm41.68-0.45294c-0.58596-0.23282 0.21941 1.392 0 0zm-16.526-0.79479c-0.54472-1.0767-0.73153-5.5221-1.9373-2.6773-0.58305 1.5795 0.70845 6.2177 1.9373 2.6773zm44.617 0.57024c0.07653-1.6213-2.8315 0.77799 1.11e-4 0zm2.2484 0.08873c-1.0622-0.3593-0.87694 0.60541 0 0zm6.0719-1.0308c-0.61106-1.8885-1.0768-1.2637-0.467 0.19533 0.11436 0.06964 0.91731 0.1151 0.467-0.19533zm1.1899-0.72866c-0.06938-3.4061-0.66182 3.2711 0 0zm-80.639-1.2165c-0.50364 0.04819 0.24082 2.1218 0 0zm69.227 0.4116c-1.2827-2.5812-0.16705 2.3756 0 0zm11.331-1.3748c3.3481-0.4003-0.53969-2.7483-1.6449-3.2877-0.35164-3.1841-1.8501 6.8955 1.6449 3.2877zm-13.939-0.9179c0.56221-2.0751-2.261-0.72875-3.3743-1.1801-1.7951 0.14854-4.1685-0.57917-5.7012-0.17447-1.193 1.7784 2.8533 1.7911 0.1087 1.8553-0.57109 0.38266 4.3575 0.30858 5.8657 0.46917 0.97938-0.23245 3.4861 0.96819 3.1012-0.96997zm-5.7877 0.26433c2.631-0.23174 0.32974 0.49631 0 0zm-33.97-2.322c-1.9894-1.4809 0.92307-3.9159-1.0919-5.4768-2.5948 1.5814-0.50188 5.0963-0.40282 7.4712 1.864 1.8791 2.0987-0.7789 1.4947-1.9944zm22.689 2.3807c1.4149 0.23914 0.96425-2.4715 1.6655-0.48814-1.1738-2.5133-6.4064-0.55574-9.0174-1.2661-3.0244 0.43218-7.5656-0.95664-9.5698 1.406 2.9265-0.13382 4.2578 1.229 7.898 0.80717 2.9806-0.15395 6.158 0.41641 9.0236-0.45893zm-11.541-0.02687c2.8082-0.20962 7.6169-0.27004 9.3191 0.09994-3.0986 0.09083-6.2366 0.22334-9.3191-0.09994zm-25.681-0.1332c1.1674-1.7823 0.31805-4.5084-2.1203-3.0489-2.0408-0.09859-0.86404 3.7164 0.65295 2.5256-0.19813 0.46277 2.0455 1.1741 1.4673 0.5233zm7.9309-2.7586c-1.4067-2.411 0.65546-4.0492 0.97176-5.8343-1.7251-1.0807-2.1885-0.84131-1.8922 1.1863v4.5446c-2.1149-0.51027-3.4518 0.47367-5.4586 1.3592 0.0062 1.4344 2.5991 1.047 4.6196 1.2455 1.9386 0.71896 2.7082-0.79825 1.7594-2.5012zm3.7546 2.0498c0.67662-5.0068-2.766 2.858 0 0zm-17.944 0.17283c-0.4396-1.0181 1.4105-0.93532-0.45553-2.168-1.0188-1.876-0.88453 3.9717 0.45553 2.168zm49.097-0.08479c1.153-2.1772-6.4383 0.22549-2.0007 0.28245 0.66667-0.02575 1.3798 0.0024 2.0007-0.28245zm12.001-0.74473c-0.58594-0.23287 0.2193 1.392 0 0zm-0.31526-3.118c-0.46668 0.58355 0.21624 3.6828 0 0zm2.2794 1.9991c-0.84043-0.97771-2.4662 1.0875-0.29656 0.25544zm12.507-2.5535c0.15828-2.108-1.0672 1.7538-0.5677 2.9768 0.05582 0.585 0.1349-2.8435 0.5677-2.9768zm-73.8 2.2322c-1.0624-0.35929-0.87678 0.60543 0 0zm72.701-1.0196c-0.50365 0.04855 0.24107 2.1216 0 0zm-2.2778-0.81758c-0.47616 0.22606 0.24399 2.7406-4.19e-4 0zm-75.552 0.62909c1.1478-0.76855-0.76748-1.3172 0.90118-1.668-2.2138-2.6468-5.0142 1.4551-1.8758 2.2579 0.36564 0.1392 1.0413-0.11326 0.9746-0.58986zm-2.7098-1.122c-0.41168-0.08578 0.11457 2.5217 0 0zm11.636-0.73365c2.2553-1.7353 7.856 2.2842 7.3373-1.819 0.48921-1.7616-0.48602-2.0406-2.0385-1.7352-1.644 0.04338-3.2881 0.08688-4.9321 0.13032 0.62786 2.5265-3.2599 4.9056-2.5981 1.0416-1.2788-1.7934-3.68-0.69344-1.6675 0.6237 0.30508 1.3392 0.0859 2.1367 1.0119 1.8231 0.83342 0.90917 1.8897-0.29455 2.8869-0.06457zm43.843-0.28074c-1.0195-2.0097-0.77863-5.4923 0.27832-7.726 0.38969-1.6715-5.0811-1.0281-7.1866-1.1518-3.0825-0.78339-4.1117 0.94395-3.6412 3.8158-0.0891 1.7896-0.17251 3.5795-0.25908 5.3692 3.2247-0.14869 6.5472 0.20424 9.6918-0.495 1.8255 1.1697-4.4859 0.8819-2.0794 1.0145 0.98241-0.18504 2.9705 0.46831 3.1961-0.82668zm3.2333 0.7081c-2.631-0.23182-0.32977 0.49638 0 0zm7.9077-4.9108c1.73e-4 -1.6032 3.57e-4 -3.2063 5.3e-4 -4.8095-3.0437 0.06581-6.0873 0.13162-9.131 0.19743v8.9849c2.9988 0.15518 6.0973-0.14403 9.0212 0.43677 0.14049-1.5966 0.08799-3.2076 0.10919-4.8095zm-0.95299-0.27173c0.31716-1.1562 0.20264 1.4154 0 0zm-9.1557 4.4291c-0.37227-1.0414-0.7397 1.1363 0 0zm-55.165-1.5237c-0.53512-2.951-1.6708 1.7056-0.040632 0.6674zm51.253 22.066c0.87793-1.3141 0.76847 1.2695 0 0zm-11.738-0.12604c2.1156-0.94505 1.9708 0.53902 0 0zm42.063-2.4511c-0.14139-1.4329-0.18987-2.7791 1.6477-2.3631 3.3922-0.36842 0.63817 1.1092-0.52534 1.3227-0.84494 1.2292-0.11042 3.2502 0.78797 3.1779-2.2766 0.44784-1.9528-0.25726-1.9103-2.1376zm-32.685 0.39006c2.7129-0.13072 0.83329 0.33968 0 0zm-40.37-0.43805c-1.7403-0.68289-6.7348 0.0281-2.593-0.97955 1.0204-1.1466 5.8657 0.38208 2.593 0.97955zm77.294-0.63562c0.06433-2.5016 1.3831 0.92399 0.19946 0.90102l-0.10364-0.21016zm-5.2327 0c-0.87542-2.1414-5.5938-0.04745-5.4831-0.54345-2.181-3.5024 3.8246-3.6942 6.1581-3.4748 1.141 1.6415 6.9609-1.1673 2.8274 0.87603-2.0457 0.84794-2.4224-0.60626-3.0075 2.1305-0.25922 0.21724-0.26371 2.6698-0.49489 1.0117zm-79.953 0.08639c-4.6095-0.7826 4.5109-0.98617 1.1657 0.10352l-0.54502-0.05151zm63.769-1.7167c-0.03746-3.0215 0.4356 0.89028 0.03869 1.1856l-0.02822-0.44625zm-70.535-0.1664c0.59316-0.84315-1.5763-4.4768 0.87003-5.2677 0.15952 1.1088 1.1991 6.4797-0.87003 5.2677zm91.544-4.2885c1.2966-0.27535 1.0902 0.51286 0 0zm2.7497-0.46615c-2.7201-2.6387 3.4462-2.5491 0.72528 0.12446zm-4.9506-1.0764c0.26187-3.0944 3.9794 0.66959 1.4673-0.0049-1.1045-1.5431-0.94111 2.2606-1.4673 0.0049zm8.1775-1.3663c0.31716-1.1561 0.20265 1.4154 0 0zm-8.0409-0.74517c-0.79319-1.0133 3.1526-0.76532 1.0318-2.7213-4.0164-1.2715 5.1834 0.0075 3.1467 0.45588-1.4264 0.30997-2.6013-1.2155-2.503 1.7048 0.12479 0.70374-1.551 1.1026-1.6755 0.56066zm2.3089-0.36889c0.61046-1.2078 1.2486 1.1016 0 0zm5.9151-1.0468c-0.70942-3.0235 0.68694-0.24078 0.21115 0.59972zm-9.7464-1.1397c3.2769-0.19 0.5766 0.43433 0 0zm6.016-1.1394c-1.7333-2.5965 3.7984-2.9566 1.3559-0.14764-0.21748 0.53831-1.035 0.65963-1.3559 0.14764zm-3.8965-0.15073c-1.5828-3.102 2.0438-1.7791 2.251 0.05004-0.70439 0.20147-1.5305 0.09132-2.251-0.05004zm0.44252-0.91586c-0.72348-2.2693-0.4957 1.6779 0 0zm0.70124-3.9469c-3.3316-0.78839-7.3816 0.48576-10.272-1.4322 0.29288-1.4846 3.1869-0.96216 0.79248-1.5235 2.5335 0.65904 4.0482-1.4273 5.5497-0.87667 0.91851 3.4772 0.24791-2.5769 1.1675-2.7757 1.7678-0.21957 2.9418 0.357 0.48143 0.79074-1.2508-0.14309 1.224 4.63 1.5977 1.9981 1.2237 2.0039-3.0521 2.0213 0.03512 2.0843 0.65154-0.28443 1.4315 2.4861 0.6479 1.735zm-0.16556-0.6804c-1.2967-0.27528-1.09 0.51278 0 0zm-0.81516-0.66974c-3.5512-0.1483-1.0361 0.40414 0 0zm1.7119-2.0489c1.2914-3.5812 0.89068 3.4404 0 0zm-46.856-1.3043c-0.0376-2.5623 0.44866 0.76198 0.03992 1.0032l-0.02921-0.37759zm0.63008 0.65213c0.17804-2.3954 0.20064 2.3676 0 0zm36.933-2.3037c-0.97893-0.63691 7.7087-0.0997 3.0566 0.21182-1.0219 0.0037-2.0463-0.053978-3.0566-0.21182z" fill="#380000"/>
 </g>
</svg>
