<?xml version="1.0" encoding="UTF-8"?>
<!-- Created with Inkscape (http://www.inkscape.org/) -->
<svg width="100mm" height="33mm" version="1.1" viewBox="0 0 100 33" xmlns="http://www.w3.org/2000/svg">
 <g stroke-width=".20469">
  <path id="color-brighter" d="m12.54 30.432c0.06599-0.53475 0.2585-1.5249 0.42779-2.2004 0.16929-0.67547 0.30927-1.447 0.31106-1.7146 0.0017-0.26756 0.12946-0.7281 0.28371-1.0234 0.26506-0.50747 0.25241-0.54052-0.23027-0.60173-0.738-0.09359-0.69633-0.80778 0.05215-0.8939 0.40641-0.0468 0.546-0.16511 0.50212-0.42571-0.03342-0.19852 0.08171-0.41562 0.25586-0.48245 0.17415-0.06683 0.31663-0.34192 0.31663-0.61132 0-0.38602-0.10844-0.48982-0.51172-0.48982-0.36968 0-0.51172-0.11003-0.51172-0.39641 0-0.29649 0.16571-0.41257 0.65745-0.46054 0.57927-0.05649 0.68725-0.16758 0.9081-0.93406 0.24382-0.84621 0.23766-0.86992-0.22617-0.86992-0.49898 0-0.78662-0.42079-0.60723-0.88829 0.11802-0.30757-0.10152-0.52162-1.1415-1.1129-7.8956-4.4888-11.019-6.1863-11.384-6.1863-0.46916 0-0.69286-0.35403-0.69286-1.0965 0-0.40085 0.56495-0.65472 5.2707-2.3685 2.8989-1.0558 6.376-2.3537 7.7269-2.8843 1.3509-0.53058 2.8118-1.0796 3.2463-1.2201 0.43454-0.14045 1.4938-0.67302 2.3539-1.1835 0.86011-0.51047 1.8862-1.0147 2.2802-1.1205 0.57733-0.15501 16.09-0.55914 16.344-0.4258 0.03944 0.020655-0.49018 0.85799-1.177 1.8607-0.68677 1.0027-1.2458 1.9069-1.2422 2.0093 0.01222 0.35293 3.6748 2.44 4.1689 2.3756 0.97085-0.12666 5.4046 0.62913 7.2802 1.241l1.9376 0.63208 2.2585-0.35908c1.2422-0.1975 2.7651-0.44219 3.3843-0.54375 1.5387-0.25239 4.6746-0.73493 6.6523-1.0236 0.90062-0.13147 1.8217-0.32039 2.0469-0.41984 0.22515-0.099446 1.4686-0.45849 2.7633-0.79787l2.3539-0.61708 5.3906 1.3126 0.13867 1.3808 0.13867 1.3808 0.64573-0.28229c0.35515-0.15526 2.2116-0.8832 4.1254-1.6177 0 0 3.3214-1.3578 3.4829-1.2954 0.10236 0.036749 0.35501 0.38484 0.35501 0.38484 0.19702 0.23365 0.3582 0.737 0.3582 1.1185 0 0.63733 0.05089 0.69373 0.62614 0.69373 0.34438 0 0.57749-0.07871 0.51802-0.17493-0.05948-0.09622 0.11473-0.38428 0.38709-0.64015l0.49519-0.46522 2.3863 0.37424c1.4735 0.23108 2.4254 0.47597 2.4884 0.64016 0.07952 0.20713 1.1152 0.2659 4.6856 0.2659h4.5836v1.0234h-4.6055c-3.774 0-4.6055 0.05091-4.6055 0.28179 0 0.18581-0.62291 0.42983-1.8287 0.7164-2.0847 0.49546-2.6074 0.53331-2.7196 0.19693-0.04589-0.13767-0.70239 0.22834-1.5603 0.86992l-1.4811 1.1076 2.1573 0.0581c1.9888 0.05353 2.1573 0.08955 2.1573 0.46055 0 0.38047-0.15246 0.40245-2.7917 0.40245h-2.7917l-1.4117 1.155c-0.77646 0.63525-1.3794 1.2521-1.3398 1.3707 0.03952 0.11865 0.3422 0.22573 0.67255 0.23795 2.4316 0.08994 2.3936 0.08143 2.2812 0.51133-0.07943 0.30366-6e-3 0.40938 0.28316 0.40938 0.25376 0 0.39022 0.14316 0.39022 0.40937 0 0.39638 0.13646 0.40938 4.2984 0.40938 4.162 0 4.2984 0.013 4.2984 0.40938 0 0.39437-0.13687 0.40942-3.7355 0.4106-2.0546 6.12e-4 -4.4938 0.06027-5.4206 0.1324-1.6095 0.1253-1.6799 0.15147-1.5714 0.58388 0.10106 0.40268 0.01591 0.46655-0.77122 0.57798-0.7379 0.10446-0.94433 0.05454-1.243-0.30075-0.30054-0.35214-0.41984-0.15537-0.56288-0.48302-0.16619-0.38674-0.17671-0.38324-0.1903 0.06328-8e-3 0.25994-0.09685 0.42167-0.19763 0.35938-0.25522-0.15774-0.43082 0.38594-0.43082 1.334 0 0.7451-0.04131 0.802-0.58277 0.802-0.32053 0-1.9094-0.46921-3.5309-1.0427-5.9783-2.1145-8.2284-2.833-8.4475-2.6975-0.12349 0.07637-3.5882 0.11816-7.6993 0.09295-4.8447-0.0297-7.7628 0.03179-8.2935 0.17478-0.45031 0.12133-1.1411 0.31077-1.5352 0.42098-0.39402 0.1102-1.3612 0.24636-2.1492 0.30257-0.78805 0.05624-1.7852 0.13379-2.2159 0.1724-0.43071 0.03861-1.1215-0.0069-1.5352-0.10169-0.41362-0.09453-2.1701-0.22982-3.9033-0.30064-3.5989-0.14703-3.2752-0.22893-6.2798 1.5887-1.4019 0.84806-1.5068 0.97-3.275 3.8078-1.0047 1.6124-2.4255 3.8923-3.1572 5.0665l-1.3305 2.1348-10.329 0.001231 0.11999-0.97226zm64.553-14.47c0-0.04967-0.09212-0.14719-0.20469-0.21677-0.11258-0.06955-0.20469-0.02894-0.20469 0.09026 0 0.11922 0.09213 0.21677 0.20469 0.21677 0.11258 0 0.20469-0.04061 0.20469-0.09026zm7.3687-6.2796c0-0.27398-0.14736-0.38478-0.51172-0.38478-0.43846 0-0.51172 0.09311-0.51172 0.65033 0 0.47611-0.17821 0.80852-0.66524 1.2408-0.36588 0.32479-0.13561 0.2053 0.51172-0.26554 0.71183-0.51775 1.177-1.0081 1.177-1.2408z" fill="#540000"/>
  <path id="color-primary" d="m12.525 30.534c0.06465-0.47845 0.26538-1.5141 0.44607-2.3014 0.18069-0.78734 0.34552-1.6163 0.3663-1.8422 0.02077-0.22587 0.13191-0.64094 0.24697-0.92238 0.18604-0.45507 0.15541-0.51888-0.27674-0.57648-0.7158-0.09541-0.65431-0.80976 0.07695-0.8939 0.40303-0.04634 0.58146-0.19556 0.6283-0.52531 0.03598-0.2533 0.15111-0.46055 0.25586-0.46055 0.10475 0 0.19045-0.23027 0.19045-0.51172 0-0.40937-0.10234-0.51171-0.51172-0.51171-0.37526 0-0.51172-0.10917-0.51172-0.40938 0-0.32115 0.13646-0.40938 0.63322-0.40938 0.45989 0 0.66236-0.11142 0.73968-0.40707 0.05854-0.22389 0.16506-0.37085 0.2367-0.32658 0.07164 0.04425 0.13025-0.18704 0.13025-0.51402 0-0.48008-0.08865-0.59452-0.46055-0.59452-0.44793 0-0.54085-0.1635-0.47656-0.83858 0.03512-0.36878-0.1842-0.57885-1.2121-1.161-0.39402-0.22318-2.3744-1.3524-4.4008-2.5093-5.9664-3.4064-6.4817-3.6786-6.9658-3.6786-0.53268 0-0.76189-0.43821-0.58917-1.1264 0.10278-0.40947 0.66524-0.68107 3.8377-1.8531 2.0445-0.7553 5.0529-1.8766 6.6852-2.4918 1.6324-0.61519 3.7517-1.4089 4.7095-1.7639 0.95787-0.35494 2.5001-1.085 3.4271-1.6223 1.5779-0.91461 1.8195-0.99001 3.785-1.1815 2.5063-0.24412 6.4594-0.22242 6.6193 0.03636 0.06261 0.10134 0.19324 0.13518 0.29026 0.075195 0.09702-0.059956 0.23518-0.013925 0.30703 0.10234 0.07184 0.11625 0.23203 0.1487 0.35596 0.072102 0.14636-0.09046 0.17809-0.016169 0.09055 0.21198-0.08007 0.20864-0.05263 0.30047 0.06756 0.22619 0.11129-0.068775 0.20234-0.02754 0.20234 0.091704 0 0.11922 0.33101 0.21677 0.73557 0.21677 0.56204 0 0.76068 0.096037 0.84202 0.40707 0.05855 0.22389 0.18173 0.36055 0.27372 0.30369 0.092-0.056861 0.23393 0.00464 0.31539 0.13627 0.09249 0.14967 0.05938 0.18482-0.08821 0.0936-0.14003-0.086538-0.23631-0.016014-0.23631 0.17307 0 0.22015 0.20629 0.32426 0.66523 0.33574l0.66523 0.016633-0.53309 0.23923c-0.7921 0.35547-1.1953 0.74729-1.0795 1.0491 0.14713 0.38342-0.4648 1.7494-0.78203 1.7456-0.19415-0.00233-0.18311-0.062972 0.04073-0.224 0.25535-0.18368 0.24392-0.20038-0.06792-0.099212-0.20622 0.066919-0.41346 0.12165-0.46054 0.12165-0.04707 0-0.08561 0.092113-0.08561 0.20469 0 0.11258 0.23027 0.20468 0.51172 0.20468 0.63534 0 0.6556 0.28329 0.05116 0.71544l-0.46055 0.32929 0.46055 0.38036c0.52963 0.43744 0.61107 1.0312 0.14144 1.0312-0.17551 0-0.2693 0.0806-0.2084 0.17912 0.06089 0.09851-0.25606 0.23776-0.70433 0.30945-0.48792 0.07802-0.81503 0.24231-0.81503 0.40935 0 0.31028 1.0238 0.58148 1.5841 0.41962 0.19824-0.05725 0.07772 0.04618-0.26781 0.22987-0.34554 0.1837-0.74514 0.52117-0.888 0.74993-0.24659 0.39485-0.22393 0.40921 0.44726 0.28329 0.38886-0.07295 0.84186-0.08089 1.0067-0.01764 0.51947 0.19934 0.20032 1.332-0.4494 1.595-0.16887 0.06831 0.06112 0.10488 0.51109 0.08119 0.71664-0.03776 0.86005-0.13194 1.1562-0.75948 0.18593-0.39403 0.30237-0.77505 0.25874-0.84673-0.04363-0.07172 0.05681-0.24331 0.22321-0.38139 0.16639-0.13809 0.25205-0.33275 0.19035-0.43257-0.0617-0.09982-0.01462-0.18149 0.10459-0.18149 0.11922 0 0.21677-0.1177 0.21677-0.26155 0-0.14385 0.1823-0.41763 0.40512-0.60841 0.24852-0.21279 0.35892-0.48751 0.2856-0.71072-0.06573-0.20012 0.11262 0.0032 0.39633 0.45126 0.28372 0.44831 0.47214 0.88583 0.41872 0.97226-0.05344 0.08643-0.0072 0.15716 0.10258 0.15716 0.10984 0 0.24479-0.11514 0.29988-0.25586 0.06497-0.16596 0.27518-0.04602 0.59828 0.34134 0.4786 0.57381 0.50254 0.58021 0.61156 0.16333 0.0624-0.23863 0.01858-0.4655-0.09739-0.50415-0.13385-0.04464-0.11086-0.23038 0.06298-0.50873l0.27382-0.43845 0.52733 0.55179c0.31452 0.32912 0.69024 0.52244 0.93102 0.47906 0.60081-0.10828 0.8102-0.38293 0.54008-0.7084-0.12934-0.15586-0.17457-0.34398-0.10049-0.41805 0.07405-0.07412 0.03721-0.13469-0.08192-0.13469-0.22864 0-0.48181-0.74911-0.56975-1.6859-0.02892-0.30807 0.02085-0.51474 0.1106-0.45927 0.08976 0.055468 0.20025-0.01029 0.24554-0.14618 0.13248-0.39743 5.1661 0.34645 7.4961 1.1078l1.9605 0.64062 2.2585-0.35908c1.2422-0.1975 2.7651-0.44219 3.3843-0.54375 1.5387-0.25239 4.6746-0.73493 6.6523-1.0236 0.90062-0.13147 1.8217-0.3204 2.0469-0.41984 0.22516-0.099435 1.4686-0.45849 2.7633-0.79787l2.3539-0.61708 2.7282 0.6644 2.6624 0.64822-0.04587 0.57486c-0.06142 0.30727-0.02267 0.61374 0.08626 0.68103 0.10889 0.0673 0.19798 0.43782 0.19798 0.82337v0.70102l0.66524-0.2916c2.1008-0.92081 7.623-2.8997 7.7376-2.7811 0.07444 0.077054 0.18894 1.0168 0.22708 2.1236l0.06929 2.0123-2.3539 1.0127c-1.2946 0.55699-2.9987 1.3185-3.7867 1.6922-0.78805 0.37371-1.8703 0.84415-2.4051 1.0454-0.53474 0.20126-0.97226 0.47729-0.97226 0.61342 0 0.13612-0.18205 0.41225-0.40455 0.61361-0.2225 0.20137-0.36009 0.43805-0.30575 0.52596 0.05429 0.08791 0.01454 0.19074-0.08842 0.2285-0.10296 0.03776-0.21867 0.25287-0.25714 0.47803-0.06259 0.36642 0.0697 0.42011 1.2605 0.51172 1.2865 0.09895 1.3034 0.10734 0.51172 0.2536-0.45031 0.0832-1.1872 0.15369-1.6375 0.15665-0.47353 0.0032-0.71255 0.07287-0.56688 0.16538 0.13852 0.088 1.0826 0.15567 2.098 0.15038 1.0154-0.0054 1.8462 0.05772 1.8462 0.14 4.4e-5 0.20515-0.62112 0.33468-2.6609 0.55489l-1.7398 0.18784 2.3539-0.0807c1.2946-0.0444 2.1305-0.01237 1.8574 0.07118-0.72725 0.22246-0.74032 0.58686-0.02182 0.60729 0.70942 0.0202 0.6906 0.0891 0.402-1.4721-0.18813-1.0176-0.17113-1.2355 0.12157-1.5589 0.18715-0.20679 0.47353-0.32484 0.63644-0.26233 0.17038 0.06538 0.27088 0.0082 0.23662-0.1352-0.03272-0.13686 0.12338-0.35541 0.34695-0.48565 0.22357-0.13025 0.56898-0.41209 0.76758-0.62633 0.1986-0.21424 0.36109-0.31528 0.36109-0.22454 0 0.09075 0.17199-0.03334 0.38221-0.27571 0.21022-0.24238 0.46352-0.44324 0.56289-0.44638 0.09937-0.0032 0.44933-0.27945 0.77768-0.61406 0.32835-0.33461 0.68906-0.60838 0.80158-0.60838s0.35047-0.14228 0.52878-0.31618c0.17831-0.1739 0.89988-0.7356 1.6035-1.2482 1.3702-0.99827 1.6969-1.7106 0.78462-1.7106-0.27206 0-0.53609 0.11514-0.58672 0.25586-0.13121 0.36459-0.41218-1.9647-0.29304-2.4292 0.05432-0.21186 0.1095-0.039763 0.12256 0.38237 0.02209 0.71452 0.06696 0.76757 0.64989 0.76757 0.34437 0 0.57748-0.07871 0.51802-0.17493-0.05948-0.09622 0.11641-0.38587 0.39084-0.64368l0.49895-0.46874 2.3946 0.38815c1.4295 0.23172 2.4289 0.49113 2.4798 0.64367 0.0576 0.17256-0.153 0.25553-0.64829 0.25553-0.49047 0-0.73346 0.09447-0.73346 0.28513 0 0.38178 0.43762 0.52711 1.7054 0.56638 0.73855 0.0229 0.85707 0.05772 0.39263 0.11531-0.36588 0.04541-0.66523 0.19656-0.66523 0.33589 0 0.14836-0.75102 0.43985-1.8124 0.70344-2.0429 0.50735-2.6221 0.55352-2.734 0.21794-0.09221-0.27666-2.9363 1.7475-3.1171 2.2184-0.10322 0.26899-0.07169 0.27982 0.18768 0.06452 0.17759-0.14738 0.31172-0.16926 0.31172-0.05084 0 0.24005-0.48202 0.45634-1.017 0.45634-1.4755 0.73391-2.2238 1.433-3.5115 2.0857-0.5942 0.33395-0.76299 0.54333-0.6982 0.86603 0.04696 0.23407 0.19389 1.0499 0.32642 1.813 0.1667 0.95977 0.35553 1.4487 0.61262 1.5863 0.52978 0.28352 0.80794 0.2463 0.80794-0.10814 0-0.16887-0.13084-0.30703-0.29077-0.30703-0.29409 0-0.40933-0.37042-0.63937-2.0551l-0.12689-0.9293 0.79732 0.03102c0.43386-0.01865 0.62991 0.07388 0.46009 0.1537-0.16888 0.07938-0.31424 0.18995-0.32831 0.37761-0.02074 0.27679 0.11445 0.32255 0.7164 0.24248 0.6576-0.08748 0.69544-0.06955 0.33262 0.15728-1.0994 0.68742-1.0154 0.79421 0.62451 0.79421 1.3766 0 1.5428 0.03861 1.32 0.30703-0.14015 0.16887-0.49684 0.31793-0.79264 0.33125-0.52663 0.02376-0.52504 0.02747 0.07626 0.18047 0.50469 0.12843 0.40375 0.16056-0.5668 0.18047-1.1302 0.02322-1.1757 0.04472-1.061 0.50183 0.07995 0.31852 0.03009 0.47868-0.14962 0.48083-0.14822 0.0014-0.55988 0.06854-0.91479 0.14834-0.53362 0.12-0.70188 0.06428-0.97226-0.32169-0.27289-0.41252-0.38454-0.14163-0.53165-0.47806-0.16619-0.38674-0.17671-0.38324-0.1903 0.06328-8e-3 0.25994-0.09685 0.42167-0.19763 0.35938-0.25522-0.15774-0.43082 0.38594-0.43082 1.334 0 0.7451-0.0413 0.802-0.58277 0.802-0.32053 0-1.9094-0.46921-3.5309-1.0427-5.9783-2.1145-8.2284-2.833-8.4475-2.6975-0.12349 0.07636-3.5882 0.11816-7.6993 0.09295-4.8447-0.0297-7.7628 0.03179-8.2935 0.17478-0.45031 0.12133-1.1411 0.31077-1.5352 0.42098-0.39402 0.1102-1.3612 0.24636-2.1492 0.30257-0.78805 0.05624-1.7852 0.13379-2.2159 0.1724-0.43071 0.03861-1.1215-0.0076-1.5352-0.10291-1.2792-0.29444-7.337-0.46077-7.4946-0.20578-0.62953 0.37077-1.3515 0.65781-1.891 1.0119-0.65528 0.43316-1.4056 0.90067-1.6675 1.0389-0.45528 0.2404-0.46508 0.2309-0.2248-0.21808 0.13818-0.2582 0.55965-0.95157 0.93658-1.5408 0.62908-0.98342 0.83243-1.5004 0.59015-1.5004-0.05237 0-0.53564 0.14953-1.074 0.33229-0.53832 0.18277-1.5079 0.34396-2.1547 0.3582-0.64677 0.01423-1.1773 0.07195-1.1789 0.12825-0.0015 0.05631-0.44992 0.11106-0.99626 0.12171-0.87448 0.01702-2.0699 0.51695-1.9209 0.80332 0.02814 0.05415 0.04048 0.39776 0.02744 0.76363-0.01306 0.36588-0.06224 0.5229-0.10928 0.34894-0.06219-0.22996-0.27918-0.29368-0.79501-0.23346-0.89733 0.10475-0.93106 0.44697-0.04423 0.44876l0.66523 0.0014-0.57519 0.37925-0.57519 0.37924 0.77988 0.12887c0.42893 0.07086 1.9312 0.14057 3.3385 0.15486 1.4072 0.01431 2.3963 0.06831 2.1979 0.12009-0.19839 0.05176-0.32252 0.1562-0.27584 0.23212 0.07554 0.12286-1.0907 0.1791-4.7877 0.23087-0.80573 0.0113-1.0385 0.07218-0.81875 0.21418 0.2646 0.171 0.25919 0.19885-0.0391 0.20156-0.19037 0.0014-0.4024 0.0942-0.47118 0.20547-0.06879 0.11129-0.0018 0.15508 0.14867 0.0973 0.16894-0.06483 0.2858 0.05531 0.30527 0.3138 0.01843 0.2446-0.05742 0.36386-0.1823 0.28667-0.40281-0.24896-1.5621-0.31404-1.6973-0.09528-0.08718 0.14106 0.15477 0.21859 0.68217 0.21859 0.77958 0 0.81257 0.02592 0.71534 0.56211-0.05606 0.30915-0.23418 0.63612-0.39582 0.72657-0.16164 0.09045-0.29389 0.25745-0.29389 0.37107 0 0.11363 0.09212 0.14967 0.20469 0.08009 0.1748-0.10803 0.27927 0.11492 0.24341 0.51945-0.01051 0.11887 0.71828 0.23681 1.7011 0.27527 0.33773 0.01322 0.7417 0.14509 0.8977 0.29305 0.18644 0.17682 0.35282 0.19984 0.48549 0.06716 0.11102-0.11102 0.33652-0.15018 0.5011-0.08702 0.16459 0.06313 0.17201 0.13943 0.1067 0.23082-0.06805 0.09522-0.74902 1.1242-1.4789 2.3345l-1.3271 2.2004h-10.345l0.11754-0.86992zm8.6888-4.0861c0-0.08862-0.23571-0.16113-0.5238-0.16113s-0.47049 0.08625-0.40534 0.19166c0.14069 0.22765 0.92914 0.20174 0.92914-0.03056zm0.34451-0.4042c-0.06534-0.16328-0.11384-0.11478-0.12367 0.12367-9e-3 0.21577 0.03949 0.33666 0.10751 0.26865 0.06802-0.068 0.0753-0.24456 0.01614-0.39232zm-6.8945-2.5081c0-0.04967-0.09212-0.14719-0.20469-0.21677-0.11258-0.06955-0.20469-0.02894-0.20469 0.09026 0 0.11922 0.09212 0.21677 0.20469 0.21677 0.11258 0 0.20469-0.04063 0.20469-0.09025zm56.029-4.7412c-0.068-0.068-0.24456-0.07528-0.39232-0.01618-0.16328 0.06538-0.11478 0.11384 0.12367 0.12366 0.21577 9e-3 0.33666-0.03954 0.26865-0.10751zm-2.6055-0.69508c0-0.11258-0.09212-0.20468-0.20468-0.20468-0.11258 0-0.20468 0.09212-0.20468 0.20468 0 0.11258 0.09212 0.20469 0.20468 0.20469 0.11258 0 0.20468-0.09212 0.20468-0.20469zm-35.206-2.8656c0.25263-0.16326 0.23449-0.19468-0.10234-0.17734-0.22516 0.0116-0.6857 0.09139-1.0234 0.17734l-0.61406 0.15625 0.7164 0.02112c0.39402 0.0116 0.85457-0.06824 1.0234-0.17733zm-0.29746-0.80326c-0.06432-0.10406 0.04539-0.23154 0.24378-0.28329 0.21507-0.0561 0.12332-0.10367-0.22724-0.11783-0.50047-0.0202-0.55004 0.02196-0.33314 0.28328 0.27927 0.33649 0.50327 0.41987 0.3166 0.11784zm39.597-0.22018c0-0.11258-0.13816-0.20468-0.30703-0.20468-0.16887 0-0.30703 0.09212-0.30703 0.20468 0 0.11258 0.13817 0.20468 0.30703 0.20468 0.16887 0 0.30703-0.09212 0.30703-0.20468zm2.1659-1.8596c0.0092-0.49703-0.05639-1.134-0.14569-1.4154-0.1235-0.38931-0.15197-0.2869-0.119 0.42809 0.03482 0.75431-0.01826 0.92369-0.26871 0.85812-0.17164-0.04494-0.56684 0.05051-0.87825 0.21205-0.45659 0.23688-0.5019 0.31841-0.2341 0.42118 0.18265 0.07009 0.62392 0.12884 0.98059 0.13057 0.51403 0.0022 0.58483 0.04819 0.34146 0.22027-0.27292 0.19301-0.27292 0.20778 0 0.13297 0.21032-0.05764 0.31228-0.36879 0.32369-0.98784zm-8.4414 0.31336c-0.14413-0.37557-1.1202-0.32688-1.248 0.06227-0.05663 0.17243 0.15304 0.25586 0.64303 0.25586 0.57341 0 0.70124-0.06723 0.60497-0.3181zm-19.456-0.92516c0.56939 0.05926 0.56696-0.03868-0.0082-0.32211-0.36588-0.18036-0.66523-0.40565-0.66523-0.50063 0-0.09498-0.12985-0.12287-0.28856-0.06197-0.15871 0.06088-0.56152-0.03041-0.89514-0.20295-0.33362-0.17252-0.67199-0.24827-0.75194-0.16832-0.07995 0.07995-0.12677 0.05322-0.10405-0.05934 0.08534-0.42298-0.01384-0.73645-0.19713-0.62317-0.10448 0.06461-0.24884-0.06815-0.32083-0.29495-0.14396-0.45357-0.26999-0.49496-0.6924-0.22741-0.16432 0.10408-0.21521 0.28687-0.12189 0.43787 0.09806 0.15865 0.07755 0.20812-0.05286 0.12752-0.11718-0.07241-0.25887 0.04355-0.31488 0.25775-0.07 0.26767 0.02516 0.42262 0.30436 0.49564 0.2234 0.05841 0.35188 0.19409 0.2855 0.3015-0.18457 0.29864 0.30261 0.59744 1.1578 0.71011 0.4242 0.05584 0.88474 0.19479 1.0234 0.30868 0.40041 0.32881 1.264 0.37719 1.3859 0.07763 0.06069-0.14905 0.17582-0.26419 0.25586-0.25586zm-16.912-0.90595c0-0.16886-0.07677-0.30703-0.17058-0.30703-0.20442 0-0.22491 0.2868-0.03412 0.4776 0.18973 0.18973 0.20469 0.17726 0.20469-0.17058zm-1.8655-0.28954c-0.06364-0.10296 9e-6 -0.23386 0.14143-0.29087 0.14143-0.05702 0.03862-0.11094-0.22847-0.11983-0.40904-0.01362-0.44543 0.03226-0.2308 0.29087 0.27834 0.33537 0.50352 0.42027 0.31784 0.11983zm42.052-0.03938c0-0.12462 0.12984-0.17676 0.28854-0.11586 0.29764 0.11421 1.349-0.97779 1.349-1.4012 0-0.12754-0.22367-0.44202-0.49703-0.69884-0.43261-0.40641-0.54538-0.43094-0.86992-0.1892-0.20509 0.15276-0.3821 0.39288-0.39336 0.5336-0.04727 0.59097-0.10061 0.66524-0.4777 0.66524-0.31049 0-0.37582 0.11031-0.30303 0.51172 0.07025 0.38728 0.0047 0.51248-0.26941 0.51485-0.30871 0.0022-0.31686 0.03242-0.05515 0.20155 0.41915 0.27088 1.2281 0.25645 1.2281-0.02189zm-40.528-0.59216c0-0.11258-0.09212-0.20468-0.20469-0.20468-0.11258 0-0.20469 0.09212-0.20469 0.20468 0 0.11258 0.09212 0.20468 0.20469 0.20468 0.11258 0 0.20469-0.09212 0.20469-0.20468zm12.281-0.40938c-0.40085-0.25905-0.67182-0.25905-0.51172 0 0.06957 0.11258 0.28226 0.20328 0.47263 0.20155 0.29828-0.0022 0.30369-0.03057 0.0391-0.20155zm-15.897 16.678c0.13885-0.13989 0.30401-0.20277 0.36703-0.13976 0.06302 0.06306-0.05057 0.17748-0.25245 0.25434-0.29172 0.11108-0.31523 0.08756-0.11458-0.11459zm7.8757-15.999c0.14776-0.0591 0.3243-0.05184 0.39232 0.01617 0.06802 0.068-0.05288 0.1164-0.26865 0.10751-0.23845-0.0099-0.28695-0.05832-0.12367-0.12366zm60.984-1.0317c0.36586-0.04541 0.96458-0.04541 1.3305 0 0.36586 0.04541 0.06654 0.08257-0.66523 0.08257s-1.0311-0.03713-0.66524-0.08257zm2.7633 0.0069c0.197-0.05153 0.51939-0.05153 0.71639 0 0.19701 0.05153 0.03576 0.09361-0.35819 0.09361-0.39403 0-0.55522-0.04218-0.3582-0.09361zm-62.871-0.37056c-0.0071-0.22515 0.06778-0.53695 0.16653-0.69288 0.14346-0.22652 0.22657-0.19566 0.41344 0.15352 0.1889 0.35296 0.17673 0.43703-0.06328 0.43703-0.16345 0-0.34363 0.11514-0.40042 0.25586-0.05678 0.14072-0.1091 0.07164-0.11627-0.15352z" fill="#450000"/>
  <path id="color-darker" d="m12.525 30.534c0.08782-1.2594 1.3338-6.1162 0.83192-2.1384 1.9432 0.58737 0.74775-2.6903 3.0363-1.6778 1.2581 0.10182 4.5092-0.22397 1.7994 0.55856-0.72951 1.0476 0.05459 2.889 1.6334 2.3393 2.4808-1.1646 6.1495-1.9357 3.1573 1.4131-0.67257 0.83817-2.2027 0.15287-3.222 0.37518h-7.3539c0.03918-0.28998 0.07837-0.57994 0.11754-0.86992zm1.6879-4.6005c-1.6003-0.1158 0.43503-2.4201-0.28726-0.43186 1.5781 0.29979 2.9813 0.31161 2.0005-0.5243 0.9928-1.1034-1.6539-1.1694 0.98252-1.0777 1.5496 0.01322 2.5041-0.17773 2.1632 0.54491-0.96307 1.6538 1.3873 1.0149 2.0465 1.4997-2.2942 0.16368-4.6113 0.14478-6.9054-0.01075zm-0.25775-2.1154c1.0804-0.77192 0.68218 0.72961 0 0zm8.0775-0.37952c-1.4762-0.69233-6.6289 0.35955-6.3654-0.57323 1.5378 0.11679 2.9883-0.42385 0.55752-0.5074-2.9582-0.75282 2.9051-0.77248 3.865-0.62916 3.2561 0.05493-0.2713 0.84674-1.4553 0.92854 0.74238 0.21698 3.9928 0.25578 3.3982 0.78126zm-7.5734-1.129c-1.5794-1.1354 1.2249 0.0076 0 0zm59.564-1.0447c-3.7548-1.5304 2.5685 0.45127 2.4942-1.4178 0.12258-2.683 0.57614-3.8849 1.5966-5.1256 1.5615-1.8987 5.54-3.1043 6.2322-5.3751-1.9158 0.37284-0.84828-1.4651 0.05742-1.1346 0.63012-2.0719 5.1849-0.58656 5.4087-0.03272-1.7367 0.98344-5.0337-0.6153-5.1534 0.70936 0.40014 1.6399 5.4864 1.0067 2.2435 1.6932-2.2938-0.56985-4.1757 1.6955-6.0474 2.9045-3.2856 0.8547-4.1691 4.3088-1.9882 6.6019-1.8522-1.6414-1.9248-0.32914-2.4742 1.6741-0.81526 0.06885-1.6092-0.24974-2.3693-0.4972zm9.9259-10.327c-0.21194-0.47145-0.85438 0.71267 0 0zm-69.154 9.925c0.58261-0.99163 0.04139 1.0244 0 0zm3.203 0.15554c1.9199-0.12894 3.3441 0.13186 0.63902 0.07327-0.17414 0.0022-1.394-0.01245-0.63902-0.07327zm11.48-0.40052c0.37737-2.5564 3.9523-1.2486 0.90121-0.10681-0.42296 0.24741-1.6665 1.1379-0.90121 0.10681zm-10.924-0.26674c-1.3418-0.40822-4.0344 0.0082-1.239-0.71886 2.1146-0.80479-0.58513 0.42076 2.1992 0.1152 1.574-0.12549 5.4553 0.44438 1.8493 0.39897-1.0063-0.2472-1.9874 0.57321-2.8095 0.20468zm52.95-0.09594c-0.66175-0.63139 1.932 0.65903 0 0zm8.4131-0.71747c0.26228-0.59668 0.07134 0.84062 0 0zm-64.516-0.15284c1.1952-0.66064-0.54361 0.70396 0 0zm25.833-0.16596c-2.3468-0.5955-4.361-0.34843-6.5399-0.77809-2.4799-0.14836 1.3435 0.0047 2.0566-0.08259 1.5694-0.50688 2.8963-1.5483 5.0519-1.0637 2.4756 0.65978 5.1741-0.5782 7.6448 0.27276 4.6754 0.31916 9.4094-0.2461 14.053 0.36071-2.988 0.34492-6.5643 0.06151-9.7725 0.12007-3.1545-0.39452-6.133 0.43198-9.1783 0.98295-1.1037 0.04494-2.2115 0.2571-3.3156 0.18787zm28.85-0.23145c1.2737-0.20305 0.01586 0.35417 0 0zm-3.3673-0.29551c-1.4541-0.51689-3.1408-0.96846-0.77298-2.0277 3.1905-1.0646 0.43378 0.74802-0.02297 0.9406 1.5212-0.02151 1.496 0.28104 1.5867 0.85165 1.481 0.0022 3.7641 0.18606 0.95235 0.41689-0.58524 0.02607-1.1778-0.01973-1.7431-0.1814zm12.599 0.08934c-1.9825-1.385 3.584-0.87463 2.0545-0.67378-1.1978 0.34636-2.339 0.68573-0.38681 0.64318 2.7961 0.10932-0.7152 0.16018-1.6677 0.03056zm-65.675-1.1207c-2.3104-1.6945-6.7513-3.4078-8.003-5.0497 4.0792-0.03164-2.7589-0.1598-2.3328-1.4563-3.9882 0.05563 1.6606-0.91052 2.8314-0.92175 2.0431-0.08152 5.8679 0.41059 4.2828-2.6561-1.5805-0.273-5.8799 0.74956-2.0706-0.63657 2.8946-0.86728 6.0892-2.6378 8.7699-3.0631-0.99933 1.0837-4.6561 1.6423-3.796 2.8351 0.70908-0.46853-0.96301 3.8571-0.83169 1.2682 1.5466-2.6856-3.9841 2.8124-0.32636 2.3973 2.0908 0.73386 2.7073 0.51774 2.0171-1.5118 2.4918-0.72828-3.0914 0.14802 0.16702-0.69099 1.9984-0.43403 3.1704 1.4797 4.4999 1.0113-0.56043 1.5861 1.6143 0.60376 2.1619 1.02 0.57882 0.21839 3.4493 0.2932 3.2147 0.43662-1.6541 0.56496-3.6991 1.7448-4.2847 0.23562-0.87555 0.44585-3.9727-0.79057-3.0492 0.38856 0.89332 1.2 6.6665 1.4395 3.4092 1.5951 0.81869 0.73054 2.8912 2.6726 3.5045 1.6715-0.45942-0.44433 4.9885-0.61536 4.807-0.38814-2.2125-0.67598-3.6816 1.5144-1.0387 2.0948 1.8985 0.49752 3.8786-0.88536 2.307 0.77851-4.3276 0.46459-8.7104 0.43474-13.06 0.49656-1.5039-1.0418-0.13642 2.2498-3.1794 0.14507zm11.668-2.2219c-0.88484-0.7206-1.1265 0.38499 0 0zm-14.793-0.32836c-0.66681-0.22555-0.55048 0.38006 0 0zm14.486-0.49041c-0.85831-0.72126-0.29479 0.7383 0 0zm-15.863-0.71354c1.714-1.3493-3.778-0.36191-0.43382-0.15641-0.29032 0.4594 0.46664 0.57806 0.43382 0.15641zm7.7041-0.0022c0.5847-0.59542 4.1655 0.17596 1.623-0.81996 2.6797-0.64162-5.8258-2.3074-1.8707-0.7755-0.27787-0.03404-2.7003 2.7192 0.24775 1.5955zm-0.80459-3.1709c-0.3096-1.9035-2.116 0.5791-0.04272 0.58336l0.04272-0.58337zm-4.3554-3.3386c-1.7172-0.20816 0.05951 1.2986 0 0zm67.049 10.023c0.70351-1.0986 0.45524 0.60497 0 0zm-0.17237-0.9552c0.15346-1.1313 0.15344 1.1314 0 0zm0.49873-0.24298c1.6386-0.16128-0.12679 0.33005 0 1.55e-4zm-28.407-0.30621c1.2586-0.20527-0.38026 0.39594 0 0zm6.0657-0.04486c-0.34265-0.42682-0.73187-0.77858 0.79324-0.44537 0.03628 0.43373-0.19572 0.91966-0.79324 0.44537zm-11.554-0.2247c-1.005-0.7138-4.7362-0.05631-4.7078-0.51169 0.02025-1.4365-4.8588-0.26433-6.5502-0.76757 0.83217-0.40867 4.612 0.17109 2.2517-0.74324 2.8568-0.22948 4.956-1.5805 7.4861-0.61375 2.034 0.22016 4.0829 0.19923 6.1256 0.25838-1.5184 0.10036-4.4614 0.33092-1.1698 0.23216 1.8046-0.0054 3.5988-0.01848 0.78978 0.45139-1.8432 0.24758-3.1866-0.18246-1.5904 0.6363-0.4093 0.57099-2.7575 1.0671-2.635 1.058zm-5.8551-1.6723c1.511-0.21897 0.4703-0.71821-0.67956 0.18671 0.13335-0.015 0.81297 0.21714 0.67956-0.18671zm2.8398-0.30416c-1.4489-0.15331-0.07957 0.32869 0 0zm15.911 1.6694c1.1899-1.8238 1.3933 1.9554 0 0zm-29.358-0.03659c0.42696-0.97376 2.6085 0.91761 0 0zm21.542-7.74e-4c1.2586-0.20527-0.38026 0.39595 0 0zm21.402-0.56206c1.5797-0.777 3.4809-1.2345 2.6869-3.3144-0.21708-1.3062-0.34679-2.5911 1.3461-2.7217 2.1884-0.50401 5.3119-2.7333 6.9142-2.0961 0.35105 1.8678-3.0772 1.771-4.5423 2.337-1.2634-1.6336-5.25e-4 2.5121-1.8215 1.5271 1.7958 0.0047 0.91545 1.5719 1.6323 1.6325-1.6335 1.1007-6.8107 3.5148-6.6664 2.9034l0.45059-0.26786zm-37.943 0.29251c1.7912-1.012 0.58036 0.91934 0 0zm14.918 0.0853c-0.33364-0.57937-0.76154-0.56587 0.35497-0.41031 0.20211-0.18406-0.28689 0.82757-0.35497 0.41031zm3.6063-0.10387c-0.50715-0.48275 4.1967-0.2848 1.1194 0.20765l-0.40406-0.02484-0.71533-0.1829zm7.4872-0.10082c0.19909-0.72579 0.12721 0.88853 0 0zm0.61495 0.2464c1.5764-0.40695 5.2449-0.17675 1.4669 0.05964-0.48689-0.013-0.99022 0.0913-1.4669-0.05964zm-3.9002-0.32368c-0.54088-1.1993 2.5935 0.82157 0 0zm-19.601-0.14985c1.6385-0.16129-0.12678 0.33006 0 1.47e-4zm27.094-0.20523c-3.9525 0.32382-0.35464-4.4214-2.6779-4.9347-4.3909-0.19108-8.803-0.05368-13.179-0.47499-2.5275-1.3758 2.5313 0.58751 3.5062-0.5076 3.7661-0.51833 7.5154-1.2628 11.282-1.7022 1.8404 1.3316-0.08758 2.5677 2.2604 2.7605 0.77314-1.7171 2.056-3.6067-1.1488-3.0026-0.37569-0.51479 4.6163-0.70446 5.9962-0.60069 1.3573 0.20126 4.0156-0.21227 2.3279 0.97975-0.40172 1.4125 1.688 2.8864 1.466 2.6713-1.5558-0.71082-2.3265 3.6002-0.99373 3.3311 1.2278 0.4096-3.5099 0.3422-4.8639 0.31493-1.4817-0.02491-4.5425-0.17922-1.3929 0.4915 1.641 0.35687 2.3704 0.97448 0.25209 0.33885-0.95851-0.3664-1.9745 0.7595-2.8336 0.33475zm4.3726-1.6998c-2.6037 0.55056-2.5683-3.6726-3.6844-2.6609-0.14716 1.1613-2.0247 1.5221-0.37622 2.7926 1.2923 0.04116 2.9122 0.24152 4.0606-0.13171zm2.2354-2.0948c1.9065-0.76839-0.71965-5.2775-1.2281-2.613-2.6467-2.6736-3.1547 3.5041 0.11846 3.1356 0.5292 0.50317 0.769-0.39194 1.1097-0.52259zm-1.184-3.593c-1.1117 0.081521-0.2017 0.58171 0 0zm0.48373 7.2172c0.6529-0.40774 4.9992-1.2645 2.0616-0.31628-0.16861 0.09545-4.0009 1.0537-2.0616 0.31628zm-16.729-0.12985c1.1732-0.48853 3.0882 0.5559 0.49817 0.12207zm6.5285-0.10322c-0.33899-1.2915-0.0093-4.3024 0.12307-1.357-0.14184 0.07559 0.38878 1.948-0.12307 1.357zm-28.844-0.21268c2.057-0.11926 0.36198 0.27262 0 0zm-8.333-0.5082c-0.39463-1.4443 4.1092-0.33431 5.6319-0.67504 4.2114 0.32972-4.3398-0.27547-3.7626 1.0729-0.63097 0.06986-1.3932 0.13789-1.8693-0.39788zm12.146-0.61512c1.5378-0.50602 3.2945 0.31594 0 0zm2.3784 0.06281c1.7573 0.47164 1.3944-1.5585 1.5255-1.999 0.81516 1.6408 1.0087 2.6169-1.5255 1.999zm10.234-0.63723c0.52521-0.57729 3.7752 0.07257 1.0041 0.18083l-0.5898-0.04518zm32.507-0.75388c1.2586-0.20528-0.38029 0.39599 0 0zm-66.878-1.5489c1.0297-1.5225 1.6631 0.76083 0 0zm65.381-0.02917c2.9819-0.97704 0.87694 0.03118 0 0zm-66.093-0.09021c0.28333-0.65056 0.55436 0.54213 0 0zm9.2922-0.41932c0.60068-1.1852 0.44086 0.54546 0 0zm59.116-0.16399c1.2586-0.20526-0.38027 0.39594 0 0zm-53.18-0.88882c1.8346-0.73599 2.8291-0.0349 0 0zm16.808-0.27911c-0.40858-0.87005 1.2461 0.34211 0 0zm-3.0944-0.53453c0.71216-0.91946 1.9538 0.82258 0 0zm22.516-0.080439c0.87158-0.74229 0.49491 0.37087 0 0zm-49.739-1.5571c1.4899-0.6899-0.53797 0.81073 0 0zm53.18-0.13982c1.2586-0.20529-0.38026 0.39599 0 0zm0.65244-0.086738c1.2785-0.94427 3.3449 0.59917 0 0zm-46.149-0.98917c0.68226-0.72962 1.0803 0.77191 0 0zm0.22819-0.63642c-2.5458-0.55005 2.7418-0.1474 3.6323-0.14895 1.3657 0.052219 6.9262 0.33635 2.7933 0.30722-2.1416-0.00619-4.2904 0.034813-6.4255-0.15828zm2.2185-0.57192c-4.0904-0.34452 1.9261-2.1091 2.4126-0.56416 0.41401 0.50373-2.0216 0.70798-2.4126 0.56416zm-5.0129-0.332c1.0015-1.7274 0.63702 0.82435 0 0zm3.275-1.7575c1.4023-0.46745 5.5207 0.079612 1.8871 0.1915-0.09536-0.047345-3.1472 0.086808-1.8871-0.1915z" fill="#380000"/>
 </g>
</svg>
