<?xml version="1.0" encoding="UTF-8"?>
<!-- Created with Inkscape (http://www.inkscape.org/) -->
<svg width="100mm" height="100mm" version="1.1" viewBox="0 0 100 100" xmlns="http://www.w3.org/2000/svg">
 <g stroke-width=".48006">
  <path id="color-brighter" d="m37.508 94.83c-6.1862 0.0205-12.125-3.2843-16.046-7.9508-4.2494-5.9694-4.0993-15.06 1.1954-20.387 5.5425-5.6166 13.605-7.3005 20.807-9.8186 4.129-1.4511-1.5082-6.5632-2.346-9.1491-4.7486-7.7914-9.6057-15.516-14.412-23.272-1.2787 0.01814-2.8728 0.72688-3.9723 0.35241-1.9128-3.2276-4.4129-6.1798-5.7109-9.7139 1.9613-3.7261-1.4342-6.6929-1.3677-10.065 2.6117-4.2837 6.6109 2.3148 8.0367 4.789 1.4892 4.3101 6.1343-1.4197 9.5965-0.30388 12.847-0.20521 24.513 7.6934 37.446 6.5764 3.9617-0.54927 8.8784-3.3364 10.124 2.3707 3.2971 6.3466 6.8893 12.532 10.416 18.75-6.462 4.5423-14.947 2.5981-21.986 0.69116-8.1017-2.15-16.495-5.8556-24.994-3.7277-3.6317 0.91642-6.4893 4.2579-2.9112 7.3844 3.019 4.7163 6.0504 9.5384 10.025 13.511 3.588 1.1377 7.5488 1.3901 11.031 3.0923 5.8071 2.411 12.609 5.7096 14.046 12.484 1.5951 5.0541 0.50816 10.85-3.3468 14.612-6.8451 7.9668-17.882 10.699-28.026 10.115-2.537-0.05044-5.0718-0.18126-7.6041-0.33989zm1.1418-59.922c-1.5411-3.2362-3.4724-6.9742-6.1819-9.1868 0.93739 3.2659 3.2756 6.9595 5.7432 9.5109l0.2339-0.07893zm-6.7197-11.256c-2.062-2.4386-3.4983-7.7956-6.0698-8.4301 1.0961 2.4303 3.9519 9.0884 6.0698 8.4301zm-6.6993-1.6802c-1.6084-1.4765-3.5304-8.5669-5.747-5.724 0.50623 3.1065 2.5816 7.72 6.4289 7.0437 0.46212 0.07838-0.65385-1.1088-0.68188-1.3197z" fill="#d10000"/>
  <path id="color-primary" d="m37.508 94.83c-6.0319 0.0597-11.752-3.1463-15.72-7.5339-4.6048-5.9383-4.5379-15.359 0.8714-20.807 5.4347-5.5569 13.324-7.3382 20.436-9.7417 4.61-1.558 2.301 5.5342 3.5533 4.7122 1.0081-4.361-2.366-8.0484-4.1868-11.695-5.1004-8.294-10.017-16.729-15.62-24.695-1.795-1.2651-4.7964-1.761-5.7287-3.0963-2.1332-3.0554-3.869-5.0903-3.4255-7.8812 1.3922-3.5415-4.1963-8.8445 0.04795-10.567 1.2894 0.46672-0.49833 3.6226 2.3731 3.2667 1.6638-2.247 3.0007 3.6062 4.2158 4.9723 1.3127 0.71134 3.3962-1.3722 5.2098-1.7285 10.776-2.1168 20.645 3.3785 30.991 5.2097 5.0221 1.0962 10.224 1.0377 15.233-0.33724 1.7356-0.47635 1.7661 0.18772 1.0282 0.68466-2.0256 1.3642-6.7901 0.96998-3.6512 4.2541 3.1409 5.0275 6.5678 9.8783 9.863 14.83 1.546 2.3234 5.4498 4.8205-4.1037 4.9068-9.777 0.08837-18.649-5.7647-28.433-6.2094-3.6992-0.57057-8.6868 2.6738-10.046-2.6263-2.2177-2.5162-2.5012-7.5188-6.2681-7.938 1.3712 4.4014 3.7819 8.405 6.0193 12.396 0.56013 3.2797-3.433 1.8773-1.6574-0.37527-1.0954-3.3022-3.6006-6.5571-5.368-9.2971-2.877-0.57867-1.9727 1.8638-0.26218 2.4111-0.27488 1.4925 2.5005 4.6066 3.7009 6.868 1.8478 3.0025 3.6458 6.4037 5.6069 9.4821 3.0362 5.0237 6.1987 10.004 9.4669 14.855 0.49192 2.0077-0.29487 5.7061 2.2741 5.1037 0.17491 2.9741 1.7855 1.5342 2.7587 3.6109 1.2304-1.1514 2.7539-2.9487 0.87843-4.2416-1.9053-2.6167-3.9348-5.1524-5.6554-7.8957 3.372-0.8241 7.1775 1.189 10.5 2.2153 1.7924 0.37683 7.431 4.0821 3.0748 3.0343 1.7588 2.8068 1.4046 6.5213 0.1008 9.6112-0.80703 1.5082-0.92356 2.8077 0.83633 3.5712 1.4468 3.5284-3.836 6.4326-5.1808 8.7272 1.5825 0.44761 1.6249 2.557 3.9673 0.84856 2.9557-1.6785 1.8357 6.1291 3.9831 2-2.1275 0.40955 3.4152-0.99937 2.6597-3.2492 3.4236-1.5225 4.5062-5.4787 5.2946-8.7859 0.23755 4.1602-0.91329 8.4442-4.0358 11.383-6.7228 7.8034-17.512 10.603-27.485 10.096-2.7082-0.04137-5.4143-0.17963-8.1171-0.34875zm-5.9893-70.281c0.28297-3.0364 2.4704 2.313 1.8987-1.3827 0.97072-4.2075-0.1789-8.4036-2.5282-12.043-1.9791-0.04246-6.8538 1.6571-7.2004 3.2218 1.7606 3.5365 5.0106 6.516 6.2462 10.047 0.21008 1.0507 1.0667 0.89581 1.5837 0.15658zm-6.1112-2.3374c-1.8063-1.6945-3.1564-7.9296-5.8026-6.334-1.0459 2.7615 1.9834 6.212 4.3066 7.352 0.7975 0.06622 2.743 0.34537 1.496-1.0181zm43.549 41.893c0.38267-0.86961-1.5168-2.216 0.68888-0.75635 0.68901 0.57426-0.09191 1.5246-0.68888 0.75635z" fill="#ab0000"/>
  <path id="color-darker" d="m37.463 94.795c-5.6865 0.05823-11.034-2.8146-14.949-6.7792-2.8741-2.8755-3.881-6.8281-4.0289-10.727 1.9251-0.77308 1.119 3.4661 1.261 4.0897 0.53333 0.65103 2.399 4.8041 4.6461 5.1423 1.5488 3.0312 6.1329 4.1865 9.3936 5.1818 7.633 0.5652 15.413 1.1616 23.002-0.15368 3.7935-0.57985 7.1061-2.7185 10.677-3.8541 0.13581 1.4513 4.0093-3.353 0.76827-0.5609 0.76201-1.0268 2.0663-2.6173 1.8219-1.0299 1.6414-0.17817 5.6787-5.2611 3.4716-1.4707-6.9039 8.1159-18.085 11.17-28.43 10.56-2.5478-0.06424-5.0925-0.21618-7.6343-0.39797zm4.9586-5.1702c-1.4838-1.2946-3.677-0.13971-5.8663-1.938 1.6555-3.0397-4.4419-4.2815-6.1171-3.3412-0.53526-1.5728-5.0734-2.4589-2.0513-0.80732 2.9693 1.0585-0.86716 2.8041-1.8075 0.46521-2.6711-2.0702-4.0765-5.0267-4.5322-8.2233-2.0917 0.64667 0.14754-3.7188 0.28209-5.2036 2.0883-4.0967-2.7103 0.78948-2.2806 2.6394-1.1252 1.2281-0.87352 4.9261-1.3845 1.4304 0.89822-4.9388 4.5831-9.0799 8.6947-11.752 3.932-2.0368 8.1797-3.5135 12.464-4.5106 2.1394-2.0039 7.2647-2.3047 6.0371 2.1187-0.08384 2.0325-0.22002 4.0625-0.33002 6.0938 1.7736-0.84838 3.7773-3.1933 5.7399-1.8762 0.85472 1.7564 2.0337 6.3032 4.0001 3.5463-0.94415 1.8631-4.1441 2.331-5.3444 3.2004-2.6899-1.3251-7.8953-0.34486-9.155-4.6064-0.55932-2.6371 1.7207-3.9358 1.0683-6.335 1.5312-2.7402-1.0509 1.5558-1.754 1.5703-1.524-1.4422-2.9041-3.1855-4.1467-0.49529-1.4878-2.1381-3.28 3.7086-1.5926 3.0338-2.4266 2.1945-0.71266-5.0037-4.2488-2.187-2.8297 1.6369-4.8581 4.1189-5.1303 7.5528-0.28859 1.5714 0.45701 3.2455-1.0388 2.8288-0.3425 2.9981 0.29406 6.1026 2.087 8.0706 1.2815 3.0281 0.30416-2.8029 2.253-0.89731 3.2374 3.0216 7.3374 5.2082 11.859 5.2061 2.4055 0.11576 4.8151 0.08854 7.2226 0.13263-2.5603 0.36435-5.1206 0.72872-7.681 1.0931 4.159 0.64025 8.3207 1.8124 12.551 1.4895 2.4503-1.3418 7.7933-3.7403 9.2639-1.7433 0.35283 1.6635-5.2979 1.6672-7.1852 2.2579-3.8184 0.38843-7.5302 1.7186-11.465 1.2322l-0.41057-0.04409zm-11.29-3.007c-3.6747-2.7261 1.5435-0.7496 2.4124 0.9271-0.86487-0.0254-1.6408-0.59523-2.4124-0.9271zm16.938-2.2393c1.6719-0.54169 6.2916-0.13354 6.1759 0.21-2.0438 0.03793-4.1877 0.30202-6.1759-0.21zm8.5217-0.43796c1.905-0.40634 1.6094 0.75572 0 0zm2.4003-0.48005c1.9045-0.40643 1.6101 0.75573 0 0zm-16.874-3.8348c-2.1169-0.92705-4.6826-0.9105-3.6137-3.3756-2.3559-3.2606 2.9434 1.5557 4.702 1.3533 3.4668 0.38984 6.3135 2.9438 9.8934 2.2468 1.6734 0.18966 6.5765-1.0287 5.8199-0.36412-4.4075 1.217-9.225 1.0953-13.689 0.17074-1.3658-0.19532-5.8482-2.4666-5.2997-1.2942 1.5277-0.15114 5.8443 3.1334 2.1867 1.2631zm-6.3688-5.7608c0.33911-1.1755 2.2421 1.5891 0.18802 0.44669zm41.099 1.0987c0.51399-1.8194 0.24692 2.1448 0 0zm-42.479-1.299c-2.2117 0.87195-2.5365-3.2788 0.0027-2.3606 0.5148 0.20116 1.2138 4.1406-0.0027 2.3606zm0.10023-1.1217c-1.8356-2.2635-0.63744 2.5146 0 0zm31.665-7.7267c-0.45755-1.4286-1.8649-5.2054-0.07083-1.8403 0.76356 0.72462 0.70102 5.0243 0.07083 1.8403zm-31.366-1.104c-0.4841-1.3827 2.3983-1.5019 0.58093-0.09634 0.4708 0.25617-0.13792 1.2261-0.58093 0.09634zm6.2321-1.5158c0.79423-2.2228 0.48278 2.8493 0 0zm10.023-1.3205c-3.5281-7.4438-8.3519-14.203-12.475-21.329-1.0195-2.2446-4.6471-6.6401-4.4061-7.5446 6.14 8.7454 11.203 18.193 17.106 27.088 0.26157 0.18338-0.06766 3.4796-0.22496 1.7854zm2.1325-3.7407c-1.6449-3.539 3.1708 3.1019 0.34156 0.46599zm4.8711 0.64262c-1.2882-1.6919 3.54 0.30814 3.5096 0.51384-1.175-0.08763-2.4105-0.03121-3.5096-0.51384zm17.648-18.653c-8.607-1.8984-16.895-5.4733-25.736-6.1701-4.5443 1.7466-5.1298-3.2715-7.1165-5.979-3.4147-5.3492-6.3292-10.99-9.1926-16.646 9.0791-0.4786 17.388 3.8058 26.064 5.7109 3.6333 0.93115 7.6119 2.7775 8.4818 6.8191 2.0573 4.4201 3.5257 9.1314 5.7687 13.446 0.7249 2.5105 3.9708 1.846 5.0972 3.1347-1.1095 0.26826-2.2682-0.15658-3.367-0.31507zm-36.954-2.3574c0.2435-4.2405 2.1299 0.34452 0.28091 0.88506-0.09364-0.29502-0.18727-0.59004-0.28091-0.88506zm-5.8287-6.3955c-0.96799-1.5091-2.2437-3.9688-0.22845-1.1376 0.51042 0.44252 1.3989 2.6736 0.22846 1.1376zm-3.2112-5.0406c-0.72153-0.99683-2.4982-4.2335-0.44081-1.4723 1.1796 1.2543 3.0301 5.3696 0.44081 1.4723zm1.8828-0.32975c2.3084-1.7347 0.45837 2.0348 0 0zm-6.4775-6.9912c-1.2816-1.7393-3.2193-5.6516-0.72684-1.8583 0.82511 1.487 3.5347 4.967 3.1075 5.3957-0.84808-1.1411-1.6136-2.3412-2.3806-3.5374zm-8.3792-9.9213c-1.1388-2.1199 4.8053-0.90143 1.0045 0.28571l-0.5422-0.01633z" fill="#940000"/>
 </g>
</svg>
