<?xml version="1.0" encoding="UTF-8"?>
<!-- Created with Inkscape (http://www.inkscape.org/) -->
<svg width="100mm" height="100mm" version="1.1" viewBox="0 0 100 100" xmlns="http://www.w3.org/2000/svg">
 <g stroke-width=".83038">
  <path id="color-brighter" d="m38.538 96.094c-2.8274-2.6982-2.9688-7.0968-5.8093-9.8978-2.2742-4.3478-7.122-4.9169-10.896-7.3274-3.4927-2.1167-4.2095-8.6606-1.4152-11.423 0.95221-2.4743 7.1132-1.5921 6.4109-3.4862-2.9582-2.6265 1.0826-5.0982 1.0031-7.143-2.5284-3.7236-6.9104-5.3433-10.718-7.4206 0.13566-3.0413-0.35488-6.1751 0.43074-9.135 1.3287-2.6204 11.147-4.2961 5.4155-7.0444-4.6227-0.62027-6.7235-7.6433-1.6944-9.2417 3.3509-2.5344-0.4993-8.4306 3.3763-11.302 0.14124-2.8632 0.72846-5.0759 2.0212-6.9211 0.89848-3.8856 6.8451-1.9855 9.8946-3.111 3.1841-0.22978 8.452-2.4804 7.964 2.6557 2.0289 2.9724 6.8415 4.284 6.4784 8.6141-0.49742 2.2654 1.6382 1.5144 3.1098 1.524 5.292-0.10272 10.577-0.55631 15.744-1.6969 3.9042-0.27085 10.12-0.28864 11.598 3.5105 0.77257 4.4266-4.6488 5.1037-8.04 5.3431-2.9879 0.07859-5.9775 0.04672-8.9663 0.07164 4.5266 3.7579 10.489 7.6115 10.525 14.152 0.89589 3.4287-4.2026 8.8747 0.55766 9.6967 3.0653 3.7565-2.4196 6.2957-5.4335 6.6329-2.7001-0.32931-3.145 1.4774-0.17368 1.0656 0.82564 3.3417-7.776 0.57156-10.371 2.5021-0.27418 4.8635 7.4322 0.89973 10.375 1.6513 6.3199-0.30223 12.711-1.0236 19.017-0.34969 2.0537 0.78395 7.5172-0.69817 5.3109 3.2674-4.0583 0.48844-7.8128 2.2478-12.016 2.3472-4.3341 0.63695-8.6846 0.63563-13.027 0.31485-5.8944 0.2834-12.272 0.55123-17.231 4.2481-4.5079 1.9799-9.6242 1.7687-13.956 4.1651-6.054-0.3333 1.8989 2.846 3.887 3.0777 4.5713-0.04959 8.3988 2.399 12.472 4.0848 3.3428 1.1749 10.477 2.7943 7.5108 7.5977 3.518 3.5187-0.62519 6.3016-4.0368 7.0676-2.796 2.2584-9.891 5.8197-10.961 0.20934-0.28026-0.82993-1.1426-4.8653-0.98965-3.3766l0.70662 6.3245c-2.7271-0.0189-5.6414 0.24418-8.0729-1.2467zm17.419-45.287c-2.5698-4.6199 0.75623 5.3564 0 0zm-4.3839-8.637c-1.992-3.0516-2.3312 1.6132 0 0z" fill="#d40000"/>
  <path id="color-primary" d="m38.538 96.094c-2.8274-2.6982-2.9688-7.0968-5.8093-9.8978-2.2775-4.3514-7.1289-4.9192-10.911-7.3266-3.3543-2.3194-3.7492-9.5442-0.63076-12.055 1.7261-1.9798 8.3786-0.7317 4.8684-4.1948-1.4454-3.4181 4.6342-5.2279 0.06931-7.8338-2.6114-2.3106-5.8299-3.7002-8.8767-5.3185 0.16913-3.1983-0.674-6.6239 0.59693-9.6232 2.1862-2.5347 7.6078-4.6735 6.5338 0.78919 1.4404-2.4156 0.97755-7.7166-3.4172-8.3886-4.6599-1.6908-1.9979-8.0161 1.7156-8.8997 0.88108-4.2033 0.78332-8.5801 2.3074-12.614-0.25865-3.09 1.9819-4.007 2.7208-6.6534 4.892-1.162 9.7206-1.3722 14.694-2.1765 3.034-0.14222 0.94528 4.643 3.8259 5.5738 0.31315 4.3857 4.203 8.9696 8.9404 8.1589 4.9583-0.13613 9.8489-0.97239 14.697-1.9047 3.9007-0.25434 10.112-0.27952 11.587 3.5188 0.74724 4.5958-5.0111 5.1773-8.514 5.3431-3.4421 0.21945-8.1926-0.92907-10.028 2.886-1.5031 2.2114 0.65157-2.7946-0.28189-3.3515-3.5516 4.0833 1.4895 8.6161 3.8576 11.881 1.0315 2.2045-7.1142-0.17897-5.463-2.9693-1.5-3.0218-3.7163-0.35842-2.6214 1.9884-1.2903 5.6992-2.5528-5.3549-4.1937-0.14628-1.6293 3.8902 1.6165 8.8313 5.6707 5.9233 1.5928-0.79122 3.0583-2.1745 3.0583-2.1745 3.8274 0.43116 5.3535 2.2538 8.5608 4.2675 1.9026 1.5146 2.5077 1.7837 1.0666 4.5423-0.58407 2.1374 1.7595-1.1019 3.7679 2.745 0.1481 3.4683-4.6566 5.2266-7.8927 5.0672-5.181 0.70192 4.2021 0.94633 0.316 2.4859-2.7805 0.93237-12.078-1.7282-8.5379 3.2404 7.2055-0.13464 14.405-1.2104 21.636-1.1977 3.973-0.49377 7.8059 0.73006 11.74 0.57804 3.7169 2.8036-2.1642 3.4422-4.1698 3.9997-5.253 1.4017-10.805 1.7375-16.235 1.8501-5.3294-0.5841-10.832-0.08163-16.06 1.076-3.0381 0.01251-8.3951 7.2359-7.9696 0.64432-0.93176-3.6477 1.0024-9.3441-2.2016-11.649-1.033 2.5237 2.1135 10.289-2.1968 9.757-5.4607-1.2777 4.9645 1.8049 1.7288 4.8542-2.8347 1.1204-5.3916 2.4845-8.4672 3.467-1.8312-0.28779-4.0955 0.50861-4.2024 2.3401-2.7911-2.6879-5.5315-1.543-4.0821 2.3514 0.63327 3.4061 1.1775 0.62649 1.2998-1.0688 2.3487 1.8287 3.715 1.1076 4.6012 3.6748 2.3251 1.5541 7.4741 7.291 9.271 3.3348-1.1704-3.4206-9.7021-3.5215-6.6899-8.0674 3.7776-0.79418 3.7123 7.0027 7.1713 4.2959 0.15203-1.2444-5.0018-3.764-2.0346-3.4656 2.8691-0.25577 6.9231 0.41402 4.239 3.8341-1.3696 3.6988-0.91281 8.3082 4.0791 7.981 3.6232-0.75166 0.48179-7.1187-0.18622-8.8243 3.0463 1.1878 8.5304 1.7142 9.0734 5.164 4.2694-0.99475 0.95834 5.3463-1.9441 2.6346-1.5982-0.70599-3.8582-0.76957-1.7952 0.73125-0.70319 1.6105-0.51121 6.865 0.85034 3.2179 0.89238-0.62511 4.7546-0.07345 5.4681-0.79208-0.14148 4.3412-6.547 3.9247-9.1438 6.8197-3.564 2.1128-7.8346 0.53494-7.3057-4.0022-2.2172-3.3716-0.40941 2.5731-0.30132 3.9934-2.0361 1.3987-5.7843 0.64196-7.8519-0.41434zm17.187-33.214c-3.0748-4.7975-3.101 4.6917 0 0zm0.04416-10.768c3.4414-3.5217-4.3565-5.3059-5.234-7.1247 2.9579 2.331-1.0916 6.5777-1.9219 1.9076 0.3625-2.1923-2.9323-6.7938-2.7272-2.2055-0.14284 4.332 2.5106 7.8875 5.5635 10.658 1.6569 1.3127 3.3627 6.1853 3.1631 1.5148 0.28397-1.4338-0.08036-3.848 1.1565-4.7505zm-33.763-4.2471c1.8183-4.7014-4.6827 1.9691-0.57312 0.93012l0.30901-0.3931 0.26415-0.53704zm3.5624-3.8245c-1.4333-0.69954 0.60408 3.7189 5e-6 0zm12.595-6.6019c-0.22386-1.6422-3.1831-6.2152-1.9042-1.8867 0.35409 1.7173 1.4213 9.8178 2.3857 4.2874-0.03954-0.81869-0.22431-1.6247-0.48154-2.4007zm13.41 4.7307c-1.992-3.0516-2.3312 1.6132 0 0zm-20.759-11.13c-0.20158-2.164-5.3246-4.455-2.1876-1.1024-0.17446 1.5296 0.68184 2.7795 2.1876 1.1024zm21.261-10.699c-2.5157-1.2066 0.31939 4.6592 0.25162 0.66256l-0.25162-0.66245zm18.334-3.7021c-1.4333-0.69954 0.60409 3.7189 3e-6 0zm0.98462 14.818c0.19678-1.6959 0.70588-2.9895 1.2942-0.65098-0.20317 0.89065-3.068 2.8231-1.2942 0.65098zm-5.3083-1.8908c3.5812-2.9029 0.81454 2.6689-0.6983 0.87623l0.2517-0.38238zm-0.33407-3.1487c-1.4281-6.283 5.8864 4.4369 0 0z" fill="#ab0000"/>
  <path id="color-darker" d="m26.243 10.603c-0.14445 2.9856-1.3963 5.2887-2.7747 7.1145 0.09033 3.3858-0.18484 6.5013-3.0151 8.4524-2.0935 3.3701 0.92271 6.8511 4.3333 7.4328 1.7609 0.10349 3.0125-1.2361 2.6773 1.6169-0.39561 1.2131 0.77126 7.767 1.3199 3.5722-0.48667-2.7609 0.71363-7.6622-1.2919-9.1258-2.5222-0.94579 1.9343-2.8089 0.92978-4.8029 2.486-2.2765 6.2252-1.0514 8.8154-2.1242 2.9345 0.15413 8.4851-2.5015 9.3363 1.5144-0.15999 2.5517 0.5157 5.4552 0.76696 7.1233-1.0237 3.4475-4.9947 6.0311-8.2767 3.6576-3.5934-1.3703 1.4549 5.036 0.8839 7.0614-0.5498 2.5294-3.8778 0.81542-3.6602-1.0246-2.2851 2.2821-5.586 5.6218-8.9666 4.5366-1.8081-1.8911-1.0621-7.7829-2.1556-7.9469-0.11023 2.1772 1.0236 5.8583-0.04993 7.1746-2.6975-2.0808 0.30072-9.6489-4.7543-6.7959-4.1926 1.6448-2.7555 6.9552-2.2088 10.368 2.2762 4.4646 0.3931-3.9884 3.4748-4.1012 2.2205 2.7634-1.5632 6.9836 2.6146 8.6978 1.6089-0.62234 3.0797-2.2307 2.01 0.58035 0.55802 1.9424 3.7535 4.0367 3.3911 5.2829 1.9879-1.1072 0.08606-8.2589 2.7131-4.3219 2.859-1.8059-0.47089-6.4998 1.1575-9.2559 2.5834 2.0662 6.5762 0.5213 9.2889-1.0416 1.7527-0.48798 3.6791 2.9304 2.5125-0.46086-3.8598-2.3305 4.4758-0.40448 3.9689-0.34632-0.98894-0.86178-1.9105-2.5232-0.75514-3.1688-2.2008 1.5017-5.4904-2.0865-3.2177-3.0703 2.4756 0.23513 6.385-2.3717 6.8764-5.5651-1.5649-2.1196 2.0324-3.9111-0.01346-5.4322-2.7274 2.5726 0.74348-5.6625-2.8678-4.8147 3.3388-1.2584-4.4751-2.4632-0.51923-2.5262 3.362 1.4395 6.5944 1.0594 9.5253 3.2496 2.8268 1.3194 5.2408-0.38437 8.3558 0.34268 3.6331 0.05335 7.5719 0.28366 10.96-1.0364-2.5904-1.4308-5.2922-3.2432-7.7729-4.0751 0.96725-4.9315-4.9998-1.9531-7.8071-2.1291-3.386 0.39072-6.7967 0.55086-10.189 0.81905-1.398 0.96083-1.5181 3.7838-3.7846 1.3877-2.7697-1.2284-3.6496-4.1879-4.1879-6.3893-1.7999 0.06841-2.7596 3.617-3.0136 0.85549-1.9629-0.3123-1.1349 2.4653-3.7449 1.79-2.2771 2.5501-7.1154 0.15195-9.0956 3.4669-0.85877 2.0802-0.31328 7.8241-3.6627 6.6967-0.59635-1.9974 0.09604-1.9748 1.25-1.0452 1.4233-3.4771 0.82689-7.4647 0.805-11.149l-0.08536-0.74675-0.09623-0.29802zm39.08 5.3618c1.6867 2.2492-3.0618 2.0654 0 0zm-8.0053 0.93254c2.5326 0.78228-3.1757 0.84305-0.45476 0.03078zm5.0017 0.72821c3.3508 1.9724-2.0973 2.0284 0 0zm-2.7182 6.1808c-0.68511 1.841 3.8459 1.1958 0.64873 0.14597zm6.5408 0.78497c-3.4775 1.0103 4.3745 4.7838 0.55472 1.6287 0.7548-0.52648 0.25159-1.5678-0.55472-1.6287zm-8.4416 1.6607c-2.3819 1.092 1.5787 3.4768 0.37136 0.24065l-0.16313-0.17484zm10.114 2.1684c-3.0509 1.9924 1.6144 2.3308 0 0zm-6.2311 0.06327c-2.3504 2.0378 1.3093 6.5448 3.0039 5.2372-1.5306-1.9151-0.04246-4.3954-3.0039-5.2372zm1.5878 8.3806c-1.9357 1.4827-6.0437 5.3617-6.0701 6.3809 2.1462-1.9629 4.4507-3.9668 6.0701-6.3809zm11.126 1.8078c-1.1 1.912 0.7355 2.2505 0.26434 0.3876l-0.26434-0.38762zm-22.779 3.8648c-2.3039 2.0539 2.5242 5.7474 4.434 6.1272 1.8797 2.8589-2.2678 4.4623-1.0574 7.9405-0.54963 2.7647 1.6492 6.1154 1.437 7.6842 0.43969-1.7061 3.8415 1.9191 2.2407-1.0726-2.4522-3.2916 4.944-2.0553 6.9178-2.5473 3.5913 0.31227 6.7532-0.6709 9.3871-2.5863-4.9317 0.34397-10.071 1.0608-15.017 0.92493-3.0606-3.694 3.9262-3.3325 6.2705-3.2206 1.5763 0.39194 5.66-1.1769 2.0246-1.324-2.507 1.0954-5.3807-0.2553-2.777-1.5772-2.717-2.0747 3.8262-1.7184 4.6708-3.5307 1.2703-1.1648 1.9184 0.22688 2.9251-1.5049 1.4554 2.2917-1.9577 3.9961-3.1732 2.5996-1.3796 2.7272 2.3107 3.1717 4.3734 0.75678 3.8932-0.98878 0.85583-6.9981-2.6178-4.5386-4.8957 0.3275-9.9493 0.51214-14.746-0.64393-1.7671-1.019-3.9474-0.77199-4.9204-3.3057l-0.3724-0.18138zm-7.6534 9.2493c-3.0552 0.42269-9.2479-1.0632-9.1424 3.5647 3.5986 0.80942 7.6215 0.61626 11.282 0.04102 1.0738-4.4023 4.8424 2.0071 3.716 4.4687 0.38105 3.0296-1.2372 6.441 0.23561 8.7057 0.89232-1.1772 1.4635-0.69017 2.8544-1.1051 0.13656-1.4975-3.6473-0.80796-0.40787-1.5738 2.6819-0.3232-0.777-0.84377-1.5083-1.5343 4.0551-0.45902 2.7892-6.8952 0.32972-8.8161-1.9295-2.1162-4.284-4.1221-7.3594-3.7507zm18.503 0.71523c3.2532 2.9423-3.1484 3.2858 0 0zm-31.374 8.7546c-2.46 1.1097 4.7161 3.0627 1.1444 0.46207l-0.38061-0.25452zm47.883 0.48492c-5.7439 0.71647 4.6231 0.68646 0 0zm-6.5927 0.72498c-2.2242 1.6561 3.3055 2.2887 0 0zm-37.905 1.857c0.8053 2.8347-4.843 2.5811-4.269 5.4618-2.3236-1.3865-5.0503 4.1925-4.7194-0.621-0.21509-1.7324 2.2948-4.1522-1.2064-3.3054-0.96688 1.3914 0.03231 4.5949 0.50367 6.3394 3.1673 0.06934 6.7348-0.0747 9.0104 2.2498-0.75832-5.0145 7.2838-0.11863 6.0389-4.8445-1.3593-2.0757-3.252-3.972-5.3581-5.2801zm-7.5966 10.707c-3.2079 0.11269-1.2704 1.6383 0.82452 0.68895 0.95588-0.37216 2.3854-0.46879-0.82452-0.68895zm11.62 0.36977c-3.7221 1.7966 4.9321 2.8673 1.3601 0.33838l-0.64484-0.2266zm4.0092 0.32276c2.0476 1.7342 3.8036 4.2087 3.0148 7.0517 0.06059 3.9711-6.7693 0.80394-5.5 4.2187 1.4424-1.0646 3.5828-1.2857 0.93209 0.1792-1.9218 1.3196-5.6416-0.07849-6.6673 0.41443 1.9138 2.9477 1.6816 7.5599 5.3459 9.0356 2.1528 0.84678 7.884 0.47453 6.2803-1.3923-1.5685-1.0044-0.79958-5.1366-4.0338-3.8225-2.6689-2.7167 4.7753-4.4243 4.8713-7.785 0.75707-2.5859 1.6701-8.2228-2.5871-7.7712-0.55207-0.04301-1.1042-0.08568-1.6562-0.12867zm12.11 7.5902c-3.8203 1.855 2.5144 3.2609 4.5014 2.986 2.057-0.33004 3.766 0.24763 2.8147-0.99761-1.3174-2.2369-5.0963-1.2808-7.316-1.9884zm-6.5992 6.7679c-1.8736 1.5188-1.4522 6.7388 1.2277 7.1815 3.0347 0.67268 6.5209-1.3594 6.2289-3.9162-2.5141 3.2906-7.9063 0.81097-7.3083-3.1881l-0.14822-0.0772zm13.07 0.90173c-2.1118-0.77883-5.1554 3.1232-1.439 2.2873 1.5639-0.40514 5.0869-3.3013 1.938-2.261zm-18.554 3.1447c4.3389 0.84402-4.2039 0.60051 0 0z" fill="#920000"/>
 </g>
</svg>
