<?xml version="1.0" encoding="UTF-8"?>
<!-- Created with Inkscape (http://www.inkscape.org/) -->
<svg width="100mm" height="55mm" version="1.1" viewBox="0 0 100 55" xmlns="http://www.w3.org/2000/svg">
 <g stroke-width=".4594">
  <path id="color-brighter" d="m92.988 9.6218c-5.9404-1.5269-11.88-3.3231-18.044-3.5542-0.32739-2.698-3.0588-3.1714-3.9514-0.18143-2.5676 0.61693-5.7374 5e-3 -8.1979-0.48791-0.07804-3.1268-3.4828-2.0363-3.3597 0.28099-2.9402-0.20584-7.6887 1.1254-9.6118-1.2092-0.7129-2.6669-3.3583-0.47439-3.5955 1.0145-2.8289-0.33583-7.8547 1.3705-8.7169-2.2822-2.6378-1.5947-2.0394 2.949-4.2706 1.7898-1.9769-0.14359-4.1737 3.2045-5.9209 1.8235-3.3518 0.108-5.0116 3.6339-7.7227 5.0046-3.7699 0.95844-1.7677 5.4653-4.0877 7.6498-0.32251 2.8721-3.8317 4.0722-2.6299 7.184-2.8203 2.5069 4.4515 5.181 0.16448 7.706-1.74 3.05-3.6486 6.3093-7.6544 4.9195-3.8423 1.8727-2.3403 5.324-0.36571 7.8547 0.21344 1.7975-2.6647 5.5645-2.4456 5.7292 1.9597-1.4334 4.3472-4.8017 6.548-2.996 3.0525 0.28258 7.3131-1.1713 5.6115-5.1672-2.1699-2.9117 2.0382-6.0756 4.5448-7.3031 3.6151-1.4321 7.3554 0.35014 10.119-3.1802 1.4857-0.86972 4.0082-0.65876 3.206-3.0517-0.8664-3.0556 2.0535-3.7489 4.3274-4.3193 2.0643-0.1033 6.0243-3.2347 6.6522-0.13307 0.94248 0.9402 4.7089 0.35164 6.6215 0.60377 4.8239-0.0209 9.688 0.40658 14.484 0.2302 1.5513-3.2815 6.2364 0.68323 9.0257 0.5891 3.3149 0.46254 6.7071 1.7753 7.0842 5.6582 0.03361 1.867 1.8346 1.7547 3.2281 2.0986 1.2762-0.0198 2.9912 1.329 3.9263 0.24451 2.0269-2.2442 4.0532-4.4889 6.0794-6.7337 0.0336-3.2971-0.23166-6.6127 0.11676-9.8943 0.91777-1.4272 3.6637-3.3209 0.15466-2.7734-0.99926-2.1743-1.1856-4.724-1.319-7.1141zm-46.907 17.559-0.0044-8.1e-4z" fill="#d00000"/>
  <path id="color-primary" d="m3.7554 51.391c1.6009-0.8701-1.2762 1.6163 0 0zm1.4603-2.0588c2.3021-1.6358-1.7017 1.9913 0 0zm0.97594-1.9728c0.6951-2.007 0.8681 0.22503-0.02115 0.73038l-0.1192-0.21463zm2.1558 1.1435c2.2819-0.90654-0.5547 1.8337 0 0zm-5.0392-6.28c1.8731-1.3513-0.45493 2.6248 0 0zm1.0559 1.6476c1.2828 0.49786 3.3328-3.0888 3.4009-0.55031-0.84147 0.79971-2.995 2.8884-3.4009 0.55031zm2.7492 1.5124c2.1838-0.43442-0.49926 2.0303 0 0zm2.6802 1.7859c0.71499-1.9507-0.44622-2.7145-0.97255-3.0075 0.39975-2.3457 3.4421-3.9252 2.1687-0.42442-1.2575 3.8872 1.8656-1.3891 1.1397-2.4226 2.8807 1.6971-2.5067-2.3084 0.37241-2.7992 2.5141-1.7707 0.75143-0.20722 0.19918 1.1016 2.5638 0.73577-1.411 3.0153 0.87553 4.8022 0.98876 1.737 1.7144 2.0714 0.32935 3.6426-0.29219 0.27523-0.37045 0.35685-0.78872 0.406-2.6164 1.0656-1.1038 0.098-3.5575-0.2084l-0.0086-0.37869 0.24273-0.7116zm-5.5589-6.9385c1.6295-1.5042-0.67387 2.3231 0 0zm4.4631-0.33002c4.9426-1.6044-0.35529 1.8728 0 0zm4.2061-4.6063c1.9276-2.8181 0.93254 0.49107-0.20785 0.59145zm1.9516 0.12709c0.95641-1.5802 4.8531-6.1506 2.2512-1.7503-1.9274 1.1438-1.8728 2.0878-1.3854 3.5948-0.92368 0.17287-1.4768-1.2126-0.86555-1.8446zm3.4649 1.0285c1.4099-0.93667-0.22156 1.8838 0 0zm-0.10974-3.0584c0.69514-2.007 0.86811 0.22503-0.02117 0.73039l-0.11922-0.21464zm1.2467 1.5966c2.0808-0.31869-0.72734 1.3481 0 0zm0.64966-1.2993c2.3402-0.0391-0.32091 1.8279 0 0zm-7.3185-8.7612c1.0292-2.5441 2.5382 1.3659 0.27581 0.78642zm6.8614 4.5682c4.2275-2.6256-2.1596-4.7246-3.4552-6.1128 1.3048-1.5086 3.104-5.314 4.5773-2.8467 1.2798-0.78318-2.0078-0.37162 0.82794-1.5559 1.961 0.93649 4.7256 3.1698 5.9752 4.5912-1.4803 0.99341-2.7949-0.0473-1.2169 1.8635-1.9136 1.7946-4.9694-1.5096-5.0633-3.2771 2.2684-2.006 0.52324-2.7745-0.90163-0.39481-0.60808 1.7716-3.5534 1.0192-0.634 0.53315-2.7125-0.73854-2.4658 2.3194-0.60433 1.7293 1.2651 1.6082 6.5446 2.2324 2.5476 3.9091-0.62985 0.94351-4.5983 4.8619-2.0527 1.5611zm-0.11764-7.968c0.58286-1.4821-1.7402-0.0194 0 0zm4.6354 1.9284c-0.42981-2.6923-0.70367 1.1895 0 0zm-7.6084 3.8246c2.5324-2.1806-0.16183 3.0338 0 0zm4.8986 3.8605c2.3029-1.6364-1.7021 1.9916 0 0zm-7.2795-8.2787c0.73008-0.80339 4.9779-5.1646 4.8203-3.7655-1.4083 0.20731-4.6487 7.1087-4.8203 3.7655zm12.12 12.431c1.4138 6e-3 -0.36744 1.8925 0 0zm-6.9021-7.9039c0.73959-2.0631 0.3481 2.6496 0 0zm2.5503 1.2623c1.6009-0.8701-1.2763 1.6164 0 0zm-6.3882-9.4108c1.7556-2.3146 1.4375-5.9201 5.1298-7.0381 2.7296-1.466 4.9533-2.6031 7.9906-4.1471 2.1833-0.68317 4.6978-2.2528 5.8837-2.5796 0.80584 1.5082-3.3391 4.7882-1.314 5.3348-0.98145 1.7542-2.2246 3.045-0.36634 3.6542 0.60312 2.279 1.1249 1.058 1.5341 0.12203-0.93777 2.3766-0.12764 5.299-0.34157 7.8574 0.38681 1.76-0.25368 3.2657 1.5567 4.7148-1.51 0.38481-4.157 1.0164-4.6313 1.2759-1.1939-2.6402-3.4091 7.1515-3.4944 2.0684 2.0116-2.784 4.9802-5.3352 3.8808-8.8844-3.8665 0.54038 2.5436-0.65273 0.10287-2.7603-1.8253 0.0699-2.4358 5.1846-4.9235 1.8201-4.1946-1.3677 0.66731-4.5152 0.27232-5.2671-2.8947 2.9168-6.3891-0.0663-8.5908 2.8348-0.74534 0.25067-3.4261 3.5646-2.8022 1.5355 0.03773-0.18039 0.07546-0.36089 0.11318-0.54132zm17.867 5.6765c0.31872-2.0808-1.348 0.72727 0 0zm-3.2769-11.236c-0.87558-0.19387-1.3133 1.95 0 0zm-3.3824 15.946c1.7447-1.2572-0.87401 2.3696 0 0zm-0.07268-1.6968c0.74037-2.2354 3.1015-4.7844 2.7331-1.3983-0.36526 1.2546-4.8278 4.3114-2.779 1.4861zm1.8308-0.93042c-0.87559-0.19387-1.3132 1.95 0 0zm1.8095 4.3117c0.7949-1.4268 2.5419-5.1702 2.0751-1.0729-0.23035 2.1306 0.62456 2.2924-1.1239 1.6711-0.51562 0.333-1.2354 0.13395-0.95122-0.5982zm1.1234 0.12138c1.0158-2.2346-1.9329 0.24245 0 0zm-8.2745-13.348c1.1817-0.70699-2.8685-0.66353 0.4631-0.79643 2.7888-0.22695-2.4771 2.7195-0.4631 0.79643zm0.98344 1.0266c1.6831 1.2061-0.77571 0.40863-1.9e-5 2e-5zm13.319 5.8012c-0.21182-1.7472 3.831-7.4048 0.58936-3.6264-1.6828-0.57818 4.8647-6.6753-0.0029-5.2369 2.5492-0.69554 1.2101-7.205-0.11128-3.5684-1.0834-1.461 0.24465-2.6058-0.71458-4.2443 0.64942 0.89834 3.1058 2.6919 1.4842-0.33358 0.07696-2.1188-1.9357-1.0293-1.2572-0.3622-1.4361-0.79634-1.5094-6.6665 0.77959-2.596 2.4783 1.7625 10.97-1.4409 7.4993 3.5989-0.65013 2.3672 2.2075 0.7557 0.78692 3.4905-1.0196 2.6713-1.0378-4.1731-1.3244-0.61847-0.32905 2.0068-0.81882 2.9324 1.417 1.9838-0.55312 2.8229 0.08635 5.5676-0.42667 8.2948 0.30829 1.2595 0.45656 3.3798-0.20938 2.8339-0.41307 2.7293-3.425-0.96151-5.2874 1.1001-1.078 0.17054-3.7782 1.641-3.2226-0.7158zm7.2698-2.1472c1.9592-0.5938-3.3067 0.0264 0 0zm-2.2377-5.2249c5.5882 0.63791-2.2878-4.1214-2.618-0.20352-1.243 0.31806 2.387 0.21209 2.618 0.20352zm-19.899-8.1415c1.1877-0.69226 4.6564-3.774 4.7491-1.8535-0.44377 0.49604-7.0889 4.4195-4.7491 1.8535zm11.227 2.1889c1.3008-3.2425 0.14748 3.616 0 0zm16.211 11.32c1.1129-1.8914 2.0885-4.7487-0.13425-1.6571-1.8151 2.2163 1.6358-2.7077 1.5453-3.5942 2.3761-0.25134 6.0405 0.33787 6.6744-0.30456-0.61847-2.9684-6.9635-0.16321-7.1163-1.9034-0.12152-1.6028 0.99061-3.8884-0.08441-5.4492-0.39003-1.533-0.45237-4.9216-1.7015-2.1227-0.81145-1.6175-1.1484-6.3415 1.0941-2.4953 3.171 0.60428 6.4404 0.39484 9.6562 0.57556-0.57344 1.7136-2.3043 3.7402-1.8233 5.3038 0.91325-1.5223 2.37-2.2489 1.7165 0.42263-0.42092 2.6925-1.3661-1.5452-1.3865 1.35-2.4858 2.4663 2.3315-0.85198 1.36 2.2845 0.05899 0.66525-0.10083 3.5346-0.4182 1.2132-0.5705 3.0199 0.45937 6.2784-0.25869 9.3804-2.4438-1.5833-6.312-0.67879-7.9884 0.22893-0.18326-1.7491-3.2773-0.5466-1.1352-3.2322zm-0.49458-12.223c-0.8056-3.3698 2.4107 1.6381 0.30188 0.64355 0.41002 3.5112-0.59428 0.82756-0.30188-0.64355zm12.603 14.434c1.304-0.74312 1.116-3.4704 1.7965-4.5489-2.0638 4.463-0.64549-4.4838 1.6707-2.4151 2.1855 1.0308 6.2835-0.95752 2.1241-1.7122-1.7966-0.77357-6.9497 1.7466-3.7758-1.0867 1.4757-1.559-1.2122-6.1206-1.1665-2.6515-0.92199-1.9175-0.03151-5.3463 1.2099-1.6829 1.3889-0.18319-1.1477-4.812-1.7678-3.3297-0.97034-4.1492 5.2129-0.9149 7.5888-1.4507 2.2533 0.13738 2.055-2.8125 2.0263 0.73663 0.12067 2.3402-0.71685-0.89816-1.3416 2.0287-1.1543 1.6814-1.0441 4.5013 0.12694 2.1136-1.1465-1.3065 1.7308-0.14213 0.35361-2.0479 2.0988 2.4987 0.16521 6.6744 0.22228 9.6642 1.5479 1.3538-1.5375 5.4835 0.2346 4.1333-0.05718 2.1257 0.44698 5.0624-2.6071 3.9488-1.8602-1.6019-5.1606-0.18867-6.6949-1.6994zm9.295-12.017c-0.41735-2.6878-3.3606 3.101-0.05733 0.83192l0.10531-0.30852zm2.044 13.966c-0.46321-1.5078 3.0032-5.6956 1.4711-5.4301-1.086 0.21606 2.3644-4.4075 0.73081-5.4599 0.47029-1.4088-2.5731-0.72491 0.0318-1.475 0.96265-1.5244-0.2631-3.4506 0.39611-4.6346-0.82041-1.1529-1.1348-4.0872-1.9568-1.6-1.33-4.3508 5.8266-1.4977 8.0711-1.5956 3.3647 0.85469 6.8941 1.7944 10.087 2.8423 1.0367 3.5727 2.0962 7.1912 1.5163 10.786-0.24983 3.8944 0.77685 8.714-2.9455 11.341-1.9338 0.95679 1.5029-2.6473-1.1583-2.5117-2.0189-0.93785-3.4908-1.4459-5.8447-1.1193-4.2688-1.8164-2.0552 3.5048-2.2315 4.4482 2.1892 0.28973-0.95863 4.1948-0.95348 0.93788-0.31904-3.1513-2.2921-4.8882-4.6551-5.2019-0.57951-0.37076-3.3048 0.0297-2.5588-1.3277zm18.319-0.77736c-3.1356-0.98708-0.0727-2.2372-0.3713-3.3139-1.5114-2.3836 5.0541-6.11 0.28238-5.0482 1.2815-1.271-1.8304-2.2658 6e-3 -4.255-1.9845 1.1897-6.0721 0.72521-8.8929 0.17891-0.73403 1.479 3.3388 1.7885 0.59412 3.64-0.65431-0.6532-1.6537 3.1955-0.91408 2.6571 2.4404-1.9407 2.7541 1.8606 0.0828 1.248 1.269 2.3944 2.8292 2.2442 2.1734 0.48845 2.5361 2.1512 5.3471-2.2828 4.9728 2.1073 0.28954 1.5045-2.3447 0.403-3.3263 0.77441-1.5868-0.30406-7.1914 0.98565-2.5943 1.2694 2.6566 0.15274 5.3266 0.34514 7.9871 0.25351zm-5.3098-8.5794c1.3045-1.3552 7.1327 0.13038 2.7802 0.54616-0.8576-0.0901-2.178 0.20649-2.7802-0.54616zm-3.4243 6.2689c0.05643-3.4611-2.9355-0.44755 0 0zm8.8087-12.057c2.0961-0.42768-3.3345-1.3296 0 0zm-2.5573 21.631c0.27193-1.1499-0.0401-1.8586 0.76223-0.08 0.16689 0.60423-1.598 0.34891-0.76223 0.08zm-28.489-29.808c2.8851-0.31465-0.77513 1.622 0 0zm34.476 13.194c1.8717-0.52527-1.1877 1.7886 0 0z" fill="#900000"/>
  <path id="color-darker" d="m19.458 34.988c1.9377-0.35783-0.69329 1.3476 0 0zm0.64966-1.2994c2.3434-0.10474-0.18133 1.8678 0 0zm-6.7336-9.142c1.1973-1.5606-0.54059 2.3646 0 0zm0.62822-1.024c1.1721-1.3318 3.473-4.8067 4.7188-4.1929-1.7359 1.0176-2.97 4.574-4.6629 4.3635l-0.05602-0.17064zm1.5961 0.33514c0.23666-1.2802 3.8854-3.4183 3.613-1.7507-1.1266-0.34505-2.1117 1.1024-0.99922 1.5464-0.66528 0.29862-2.0891 0.79014-2.6138 0.20435zm0.2695-4.8202c0.91868-1.994 3.0797-3.9583 5.7401-3.9334 1.2627-1.685 2.8696-1.6094 3.4394-0.6252 1.5126-1.3801 2.3013-3.0834 4.6728-3.2051 2.4354-0.47612-0.51787-3.8481 2.4819-4.5799 2.5927-0.11408-0.07625 4.5655-0.43177 6.1755-2.7701 1.3364-5.5732 3.031-8.1976 4.466-2.8263-1.7688-5.0469 0.47559-7.0829 2.2699-0.68001 0.5873-0.67914-9e-3 -0.62178-0.56783zm11.877 12.526c-0.80283-0.80742-0.90508-3.359-0.36541-1.361 0.60413-1.3023 3.7432-3.3381 1.8864-0.66542-0.17006 0.40779-1.7775 4.1662-1.521 2.0264zm-1.4038-3.0639c0.628-1.2874 1.3679-1.9059 1.4754-0.56767 2.0498-0.83193-0.62359 0.74251-1.167 0.92933-0.55388 1.1651-0.61188 0.12728-0.30859-0.36152zm-5.3579-7.9035c1.7956-1.5595-1.0781 1.7716-0.3387 0.35495zm9.3557 10.338c1.151-0.13926 0.15948 2.1687 0 0zm1.3028-0.0146c-0.99484-1.3475 0.8464-1.8415 0.34192 0.16575 0.03527 1.087-0.61362 0.44768-0.34192-0.16575zm-3.33-5.5933c2.8612-2.5733-1.7952 3.2706 0 0zm2.5522 2.3754c0.46287-1.7231 0.51961-3.6485 0.55837-5.199 1.6229 0.38439 1.0108 4.2058 1.9936 2.2205-1.282-2.3124-1.3762-5.226-2.8026-7.385-2.1564-0.55467-2.5944-2.3133-0.33531-3.0704 0.9229-0.90404 4.2033-0.17201 1.4701 0.34535-0.93224 2.5376 4.0125 4.5174 1.6143 6.7639 1.7516 1.8124 0.22658 4.1832 2.0628 5.5933-1.5204-0.0635-4.0268 1.7486-4.4522 1.6191l-0.05044-0.37666-0.05856-0.51116zm1.7177-1.3051c-0.64977-1.9422-1.8848 2.3809-0.055 0.25053zm4.9002-1.4806c-0.27403-1.8643 2.9043-4.9043 1.9912-5.6024-0.93742 0.84028-2.9294 3.2579-1.2573 0.79852 0.39076-2.4442 2.8943-3.1965 4.5402-1.5572 1.801 0.5495-0.64899-1.6007 1.5966-1.0528 2.2033 1.82 0.24093 3.7472 2.0068 6.1028 0.47596 0.85111-0.02833 1.7349-0.29884 0.38801 0.25591 1.8655-1.224 2.4211-2.1138 0.82761-2.2144 0.205-4.3311 1.0776-6.5103 1.5516 0.01512-0.48537 0.03034-0.97099 0.04545-1.4563zm1.2718-1.3173c-0.72951-0.81863-0.97519 2.6143 0 0zm5.5548-0.79163c3.1294-0.24563-2.4889-0.56677-0.92179-5e-3l0.42842 0.0153zm-18.029-15.755c2.5743 0.3218-0.72714 1.6392 0 0zm12.825 7.697c1.203-0.97218 0.43293-2.7486 0.49863-3.509 0.96226 1.3901 2.4308 1.242 3.7729 2.3516 1.9695-2.3306 2.4578 3.3389-0.6448 2.052-1.0381-0.23354-3.5037 0.64412-3.6268-0.89463zm10.283 10.051c0.06931-1.5104 2.9373-4.6455 1.5005-5.6619 0.38707-1.8524 5.0938-1.7918 2.9675-0.0326 1.193 0.58402 5.4802-0.66114 2.1152-0.37987-2.5492-1.4993 4.5892-0.32336 1.9317 1.4444 0.26675 1.131 1.9623 4.3953 1.3629 4.2458-0.10506-1.0493-0.84735 2.6701-1.7462 0.86994-2.0362-0.67362-4.8389 0.12136-6.181 0.50142 0.02124-0.73055-2.5577-0.66109-1.9507-0.9873zm8.0368-1.7086c2.0632-0.50421-3.3883-0.044-3e-6 -1e-5zm-17.349-12.913c-0.26182-2.1804-1.8282-3.4476-2.108-5.2742 2.0525 1.3646 5.0171 0.39243 7.4241 0.73719 2.8506-0.33593-0.09696 3.4539-0.86473 4.892-1.4627 0.48507 1.0382-1.6405-1.0223-0.99683-1.1868-1.0022-3.8296 2.0708-3.4291 0.6418zm1.9188-0.3255c1.7198-0.23278 2.3274 0.44263 0.10616 0.26672l-0.17692-0.0994 0.07088-0.16753zm9.1029 5.3016c0.54578-3.5011 3.8078 1.876 5.9023-0.56441 1.2292-0.23388 1.7396 2.8419-0.28411 1.4296-1.7127-0.47142-4.4045 0.56936-5.6182-0.86516zm11.551 8.9682c0.5203-1.8232 2.5145-4.1231 1.3155-5.2358 1.4541-1.2877 6.6067-0.57954 5.7619 0.79161-0.06428 2.1394 2.6202 5.4701 0.5692 7.0311-2.5789-0.56642-5.1679-0.98477-7.8159-0.99719-0.90996 0.17139 0.19958-1.1659 0.16925-1.5898zm-11.517-15.123c0.40916-1.619-2.6989-3.5625 0.24277-3.1544 2.8144 0.0298 5.6844-0.14171 8.4621 0.27312-1.0627 0.94165-1.2181 5.1094-3.5439 4.2794 0.19692-1.6459-4.007 0.95217-4.9066-1.0323l-0.25417-0.36578zm12.071 11.532c1.579-0.88334-1.2843 1.6184 0 0zm10.179 6.6612c0.36426-2.7341 2.2981-4.7854 2.9582-7.3164-2.5499 2.4404 0.80915-4.1743 1.0633-1.4073 1.8935-2.7948 4.7118-0.31599 3.9348 2.3779 0.09473 2.3605-0.53638 2.6991-1.3197 4.376-1.12-1.4069-4.0367-0.96023-3.4724 0.70892 0.88748 0.36767 1.7925-0.33346 2.6467 0.58 1.5533-0.29959 0.36855 4.1288-1.7002 2.2379-1.3209-0.48681-3.1888-0.51869-4.1107-1.5571zm6.9343-6.9343c0.10301-1.1123-0.14689-4.0723-0.22411-1.4618 0.07233 0.30375-0.32466 1.6203 0.22411 1.4618zm-16.168-5.0612c1.4252-0.97837-0.7774-4.8938 1.1066-2.3893 1.7023 0.23674 2.9558 1.861 4.0436-0.0175-0.0659 0.96627 1.2446 3.9142-0.67831 3.4337-1.4186-0.28352-4.3764 0.83558-4.4719-1.0268zm-0.52224-7.0124c-0.16214-0.72434-1.5517-2.3087-0.90756-2.4684 2.9454 0.48744 5.9901 0.19061 8.8927 0.84403-0.84842 0.60602-0.4605 2.2929-1.8385 3.1118 0.08609 1.8326-2.9844 1.1277-4.3871 1.0671-1.0617-0.0275-1.044-1.6271-1.6455-2.3248l-0.07533-0.15172zm3.5234 2.2172c1.0389-0.0539 2.8641-0.10772 0.82521-0.16155-1.1054-0.21466-4.5956 0.0585-1.6136 0.193l0.3826-0.0131zm9.745 4.8321c1.1768-1.4021 6.283 0.85279 2.6406 1.0013-0.86795-0.20724-3.7783 1.1692-2.6406-1.0013zm8.2349 8.072c1.3109-1.5145 6.5435-1.1229 3.8493 1.389-1.3333 0.37064-3.1454-1.237-2.2598-0.0127-3.1048 1.127 1.2205-2.8408-1.3236-1.0866-1.1994 0.64524-1.284 0.78823-0.26549-0.29011zm-3.538-6.5551c1.1973-1.5606-0.54062 2.3646 0 0zm-5.6852-7.3357c0.06949-2.6728 4.5944 1.2533 1.2238 1.3212-0.42293 0.66328-1.1425-0.9861-1.2238-1.3212zm4.3395 3.2222c0.36596-2.6495 6.1887 0.51794 2.5149 1.3239-0.94344 0.82303-3.892 0.3588-2.5149-1.3239zm-5.0748-5.1067c-1.9302-1.7001 1.6807-0.99413 3.0251-0.9421 2.0576 0.0199-0.84459 0.51698-1.4686 0.8435-0.62331-0.251-1.8867 1.8084-1.5565 0.0986z" fill="#670000"/>
 </g>
</svg>
