<?xml version="1.0" encoding="UTF-8"?>
<!-- Created with Inkscape (http://www.inkscape.org/) -->
<svg width="100mm" height="100mm" version="1.1" viewBox="0 0 100 100" xmlns="http://www.w3.org/2000/svg">
 <g stroke-width=".65507">
  <path id="color-brighter" d="m50.16 96.721c-5.9621 0.68779-4.9262-5.877-5.8974-9.7797-3.3569-2.5596-9.1503 0.13949-13.389-0.15032-3.9575 1.0154-7.7794 0.34532-7.9138-4.4649-0.62765-4.2235-1.6799-10.458 2.4683-13.109 4.5089-0.58898 7.3574-4.5196 11.724-5.4867 1.3635-0.6565 3.9448-0.5087 3.0592-2.6507-1.6479-4.4173 3.2975-4.3925 6.0861-5.7997 2.2651-0.84823 2.7039-2.2288 0.91726-3.8738-4.0165-5.8261-7.5207-12.051-12.078-17.469-4.6352-1.9121-6.7322 4.6719-7.8202 8.0988-2.3183 6.3345-3.142 13.363-6.8257 19.111-3.1387 6.175-6.6039-1.5326-9.1303-4.0511-1.9916-3.6809-9.6087-8.2009-3.7775-11.846 3.69-4.1931 4.4066-10.043 6.2642-15.151 1.6963-4.9357 2.4375-10.637 6.5453-14.289 2.6308-3.9821-4.264-7.1723-1.8726-10.763 3.2982-2.005 6.5777 2.6744 8.3703 5.0517 1.0876 4.2571 2.7851 8.2917 5.3979 11.891 6.139 9.3999 12.261 18.837 18.947 27.856 3.6207-1.3861 5.4128-5.468 5.3951-9.1026-0.98889-1.8414-5.8862-0.58998-3.7658-4.253 1.354-3.2455 4.4038-5.7401 6.6816-4.9421 4.7399-2.6216 7.3528-7.7335 11.126-11.5 3.3839-2.8846 5.6151-6.915 9.7436-8.5725 1.9546-1.378 5.0849 1.2152 6.4885-0.77238 2.5699-3.0644 4.7681-6.5377 7.9258-9.0278 2.8526 2.8433-4.8113 6.734-5.2208 10.438 5.2313 1.1402-0.4768 6.6475-1.0355 9.8789-4.4246 6.9822-9.797 13.193-15.83 18.851-2.0013 1.2767-5.3623 4.2443-5.0086 6.1914 1.4579-0.01258 2.9219-2.7547 1.6487 0.37905-1.2132 3.2578 6.3526 6.134 1.1167 9.0313-4.3359 1.8211-5.3581-7.9568-9.38-4.0867-1.1768 1.2971 1.5577 3.8586 1.9117 5.441 3.3537 0.341 7.0179 1.3343 10.41 2.4537 3.898 1.2239 7.9401 3.3705 9.9168 7.2639 2.3915 4.0394 2.1452 9.1917 1.326 13.632-5.6925 1.0071-11.484 1.322-17.228 1.9422l0.8858 12.067c-5.7832 1.9809-12.146 1.9836-18.182 1.562zm24.465-71.701c1.8335-1.1022 4.0707-6.5589 0.47724-3.0967-3.9417 4.3859-8.0674 8.8295-10.857 14.04 3.8643-3.1087 7.0143-7.2644 10.38-10.943zm-49.418-6.6746c-2.3502-3.5935-0.83497 0.92038 0.79455 1.5883-0.12058-0.5926-0.49032-1.0831-0.79455-1.5883z" fill="#d70101"/>
  <path id="color-primary" d="m50.16 96.721c-5.9621 0.68779-4.9262-5.877-5.8974-9.7797-3.3569-2.5596-9.1503 0.13949-13.389-0.15032-3.9575 1.0154-7.7794 0.34532-7.9138-4.4649-0.62765-4.2235-1.6799-10.458 2.4683-13.109 4.5079-0.58856 7.3557-4.5183 11.721-5.4857 1.3609-0.65726 3.9422-0.50822 3.0632-2.6454-1.725-4.7212 3.789-4.2965 6.5351-5.8489 2.0526-1.0616 2.0545-2.4264 0.46686-3.9375-4.0581-6.0416-8.0954-12.097-12.182-18.12-3.1947-0.87866-5.129 4.159-6.8779 4.506-4.2278-3.8038-7.5125-8.4598-11.008-12.896-2.6611-2.3797 2.8989-7.254 4.2369-9.9908-0.20089-3.4717-5.3624-7.528-1.594-10.178 4.2056 0.50365-2.672 3.4564 1.9603 3.7982 0.46942 2.932 1.2186-3.5624 3.0432-0.30795 2.6852 3.9018 1.2368 8.2498 4.2286 11.949 9.7832 14.932 20.424 29.333 29.374 44.794 1.0574 2.7087 2.3367 6.9255 4.8561 2.6565-3.1614 3.6725 2.3196 2.2623 1.3547-0.56639-1.2467-1.244-5.3505-7.8858-1.4029-5.0897-1.1139-2.2037-3.2002-6.9363-5.4846-6.64-0.8581 2.3997 4.6626 3.6205 2.5246 5.1554-2.8348-3.0049-6.5148-5.8202-7.9613-9.2149-0.12603-2.8194 4.4718-5.4009 4.4982-8.9434 0.71095-3.907-7.3835-1.8835-3.3463-6.6291 1.9289-2.4608 3.191-5.2819 6.1582-3.8982 6.7144-4.2253 10.214-11.876 16.713-16.351 0.72303-1.9925 4.445-4.9216 5.8746-3.7568-1.6959 3.7368 1.184-0.37462 2.8529 0.90629 1.4219-2.8045 6.26-5.5519 8.0335-9.1287 2.4346-3.5135 3.4077 0.18724 1.1315 2.0533-1.7449 2.9537-7.8956 6.8836-3.3079 9.8899-0.42175 3.9169-4.3885 5.116-6.1698 8.1938-2.1692 2.6814 0.59577-0.19733 1.6594-1.0682 4.3473-3.1537-0.5716 3.9142-1.822 4.9944-4.5286 5.2942-8.692 11.098-14.329 15.278-0.95931 1.5287-4.9954 5.5184-0.90519 3.6057 2.1306-1.4915-3.1267 4.4264 0.04587 5.1617 4.0944 1.4428 2.2773 7.0528-1.6973 4.3662-1.8803-1.8278-5.2498-7.074-6.9685-2.7461 1.0191 3.4756 1.8993 5.6162 6.4864 5.3045 3.3793 1.9067 9.1046 1.1368 9.7051 5.3205 2.6852 1.8167 4.9798 8.6287 0.86993 9.9894 0.59016-3.7697 0.41042-10.345-4.0462-10.84 2.9609 4.0782-3.1276 10.493 3.5659 12.15 2.8511 0.13573 11.674 5.2024 5.3969 6.5162-4.9704 0.87209-10.148 0.68071-15.006 2.0352-0.70704 2.9889 0.39624 6.4247 0.47614 9.6069 0.28781 2.4042-1.6414 2.5452-3.3895 3.0209-4.8115 0.7533-9.7512 1.0013-14.603 0.53298zm5.2335-19.747c1.7469-2.6827-1.0674-3.9091-1.2465-0.54588-1.6789 2.767 0.21114 4.2836 1.2465 0.54588zm-11.373-17.523c1.2918-2.5585-3.2923 3.3578 1.4e-5 0zm30.605-34.431c1.8335-1.1022 4.0707-6.5589 0.47724-3.0967-3.9417 4.3859-8.0674 8.8295-10.857 14.04 3.8643-3.1087 7.0143-7.2644 10.38-10.943zm2.3926 8.7195c2.9844-4.3773-4.5065 4.3163 0 0zm-43.562-2.346c-2.8631-5.0681-6.1724-9.9218-9.7372-14.522-3.7706-2.0845 2.0192 3.544 2.5797 5.0064 2.6347 2.8783 4.1398 7.8815 6.9651 9.7846zm46.182-0.92933c2.9844-4.3773-4.5064 4.3162 0 0zm2.9478-3.6029c4.0959-5.3389-5.5901 5.2738 0 0zm5.5401-11.418c-0.15831-3.2464-1.6465 2.1357 0 0zm-77.521 40.745c-1.4863-2.9455-8.086-7.2392-2.8576-9.608 2.7223-5.4627 6.7817 1.9234 9.2919 4.1313 3.1703 3.3416 7.2522 8.8889 1.7823 12.323-3.0235 2.3898-6.088-5.408-8.2166-6.8464z" fill="#ab0000"/>
  <path id="color-darker" d="m19.299 8.3885c0.22738 1.4504 3.6024 3.5501 1.403 0.7143-0.38315-0.36909-0.87358-0.63372-1.403-0.7143zm3.5658 1.1144c-1.7249 1.3056 1.9199 2.9081 0.21202 0.07753zm1.6287 6.5507c1.6227 3.1434 3.7185 6.7471 5.8792 9.6868 3.1745 3.9066 5.0865 8.6014 8.2699 12.515 2.3535 3.2221 5.2122 7.5916 7.6005 9.195 2.1743 1.7018-1.734-3.4739-2.2554-4.4399-3.4665-4.9664-6.432-10.365-10.523-14.844-3.5833-3.5102-5.7295-8.2936-8.9714-12.114zm-2.8493 0.9826c0.53906 1.2675 2.466 3.8617 1.9871 4.3417-1.4273-0.61822-2.4005-4.9423-3.8744-3.4172-0.65956 0.98339-2.9052 1.8277-1.3458 3.0074 1.482 2.2462 3.2747 4.3293 4.4248 6.7606-3.1212-1.1152 1.8233 3.8069 2.525 4.69 1.7388 3.5017 5.5576 4.2921 7.3924 0.72309-2.4628-6.0633-6.6264-11.381-11.109-16.106zm65.6 0.76638c-2.5186 1.2421-4.5566 4.9503-5.7203 6.3285 2.1218-1.7086 4.7776-3.8957 5.7203-6.3285zm-6.3562 0.64227c-2.2641 0.50524-4.2326 1.8165-2.5574 3.7082-0.65091 0.67863-4.4849 5.8766-1.8652 3.6181 1.8004-1.5532 6.4753-5.1043 4.4226-7.3264zm-6.2884 2.1942c-1.6297 0.73725-3.4995 4.151-0.85722 1.3101 0.21587-0.39601 0.90491-0.81123 0.85722-1.3101zm-4.7927 2.1827c-1.1568 1.6009-4.448 6.1812-4.497 7.1092 1.3793-2.016 5.0929-4.9775 4.497-7.1092zm2.4565 1.1016c-1.1158 0.45157-4.5171 4.1165-1.7464 1.8279 0.50856-0.45909 1.9396-1.1586 1.7464-1.8279zm-38.687 4.8938c1.6629 1.9228 5.2526 6.7342 4.8887 7.8599-1.8239-2.4582-3.7566-5.0093-4.8887-7.8599zm37.874 2.303c-3.1039 1.046-5.6272 3.1681-7.6274 5.987-0.01984 1.7446-3.6076 4.2048-0.30316 2.5742 2.7636-3.1063 6.9477-5.1394 7.9306-8.5612zm-13.509 0.25461c-2.1728 1.263 1.8289 2.7652 0 0zm5.9583 3.1525c-3.5415-0.17275-4.9171 2.0152-7.1357 4.308-1.0364 2.7381 5.5787 5.3779 3.4075 1.6401-2.943-1.0642 3.0631-5.2585 3.7282-5.9481zm7.2748 1.4867c-2.4249-0.75838-4.7938 5.1114-1.0539 3.4908 1.1139-0.02328 2.6043-3.235 1.0539-3.4908zm-3.6157 1.0018c-3.5224 1.4807 2.3161 1.641 0 0zm-23.994 6.5507c1.8542 1.4158 1.5266 3.9747 0.12723 0.80144 0.03623-0.20889-0.38036-0.58994-0.12723-0.80144zm15.074 0.87513c-1.1016 1.6529 2.5897 0.81745 0 0zm4.0827 0.03072c-1.7479 0.26307-1.7887 3.6222-0.08106 1.1951l0.11949-0.51832zm-5.444 0.63076c-1.0551 2.2473 1.2177 1.985 0 0zm12.489 1.0509c-1.711 1.7571-7.0123 1.6046-5.4902 5.655 1.6332 0.66705 2.7092 4.2759 3.4271 3.5487 2.7199-2.5847 0.29754-5.456-1.4888-7.0116 1.6391 0.16559 2.5862 0.41721 3.5519-2.1921zm-60.667 0.17482c-4.4947 2.6237 2.2826 6.7034 3.5608 9.556 2.0466 1.5749 5.3743 9.636 7.5636 5.0481-1.2205-1.7099-4.886 1.6813-1.4778-1.3319-1.0977-3.1416-5.0127-4.9388-6.9154-7.8411-1.1672-1.571-3.0166-3.3418-2.7312-5.4311zm45.109 4.5752c-2.504 1.4949 4.2833 8.4586 2.6024 3.1832 0.26303-4.7734-2.2038 1.2811-2.6024-3.1832zm-3.9163 1.2717c-0.888 1.0757-2.5672 1.1989-0.11386 1.447 0.71007-0.1769 0.83411-1.2034 0.11386-1.447zm0.74079 1.8705c0.58433 1.3525 0.46604 4.4912 2.0372 3.641-0.75473 3.0347 5.5398 5.081 3.339 8.1516-1.4622-1.0298-3.0544-1.7046-3.9367-1.2755-0.02162-2.8312 0.04338-4.3966-1.856-6.8827-1.7047 0.86274 0.85425-2.9754-1.6169-1.2536-2.8878 1.9938-3.4965 6.4931-6.7715 8.804-1.2717 2.8698-7.0171 3.5193-5.0666 6.9742 0.69804-0.0778-0.45654 3.2244 2.1658 2.3165 0.78367-3.4358 5.3358-3.9711 8.3779-4.1109 1.8816 1.4571 7.4308 1.4393 8.1577 4.4969 1.2679-0.22614 1.6702-4.1253 2.1331-0.64486 1.9139-3.0075-1.2959-7.7008-0.96903-11.488-1.5436-3.1458-3.5166-6.252-5.9939-8.7289zm9.5062 0.0013c-1.8971 2.236 4.0764 6.6748 2.5323 8.163-4.2557-3.8543 1.1074 6.5252 3.7363 2.2018 1.9735-5.0561 7.6352 0.45368 6.8273 4.0764 1.0142-3.121 0.05282-8.1841-3.8923-9.3105-3.0052-1.9829-8.0845 0.5334-8.5182-4.4294l-0.28804-0.53332-0.39739-0.16799zm-15.613 2.1098c-2.5525-0.68292-7.3558 4.3993-3.3227 4.4409-1.3444-0.58884-0.49917-3.0385-0.05243-0.84947 3.256-2.564 0.06477 0.80943 0.66635 0.43851 0.83214-0.92765 3.6351-2.8418 2.7087-4.0299zm-3.2958 4.4307 0.11515-0.07292zm-1.749 2.6305c-4.5034 0.46686-7.9887 3.5629-11.777 5.4555-4.7592 0.06979-5.5666 5.3776-5.5485 9.1045 0.23728-1.9783 3.0231-4.9816 2.97-1.2243 0.81718 1.8001 3.0433 7.3094 4.1902 5.7917-1.1407-2.2016 4.2527-1.9398 1.6911 0.48787-3.3217 1.6506-7.1669 2.0695-8.2572-1.3988-0.96247-3.5002 0.36866 3.2767 1.3056 4.5273 2.8357 2.382 9.7661-0.07721 11.936-0.11316 2.7805-0.42897 6.3853 0.40046 8.1361-0.4233 0.94648-1.3639-1.945-6.8522 0.96471-5.1148 1.8227 1.0062 4.9614 1.7044 1.7325-0.49295-2.3314-1.7035 1.4291 0.36783 2.2403 0.76073 0.65324 2.8418 5.8593 1.984 7.4455 1.114-3.4566-0.45244-6.4166-2.2845-9.5808-3.6426-2.0752-2.4726-4.0824-2.603-6.6387-0.24984-3.0306 1.0765-8.3384 4.8968-10.081 0.29186-0.73457-2.4145-0.21567 4.7225-1.4397 2.2027-0.43007-1.5248-1.668-7.1299-0.2738-6.923 1.2795 1.4648-0.71975-4.4828 1.9396-3.6515 0.89973-3.3543 5.7188-4.443 7.097-2.733 0.84344-0.70944 2.691-2.7171 1.9473-3.7689zm11.57 10.182c-1.961-0.05501-5.2658 2.4644-1.4578 1.0075 0.22545-0.18216 1.7654-0.60726 1.4578-1.0075zm20.253 0.07676c-1.8911 0.03195-3.7712 0.26234-5.6564 0.3979 0.42836 2.8692 0.53095 5.8471 1.0299 8.6519 4.2504 0.89643 8.671-0.43484 12.976-0.62798 2.3745-0.34079 7.1557-1.8605 3.1436-3.9839-3.7265-1.5817-7.3154-4.4029-11.493-4.4379zm-18.65 8.1641c2.1787 0.89734-2.9708 0.30265 0 0zm10.457 0.0025c-6.1091 0.131 4.2554 0.81838 0 0zm-10.22 4.3219c-3.8775 0.69098 6.2178 1.3255 1.7194 0.18348l-0.87237-0.12208-0.84698-0.06137zm9.6443 0.26484c-3.4507 0.55124 3.3997 0.56214 0 0zm-16.766 0.14838c-4.0367 0.88148 1.1989 9.7837 0.50794 3.37 2.178 0.37461 4.9522 2.2824 7.9619 2.0471 3.9877 0.27132 7.3117-1.9235 11.444-1.9076 1.546-1.7482-4.3618-1.6101-6.5927-1.5238-4.4301 0.56196-8.4803-0.83688-12.628-1.9576zm21.409 6.4752c-6.9496 2.1818-14.405 1.5073-21.518 0.63034-1.66 0.31062 1.7961 3.3886 3.3604 3.1291 5.5102 0.60735 11.369 0.32318 16.783-0.87102 1.4841-0.41572 2.6905-2.2149 1.3748-2.8884z" fill="#940000"/>
 </g>
</svg>
