<?xml version="1.0" encoding="UTF-8"?>
<!-- Created with Inkscape (http://www.inkscape.org/) -->
<svg width="100mm" height="100mm" version="1.1" viewBox="0 0 100 100" xmlns="http://www.w3.org/2000/svg">
 <g stroke-width=".26988">
  <path id="color-brighter" d="m48.363 3.2419c-5.947-0.91488-3.5964 6.9529-4.8236 10.216-2.6902 3.9338-6.6108-0.57381-5.9775-3.9732-0.56636 0.20612 0.17633 6.5033-3.5729 6.8359-2.8072 1.6392-6.1508 9.5486-9.2259 5.2863-2.4757-4.2899-5.9997 1.6248-4.431 4.6146-1.9047 4.4014-3.8901 8.4785-6.5852 12.461-3.649 2.7893-7.2326 5.7974-9.1856 10.252-3.7349 4.5098-3.57 11.803 1.1276 15.599 3.7325 3.0085 7.3125 6.2398 11.423 8.4723 2.7315 3.316 6.0216 6.0646 10.072 7.6202 3.4266 2.1414 5.6482 5.9999 9.9194 6.9193 3.257 1.2147 8.1039 1.6421 10.464 2.8392-1.6953 4.342 4.3232 4.9145 6.1 3.0088-0.77983-2.2465-0.24466-7.3234 1.241-7.9496-1.6044 6.6368 8.8814 5.1058 7.2577-0.32134 2.5361-5.9621-0.79509 7.1218 3.4084 3.466 4.6233-1.0669 3.0956-7.2815 8.2875-7.924 2.8396-2.7416 5.1626-6.09 8.8724-7.9962 1.8479-1.9247 9.0546-1.2935 5.6504-4.61 3.6435-1.4952 7.4967-5.3036 9.2806-7.2806-0.10494-3.9214 1.5098-8.2942-0.69817-12.365-2.5217-4.1256-5.4529-7.3013-10.318-9.1476-4.35-2.3611-4.512-7.6808-6.0129-11.802 0.08925-2.8463-4.1954-7.569-3.1961-2.0042-1.5626 4.8576-2.9454-4.3832-4.0885-6.0217-1.935-0.97631 2.066-3.2771-1.8117-2.046-3.6611 2.8138-8.2693 1.401-11.351-1.7488-1.3377-3.0026-3.9343-2.4325-6.1508-0.94158-1.0444-3.6418 0.26642-9.4791-3.7461-11.432l-0.96739-0.027234-0.96122-2.04e-4z" fill="#500"/>
  <path id="color-primary" d="m48.363 3.2419c-5.9714-0.83784-3.3271 7.0262-4.7256 10.389-1.8059 3.6642-6.3309-2.1004-5.7798 2.649-0.17625-5.3567-6.0479 2.5083-8.0138 4.3947-1.0704 3.5717-7.6925 1.8986-7.4644 0.28955 0.87635-2.0192-3.3585 1.0237-2.0868 3.0029-0.01535 4.9414-3.3545 8.795-5.4254 13.161-3.8633 3.988-8.4502 7.1972-10.804 12.437-3.2474 4.8064-2.54 11.748 2.0848 15.435 3.7028 3.1114 7.5009 5.9765 11.553 8.6286 2.7818 4.6758 8.6062 5.5242 12.221 9.2249 3.381 4.3586 9.1013 4.9052 13.859 6.6473 2.8412-0.25944 4.6966-0.09955 3.8914 3.397 1.5325 4.8738 8.4228-2.03 4.8836-2.8724-2.1226 2.8194 1.6104-3.045-0.89215-2.2795 2.687-3.0344 5.3314-4.0641 4.724 0.70079 2.9702 4.5664 6.7344-2.0445 6.7796-5.3234 0.7968 1.607-1.0015 8.2317 2.2786 4.927 0.01061-4.4866-0.47498-9.7762 4.0596-12.462 1.4948-1.2594 5.6424-3.3768 3.3438 0.3779-0.91468 2.3242-0.56296 4.5428 0.59945 0.91404 0.68311-2.5356 5.0886-9.2464 3.8772-3.4676 1.6438 2.6125 1.9625-3.8866 4.1496-4.668 1.2958-0.95043 1.9176-8.6693 2.8271-4.0217-2.8428 1.3518 2.377 0.59806-0.19393 3.2836-1.7444 2.2288-1.6794 4.8034 1.6544 3.4623 2.8027 0.20611 4.4171-2.687 2.622-3.6129-2.9235-3.5204 1.6035-6.2036 3.3965-2.2084 0.33285-2.7904-1.4114-2.2846-2.28-4.0676-2.5205-1.4126-0.70496-7.6539-0.07375-10.793 0.4599-2.1375-3.0141-10.295 1.4701-6.4048 1.4384 2.5922 2.7264 4.2832 2.6258 6.7418 2.0766-0.7179 0.22916-6.0249 2.0536-2.0707 0.7775 4.1411 0.43915 7.1025-0.70435 11.035 0.53122-2.5675 3.6736-2.1883 2.4793-5.3508 0.55323-3.8369-0.57588-7.5016-3.6923-10.489 0.44457-2.6836-3.6336-2.3275-1.5644-0.13067-2.9914-0.8215-6.2007-7.8557-8.0727-5.723 1.2083 1.35 0.86939 7.5862 0.17034 3.4645-0.48331-6.3759-3.8956 4.1625 1.0495 2.4715-0.16736 3.3131-2.0923 8.3032 0.54993 10.864-0.90263 2.6426-1.3765 6.8096-3.6351 7.2025 1.2038 4.398-5.1504 4.4318-5.8057 7.645-2.3507 2.4938-5.0268 2.6957-4.5812-1.0361-0.6468-2.648-0.81367-6.1059-3.1627-6.4448-1.5781 1.5089-2.1176 5.5738 0.03325 7.1507-1.6329 1.8962 2.1589 0.98496-0.70184 2.2941-3.5578 2.1734-0.01703-5.2388-3.976-6.0245-1.0167-2.1826-0.92162-0.94629-1.4102-0.88866-0.74165-3.8153 2.9487 2.4805 2.5595-1.714 2.5501-2.1233-4.5601-5.9092-1.4726-6.9698 1.3515 3.3285 1.0779-3.2736 2.1221 0.12991 1.3104-3.7457-4.7717-1.6567-2.8012-5.5887-0.529-3.8811-2.4765-8.791 3.7532-7.6398 3.2009-1.6789 7.0781 5.7417 8.143-0.35465 0.22345-3.9415 2.5069-10.23-2.089-11.114-5.1017 4.0562-6.3761-3.0723-3.4702-3.231-0.86268-1.4748-7.1613-0.51784-4.1221-2.3678 3.8202 1.9904 5.4028-1.8625 2.2228-3.4803 2.8053-0.56316 7.1815 7.427 6.8286 1.9376 1.1213-1.9101-1.5941-7.8914-3.1134-4.2655 1.0944 2.1513-2.173-3.2213-3.9774-1.3035-2.9567-2.1452-10.445-0.07599-10.775-4.0219 3.4412-2.3463-0.78327-1.6274-2.1415-0.36733-0.67015-2.9241-1.4185-7.2338-1.8108-8.9544 0.79763-2.1801-2.5839-2.8218-4.0464-2.5471zm2.9997 1.129c0.53841 1.1684-0.50122 1.5528 0 0zm-0.24458 2.2755c0.30809 1.5594-0.35574 2.2335 0 0zm-1.8448 1.5692c3.435 1.0398 3.098 9.7487 0.64802 6.3421-0.78791 4.1201-1.3993-3.8457-1.3145-5.2173-0.68949-0.72688 0.33076-0.80363 0.66653-1.1248zm2.3651 0.30994c0.41746 1.9605-0.35746 1.3337 0 0zm-6.6177 0.090678c1.3449 2.0799-0.75347 7.6178-0.35522 2.1065 0.16994-0.69114-0.17545-1.519 0.35522-2.1065zm1.1928 0.73741c0.60308 2.3909-0.63664 6.5212-0.25936 1.7534 0.02315-0.58947 0.02846-1.1981 0.25936-1.7534zm5.6642 7.1596c2.6318 0.69769 0.62323 4.1404-1.1196 2.1358-0.8989 2.9012-1.4798-3.7816 1.1196-2.1358zm20.536 0.83492c-4.0317 0.0041-1.7757 2.6681 0 0zm-17.824 1.9208c3.3024 0.86846 0.86216 2.8535 0 0zm-5.0918 1.3388c0.79173 3.1249-3.691 0.70541 0 0zm16.431 1.0911c2.3758 2.4082-3.4018 0.72533 0 0zm-9.6997 0.1908c4.4974-0.49684 2.4122 9.3988-0.19002 3.083 0.90224-0.87284 0.30234-2.1917 0.81021-2.6225zm7.2134 1.2092c2.5671 0.32826-1.1397 0.56467 0 0zm14.759 0.66836c-0.97334 1.5742-0.59506 6.4272-3.4225 3.6191-0.38491 1.1671 1.8192 3.6127-0.97456 2.4162 2.5055 0.68787 7.2235 3.0669 5.948-1.4736 0.05926-1.6194-0.14681-3.507-1.551-4.5616zm-49.367 0.25301c-1.208 1.6661-1.498 0.43558 0 0zm12.503 0.35474c-0.92276 1.3482-2.6855 0.45352 0 0zm6.2867 0.99674c0.66137 0.85174-1.1229 1.1546 0 0zm7.352 0.74584c6.5425 1.0258-3.5075 8.5026-3.4301 2.6642 0.96027-2.6846 4.195 1.5337 2.4878-1.4123 2.0411 1.1651-0.24691-0.78063 1.3807-0.48971zm-1.5787 0.06375c0.98057 0.85894-1.1523 1.3289 0 0zm14.978 0.0082c0.18047 1.0014 1.7416 0.06375 0 0zm-20.527 0.40004c0.50606 0.84953-0.85497 0.85024 0 0zm28.542 0.42484c-1.5075 0.59199 1.7839 1.7362 0 0zm-5.8012 1.0748c-5.6321-0.8739 2.0819 1.9264 0 0zm-6.1739 0.10437c0.45758 2.698-5.0046 1.1147-0.70016 0.88589l0.26811-0.24999zm7.43 0.49759c0.68727 1.7309 1.1057 0.0061 0 0zm8.8769 0.56874c-0.86008 0.71692 2e-3 3.3681 0.08497 1.0467zm-28.134 0.43011c-1.1776 0.69666 1.1453 0.65214 0 0zm12.323 0.61301c3.3944-0.61404 1.411 1.8426 0 0zm15.061 2.3556c-3.9732-1.2545-2.4938 5.4506 0.8883 4.0671 1.1614 3.3398-3.6368 1.9334-0.72423 5.1329 3.2519 4.0823 1.5778-4.2857 2.2173-6.2197-0.06589-1.7885-0.327-3.415-2.3814-2.9803zm-36.228 1.0795c0.26081 0.87767-1.508 1.0727 0 0zm-27.168 2.159c-1.2224 2.6375-0.8494 9.0383-2.4155 9.3917-0.01528-3.361 0.47903-6.6271 2.4155-9.3917zm13.779 0.26988c4.7571 2.906-0.92942 7.9202-2.6238 10.81-3.9338-3.772-0.17476-8.1912 2.6238-10.81zm25.559 2.6761c0.34149 4.5438 5.1391 7.6373 4.4543 12.473-0.60734 5.0878-1.3374-3.8176-3.6614-4.2545 1.3181-2.7741-1.4367-5.407-0.79287-8.2189zm10.675 0.29254c1.6094 2.0166-2.675 1.4089 0 0zm20.408 1.9492c1.3365 2.0801 0.33819 4.343-0.22559 0.95194 0.07517-0.31731 0.1504-0.63462 0.22559-0.95194zm-2.7188 1.0194c-0.05018 1.3179 1.4529 1.2199 0 0zm7.7542 1.0864c1.2553 0.53511 1.1483 2.0101 0 0zm-78.118 0.34396c0.22226 1.4506-1.2739 0.79775 0 0zm62.477 0.45646c0.0152 4.4102 8.1574 7.2906 4.4104 1.394-2.2537-3.0174-2.3391 1.8115-4.4104-1.394zm-63.08 0.93614c0.34101 1.2673-0.372 0.64663 0 0zm46.806 0.14706c1.1757 0.57731-0.78822 1.5367 0 0zm-36.578 0.36159c0.56031 0.79509-0.47127 0.77968 0 0zm69.431 0.0358c2.255 0.99058-0.34078 1.6265 0 1e-5zm-5.0127 0.27356c0.29139 2.2922 0.3859 7.9433-1.3207 7.7201-0.50173-2.6704 1.4781-4.8923 1.3207-7.7201zm-79.959 0.46068c0.089638 1.7382-0.98261 0.84909 0 0zm6.3837 0.82702c0.23204 0.85842-1.5456-0.3591 0 0zm0.02583 0.68048c0.26513 0.89832-0.74923 2.838-0.2782 0.83639zm-7.061 0.42116c0.56032 0.7951-0.47127 0.77968 0 0zm87.944 0.28358c-0.79202 0.84959 1.0398 1.4814 0 0zm-23.347 0.09598c-2.0045 0.51568-2.7566 2.826-0.02662 1.294 1.9747 3.6282 3.4317-2.3452 0.3114-1.0538l-0.28479-0.24011zm-65.087 0.2314c0.22818 1.2438-0.97438 3.3366-0.37095 0.80039zm7.8875 0.65096c-0.08321 1.2841-1.2407 1.5723 0 0zm35.238 0.89976c0.83771 2.7611-0.04182 3.9451-0.06956 0.60248l-0.07018-0.38126zm13.709 0.04529c-0.73514 0.49573 0.74647 0.79478 0 0zm19.699 0.29781c-1.2873 1.6784 2.0692 1.0407 0 0zm11.314 0.36423c-0.89433 0.67565 1.0069 0.95819 0 0zm-32.573 1.9888c0.56031 0.7951-0.47128 0.77969 0 0zm11.641 0.66362c-2.1376 3.1228-5.5568 0.79526-6.5621 4.0247-0.86604-5.1514-2.0184 4.8727 0.16068 0.65052 1.4356 1.8953 2.6274-3.2736 3.2907-0.15447 0.80888-1.3598 1.6016-4.4072 2.7983-2.4615 0.45881-0.57977 0.45289-1.3738 0.31248-2.0592zm19.25 0.2704c-2.6354 0.88989-0.05457 4.631-2.6661 5.679 2.3968 1.5617 2.069-3.4247 4.5655-3.8068-0.62588-0.61176-1.5722-0.95186-1.8994-1.8722zm-43.065 0.18712c0.83043 1.9976 0.17383 10.533-0.17044 4.5585 0.04243-1.52 0.23169-3.036 0.17044-4.5585zm3.9416 0.53975c0.53316 2.0083-1.2904 3.8604-0.24229 0.72312zm25.551 1.6567c-2.3364 0.63335-7.0188 5.4154-3.3015 6.1624 0.76973-3.098 2.7614-3.3302 3.933-6.2136zm1.9102 0.44487c-0.37479 1.159 1.8441 1.3631 0 0zm-47.076 1.41c3.7641-0.04009 1.7175 5.2304 0 0zm-0.09014 1.2113c3.4732 1.3075 1.6258 7.8422-0.26849 2.7702-0.31741-0.90643-0.21925-1.9412 0.26849-2.7702zm-17.122 0.54186c3.4857 1.2201 0.83702 5.002 0 0zm78.689 0.5949c-2.8996 1.5042 4.7737 0.39414 0 0zm-50.265 0.3154c0.8095 0.91953-1.1307 2.0101 0 0zm48.611 0.43697c-1.5333 1.0532-1.5157 2.1212 0 0zm-75.156 0.63304c0.56032 0.7951-0.47127 0.77969 0 0zm50.436 0.1808c-1.6529 0.61432 2.1123 0.3337 0 0zm-6.1391 0.41588c1.1788 1.2269-1.0677 1.1213 0 0zm-29.936 0.22085c0.40678 2.7381-1.2268 4.564-0.56387 0.77455l0.19696-0.45986zm17.277 0.02315c3.9647 1.5293-7.3672 0.88506-1.1428 0.19889 0.37698-0.09721 0.75395-0.17096 1.1428-0.19889zm2.8395 0.42326c0.9644 1.6386 1.027 10.113-0.40041 4.4599 1.5607-3.7932-2.0116-2.3441-4.4639-2.8239 1.4334-0.75207 4.0235-0.11664 4.8644-1.636zm39.736 0.12387c0.14776 1.7624 2.0682 0.92777 0 0zm-3.4293 2.8585c-1.1516 1.8046 2.0818 0.34715 0 0zm-37.164 0.51815c1.0209 0.541-0.64512 0.70883 0 0zm-0.46279 1.0979c0.07528 4.2487 2.869 7.6191 1.8246 11.686 0.21426 2.0077 0.42543 9.2125-0.94438 3.972-0.17506-5.0696-0.15833-10.185-1.3462-15.137l0.34108-0.15661zm11.195 0.89817c2.6418 2.7725-5.2139 7.359-1.9094 2.9298 0.54013-0.98358 0.74192-2.4701 1.9094-2.9298zm-16.528 0.28727c0.34104 1.2673-0.372 0.64664 0 0zm4.153 0.55082c1.9653 2.2688-1.7305 3.4403-1.4806 2.8474 0.28612 1.6829 0.85753 9.6573-0.49473 4.0862-0.71367-2.971-1.1354-5.3733 1.9753-6.9335zm-5.398 1.8949c0.73513 0.49573-0.74647 0.79479 0 0zm18.299 0.66836c1.7101 3.3177-4.3803 2.6627 0 0zm14.056 2.7156c-2.2373 1.3981 0.86164 1.8779 0 0zm-14.455 0.29781c1.2855 2.8413-4.3902 3.065-1.1439 0.2806 0.34004-0.21778 0.76565-0.18068 1.1439-0.2806zm0.19819 0.25828c-3.1564-0.16589 1.2031 0.4407 0 0zm-3.3508 0.50654c1.9086 0.86217-1.7854 0.33448 0 0zm10.587 0.05794c-4.5571-0.25721-0.7269 5.1777 0.35086 1.0756l-0.19873-0.55987zm5.8492 0.75744c-2.0691 0.96874-1.9767 2.7117-0.68908 0.7218 0.21192-0.24419 0.78352-0.26888 0.68908-0.7218zm-2.616 0.12914c-2.8947 2.2474 2.1339 1.784 0.0357 0.02295zm-13.423 0.43749c3.9207 3.5817-7.3812 1.943-1.5245 1.1758 3.8306-0.41841-2.0154-0.54174 0.55204-1.0394zm-11.243 2.5543c1.1028 1.5427 1.2746 6.2156 0.0817 2.7926-0.74946 4.4222-1.8104-1.9133-0.0817-2.7926zm-0.49916 1.3156c-0.37199 0.64661 0.34098 1.2674 0 0zm19.067 0.44487c-2.8473 2.5029 1.3592 4.3221 0 0zm-2.0668 0.6399c-0.74788 2.2028 2.1058 0.82084 0 0zm3.2522 1.4479c-0.37392 0.8545 0.37903 1.7376 0 0zm-8.2154 0.29044c0.64075 0.87252-1.9949 0.48037 0 0zm-12.307 1.225c0.34104 1.2673-0.372 0.64664 0 0zm-0.02744 1.3183c0.56031 0.79511-0.47128 0.7797 0 0zm0 1.0795c0.56031 0.7951-0.47128 0.77969 0 0zm7.5739 0.12123c-0.31848 0.7479 0.35052 1.583 0 0zm-7.8074 0.86498c0.96601 0.48706-0.92334 0.46388 0 0zm1.3494 0c0.96601 0.48706-0.92334 0.46388 0 0z" fill="#460000"/>
  <path id="color-darker" d="m52.117 4.3756c-1.3046 0.56409 0.93734 2.5936 0 0zm-7.0083 0.21558c-3.7446 2.7011 4.115 5.5738 1.0178 2.1099-0.08272-0.79666-0.46274-1.5411-1.0178-2.1099zm5.8476 2.0241c-0.59846 1.6699-4.4814-0.29106-1.366 1.5856 1.1324 0.63914 1.8463-0.58745 1.366-1.5856zm-5.5293 0.25934c0.34099 1.2673-0.372 0.64662 0 0zm5.961 0.31151c-0.38268 1.5681 0.34919 2.7024 0 0zm1.0358 0.37372c-1.63 3.6951-1.141 9.809 2.8439 11.326 0.9041 2.3258 2.9178 1.61 1.7179-0.69984 1.6602-0.25694 3.8621-1.0967 0.65441-0.44468-2.6763 0.8789-3.5149-0.46061-2.333-2.0449 0.52362-0.82434 2.9714-1.2951 0.27045-1.457 4.3494-1.2638-1.2976-0.24352-2.0602 1.481 0.37089-2.3265-0.06375-6.6046-1.0935-8.1609zm-8.1015 2.9581c1.0832 4.5955-4.5175 5.1671-5.9291 4.3258 0.57164 1.7792 0.07459 7.3979-0.61294 3.8475-3.5662 1.5024-8.748 2.4071-12.562 4.736-5.9925-1.6939-6.4293 8.2114-6.9548 9.4727 1.4155 1.5209-4.6501 8.3573 0.70122 10.56 2.1661 1.0005 0.90464 5.5902 2.1363 1.3443 1.0633-2.7361 1.9439 4.2 2.4885 0.08578 0.23747-3.8735 2.758-8.1628 6.035-9.7695 4.4404 2.2425 4.4975 6.9221 1.0923 10.187-0.5961 2.7807-4.1309 6.6311-4.664 7.7782-0.24107-1.2849 1.9611-6.7794 0.32047-3.0683-1.5772-3.3008-0.83855 7.6372-3.9409 3.4007-2.336-0.1854-4.3071-3.9415-5.1837-0.08456-0.01199 3.5893 6.1826 3.4874 5.6149 7.1079-2.4795 2.6679-6.8085-5.9996-7.3913-2.3233 3.5269 2.2876 4.7176 5.0208 8.0127 7.2021 1.7773 1.4637 4.4362 3.746 4.3703-0.3427-0.18103-4.1283 2.7957-9.4878 7.4703-6.5434 3.8996 0.41962 2.2742 6.3983 1.6894 8.6072-1.1989-1.1733-4.2242-7.2498-3.0843-2.1037 0.25314 1.6503-0.99658 10.356-1.3062 4.4924-0.11238-2.3157 0.50669-7.6568-2.9186-5.2152-0.29477-4.1642 0.07423 6.5049-2.4588 4.4503 1.544 1.6908 4.2606 2.7223 4.395 5.4268 1.7679 0.45514-0.8562 1.8742 1.9175 1.5425 2.4726 0.21565 4.3339 3.3918 0.50166 2.286-2.3469-2.333-5.6268-0.67892-7.635-3.8716-4.1692-1.5012-7.8357-3.2696-9.6392-7.5881-3.5242 1.97 2.066 6.664 4.0977 8.6728 0.92688 1.3887 5.96 3.0113 3.9112 4.0742-1.3918 0.46742 6.0421 0.94895 4.34 1.9486 0.68863 2.7464 6.8904 7.8889 8.5868 4.6184-0.29561 2.0149 1.5723 3.0324 1.9676 0.78066-2.6356-0.02438 1.9899-2.3525 1.0761 0.39887 2.4752 0.68695 5.7138 1.7057 1.2488 1.6699 1.2717 1.353 4.6381 1.1227 4.4987 0.5025 2.5433 0.1368 2.3066-5.649 1.4089-1.5781 0.25861-3.1617 1.0183-6.5102-1.8685-8.9894 4.1927 0.90889-2.3636-3.2922 0.046-3.9227 1.4692 2.2395 1.9103-0.23772 2.1245 2.2317 1.8082-4.3789-5.8323-5.0404-1.6449-8.5273 0.69345 1.0224 0.98862 6.238 2.0168 2.2378 1.6567-2.1124 1.1102-1.5119 2.565-2.7964 1.9988-0.44548 1.7341 8.1027 2.2892 2.4722-0.66587-2.8774-1.465-5.9163-4.5316-3.1164-6.2748-4.4788-3.5921 7.0725-4.3917 7.0371 0.22089-2.7094-0.54215-4.5604-1.8852-5.5476 2.1236-1.326-0.93116-3.9823 2.8177-4.239 2.4363-0.0611 7.9422-0.72199 2.556-0.70436-6.6531 2.033-1.9735-6.3046-2.3866-9.7388 0.32202-2.7167 0.39155 4.4427 0.75942 0.56475-0.1303-2.1977 0.58915-9.7337 0.63067-3.5124-0.07783 1.898-0.45529 9.0707 0.95968 3.534 0.46777-2.2255 2.952-8.8445 2.5255-3.0846 0.48141 2.4081-1.0221 7.8289 0.69559 8.5146 1.2055-3.7018 0.74846 6.5704 2.1092 1.393-0.66031-2.0801 0.7519-10.157 0.57309-3.8315-0.67689 6.6461 0.78824 13.244 0.41163 19.904 0.37204 2.1721-0.97459 8.4929 0.10149 8.1367 2.2435-2.7419 1.8218 2.007 2.9727 0.05692 1.1922 1.5275 4.067 0.44125 1.4582 0.01714 0.45242-3.0243 4.6137-0.28058 2.608-3.2045 0.77454-3.9593-5.9868-1.4538-5.6045-3.5352 3.2126 0.19568-0.71487-2.4415 2.9953-1.8511-4.6309-1.1803 4.9256-0.87577 0.50531-2.3765 2.027-4.0587-0.55418-1.8511-1.0361 0.22583 1.2792-2.8725-1.7708-0.21492-1.1884-2.6082-0.30333 1.3398 0.75764-3.1589 1.9588-3.992 0.49539-1.8254-4.2724-2.2348-0.65849-3.1165 0.912 2.0901 1.9938 4.6935 4.7065 2.217-1.3717-1.7959-7.4989-6.7824-2.4331-5.5841-2.5175-3.3485 3.8543-3.9606 1.0534-0.4446-1.1802 1.6311 0.19352 4.3825 0.66547 0.98823 1.0275-4.7631 2.8231 3.5366 2.8565-1.3649-1.6976-1.0803-4.1889-4.1673-1.7415-5.1373 0.39521 3.1964 2.1816-1.1069 1.7195-1.0841-3.3649-0.36962-4.9777 5.7438-6.6177 5.1595 0.84108-2.3723-0.23188-4.6624 1.7632-5.5197-0.89754-1.2891-2.167-5.2312-2.1236-0.98687-0.41669 3.7439-4.7728-2.1405-2.7729-3.9117 0.10969-2.7754-1.4332-9.4694-3.0587-9.6135 1.1361 6.1593-7.195 8.2541-9.4382 2.4967-1.6361 0.4363 0.55719 3.1649-1.539 3.8798-0.69139 1.6352-0.35906 8.1419-0.92601 6.5693-1.4912-2.491 0.12366-4.9242-0.59455-7.6987-1.5204 0.87727 1.0444-4.6726-0.12491-4.2382 1.2169-2.4543 3.4838-2.0181 1.4823 0.69825-1.7903 2.5643-0.61179 3.4095 0.57311 0.5123 0.55404-3.8822 6.3472-7.806 9.699-6.0369 0.14749 2.026 1.2654-2.6837 3.5869-1.5153 4.347-2.5902 4.7806 6.6036 8.8402 7.2684 2.3116 1.5107 4.5652 0.74842 1.9163-1.7463-1.4013-3.6086-10.391-4.8516-6.7612-8.9087 2.8988-0.15105 7.5224 2.6879 8.7233 4.8764-2.8563 3.1163 2.8627 6.003 4.0217 8.8573 4.6635 2.3022-3.2647-8.1934 1.4304-4.0789 2.7317 3.5098 2.7535-9.9861 1.8433-3.8498-2.1944 2.1331-2.3004-6.8406-4.6536-2.0759-2.9629-2.6755-6.2253-5.1576-9.9256-5.4668 2.0627 0.54496 5.7712-2.2095 2.363-2.775-3.4008 0.96042-1.8215-3.8648-1.63-3.5544 2.6846-0.69916-4.5719-2.1685-0.34219-2.2862-1.9471 1.0101-6.6064 0.03601-2.8382 2.0078 2.7261 3.2264-0.37587 7.9233-1.4212 8.2503-5.0459 1.826-10.656 2.0414-15.588-0.41284-5.5828-2.029 5.9996-8.337 5.0157-3.3405 0.7308 1.5216 0.92036-1.3977 2.5814-0.75794 2.3004 1.5642 5.6103 1.2612 3.2797-1.7563 0.60208 0.04723 3.5711 0.20704 1.3467-0.70737 1.6964-0.0155 5.4989 6.0043 3.1668 1.5849-1.2775-2.4619-0.19061-4.2772-2.596-5.7667-3.6681 2.0824-6.521-2.7572-5.082-6.1714-0.2127-4.6232-0.91896 3.5668-2.8787 3.4786-2.5031 1.9323-1.2192-5.6675-1.6312-6.7158zm-0.27199 3.3423c0.56032 0.7951-0.47126 0.77969 0 0zm-6.7495 0.24458c-2.0092 1.4522-5.3274 3.5223-0.59825 3.0761 1.7612 0.05743 0.81163-2.1515 0.59825-3.0761zm13.912 1.6788c-2.8441 1.424-0.0154 1.7108 0 0zm-1.1375 0.14653c-0.27009 0.66653 1.5194 0.29714 0 0zm-13.163 0.29886c0.79709 0.47466-1.2357 0.0031 0 0zm35.409 1.1691c-1.797 0.17557 0.51057 0.76334 0 0zm-6.8402 0.95668c-1.0549 1.8518 3.1009 1.4187 1.8531 3.4966 2.6462 0.05569 3.8537 5.2061 6.2998 2.6512-2.0492-0.20867-1.2792-4.8325-2.4081-1.1604-1.428-1.3868-1.2671-6.4117-2.506-2.711-1.0615-0.77781-1.8306-2.0619-3.2388-2.2764zm-1.7621 0.14548c-2.5196 1.1631-0.18386 6.1402 0.05559 2.0617 0.46452-0.61473 1.382-1.8591-0.05559-2.0617zm-1.8849 0.22824c-4.3624 0.24525-1.5187 2.604 0 0zm10.599 0.0031c-2.7647 1.6771 3.7393 3.0506 0.29751 0.12726l-0.24448-0.10444-0.05314-0.02275zm-9.9453 0.3305c-3.477 0.93608 1.9432 1.226 0 0zm-14.014 0.17288c1.4106 1.1548 1.834 6.0595-0.90582 3.2733-0.52348-1.8702-1.799 0.69315-1.0451-2.0878 0.36575-0.69574 1.1099-1.3295 1.9509-1.1855zm17.333 0.88816c-1.698 0.52564 0.70608 1.6923 0 0zm-25.535 1.1053c3.1922 1.6767-2.1145 2.6262-2.7146 3.9127-1.2858-1.8884 1.1392-3.5408 2.7146-3.9127zm-11.03 0.30202c0.42624 0.47993-0.55735 0.24386 0 0zm37.128 0.46807c-1.529 2.2388 3.8228 5.8713 1.7905 1.8698-0.61305-0.59053-1.62-0.93132-1.7905-1.8698zm-23.935 0.22296c0.97399 0.74992-0.25447 0.98348 0 0zm0.80699 0.54555c1.6012 0.69076-0.30642 1.0704 0 0zm-14.011 0.02111c1.2855 4.1959-6.4139 7.906-3.0197 1.8921 1.4271-0.15726 2.1404-0.90977 3.0197-1.8921zm25.128 0.61301c1.5915-0.13354 0.63501 0.88094 0 0zm-12.001 0.24721c3.4927 1.5238-3.6575 4.1697-2.6689 3.3478-2.1516 4.1563-1.5707-1.4811-0.10437-2.2718-2.2584 1.7009 2.0123-1.9254 2.7732-1.076zm-6.5714 0.04162c-1.5323 2.375-4.3971 3.2357-1.7146 0.39676 0.38001-0.50842 1.1406-0.753 1.7146-0.39676zm19.987 0.25195-0.08752 0.05906zm22.681 0.6204c-1.3366 1.2196-0.81904 4.6056-2.7673 3.5008 0.89447 2.7635 4.9521 4.5942 3.426 0.05875-0.11052-1.2024-0.28014-2.4087-0.65866-3.5596zm-34.857 0.0041c1.4717 0.30633-0.23114 0.67615 0 0zm-18.643 0.35843c1.2591 0.38162-0.75768 0.68049 0 0zm22.315 0.13811c1.9364 0.95453-1.3239 1.9875 0 0zm-8.49 0.57875c-0.24318 1.262-1.7554 0.88875 0 0zm-2.607 0.80857c0.50444 1.1138-1.3698 0.49551 0 0zm14.9 0.41008c1.5158 0.72965-0.34766 0.89696 0 0zm2.4895 0.22349c-0.76469 0.67047 1.2504 0.40036 0 0zm-29.781 0.01734c-1.694 2.1866 1.0201 10.005-2.2585 4.5372-4.3473-0.1321 0.83764-3.9047 2.2585-4.5372zm39.887 0.15971c0.63328 0.62074-1.0028 0.46562 0 0zm-28.972 0.10911c-0.02781 1.2186-2.4677 0.89319 0 0zm13.216 0.24932c-1.7646 1.5673-0.93562 3.1886 0.05008 0.51866l-0.0256-0.26463zm18.792 0.20346c1.8017 1.9602 3.0623 0.16946 0 0zm-34.541 0.03264c1.2049 0.58307-0.40468 0.98055 0 0zm32.396 0.0306c-0.08435 2.4698 5.2209 3.4849 1.9484 0.80654-0.62938-0.31278-1.2668-0.6222-1.9484-0.80654zm16.178 1.3615c-0.7075 2.324 0.33042 2.4787 0 0zm-52.179 0.21875c5.1918 0.50751-5.9369 8.3114-2.7816 1.7024 0.36805-1.7899 3.1319-1.1371 2.7816-1.7024zm35.065 0.76325c1.5959 1.7771-1.1198 2.5986 0 0zm-31.873 0.4849c0.07243 1.7809-2.681-0.17955 0 0zm41.357 1.1343c-1.6728 1.5127-0.20468 1.9462 0 0zm-22.094 0.80962c0.86626 0.64777-0.89682 0.76401 0 0zm28.969 0.02693c-1.6899 0.46521-3.2035 2.0628-1.0666 2.4039-2.3018 2.5653 4.7525 1.5371 3.0075-1.1351 0.05539-1.0052-0.94102-2.0139-1.9409-1.2688zm-28.149 5.4e-4c1.9238 0.58536-1.4359 1.501 0 0zm-7.5781 0.25406c-0.36194 1.4675-0.25552 7.0869-2.9786 3.9385-2.5349 1.9329 2.9974-4.4891 2.9786-3.9385zm-27.381 0.52816c-1.2543 3.821-5.3381 6.7545-6.9268 9.2491 1.3176-1.1409 1.3743-1.5771 1.9245-0.45715 1.2673 0.03815-4.6314 3.2568-4.2297 5.9494-0.46083 4.4594 2.9328 7.7976 1.0165 12.364-0.62563 1.903-5.4656 4.0224-1.239 4.8388 3.0665-2.7196 3.751 1.2803 3.4302 2.8768 1.9255 1.8541 5.2184 1.6218 2.8793-1.4589 0.32835-4.2256 1.1745-8.3864 0.55261-12.635-1.1278-5.2481-1.8018-10.985 0.98925-15.872 1.073-1.8132 2.4211-3.7477 1.4361-4.1091 0.73676 0.27686 0.85685-0.84582 0.16702-0.74556zm7.5185 0.63515c0.97786 1.632-1.732 0.79419 0 0zm19.885 0.19449c0.3101 0.71649-1.4012 0.15288 0 0zm-9.9516 0.63147c1.158 1.1427-1.495 1.4383 0 0zm4.8003 0.15813c-0.31128 4.1021-4.2654 2.1289 0 0zm-0.15233 0.53974c-1.1183 0.59453 0.61708 0.72836 0 0zm43.45 0.53975c-1.1183 0.59453 0.61709 0.72836 0 0zm-0.84442 0.81016c-2.3819 1.2424-1.5393 7.5928 0.09007 5.2444-3.01-1.7352 1.7047-4.4415-0.09007-5.2444zm2.3888 0.81331c1.6886 1.613 1.0876 9.1443-0.21827 3.8376-0.03448-5.7375-2.6385 4.0062 1.37 2.8116 0.92871 3.863-2.9688 7.3044 0.21276 9.7757 2.3455 0.21156-1.6069 3.8028-0.92724 5.7054-1.3634 3.2919-3.8905 7.1276-6.6296 8.7691-1.119 2.8427-6.9898 6.1268-6.167 0.75563 0.19816-1.7263-2.3365-8.9762-2.073-4.1996 0.97316 1.7584-1.9421 6.2408 0.7362 4.4358 0.88297 4.1682-8.5112 5.2121-3.8392 9.0134 1.0934-2.2363 5.6455-5.6264 7.1675-4.5257-0.91976 1.7484-2.3183 7.8375-0.4827 3.1995 1.2118-1.5587 3.241-8.5643 4.3921-5.8338-0.94763 4.088 1.5223 2.962 1.9308-0.21429 3.1257-2.4046 2.2194-7.1426 5.4511-9.3075 0.86428 3.1059-2.6616 8.2905-1.1582 9.6488 5.3733 0.40752 6.3473-3.7066 2.0593-4.8191-0.06599-2.3442 0.39936-4.2256 1.0706-5.7445-2.7514-2.4012 1.8758-4.8724-0.58385-7.966 1.392-1.6772-0.57249-3.5494 1.5085-4.5522 0.17363-3.8936-0.77691-8.1695-3.8196-10.79zm-28.423 0.13125c-1.2204 1.5721 1.8632 1.9314 0 0zm-37.757 0.94403c0.63333 0.6207-1.0029 0.46566 0 0zm22.638 1.6192c-0.63333 0.6207 1.0029 0.46566 0 0zm43.852 1.6192c-0.05018 1.3179 1.4529 1.2199 0 0zm7.4263 0.09965c0.3084 2.2228 1.828 2.463-1.2478 1.1927 1.3599 1.1036 1.1348 5.5571 4.3552 4.2872 1.9357 3.7219 1.6829 8.5491-0.36596 12.417 2.8515-2.5789 4.0529-6.8248 2.221-9.7949 1.4795-1.9417-3.2418-5.9313-4.4053-8.0421zm-2.7504 0.17026c-0.09496 1.243 1.5877 0.31163 0 0zm3.2 0.98673c0.76632 0.27745 0.02183 0.58073 0 0zm-54.156 0.90292c0.21739 5.0811-1.7404 10.922-7.9917 10.368-1.5761 1.0728-5.6162 2.7939-4.6948-0.61917 4.859 1.6531 7.2013-4.2571 10.56-6.6102 0.64969-1.0835 1.2923-2.183 2.1267-3.1386zm-12.004 0.07752c-0.2082 0.80935 0.97142 2.2534 0.3449 0.65206zm52.693 0.28937c-4.6677 0.50659 4.786 6.9784 2.2491 1.5263-0.33433-1.3225-1.6214-0.72462-2.2491-1.5263zm-62.894 0.01683c-2.8977 0.0206-0.039 6.4618-0.37318 1.8375 1.6692 0.68247 0.71582-1.22 0.37318-1.8375zm76.886 0.58403c2.6382 1.3376 0.51648 2.4303 0 0zm-79.097 0.23561c-0.372 0.64661 0.34099 1.2674 0 0zm28.59 0.50548c0.92311 0.83358-1.1935 0.60739 0 0zm-30.722 0.42432c2.2095 1.9425-1.4347 2.9852 0 0zm26.169 0.13282c-1.4619 1.1922 0.43404 0.61565 0 0zm3.9991 0.52816c0.85791 0.75964-0.72464 1.8036 0 0zm-5.1318 0.27674c-0.97955 0.46695 0.3181 1.1752 0 0zm-22.96 0.20872c-0.55572 0.86029 1.3917 1.7018 0 0zm23.814 0.04845c-0.94458 0.40926 0.89756 0.43563 0 0zm56.896 0.7195c-3.2683 2.6046 2.3626 2.6329 0 0zm-62.397 0.26987c1.2163 0.91763-1.9509 0.1808 0 0zm63.488 0.09333c-0.47124 0.77969 0.56035 0.79506 0 0zm-21.551 0.25301c-1.3337-0.53268-4.5305 2.0318-1.3188 0.7332 0.95929 3.4656 1.1693 0.63074 1.3188-0.7332zm-62.606 0.02846c0.72885 1.8855 2.3639 6.8047 1.07 7.8274-0.57786-2.5628-1.4729-5.1651-1.07-7.8274zm30.369 0.16498c0.63333 0.62069-1.0029 0.46566 0 0zm4.4471 0.06222c0.46998 1.3336-0.47891 1.726 0 0zm-14.191 3.3613c-1.8693 0.43312-0.76727 1.4602 0 0zm-1.5739 1.0173c-1.7954 0.17656 0.50964 0.76284 0 0zm43.687 0.16498c-1.7359 0.55455-4.7041 3.9411-1.3068 1.2822 0.90838 0.77742 1.5102-0.56517 1.3068-1.2822zm-43.164 0.25196c-1.0209 0.54101 0.64512 0.70884 0 0zm62.239 0.11438c-2.6903 1.4898-0.35572 6.063 0.79872 2.1669-1.2459-1.0478 2.1338-0.18955-0.52614-1.525zm-35.29 0.45857c-3.1422-0.16505 1.1971 0.44028 0 0zm-30.203 0.23667c-1.1776 0.69666 1.1453 0.65214 0 0zm-6.9598 0.55978c0.31007 0.71647-1.4012 0.15289 0 0zm49.041 0.38451c-2.8307 1.2429 0.27379 4.2933 0 0zm-2.8237 0.25934c-0.37199 0.64662 0.341 1.2673 0 0zm13.454 0.41905c-2.3742-0.20196-7.1343 5.4504-2.1871 2.4105 0.90056-0.61475 1.7351-1.3989 2.1871-2.4105zm-9.4409 0.90872c-0.97955 0.46696 0.3181 1.1752 0 0zm-50.304 0.16709c1.0209 0.54102-0.64513 0.70884 0 0zm45.895 0.53975c-1.1946 1.2033 0.96025 0.98179 0 0zm-52.028 0.5756c0.12024 2.1756 2.5011 1.3061 0 0zm81.92 2.0207c-3.242 0.45257 3.1632 0.70546 0 0zm-65.825 0.30059c-1.2402 3.6329 6.6522 0.42968 1.591 0.43194l-0.78348-0.23289zm17.393 0.01948c-6.9394 1.4554 7.201 1.3126 0 0zm46.016 0.59194c-1.2558 0.70486-0.89634 1.6211 0 0zm-23.99 0.84283c-3.1565-0.16589 1.2031 0.44071 0 0zm23.667 1.1391c-0.76472 0.66992 1.2506 0.40074 0 0zm-86.951 0.23614c2.0407 1.1583-0.37288 2.1456 0 0zm52.946 1.0205c0.66137 0.85177-1.123 1.1546 0 0zm8.7098 0.14179c-1.6931 4.3532 2.5522 0.75646 0 0zm15.737 0.14706c-0.5976 0.5635 1.9775 0.21361 0 0zm7.7521 0.2841c-3.1564-0.16589 1.2031 0.4407 0 0zm-45.608 1.3494c0.79448 0.4764-1.2365 1e-3 0 0zm-14.91 0.02377c3.2677 1.0252-2.2723 6.2088-0.70431 2.2653 1.2593 1.5486-0.10786-1.5871 0.70431-2.2653zm13.167 0.26303c-0.43516 1.1595 0.51827 1.5066 0 0zm0.9551 1.0294c1.0171 1.1283-1.2095 1.6639 0 0zm-15.778 0.37688c0.34052 0.6974-0.98291 0.65742 0 0zm21.664 0.71633c0.94112 3.3502-2.6053 6.1042-1.1434 9.7479 0.02285 2.5825 1.4884 9.723-1.1637 9.284-1.7362 1.9841 1.4303 3.6447 1.6498 2.7377 1.3157 1.1879-5.2075-0.52117-1.5786 2.4866 1.0834 2.6178 6.8588-1.1337 3.7761-3.5091-2.9291 3.5998 2.0261-3.6802-1.1964-1.4556 1.7232-4.0072 1.6585-7.7528 1.0329-12.518-1.617-1.996 1.1447-5.6208-1.3768-6.7732zm-23.803 0.61879c-0.76469 0.67047 1.2504 0.40036 0 0zm32.588 0.2704c-0.46727 1.0463 0.53231 0.54574 0 0zm-28.163 0.05641c0.92756 1.7497-1.9862 1.2076 0 0zm0.63568 0.21348c0.56032 0.79509-0.47127 0.77968 0 0zm24.328 0.13495c0.34645 1.0249-0.36181 1.6119 0 0zm13.975 2.2122c-0.82937 2.3046-3.5824 2.6717-0.66914 0.46542 0.17127-0.2249 0.44173-0.31603 0.66914-0.46542zm-33.176 0.89132c0.56032 0.79509-0.47126 0.77968 0 0zm1.7073 0.21769c0.52636 2.1237-2.7171 7.1455-2.0851 2.2524 0.31506-1.0509 1.2997-1.5993 2.0851-2.2524zm21.232 0.05222c-0.47124 0.77969 0.56035 0.79506 0 0zm-12.985 0.02846c0.68588 1.1335-1.3036 1.0746 0 0zm30.535 1.4975c-1.2155 0.63574-0.74309 1.9685 0 0zm-45.282 0.53975c-1.068 0.78094 0.66318 1.1453 0 0zm13.87 0.53975c-1.1776 0.69666 1.1453 0.65214 0 0zm-11.776 0.09333c-0.47124 0.77969 0.56035 0.79507 0 0zm34.856 0.62673c-3.7242 1.151 2.4044 2.0633 0 0zm4.1225 0.43696c-1.7681 1.6594 1.1493 1.0231 0 0zm1.8728 0.02948c-0.92356 0.60315-0.52833 2.6828-0.10396 0.63656zm-30.579 1.187c0.50405 1.4898-0.4431 0.79562 0 0zm4.0307 0.41852c-0.47126 0.77973 0.56035 0.79504 0 0zm11.776 0.48124c-1.2907 0.20401 1.2913 0.20413 0 0zm-20.427 0.3157c2.21 2.8083-6.3599 5.9113-2.6667 1.5311 0.79897-0.49094-0.39892 2.0261 1.026-0.03774-0.24919-1.0299 0.72522-1.5426 1.6407-1.4934zm-10.098 0.3131c1.5339 1.8979-0.46334 0.71929-0.41089 1.0574l0.15912-0.56779zm30.043 0.16604c0.31007 0.71647-1.4012 0.15289 0 0zm-28.862 0.40587c2.2732-0.02519-0.66611 0.83412 0 0zm17.299 0.20715c-0.47126 0.77974 0.56033 0.79504 0 0zm-16.17 0.30044c3.1526 3.6799-2.506 2.367-1.5989 0.62717 0.47366-0.24727 1.3168-0.09343 1.5989-0.62717zm13.473 0.17395c0.76844 0.2715 0.08884 1.2568 0 0zm-10.68 0.54713c0.97062 0.33089-1.1556 0.14157 0 0zm14.086 0.10384c-1.9185 2.1874 0.36366 8.9337 0.26383 2.7979 0.01071-0.93569 0.03805-1.8961-0.26383-2.7979zm-3.792 0.4006c1.0209 0.54102-0.64512 0.70883 0 0zm19.191 0.16973c-2.5681 0.56054-0.55497 5.7654-1.02 1.1407-0.36913-1.5429 2.3776 0.35795 1.02-1.1407zm-18.399 0.49336c1.7967 0.17514-0.5101 0.76248 0 0zm-5.5077 0.81437 0.0063 1e-3zm4.6095 0.09598c0.86624 2.3376-0.561 1.8974 0 0zm-5.0897 0.11175c1.1875-0.06324-0.64783 0.4679 0 0zm8.85 1.1696c0.41747 1.9605-0.35746 1.3337 0 0zm-1.8933 3.7472c-0.37236 0.64696 0.34175 1.2646 0 0z" fill="#2b0000"/>
 </g>
</svg>
