<?xml version="1.0" encoding="UTF-8" standalone="no"?>
<!-- Created with Inkscape (http://www.inkscape.org/) -->

<svg
   width="100mm"
   height="35mm"
   viewBox="0 0 100 35"
   version="1.1"
   id="svg142"
   inkscape:version="1.1.1 (3bf5ae0d25, 2021-09-20)"
   sodipodi:docname="carrier-src.svg"
   xmlns:inkscape="http://www.inkscape.org/namespaces/inkscape"
   xmlns:sodipodi="http://sodipodi.sourceforge.net/DTD/sodipodi-0.dtd"
   xmlns="http://www.w3.org/2000/svg"
   xmlns:svg="http://www.w3.org/2000/svg">
  <sodipodi:namedview
     id="namedview144"
     pagecolor="#ffffff"
     bordercolor="#666666"
     borderopacity="1.0"
     inkscape:pageshadow="2"
     inkscape:pageopacity="0.0"
     inkscape:pagecheckerboard="0"
     inkscape:document-units="mm"
     showgrid="false"
     inkscape:zoom="2"
     inkscape:cx="143.25"
     inkscape:cy="75.75"
     inkscape:window-width="1920"
     inkscape:window-height="1017"
     inkscape:window-x="-8"
     inkscape:window-y="-8"
     inkscape:window-maximized="1"
     inkscape:current-layer="layer1" />
  <defs
     id="defs139" />
  <g
     inkscape:label="Layer 1"
     inkscape:groupmode="layer"
     id="layer1">
    <path
       style="fill:#440000;stroke-width:0.326067"
       d="m 53.620805,32.765261 c -0.627395,-0.162588 -1.235983,-0.449746 -1.352407,-0.638129 -0.11646,-0.188381 -0.52003,-0.261881 -0.89688,-0.16334 -0.376852,0.09859 -0.767357,0.04621 -0.867784,-0.116337 -0.284854,-0.460888 -1.325492,-0.347323 -1.774462,0.193644 -0.334581,0.403152 -1.487637,0.48911 -6.561291,0.48911 H 36.0126 v -4.293235 c 0,-2.361287 -0.09267,-4.200573 -0.20592,-4.087328 -0.113256,0.113256 -0.186189,1.078546 -0.162071,2.145089 0.03155,1.396712 -0.07049,1.916951 -0.364712,1.859756 -0.224688,-0.04362 -1.068823,-0.273701 -1.87585,-0.511182 -1.624666,-0.237074 -1.372162,-0.761527 -1.61461,-0.507459 -0.404234,0.365822 -1.631517,0.485387 -5.344373,0.520695 -4.687019,0.04461 -4.827375,0.06618 -5.100286,0.783982 -0.252023,0.662863 -0.446025,0.722251 -1.902236,0.582326 -1.43632,-0.138015 -1.646614,-0.0769 -1.840691,0.534522 -0.187926,0.592124 -0.472606,0.690358 -2.000739,0.690358 -1.282888,0 -1.834183,-0.13693 -1.969327,-0.489109 -0.127946,-0.333409 -0.649774,-0.489096 -1.639353,-0.489096 -0.884746,0 -1.372966,0.12733 -1.250145,0.326064 0.125726,0.20343 -0.528433,0.326064 -1.7392482,0.326064 -1.4243329,0 -1.9907124,-0.130152 -2.1284561,-0.489096 -0.1283244,-0.334408 -0.6513783,-0.489109 -1.6537558,-0.489109 -1.1323523,0 -1.5455144,-0.148441 -1.8150825,-0.652129 -0.1992668,-0.372341 -0.6827302,-0.652141 -1.1268041,-0.652141 -0.608081,0 -0.8272434,-0.225156 -1.0044308,-1.031889 -0.5649006,-2.571974 -0.019558,-4.837344 1.1645016,-4.837344 0.8035951,0 0.814164,-0.657294 0.035591,-2.213956 C 1.4264135,17.460247 1.3811456,16.412351 2.271524,14.854985 3.2642692,13.11858 3.2775396,12.713483 2.3460211,12.581186 0.7385486,12.352887 0.749979,7.0561441 2.3584437,6.828005 2.7687823,6.7698364 3.280953,6.4396559 3.4966019,6.0943539 3.7944101,5.6174825 4.2618488,5.4665154 5.4405967,5.4665154 c 0.8535487,0 1.551908,-0.1467278 1.551908,-0.3260644 0,-0.1811483 0.8695153,-0.3260645 1.956411,-0.3260645 1.0868953,0 1.9564123,0.1449162 1.9564123,0.3260645 0,0.1793366 0.660288,0.3260644 1.467308,0.3260644 1.086898,0 1.467311,-0.1268001 1.467311,-0.4890967 0,-0.3804126 0.434762,-0.4891089 1.956411,-0.4891089 1.762348,0 1.956412,0.067042 1.956412,0.6763206 0,0.6084284 0.168689,0.6673487 1.680615,0.5871082 1.475671,-0.07838 1.712954,-0.00123 1.9459,0.6279617 0.252786,0.6833329 0.461873,0.7197868 4.433171,0.7729272 4.994327,0.066795 5.333566,0.088239 5.961269,0.3768141 0.269005,0.1236574 1.259435,-0.057179 2.200953,-0.4018315 l 1.711869,-0.6266555 0.06704,2.1728424 c 0.03796,1.230709 0.143991,0.304966 0.244554,-2.1349958 l 0.177526,-4.3078511 5.949227,-0.1179392 c 5.234223,-0.1037668 6.053327,-0.049665 6.815434,0.4503258 0.750917,0.4925966 0.928233,0.5062022 1.332257,0.1021647 0.256324,-0.2563238 0.857641,-0.4582623 1.336275,-0.4487483 0.478634,0.00986 1.677252,-0.1396416 2.663616,-0.3314623 2.4626,-0.478917 6.877656,0.0037 7.860411,0.8591202 0.450325,0.3920217 0.581796,0.3862171 0.936613,-0.041285 0.337168,-0.406268 1.33079,-0.497329 5.42688,-0.497329 h 5.014132 l 0.06815,2.8530945 c 0.03746,1.5692081 0.09292,3.3666665 0.123263,3.9943445 0.03032,0.627678 0.08455,1.801525 0.12065,2.608553 0.03599,0.807016 -0.0191,0.752951 0.228632,0.978206 0.349788,0.318017 1.010014,-0.06889 1.4054,0.190218 0.143449,0.09403 -0.251752,0.628653 0.266763,0.439976 0.571406,-0.207954 0.798104,-0.391567 2.419467,-0.397519 1.128654,-0.0037 0.678379,0.09243 0.992378,-0.140751 0.313998,-0.233192 0.315219,-0.580097 0.565467,-1.219654 0.176785,-0.464981 0.543729,-0.930724 0.815421,-1.034984 0.271703,-0.10426 0.3393,-0.498536 0.536924,-0.725307 0.218835,-0.251111 0.729646,-0.359721 0.714316,-0.698762 -0.06099,-1.349437 0.262289,-3.032444 0.305483,-3.7497906 l 0.0785,-1.3042701 4.978059,-0.090087 c 5.399362,-0.097728 6.271312,0.097851 6.271312,1.4057815 0,0.4970209 0.186632,0.8036999 0.489096,0.8036999 0.321887,0 0.489109,0.3220345 0.489109,0.9419118 0,0.8180205 -0.14987,0.9700345 -1.139315,1.1556565 -1.10089,0.206524 -1.122838,0.238874 -0.650995,0.959004 0.268573,0.409904 0.404123,0.829458 0.301231,0.932362 -0.102904,0.102904 0.52019,0.669123 1.384647,1.258278 4.404471,3.001758 5.107586,3.967849 5.080135,6.980353 -0.01775,1.947488 -0.0258,1.963461 -1.763109,3.501649 -0.959905,0.849865 -1.928695,1.546841 -2.152878,1.548825 -0.224171,0.0024 -0.407574,0.150325 -0.407574,0.329663 0,0.179336 -0.152878,0.326063 -0.339708,0.326063 -0.186842,0 -0.686857,0.424373 -1.027587,0.640866 -0.512363,0.325534 -1.021831,0.98279 -1.528835,0.989482 -0.358674,0 -0.546045,0.197526 -0.82454,0.278962 -0.535409,0.156563 -0.906259,0.902797 -1.624431,0.402202 -0.276646,-0.229594 -0.402078,-0.133025 -0.437472,0.33681 -0.04437,0.589277 0.120528,0.649677 1.564919,0.573023 0.92769,-0.04917 1.779836,0.07962 2.003106,0.30287 0.213709,0.21372 0.57932,0.388571 0.812463,0.388571 0.2536,0 0.42389,0.392959 0.42389,0.978206 0,0.642849 -0.164178,0.978206 -0.478879,0.978206 -0.310413,0 -0.406478,0.188641 -0.273084,0.53626 0.440503,1.147917 -0.739912,1.420151 -6.157797,1.420151 h -5.154782 v -2.730818 c 0,-3.247605 0.273602,-3.169583 -0.659265,-4.264384 -0.267945,-0.314456 -0.293887,0.563532 -1.179281,-0.381362 -1.136494,-1.212851 -2.454135,-1.565006 -4.302145,-1.149791 -0.979537,0.220092 -1.36165,0.201212 -1.368798,-0.06766 -0.0048,-0.205118 -0.164388,-0.107341 -0.353177,0.217184 -0.265296,0.456068 -0.864112,6.209877 -0.93119,8.947386 -0.0075,0.305446 -1.113078,0.407586 -4.411914,0.407586 -3.784544,0 -4.401931,-0.07185 -4.401931,-0.512437 0,-0.342123 -0.24384,-0.480926 -0.733652,-0.417644 -0.403507,0.05213 -0.903991,-0.07566 -1.143011,-0.0037 -0.284128,0.08516 -0.448959,-0.238071 -0.556768,-0.06372 -0.107833,0.174432 -0.411394,0.234486 -0.674669,0.133467 -0.26325,-0.101055 -0.478659,-0.03709 -0.478659,0.141922 0,0.784598 -4.913,1.216993 -7.172997,0.631301 z"
       id="color-primary"
       sodipodi:nodetypes="csscsscssscccssssssssssssssssssssssssssssccssscsscssscsssscsscaascccsasscsssssssssscssacacscsssssscsasscscssssssscc" />
    <path
       style="fill:#380000;stroke-width:0.326067"
       d="m 54.811918,32.774825 c -1.297714,-0.05497 -3.64091,-1.005614 -0.801937,-0.90478 1.503644,-0.17495 6.799474,1.222402 2.711935,1.149321 -0.590287,-0.09674 -1.389932,0.115106 -1.909998,-0.244541 z m 9.731676,-0.244554 c 1.420706,-1.127238 3.982735,0.514064 0.860205,0.300333 l -0.393946,-0.07001 z m 3.097648,0 c 2.547907,-0.494729 6.397286,0.341234 5.198965,-3.737011 -4.69e-4,-2.10866 0.318806,-7.620465 0.0075,-7.927292 -0.267021,3.293327 -3.799727,0.573528 -6.076004,1.284638 -0.982234,0.302058 -3.333724,-0.772865 -3.043682,0.808642 -0.138347,2.896635 0.365118,5.908177 -0.406343,8.711766 -1.895013,1.39055 -1.853963,-0.905433 -0.500249,0.07456 -0.945905,-1.886054 -1.171776,0.241682 -1.313635,-2.438286 -0.710089,-2.124891 1.015397,-6.551925 -0.217616,-7.196389 -0.326126,2.753284 -0.23308,5.532903 -0.312323,8.299916 -0.0679,-2.771585 -0.135895,-5.54317 -0.203836,-8.314753 -3.254199,0 -6.508386,0 -9.762585,0 0.111162,2.97542 -0.27333,6.03033 0.285728,8.941728 2.33304,0.361053 -2.028936,1.642893 -2.232576,-0.306764 -1.657274,-2.19722 0.301478,-6.442564 -0.987768,-8.77685 -3.577281,0.290708 -7.173972,0.102535 -10.760262,0.116214 -0.06482,0.78291 -0.05644,4.001789 -0.212069,1.770137 -0.694202,-4.180867 -0.795418,2.240463 -0.756032,3.774289 -0.01232,1.421088 -0.02416,2.842189 -0.03623,4.263289 3.266991,0.07826 6.579173,-0.215545 9.808182,0.298311 -3.327697,0.53716 -6.740739,0.272221 -10.108121,0.37446 -0.08615,-2.725703 0.211553,-5.506839 -0.219586,-8.189026 -1.014314,1.121446 1.169559,5.143409 -2.127367,3.362316 -2.119802,0.440665 -2.078971,-4.54235 -2.567107,-0.8185 -2.512106,0.454404 -6.223187,-0.915442 -8.916737,0.407487 -1.851991,-0.191377 -1.820208,-3.01864 -1.817559,-0.0329 -1.378398,0.319915 -3.657434,-0.774702 -4.948444,0.128144 -1.028339,-0.279049 -2.465263,-1.456532 -1.162927,0.222641 -0.055,0.127882 -4.61119,-0.992627 -6.4533896,-0.623294 C 4.5472057,27.151442 2.1069343,25.715098 3.0788264,22.096026 3.1573782,19.91537 0.06128109,16.583765 3.9843089,17.405421 7.2215686,18.04599 6.3014503,14.571478 3.6236711,15.45792 0.6334208,15.709917 4.8025176,11.933458 1.7349992,12.169276 0.690352,10.955116 1.0889584,5.5121157 2.8734716,7.3584255 2.1674838,8.966318 3.1361077,14.387409 3.4022005,9.753677 2.8113847,6.9214321 4.0111066,4.8392067 6.9920069,5.1404263 9.4840162,3.9070307 12.145779,7.1677613 14.192682,4.5942579 c 2.745641,-0.8124622 3.402503,2.0466464 6.232255,1.0610218 1.138367,-0.012324 -0.613851,3.0637343 1.471826,1.3984489 2.946904,0.6864264 7.638298,-0.8754863 9.485643,1.2579444 0.19654,2.664157 0.659363,-0.447429 2.173372,-0.02293 -2.643207,-0.219894 -1.403131,-0.633519 0.307628,-1.1380335 1.512285,-0.8727381 2.20364,-0.5563603 1.880065,1.2301415 0.198501,1.67687 0.268979,-2.796848 0.338807,-3.9145102 -0.0806,-1.4392286 -0.07801,-2.7932499 1.744035,-2.2805901 3.017814,0.00493 6.060819,-0.2487939 9.058695,0.1014252 2.913174,0.1873349 -2.654372,0.8101453 -4.269302,0.5482266 -2.408142,0.6467556 -7.46383,-2.2567187 -6.236251,2.2738242 -0.02071,1.9228533 0.0037,7.8307353 0.465386,2.8410913 1.236119,-1.238695 -0.984491,5.67437 2.425321,3.980776 3.522022,-0.106847 7.267523,0.591349 10.642212,-0.243926 0.268265,-1.076353 -2.020606,1.223082 -1.392619,-1.554716 0.254684,-1.870156 -0.715252,-6.9875854 0.717149,-7.1309487 2.61549,-0.2890929 4.924462,-1.2741875 7.816204,-1.2354906 0.858381,-0.1887028 -1.385816,1.3935563 0.905384,0.6447469 0.0062,-1.3210551 4.36894,-0.1200343 4.329036,0.9421213 2.153925,-1.8835895 5.273536,-0.8808842 7.907155,-1.1306763 0.97659,0.2707303 3.022178,-0.555596 3.325405,0.4061818 0.153457,3.3302986 -0.03919,6.8025436 0.530826,10.0109966 2.162022,-0.484167 2.439309,4.060549 -0.09378,3.773416 -0.471609,2.141293 2.853181,2.506991 2.108044,4.925645 0.36613,-0.350823 2.016169,0.911904 1.612723,-1.399743 -0.06679,-1.392755 -0.105739,-5.250564 0.916181,-1.845508 -1.225398,1.874778 0.493767,5.114385 1.600215,3.648229 -0.727896,0.44648 3.048982,-1.169521 0.606149,-1.080875 -1.484964,0.164289 -2.829433,-4.606829 -0.440283,-6.06013 1.6835,-1.354342 -4.713194,-2.614148 -3.770013,0.321516 0.181863,1.431292 0.0024,6.8519 -0.433208,2.617573 -0.274366,-2.442808 -0.861708,-5.300204 2.302021,-5.039443 1.501809,-2.092641 3.173465,-2.656408 3.148978,-1.413548 0.450141,-4.2067084 -0.139136,5.299393 1.568961,1.051768 3.45488,-1.065904 7.540754,-0.92302 10.827501,0.771892 -1.272907,0.460974 -4.328087,-2.140037 -3.920476,0.380043 -0.08615,1.314967 -0.178621,2.988731 -0.200656,0.676568 -0.096,-4.639636 -1.907215,1.843931 0.488677,2.134071 -2.328295,-0.830146 -2.012374,1.149311 -1.732758,2.837283 2.925719,-0.409534 -2.303253,5.500825 2.071036,4.357923 3.379027,-0.541609 -3.439242,1.674652 -2.780249,-0.395805 0.224072,-1.666172 -0.833794,-5.509624 -0.662197,-1.701639 0.242471,1.439584 0.331819,2.734896 -1.520345,2.200965 -3.067344,1.258622 -0.613517,-3.252769 -1.310233,-2.691369 -0.09354,1.682649 -1.02855,2.350293 -1.552646,1.02182 -0.808703,0.773432 -1.116775,2.025659 -0.986549,3.722627 -1.764639,-2.080092 -5.166293,-2.265493 -7.527161,-2.259343 -2.048926,2.695238 0.945351,9.117222 -2.93925,9.637386 -1.238535,-0.01109 -2.653078,0.24087 -3.790656,-0.300455 z M 34.177109,26.077046 c -1.5146,-0.615341 -2.951735,0.711938 -0.391146,0.162613 z m -7.071683,-0.781418 c -0.585962,-0.232871 0.219303,1.391979 0,0 z m -4.706183,-1.737885 c 2.124545,0.04954 3.396847,2.212587 4.888428,0.104876 -0.992378,-0.900615 -1.203732,-4.161788 -1.280375,-4.664157 -0.140565,1.525125 -0.435007,3.76995 -1.074294,1.150431 -2.280689,0.224824 -6.146656,0.473518 -7.334737,0.836642 -1.272658,-1.857353 -5.660508,-1.280843 -3.71877,1.225951 -0.308048,1.023768 -2.565577,2.002959 0.311375,2.089189 2.441453,0.866588 1.22282,-1.467154 1.858817,-2.802642 2.309725,-0.163254 0.968482,3.812876 3.997155,2.766176 0.641998,1.062525 1.004073,-1.655451 2.352401,-0.706441 z M 7.5979743,23.140014 C 6.4195062,20.767143 11.030227,21.711927 9.0837722,20.64552 9.869376,19.105075 9.5437186,18.500677 9.194255,19.133198 6.1384398,15.597202 6.0939889,23.499217 7.4157625,24.309955 7.7038239,23.995844 7.5715643,23.511295 7.5979707,23.140014 Z M 49.278077,22.687075 c -0.585961,-0.232821 0.219414,1.391955 0,0 z M 32.751918,21.892286 c -0.544715,-1.076697 -0.731532,-5.522107 -1.937272,-2.677332 -0.583053,1.579535 0.708448,6.217666 1.937272,2.677332 z m 44.617205,0.570237 c 0.07653,-1.621277 -2.831467,0.777992 1.11e-4,0 z m 2.248351,0.08873 c -1.062205,-0.359301 -0.876941,0.605409 0,0 z m 6.071937,-1.030755 c -0.611055,-1.888468 -1.076797,-1.263749 -0.467001,0.195333 0.114365,0.06964 0.917314,0.115105 0.467001,-0.195333 z m 1.189879,-0.728659 c -0.06938,-3.40609 -0.661815,3.271108 0,0 z M 6.2402545,19.575291 c -0.503635,0.04819 0.2408204,2.12181 0,0 z m 69.2266325,0.411605 c -1.282703,-2.581181 -0.167049,2.375557 0,0 z m 11.330893,-1.3748 c 3.34807,-0.400303 -0.539686,-2.748342 -1.644889,-3.287707 -0.351636,-3.184101 -1.850117,6.895452 1.644889,3.287682 z M 72.858348,17.694191 c 0.562213,-2.075114 -2.261045,-0.728746 -3.374345,-1.180057 -1.795079,0.148539 -4.16853,-0.579173 -5.701209,-0.174469 -1.192987,1.778393 2.853302,1.791074 0.108696,1.85533 -0.571087,0.382655 4.357516,0.308578 5.86566,0.46917 0.979376,-0.232453 3.486059,0.968186 3.101222,-0.969974 z m -5.787725,0.264334 c 2.631007,-0.231737 0.329738,0.496307 0,0 z M 33.10035,15.63654 c -1.98939,-1.480871 0.923069,-3.915942 -1.091918,-5.476807 -2.594824,1.581422 -0.501876,5.096345 -0.402817,7.471188 1.863958,1.879128 2.098689,-0.778904 1.494735,-1.994381 z m 22.688973,2.380721 c 1.414888,0.239144 0.964254,-2.471548 1.665531,-0.488136 -1.173798,-2.513263 -6.406394,-0.555743 -9.017374,-1.266127 -3.024421,0.432185 -7.565649,-0.956639 -9.569753,1.406016 2.926533,-0.133825 4.257779,1.229021 7.897974,0.807174 2.980559,-0.153948 6.157956,0.416412 9.023622,-0.458927 z M 44.24848,17.990391 c 2.808224,-0.209617 7.616878,-0.27004 9.319111,0.09994 -3.098574,0.09083 -6.236596,0.223345 -9.319111,-0.09994 z M 18.567932,17.857187 c 1.167351,-1.782276 0.318052,-4.508386 -2.120258,-3.048946 -2.040792,-0.09859 -0.864038,3.716381 0.652954,2.52565 -0.19813,0.462773 2.045464,1.174143 1.467304,0.523296 z m 7.930926,-2.758583 c -1.406694,-2.411026 0.655456,-4.049212 0.971761,-5.834346 -1.725081,-1.08074 -2.188482,-0.841312 -1.892217,1.186306 0,1.51486 0,3.029721 0,4.544581 -2.114944,-0.510269 -3.451849,0.473667 -5.458591,1.35916 0.0062,1.434435 2.599101,1.047047 4.61962,1.245548 1.938592,0.718961 2.708228,-0.798253 1.75944,-2.501249 z m 3.754621,2.049838 c 0.676616,-5.006762 -2.765977,2.858024 0,0 z m -17.94405,0.172829 c -0.439595,-1.018098 1.410546,-0.935318 -0.455534,-2.168024 -1.018766,-1.875998 -0.884531,3.971681 0.455534,2.168024 z M 61.4062,17.236481 c 1.152958,-2.177168 -6.438337,0.22549 -2.000666,0.28245 0.666671,-0.02575 1.379778,0.0024 2.000666,-0.28245 z m 12.000953,-0.74473 c -0.585937,-0.232871 0.219304,1.391979 0,0 z m -0.315257,-3.118032 c -0.466679,0.583546 0.216236,3.682847 0,0 z m 2.279396,1.999149 c -0.840426,-0.977712 -2.466164,1.087495 -0.296562,0.255437 z m 12.506784,-2.553463 c 0.158275,-2.108022 -1.067195,1.753794 -0.567697,2.9768 0.05582,0.585001 0.134895,-2.843531 0.567697,-2.9768 z M 14.0777,15.051613 c -1.062354,-0.35929 -0.876781,0.605433 0,0 z m 72.701483,-1.019552 c -0.50365,0.04855 0.241067,2.121575 0,0 z m -2.277829,-0.817576 c -0.476156,0.226055 0.243988,2.740564 -4.19e-4,0 z M 8.9489096,13.843579 C 10.096733,13.075028 8.1814248,12.526345 9.850088,12.175571 7.6363372,9.52874 4.8359074,13.630661 7.974309,14.433436 8.3399502,14.572634 9.0156223,14.320181 8.9489096,13.843579 Z m -2.7098492,-1.122 c -0.4116832,-0.08578 0.1145748,2.521731 0,0 z M 17.875121,11.987927 c 2.255338,-1.735272 7.856023,2.284152 7.337312,-1.818963 0.489207,-1.761608 -0.486015,-2.040607 -2.038488,-1.735174 -1.644026,0.04338 -3.288052,0.08688 -4.932079,0.130325 0.627863,2.526499 -3.259928,4.905633 -2.598063,1.041575 -1.278761,-1.793416 -3.679999,-0.693438 -1.667504,0.623697 0.305076,1.33916 0.0859,2.136748 1.011936,1.823105 0.833425,0.909168 1.889652,-0.294552 2.886886,-0.06457 z M 61.71792,11.70719 C 60.698429,9.69749 60.939286,6.2149058 61.996242,3.9811464 62.385934,2.3096256 56.915179,2.9530785 54.809688,2.8293717 51.727222,2.0459815 50.697994,3.773317 51.168458,6.6452054 c -0.0891,1.7895956 -0.17251,3.5794616 -0.259085,5.3691686 3.224721,-0.148686 6.547193,0.204244 9.691772,-0.494999 1.82552,1.169658 -4.485869,0.881896 -2.079354,1.0145 0.982408,-0.185044 2.970528,0.468307 3.196129,-0.826685 z m 3.23326,0.708105 c -2.630981,-0.231824 -0.329774,0.496379 0,0 z m 7.907697,-4.9108087 c 1.73e-4,-1.6031731 3.57e-4,-3.2063459 5.3e-4,-4.8095185 -3.043658,0.06581 -6.087328,0.1316187 -9.130988,0.1974281 0,2.9949543 0,5.9898971 0,8.9848511 2.99885,0.155183 6.097349,-0.144028 9.021232,0.43677 0.140492,-1.596642 0.08799,-3.207554 0.109189,-4.8095307 z M 71.905886,7.2327572 c 0.317155,-1.1561866 0.202642,1.4154308 0,0 z m -9.155672,4.4291068 c -0.372266,-1.04138 -0.739701,1.136271 0,0 z M 7.5847767,10.138179 C 7.0496592,7.1872083 5.9139867,11.843764 7.544145,10.805576 Z M 58.837392,32.204181 c 0.877927,-1.314055 0.768466,1.269493 0,0 z M 47.098925,32.078145 c 2.115599,-0.945054 1.970756,0.539022 0,0 z m 42.06284,-2.451054 c -0.141391,-1.432942 -0.189873,-2.779077 1.647712,-2.363073 3.392165,-0.368422 0.638166,1.109245 -0.525341,1.322744 -0.844935,1.22923 -0.110422,3.250194 0.787974,3.177889 -2.276634,0.447836 -1.952812,-0.257259 -1.910345,-2.13756 z m -32.684562,0.390062 c 2.712922,-0.130718 0.833289,0.339684 0,0 z m -40.370357,-0.43805 c -1.740263,-0.682889 -6.7347894,0.0281 -2.592975,-0.979549 1.020389,-1.146648 5.865659,0.382077 2.592975,0.979549 z m 77.293818,-0.635615 c 0.06433,-2.501595 1.383106,0.923993 0.199462,0.901021 l -0.103643,-0.210158 z m -5.232731,0 c -0.875424,-2.14138 -5.593795,-0.04745 -5.483128,-0.543446 -2.180976,-3.50245 3.824573,-3.694184 6.158106,-3.474807 1.140966,1.641463 6.96088,-1.167254 2.827448,0.876029 -2.045685,0.847943 -2.422425,-0.60626 -3.007537,2.13051 -0.259221,0.217245 -0.263706,2.669827 -0.494889,1.011714 z m -79.952678,0.08639 c -4.6094637,-0.782601 4.51091,-0.986167 1.1656951,0.10352 l -0.545018,-0.05151 z M 71.9845,27.313141 c -0.03746,-3.021549 0.4356,0.890275 0.03869,1.185567 L 71.99497,28.052461 Z M 1.4493332,27.146745 c 0.5931555,-0.843149 -1.57626363,-4.47675 0.8700281,-5.267719 0.1595199,1.108838 1.199092,6.479719 -0.8700281,5.267719 z M 92.993078,22.858292 c 1.296592,-0.275353 1.090167,0.512856 0,0 z m 2.749685,-0.46615 c -2.720119,-2.638685 3.446167,-2.549091 0.725284,0.124458 z m -4.95065,-1.07639 c 0.261869,-3.094408 3.979408,0.669591 1.467314,-0.0049 -1.104452,-1.543119 -0.941111,2.260588 -1.467314,0.0049 z m 8.177451,-1.366333 c 0.317161,-1.156149 0.202653,1.415369 0,0 z m -8.040879,-0.745174 c -0.793187,-1.013329 3.152625,-0.765324 1.031827,-2.721304 -4.016429,-1.2715 5.183399,0.0075 3.14671,0.455885 -1.426387,0.309968 -2.60133,-1.21549 -2.503036,1.704757 0.124792,0.703742 -1.55103,1.102555 -1.675501,0.560662 z m 2.308947,-0.36889 c 0.610462,-1.207836 1.24858,1.101604 0,0 z m 5.915088,-1.046788 c -0.70942,-3.023521 0.686935,-0.240784 0.211149,0.599716 z m -9.746399,-1.139746 c 3.276911,-0.189998 0.576596,0.434329 0,0 z m 6.015974,-1.139365 c -1.733326,-2.596524 3.798402,-2.956553 1.355881,-0.14764 -0.217479,0.538307 -1.034982,0.659634 -1.355881,0.14764 z m -3.896531,-0.150733 c -1.582776,-3.10195 2.043799,-1.779083 2.250963,0.05004 -0.704394,0.201469 -1.530511,0.09132 -2.250963,-0.05004 z m 0.442524,-0.91586 c -0.723484,-2.269301 -0.495703,1.67788 0,0 z m 0.70124,-3.946911 C 89.337971,9.707559 85.287961,10.981709 82.397735,9.063711 82.69061,7.5790701 85.584608,8.101552 83.190219,7.5401756 c 2.533464,0.6590424 4.048213,-1.4273113 5.549688,-0.8766693 0.91851,3.4772237 0.247908,-2.5768555 1.167501,-2.7756761 1.767832,-0.219574 2.941838,0.3569973 0.48143,0.7907352 -1.250759,-0.1430923 1.223993,4.6299956 1.597677,1.9980904 1.223722,2.0038582 -3.052137,2.0212852 0.03512,2.0842832 0.651538,-0.284434 1.431477,2.486102 0.647902,1.735013 z m -0.165559,-0.6804 c -1.296704,-0.275278 -1.090033,0.512784 0,0 z m -0.815161,-0.66974 c -3.551204,-0.148304 -1.03614,0.404137 0,0 z m 1.711856,-2.0489252 c 1.29138,-3.5812493 0.890682,3.4403992 0,0 z M 46.5445,5.7926168 c -0.0376,-2.5623379 0.448662,0.7619836 0.03992,1.003186 L 46.55521,6.4182124 Z m 0.630082,0.6521288 c 0.178042,-2.3953867 0.200644,2.3675594 0,0 z M 84.107705,4.141073 c -0.978932,-0.6369089 7.708729,-0.0997 3.056636,0.2118223 -1.021857,0.0037 -2.046326,-0.053978 -3.056636,-0.2118223 z"
       id="color-darker"
       sodipodi:nodetypes="ssscssssssscsssssscssssscssssscccccscssssscsssccccsccssscsssssssssssscccssssscssssssssssscssscsssssssssssssssssscccsscccssccccccsccsssssssccsssscssssssssssssssccssczccssssscsssscsssscscccssscsssscccccssssssccccsssscsscssssccsscssscsssscscscsscccsscssssscsssssssssssssscssssssssscccsssssccsccsssssssssssssssssssscssssscccssccscsssssccssssssssssssssssssssssscsscssscccccsssscccscssssssssscsssssssscsssssssscssccsssscsssssssssssccscsssccccsssssssccssscssssssssscssscssccsssssssssccscsssssccssscsssccscccccccscscssssssssssccssccccscssssssssssscsccssssssssssccscscssscsscccccccsssscsssssssssssssssssssscsscccssssscssscccccccsssssssssssssscsssssssacscscsccsscssssssscsssssssssssssssssssssssscccsssccsssssscsssssscssssssssssssscsssssccscssssssscsssssssssscssssssssssssssssscssssssssssssssscsccsscss" />
  </g>
</svg>
