<?xml version="1.0" encoding="UTF-8" standalone="no"?>
<!-- Created with Inkscape (http://www.inkscape.org/) -->

<svg
   width="100mm"
   height="50mm"
   viewBox="0 0 100 50"
   version="1.1"
   id="svg400"
   inkscape:version="1.1.1 (3bf5ae0d25, 2021-09-20)"
   sodipodi:docname="cruiser-src.svg"
   xmlns:inkscape="http://www.inkscape.org/namespaces/inkscape"
   xmlns:sodipodi="http://sodipodi.sourceforge.net/DTD/sodipodi-0.dtd"
   xmlns="http://www.w3.org/2000/svg"
   xmlns:svg="http://www.w3.org/2000/svg">
  <sodipodi:namedview
     id="namedview402"
     pagecolor="#ffffff"
     bordercolor="#666666"
     borderopacity="1.0"
     inkscape:pageshadow="2"
     inkscape:pageopacity="0.0"
     inkscape:pagecheckerboard="0"
     inkscape:document-units="mm"
     showgrid="false"
     inkscape:zoom="2"
     inkscape:cx="144.75"
     inkscape:cy="63.75"
     inkscape:window-width="1920"
     inkscape:window-height="1017"
     inkscape:window-x="-8"
     inkscape:window-y="-8"
     inkscape:window-maximized="1"
     inkscape:current-layer="layer1" />
  <defs
     id="defs397" />
  <g
     inkscape:label="Layer 1"
     inkscape:groupmode="layer"
     id="layer1">
    <path
       style="fill:#450000;stroke-width:0.404113"
       d="m 31.99964,45.68171 c 0,-2.402056 0.04335,-2.101772 -0.950357,-2.557822 -1.649184,-0.04488 -1.91199,-0.164876 -3.722269,-0.169767 -2.723833,0 -3.095243,0.08945 -3.286656,0.791575 -0.148308,0.543843 -0.562822,0.791576 -1.324605,0.791576 -0.761783,0 -1.176328,-0.247733 -1.324605,-0.791576 -0.189432,-0.694852 -0.562807,-0.791575 -3.05599,-0.791575 h -2.840203 v -2.981142 c 0,-2.721636 0.03618,-3.000602 -0.41389,-3.619718 -0.694382,-0.746744 -1.84724,-0.797454 -4.74374,-0.877633 -3.3123086,-0.06986 -4.3324847,-0.370096 -4.3324847,-1.27494 0,-0.605188 -0.3089831,-0.745412 -1.6426023,-0.745412 -1.3949746,0 -1.6805091,-0.144801 -1.8940323,-0.960894 C 2.3299251,31.965887 2.3344633,31.177827 2.4783424,30.743124 2.6819815,30.127688 2.530414,29.924293 1.7935206,29.824054 0.89559509,29.701841 0.84209812,29.513091 0.74781718,26.133252 0.60647998,21.066344 0.91048049,19.207008 1.8802816,19.207008 c 0.6182282,0 0.8020539,-0.342377 0.9031062,-1.682088 0.1250872,-1.658304 0.1487604,-1.682088 1.6744629,-1.682088 1.1868239,0 1.5475199,-0.158205 1.5473171,-0.678697 -4.21e-4,-1.038695 1.0922872,-1.368462 5.3884982,-1.626187 2.276585,-0.136574 4.457588,-0.493207 5.157708,-0.843408 1.201546,-0.601015 1.203277,-0.606804 0.181557,-0.60833 -1.015014,-0.0015 -1.029346,-0.04592 -0.894528,-2.7729293 0.151895,-3.0734373 -0.125539,-2.8584792 3.780049,-2.9285912 1.71947,-0.030815 2.267274,-0.1840083 2.269395,-0.6343732 0.0016,-0.3797594 0.485986,-0.6383673 1.343803,-0.7176939 1.110268,-0.102767 1.340996,0.011967 1.340996,0.6700052 0,0.7473721 0.224287,0.7860855 3.816712,0.6588159 l 3.816713,-0.1352276 0.123668,-2.2168808 0.123824,-2.2168659 h 2.661422 c 1.971079,0 2.661421,0.1398649 2.661421,0.5391754 0,0.7562427 3.21757,1.0259799 9.684039,0.8118296 3.646166,-0.1207176 5.441926,-0.3327139 5.635054,-0.6651735 0.427817,-0.7363773 6.549591,-0.4233642 6.549591,0.3348979 0,0.4201033 0.600281,0.5639322 2.372556,0.5684647 1.304893,0.00299 2.60503,0.1476435 2.88917,0.320702 0.389984,0.237516 0.449915,1.3606834 0.244482,4.5812854 -0.09575,5.4842143 0.03478,5.7742803 1.098385,5.7313783 1.022734,0.02573 2.47383,0.215826 3.224665,0.422377 0.921788,0.253582 1.691431,0.232954 2.369749,-0.06342 0.743568,-0.32498 1.728281,-0.314449 3.789827,0.04054 1.531878,0.263739 3.361979,0.533132 4.066887,0.598637 0.704908,0.06552 1.451533,0.219805 1.65918,0.342901 0.207647,0.123111 1.209171,0.335586 2.225605,0.47219 2.258182,0.303499 7.865634,2.019424 10.070107,3.08153 0.891112,0.429348 2.608633,1.677301 3.816712,2.773244 2.021171,1.833561 2.196505,2.134966 2.196505,3.775723 0,1.610436 -0.187031,1.952559 -1.931577,3.533227 -1.062376,0.962569 -2.659691,2.10641 -3.549586,2.54189 -3.824713,1.871632 -10.794666,3.573481 -17.006453,4.152477 -1.361628,0.12685 -2.67513,0.385114 -2.918895,0.57376 -0.447887,0.34664 -1.891794,0.218294 -2.658661,-0.23632 -0.2292,-0.135826 -1.946018,-0.111293 -3.815153,0.05475 -3.255621,0.07629 -2.906528,1.918153 -3.136975,5.802178 -0.06924,2.433844 -0.213713,4.56157 -0.321131,4.728301 -0.10745,0.166716 -1.298422,0.30314 -2.646669,0.30314 -1.903896,0 -2.451342,0.132535 -2.451342,0.593671 0,0.478233 -0.641858,0.593685 -3.30094,0.593685 -2.659083,0 -3.300925,-0.115482 -3.300925,-0.593685 0,-0.480358 -0.767927,-0.612564 -4.023018,-0.692623 -7.244393,-0.178175 -10.977033,0.05146 -11.354665,0.698786 -0.243188,0.416827 -1.056044,0.587522 -2.797971,0.587522 h -2.455194 z"
       id="color-primary"
       sodipodi:nodetypes="cccsssscsccsssccssssssssccccsscccssssscsccscssssssssscssccsssssssscc" />
    <path
       style="fill:#380000;stroke-width:0.404113"
       d="m 36.957359,47.208811 c 0.612164,-1.391155 5.554537,-0.298668 1.605314,-0.299581 -0.516427,-0.37373 -1.712701,1.330632 -1.605314,0.299581 z m -4.928712,-2.374712 c 0.643682,-3.607556 0.293341,4.709662 -7.8e-5,0 z m 5.719205,-1.671617 c -2.0867,-2.465062 3.006148,-2.64397 1.531909,-0.742899 4.135287,0.405309 -0.889521,0.557096 -1.531909,0.742899 z m -9.668085,-0.604141 c -2.018379,-0.210531 -2.319003,-0.332879 -0.111036,-0.326476 1.110518,-0.108751 3.375889,0.371517 1.765163,-1.124709 -1.026929,-2.894664 -4.635682,-0.839683 -5.741693,-0.391786 -0.401555,-2.265841 -0.19252,-4.576648 -0.244981,-6.864404 2.33059,0.0893 4.646131,-0.218039 6.936954,-0.515301 1.337985,1.886575 8.210828,2.009118 6.100002,-0.925801 -1.744047,0.05116 -8.056422,-0.552743 -2.863828,-1.126727 C 32.030362,30.908538 28.7443,30.30869 26.249432,29.9727 c 1.215566,1.343855 -3.925347,0.697141 -5.100786,1.334461 -1.935601,0.636542 -2.974288,-0.875091 -5.121481,-0.03994 -2.12876,-0.895943 -6.9764871,0.828837 -7.4569836,-1.708072 1.1816931,-0.641374 7.5323226,-0.462601 3.2745066,-0.83726 C 10.090223,28.81957 6.738412,28.845748 7.9609796,27.7646 6.5683957,26.30652 9.210386,22.611723 7.2298875,24.288472 6.6885549,23.348639 7.5631987,21.175723 7.887075,23.052739 c -0.5444983,-2.978434 8.346692,-1.386457 3.890243,-2.221787 -2.2035224,1.006833 -5.8517781,-2.984851 -5.1799468,0.975 -0.5867607,2.684478 0.844795,3.659898 -0.1356763,6.331975 2.7196377,2.489281 -4.1885074,1.202868 -3.1219644,0.95521 C 4.9854862,27.311991 0.95860968,26.290753 1.0756889,28.52171 0.48234716,26.401508 0.87502065,24.155892 0.84672826,21.978248 2.706751,22.322166 6.3818955,21.044414 2.4079842,21.185655 -1.2096414,20.285853 3.9211935,18.801879 2.8827886,16.563098 3.786177,15.242579 6.2459074,16.334991 6.5766922,14.2617 9.3480428,13.164845 16.77694,13.798949 16.732478,12.086809 14.739395,11.029355 15.404583,4.8247847 19.155905,6.4145024 c 2.26885,-0.2755712 3.424952,1.12586 0.377414,0.9117097 -1.092303,0.3343443 -3.829173,-0.8275514 -3.182574,1.0458452 0.173931,1.1068024 -0.337584,2.8967137 1.476781,2.3686377 1.467845,-0.22691 2.871564,-0.272863 3.424421,-0.438263 1.869119,-4.6218537 1.141583,3.594348 1.430558,5.230259 0.324858,0.133432 0.449415,-3.060513 0.907455,-0.356005 0.285996,-1.871153 0.0047,-4.852324 0.864959,-6.1435839 1.64254,0.7883743 4.277248,3.1397499 4.096939,0.6407158 0.445548,0.4050851 0.810938,0.00748 1.491425,-1.5283118 -0.604274,-1.1335338 -7.951407,-0.087958 -4.595619,-1.755581 2.249886,-0.1255044 4.505417,-0.084966 6.758033,-0.1243077 0.0825,-1.4908549 0.164916,-2.9817099 0.247492,-4.4725648 1.792017,0.2402086 4.541551,-0.7792942 5.306562,1.2796963 3.995306,0.5712621 8.120627,-0.01825 12.172933,-0.0181 0.998858,0.2832151 3.452367,-0.8742378 3.110167,0.7371403 C 53.988748,8.083846 49.536213,5.7023435 47.017922,5.7381698 44.076758,4.8725034 39.365752,8.2956029 37.657744,5.4243639 37.817,1.9963728 31.809304,3.341514 32.880288,6.6025946 c -1.498895,2.5176726 -0.988752,8.4841884 3.110323,6.9423994 1.646751,-3.185599 0.532287,5.56176 1.362361,1.341102 0.377632,-1.67796 -0.404035,-6.5789897 1.866,-3.973763 2.1808,-1.9908684 5.265501,1.478932 8.415591,0.3413 3.541617,1.267116 1.620941,-2.6117336 4.614067,-2.6497888 1.475066,2.3234618 0.612009,6.7513448 4.977041,5.7027328 2.461556,-0.01855 1.562943,-4.304832 4.808848,-3.708589 0.416121,-0.9104527 2.020765,1.867458 1.850515,-0.592488 -0.147529,-1.2470116 1.644021,3.277729 -0.48084,3.191806 1.946237,0.906429 6.104167,1.673338 9.066696,0.985262 3.398783,0.109349 7.016317,0.752698 10.122382,1.656943 -1.332029,0.399968 1.186528,2.146888 -0.843282,0.732443 -2.24449,0.132535 2.22445,3.298582 3.82097,3.319839 -2.115489,0.420417 -3.398627,0.226252 -4.304664,-0.273522 -1.405917,0.590649 -6.410046,-2.156896 -3.292955,0.252774 2.031681,1.677825 -1.748586,1.566546 -2.578067,-0.0075 -0.891938,-0.492175 -0.59947,2.644762 -2.526229,1.642866 -1.714245,1.279547 -0.673874,0.435032 -1.46496,-0.319924 0.517909,1.028717 -2.822907,1.699126 -0.836342,2.124226 -2.950958,0.631007 1.473693,0.408525 0.372298,2.625196 0.571041,2.176358 -3.832291,0.373537 -1.046282,2.252393 -2.366396,1.253968 -3.547403,0.950154 -6.946263,1.529943 -2.34224,0.828733 -2.191047,-1.385441 -3.93564,0.456872 -2.314683,0.519893 -6.744793,1.340638 -7.971929,0.640581 0.167443,-1.877421 -1.229414,1.019518 -1.049495,-1.451394 -0.862386,-0.207703 -5.54097,2.26463 -1.899062,1.681266 1.039982,0.0733 3.933441,-0.06014 1.425022,0.40863 -2.676019,0.571875 -5.355234,2.206858 -7.984374,0.534598 -3.0704,0.478053 -2.486712,-2.719946 -1.81368,-3.039616 -2.461509,-2.935711 -2.151154,4.524786 -1.042929,5.496406 5.122745,0.442018 10.298808,0.166821 15.397895,-0.266506 3.803519,1.173279 6.033693,-2.116567 9.483892,-0.761553 2.099239,-0.428316 6.481955,1.073549 2.15011,1.689104 -0.42292,0.57174 4.366606,0.48839 1.3077,0.998336 -2.923682,-0.714029 -3.197951,5.36405 -3.607958,4.672579 -0.289427,-2.679048 -4.879977,0.810678 -4.296211,-3.060124 -0.489713,-2.537239 -2.012967,-3.203878 -4.167786,-2.746243 -0.709774,-1.215209 -2.436324,4.047944 -2.305046,0.466191 -1.067522,-1.693382 -1.000043,2.104615 0.22003,2.338287 0.426553,2.762159 -1.306469,6.244181 -3.131111,2.159035 -0.357421,-1.596046 -2.178804,-0.751247 -3.387539,-0.92788 -2.367706,-0.154001 -5.500829,0.08901 -6.379184,1.347669 0.296335,-2.56753 -4.303697,0.546116 -2.972198,-2.738644 0.245948,-2.501547 -0.486517,-2.123164 -0.789153,-1.004096 0.893779,-2.524583 -2.628874,0.07973 -1.034008,-1.483884 -4.432293,-0.173387 -2.063105,6.039291 -4.156667,7.731222 -0.985291,0.01705 -1.955594,-0.191457 -2.928564,-0.300776 z m 36.5166,-8.316995 c -0.139887,-0.818247 -4.411395,0.954717 -0.730032,0.276813 l 0.730032,-0.276753 z m -20.17482,-3.704295 c -1.315794,-2.648293 3.902859,-0.751082 2.51996,-3.959507 -0.01248,-1.974907 0.374154,1.376135 0.554354,1.972379 0.196886,0.645757 0.168316,-2.772571 0.33852,-2.60756 0.596663,4.501779 0.861341,-1.627205 0.421485,-3.333153 -2.671044,-0.627671 -1.371437,3.632583 -2.189377,5.921236 -1.036255,-2.304405 1.482442,-7.432405 -3.033596,-6.552931 -2.552366,-0.491203 -0.02074,3.207707 -1.458317,4.33789 -0.435458,1.561745 -1.235371,3.214813 1.402581,3.043071 -2.275556,-1.739485 2.453026,0.237068 -0.051,1.121238 -0.600859,0.186147 -5.304504,0.457351 -3.250662,0.48676 1.398557,-0.177382 4.253824,0.624844 4.74611,-0.429423 z M 42.93399,25.774809 c 1.609229,-1.517123 4.017341,0.360881 0.793331,0.482152 -0.375059,-0.05819 -2.144729,0.39433 -0.793331,-0.482152 z m -0.586356,-1.653457 c 0.464138,-1.50535 0.215913,1.762193 0,0 z m -9.316449,6.167652 c -1.782302,-1.530959 -2.538627,1.760877 0,0 z m -11.03751,-0.578337 c 0.639549,-2.159933 -1.342789,-5.545426 0.206321,-8.200241 -3.322367,-0.703453 -8.048594,-1.282673 -6.765533,3.49933 -0.05193,1.600981 -0.09684,3.202187 -0.145813,4.803259 2.349475,-0.722885 4.233378,0.860131 6.705025,-0.102318 z m 18.146554,0.339206 c -1.653566,-0.366626 -0.82017,0.724889 0,0 z m 20.314005,-1.307834 c 1.375071,0.246177 7.308598,0.869122 6.280967,-3.07441 1.952662,-4.236978 -5.373932,-1.917675 -6.165673,-4.65768 -1.729794,-0.274449 -6.859977,-0.256454 -2.297341,0.6337 2.159825,-0.451891 4.881724,3.259824 1.47218,1.224214 -0.490368,-1.029929 -6.054559,0.410365 -3.347553,0.238578 4.260841,0.663663 -4.7191,0.06881 -2.750033,3.03067 1.689746,2.121982 2.713057,4.983498 6.274901,2.878958 l 0.532552,-0.273941 z M 31.834708,28.580813 c 1.189927,-1.082091 3.456079,0.498502 2.640633,-2.163837 v -3.906584 c -1.964201,0.867971 -3.701372,-1.16737 -5.122182,-0.95693 -1.319304,1.011007 -8.330879,0.233507 -5.102144,2.328923 3.161069,-1.036212 3.718963,3.990876 0.736863,2.177703 -3.06778,-0.633535 -2.032415,2.217524 0.816162,2.091601 1.756695,0.49569 4.564678,2.275849 6.030668,0.429124 z m -0.135364,-2.645451 c -0.04725,-2.554875 0.588023,0.772473 0.05256,0.996242 l -0.03836,-0.374988 z m 19.896606,3.170819 c -0.642498,-0.786056 -1.478622,1.224005 0,0 z M 12.346596,27.435207 c 0.993057,-1.692559 -1.034071,-1.042898 -0.01575,-3.349367 -1.322579,-1.910046 -4.3820461,3.993164 -1.062002,1.730584 -0.06768,0.476588 0.287836,2.90723 1.07769,1.618783 z m 0.541848,-2.761411 c -0.809831,-0.362557 0.324843,1.752709 0,0 z m 9.490193,-0.791576 c -0.809878,-0.362482 0.324874,1.752664 0,0 z m 16.614801,-0.291293 c -1.380249,-1.990763 -3.088818,0.945008 0,0 z M 3.5290097,22.682748 c -2.3526678,-1.316779 -2.95953346,1.45977 0,0 z m 8.6649593,0.08631 c -1.111002,-1.594998 -0.972378,1.540967 0,0 z m 10.184668,-0.469991 c -0.809878,-0.362541 0.324858,1.752694 0,0 z m 45.793687,0.272101 c -1.038047,-2.098093 -0.418038,1.817241 0,0 z M 39.632987,21.9775 c 1.631889,-0.49566 3.662728,-0.648599 0.740777,-1.120146 -2.256499,-1.012622 -0.832179,0.697978 -1.359694,0.922241 -1.137045,-0.06702 0.278604,1.208223 0.618917,0.197905 z m 11.269158,-0.254584 c 0.279446,-2.008819 -7.140063,-0.134181 -2.460262,-0.0365 0.777877,0.433193 1.746168,0.898352 2.460262,0.0365 z M 31.475213,21.342588 c -1.653457,-0.36664 -0.820311,0.724889 0,0 z M 73.731322,20.42123 c 2.432394,-1.024409 -1.947141,-1.780218 -2.378076,-1.835326 2.610239,-0.140763 -0.54138,3.612777 1.9778,2.132199 l 0.400261,-0.296918 z M 45.072559,19.924358 c -0.809878,-0.362362 0.324859,1.752604 0,0 z M 8.5684192,18.811213 c -0.2334567,-3.968782 -0.8754236,3.732762 0,0 z M 60.717711,18.508955 c -0.0062,-2.061174 -2.348882,-2.199334 -1.215565,0.261959 -0.440121,1.201432 -2.294628,0.238713 0.02838,1.103571 0.908906,0.231099 1.209047,-0.725607 1.187198,-1.36553 z m -9.604145,0.384681 c 0.675309,-1.96122 -2.349803,-1.950464 -4.672393,-1.723419 -2.402093,-0.0558 3.248089,2.480066 4.389875,1.440369 l 0.282518,0.28299 z M 8.6001081,16.435948 c -0.1037065,-2.014727 -0.9324075,2.344106 0,0 z M 60.470141,14.061791 c -0.849582,-5.5489413 -0.934014,5.308283 0,0 z m -9.902804,28.736773 c 1.361924,-1.233159 2.069202,0.821074 0,0 z m 9.077565,-0.240238 c 2.154851,-1.670107 1.667929,1.454026 0,0 z M 15.62352,39.401792 C 17.479134,34.872174 11.633251,35.097664 8.6176837,35.096467 5.3342723,36.209612 5.687857,32.045872 8.4804479,33.851056 c 4.1220001,0.921074 8.5448261,-0.135377 12.6525251,0.744051 -1.214489,1.803061 1.054329,3.790354 -0.410647,5.777691 -2.005996,-0.298233 -4.913288,-0.975972 -4.790415,1.789747 -0.330333,-0.881657 -0.356953,-1.83561 -0.308422,-2.760753 z M 2.7834159,32.243148 C 0.89802791,29.21001 7.3978765,29.262052 8.0413404,30.420986 8.1439553,31.901758 8.4874969,33.70419 6.33182,33.059481 5.1502174,32.976758 3.5387613,33.361529 2.7834159,32.243148 Z m 1.871694,-0.214359 c -1.653444,-0.366641 -0.8203094,0.724904 0,0 z M 53.661955,31.872125 c -0.456542,-0.952607 9.03153,-0.0075 3.480922,0.33964 -1.166909,-0.009 -2.341912,-0.08227 -3.480922,-0.33964 z m 22.582403,-0.660581 c -0.428877,-2.031496 4.965781,-1.779575 1.309884,-0.04652 -0.35962,0.333327 -0.916267,0.25599 -1.309884,0.04652 z m 5.681855,-0.131039 c 1.655764,-1.376734 2.677983,1.351902 0.08328,0.153672 z m 9.696499,-1.978916 c 0.01825,-1.5925 1.487838,1.482971 0,0 z M 71.927873,28.639122 c 2.686421,-1.16218 -0.291189,1.154087 0,0 z m 8.966795,-1.516464 c 1.24596,-1.321013 0.113064,1.379142 0,0 z m 14.855876,-6.266919 c -0.824927,-1.705619 2.144651,2.165078 0,0 z m -1.667586,-1.122764 c -1.316995,0.229094 -3.037338,-1.323825 -3.281493,-1.745244 0.740356,-0.182827 6.100159,2.856295 3.281493,1.745244 z m -6.944361,-1.218649 c -0.08421,-0.760656 -3.551411,0.559833 -1.432164,-1.318964 -0.09981,-1.215538 -2.362216,-0.738546 -1.131462,0.403903 -1.417676,-0.495211 0.03478,2.434801 -1.347592,0.03635 0.06051,-2.465526 2.991926,-1.46716 4.372034,-0.450051 -3.397988,-1.066608 2.28276,2.501114 -0.460816,1.328762 z M 37.776219,8.2858048 C 38.103308,6.1584973 41.694626,8.8081515 38.601442,9.0312024 38.036749,9.3253076 37.647888,8.7830357 37.776219,8.2858048 Z M 60.05753,8.167331 c 1.585961,-2.1676962 2.57267,1.5466513 0,0 z M 60.12537,6.5923777 C 59.932489,4.4592961 58.448254,2.6311499 55.650142,3.3703246 c -3.028028,0.5148972 -2.17255,-1.6573465 0.415263,-0.7564372 3.009735,0.2203433 2.33937,0.8626298 5.03089,1.7183336 0.990078,0.6083 0.915128,2.8662129 -0.970927,2.2601567 z m 4.726944,-1.1560319 c -0.04725,-2.5548901 0.588024,0.772473 0.05255,0.9962418 l -0.03836,-0.3749874 z m -42.9443,0.3412703 c 0.482025,-2.034862 4.664034,0.4001781 0.75528,0.352998 L 22.205189,6.0251545 Z"
       id="color-darker"
       sodipodi:nodetypes="cccccccscssssssssssccccsssssccssssssssscsssscsccsscsssscscsccscscscsccsscssssssccscssssssssscsscccscsssssscsscssccssssccscccssccssscsssssssssscsscsssssscsscsssscssccccssssssssssssssssssssssssssssssssssscssssccccccsssssccscsscssscssssssssssssssssssscsssssssssssscscsscssss" />
  </g>
</svg>
