<?xml version="1.0" encoding="UTF-8" standalone="no"?>
<!-- Created with Inkscape (http://www.inkscape.org/) -->

<svg
   width="20.004999"
   height="20.002489"
   viewBox="0 0 5.2929897 5.292325"
   version="1.1"
   id="svg5"
   inkscape:version="1.1.1 (3bf5ae0d25, 2021-09-20)"
   sodipodi:docname="d10-10-src.svg"
   xmlns:inkscape="http://www.inkscape.org/namespaces/inkscape"
   xmlns:sodipodi="http://sodipodi.sourceforge.net/DTD/sodipodi-0.dtd"
   xmlns="http://www.w3.org/2000/svg"
   xmlns:svg="http://www.w3.org/2000/svg">
  <sodipodi:namedview
     id="namedview7"
     pagecolor="#ffffff"
     bordercolor="#666666"
     borderopacity="1.0"
     inkscape:pageshadow="2"
     inkscape:pageopacity="0.0"
     inkscape:pagecheckerboard="0"
     inkscape:document-units="mm"
     showgrid="false"
     fit-margin-top="0"
     fit-margin-left="0"
     fit-margin-right="0"
     fit-margin-bottom="0"
     units="px"
     inkscape:zoom="16"
     inkscape:cx="-1.84375"
     inkscape:cy="9.84375"
     inkscape:window-width="1920"
     inkscape:window-height="1017"
     inkscape:window-x="-8"
     inkscape:window-y="-8"
     inkscape:window-maximized="1"
     inkscape:current-layer="layer1" />
  <defs
     id="defs2" />
  <g
     inkscape:label="Layer 1"
     inkscape:groupmode="layer"
     id="layer1"
     transform="translate(-9.8716716,-103.63169)">
    <path
       d="m 12.518166,103.63169 c -0.132292,0 -0.264583,0.0503 -0.373062,0.1561 l -2.116667,2.11667 c -0.2090205,0.20637 -0.2090205,0.53975 0,0.74612 l 2.116667,2.11667 c 0.206375,0.20902 0.53975,0.20902 0.746125,0 l 2.116666,-2.11667 c 0.209021,-0.20637 0.209021,-0.53975 0,-0.74612 l -2.116666,-2.11667 c -0.10848,-0.10583 -0.240771,-0.1561 -0.373063,-0.1561 m 0.547688,1.64306 c 0.378354,0 0.679979,0.30427 0.679979,0.67998 v 0.6985 c 0,0.37571 -0.301625,0.68262 -0.679979,0.68262 -0.378355,0 -0.67998,-0.30691 -0.67998,-0.68262 v -0.6985 c 0,-0.37571 0.304271,-0.67998 0.67998,-0.67998 m -0.981605,0.0529 h 0.03704 v 2.00818 h -0.396873 v -1.53193 l -0.470958,0.14552 v -0.32544 l 0.830791,-0.29633 m 0.978959,0.32808 c -0.156104,0 -0.280459,0.127 -0.280459,0.28046 v 0.73819 c 0,0.15081 0.124355,0.27516 0.280459,0.27516 0.153458,0 0.28575,-0.127 0.28575,-0.27516 v -0.73819 c 0,-0.15611 -0.132292,-0.28046 -0.28575,-0.28046 z"
       id="path98"
       style="stroke-width:0.264583" />
  </g>
</svg>
