<?xml version="1.0" encoding="UTF-8" standalone="no"?>
<!-- Created with Inkscape (http://www.inkscape.org/) -->

<svg
   width="20.004999"
   height="20.002489"
   viewBox="0 0 5.2929897 5.292325"
   version="1.1"
   id="svg5"
   inkscape:version="1.1.1 (3bf5ae0d25, 2021-09-20)"
   sodipodi:docname="d10-3-src.svg"
   xmlns:inkscape="http://www.inkscape.org/namespaces/inkscape"
   xmlns:sodipodi="http://sodipodi.sourceforge.net/DTD/sodipodi-0.dtd"
   xmlns="http://www.w3.org/2000/svg"
   xmlns:svg="http://www.w3.org/2000/svg">
  <sodipodi:namedview
     id="namedview7"
     pagecolor="#ffffff"
     bordercolor="#666666"
     borderopacity="1.0"
     inkscape:pageshadow="2"
     inkscape:pageopacity="0.0"
     inkscape:pagecheckerboard="0"
     inkscape:document-units="mm"
     showgrid="false"
     fit-margin-top="0"
     fit-margin-left="0"
     fit-margin-right="0"
     fit-margin-bottom="0"
     units="px"
     inkscape:zoom="22.627417"
     inkscape:cx="-0.46403882"
     inkscape:cy="10.00998"
     inkscape:window-width="1920"
     inkscape:window-height="1017"
     inkscape:window-x="-8"
     inkscape:window-y="-8"
     inkscape:window-maximized="1"
     inkscape:current-layer="layer1" />
  <defs
     id="defs2" />
  <g
     inkscape:label="Layer 1"
     inkscape:groupmode="layer"
     id="layer1"
     transform="translate(-9.8716716,-103.63169)">
    <path
       d="m 12.518166,103.63169 c -0.132292,0 -0.264583,0.0503 -0.373062,0.1561 l -2.116667,2.11667 c -0.2090205,0.20637 -0.2090205,0.53975 0,0.74612 l 2.116667,2.11667 c 0.206375,0.20902 0.53975,0.20902 0.746125,0 l 2.116666,-2.11667 c 0.209021,-0.20637 0.209021,-0.53975 0,-0.74612 l -2.116666,-2.11667 c -0.10848,-0.10583 -0.240771,-0.1561 -0.373063,-0.1561"
       id="color-primary"
       style="stroke-width:0.264583"
       sodipodi:nodetypes="cccccccccc" />
    <path
       style="stroke-width:0.264583;fill:#c50000;fill-opacity:1"
       d="m 13.311916,107.0716 v -0.39687 a 0.396875,0.396875 0 0 0 -0.396875,-0.39688 0.396875,0.396875 0 0 0 0.396875,-0.39687 v -0.39688 c 0,-0.29369 -0.238125,-0.52917 -0.529167,-0.52917 h -1.058333 v 0.52917 h 1.058333 v 0.52917 h -0.529167 v 0.52916 h 0.529167 v 0.52917 h -1.058333 v 0.52917 h 1.058333 a 0.52916667,0.52916667 0 0 0 0.529167,-0.52917"
       id="color-text" />
  </g>
</svg>
