<?xml version="1.0" encoding="UTF-8" standalone="no"?>
<!-- Created with Inkscape (http://www.inkscape.org/) -->

<svg
   width="100mm"
   height="65mm"
   viewBox="0 0 100 65"
   version="1.1"
   id="svg3341"
   inkscape:version="1.1.1 (3bf5ae0d25, 2021-09-20)"
   sodipodi:docname="destroyer-src2.svg"
   xmlns:inkscape="http://www.inkscape.org/namespaces/inkscape"
   xmlns:sodipodi="http://sodipodi.sourceforge.net/DTD/sodipodi-0.dtd"
   xmlns="http://www.w3.org/2000/svg"
   xmlns:svg="http://www.w3.org/2000/svg">
  <sodipodi:namedview
     id="namedview3343"
     pagecolor="#ffffff"
     bordercolor="#666666"
     borderopacity="1.0"
     inkscape:pageshadow="2"
     inkscape:pageopacity="0.0"
     inkscape:pagecheckerboard="0"
     inkscape:document-units="mm"
     showgrid="false"
     inkscape:zoom="2.096401"
     inkscape:cx="239.2195"
     inkscape:cy="133.32373"
     inkscape:window-width="1920"
     inkscape:window-height="1017"
     inkscape:window-x="-8"
     inkscape:window-y="-8"
     inkscape:window-maximized="1"
     inkscape:current-layer="layer1" />
  <defs
     id="defs3338" />
  <g
     inkscape:label="Layer 1"
     inkscape:groupmode="layer"
     id="layer1">
    <path
       style="fill:#440000;stroke-width:0.628384"
       d="m 15.824652,62.323772 c 0,-0.34561 -1.537929,-0.628378 -3.417618,-0.628378 H 8.989418 L 8.659401,59.024754 C 8.477879,57.555888 8.212171,53.879554 8.068914,50.855087 7.925654,47.830619 7.507618,44.993587 7.1399394,44.550554 6.7722609,44.107545 5.5509076,43.674915 4.4258207,43.589202 3.3007357,43.503464 2.3041591,43.357164 2.2112111,43.264325 2.1182536,43.171463 1.8983552,41.376034 1.7225311,39.274705 L 1.4028495,35.45409 3.42957,35.045638 C 4.9124459,34.746792 5.220947,34.490648 4.5792429,34.09103 4.0871951,33.784632 3.875044,33.094433 4.0959522,32.518757 4.370431,31.803478 4.0174537,31.313112 2.9307487,30.899933 1.5135121,30.361093 1.3717864,29.969242 1.3717864,26.589474 c 0,-3.459425 0.11115,-3.745636 1.5998617,-4.119271 0.8799233,-0.220875 1.8500918,-0.246905 2.1559281,-0.05795 0.590254,0.3648 1.39878,-0.629613 1.7809413,-2.190368 C 7.0354612,19.703447 7.373827,15.886014 7.660461,11.73867 7.947093,7.5913273 8.204655,4.127366 8.232817,4.0409635 8.260987,3.9545135 9.839279,3.883976 11.740146,3.883976 c 2.505165,0 3.456119,-0.23655 3.456119,-0.8597262 0,-0.6468075 1.24508,-0.8863262 5.027084,-0.9670524 4.099198,-0.0874 5.027084,0.066737 5.027084,0.8360949 0,0.7813037 0.701801,0.8778712 4.084509,0.5619725 2.975993,-0.2778988 4.084501,-0.176225 4.084501,0.3749175 0,0.416005 0.249517,0.6021337 0.554491,0.4136537 1.102784,-0.6815537 37.08971,-0.4356225 38.393941,0.26239 1.470125,0.78679 1.681975,1.8912838 0.362734,1.8912838 -1.656919,0 -1.706984,1.2502712 -0.07481,1.8707875 0.88483,0.3364187 1.608777,1.0428155 1.608777,1.5697805 0,0.5269892 -0.07077,0.9782382 -0.156987,1.0027962 -0.553779,0.157462 -12.233127,1.328241 -15.866734,1.590584 -6.334173,0.45733 -6.449384,0.768669 -0.314189,0.849157 l 5.34128,0.07006 0.956318,2.049007 0.956317,2.049032 c 0.23085,0.874427 3.028173,1.635425 3.749199,1.808135 3.798219,0.902238 7.612801,1.780893 8.476826,1.952582 5.076088,1.008639 10.781336,2.917355 16.997044,5.686368 3.230546,1.439178 3.497966,1.720355 3.639826,3.826695 0.0844,1.250366 0.31096,2.528805 0.50391,2.840975 0.19285,0.31217 -0.31391,0.740738 -1.12631,0.952351 -0.812405,0.211612 -3.191514,1.293425 -5.286905,2.40407 -2.095415,1.110621 -6.61979,2.907332 -10.054182,3.992684 -3.434393,1.085327 -6.668502,2.147973 -7.186917,2.361415 -1.440271,0.59299 -2.742436,0.745916 -3.927418,1.013246 -1.510762,0.340812 -2.477125,1.07331 -2.967539,1.405169 -1.149975,0.727937 -1.583888,1.380943 -2.678121,2.483703 -0.945037,0.952423 -1.58403,1.94883 -1.419989,2.214237 0.164112,0.26543 -2.102564,0.332808 -5.036876,0.149862 -2.951603,-0.184062 -5.335153,-0.08265 -5.335153,0.22705 0,0.307919 1.767333,0.569763 3.927395,0.581851 7.393494,0.04133 14.609718,0.494547 16.02384,1.00624 1.946883,0.704497 1.774481,2.200794 -0.314189,2.726975 l -1.728073,0.435314 1.413861,1.147386 c 3.512791,2.850713 1.014742,3.304124 -21.522203,3.906305 -25.281913,0.675545 -24.821213,0.645929 -24.821213,1.59543 0,0.566794 -1.487178,0.785484 -5.341275,0.785484 -3.141928,0 -5.341275,-0.258732 -5.341275,-0.628377 z"
       id="color-primary"
       sodipodi:nodetypes="cscsssssscsssssscssssscsssssssscssccccsscssssssccsssssscsssscc" />
    <path
       style="fill:#370000;stroke-width:0.628384"
       d="m 15.824652,62.280452 c 3.195311,-0.807002 7.387741,-0.797692 10.488173,-0.510887 -1.58954,1.767713 -7.086547,0.83258 -10.127717,0.794699 l -0.269232,-0.133237 z m 11.416912,-1.567833 c 1.015702,-1.37959 5.600398,0.0014 1.92224,0.240944 -0.640713,-0.03824 -1.319453,0.04133 -1.92224,-0.240944 z m 15.132365,-0.743541 c 5.955598,-0.103313 11.917584,-0.151525 17.870331,0.07624 -6.566732,0.185963 -13.15009,0.185963 -19.716822,0 0.61408,-0.05367 1.230891,-0.05605 1.846491,-0.07624 z M 8.611822,56.223513 c -0.510618,-2.04896 0.958645,-4.950925 0.928975,-1.148146 -0.368713,1.768543 0.192945,2.635656 2.055507,2.242308 3.608803,0.114 7.217599,0.228238 10.826395,0.342357 -4.509797,0.25726 -8.524238,-0.222775 -12.913151,0.910765 -0.678765,1.168381 -0.78431,-2.081474 -0.897726,-2.347284 z m 19.780536,2.329946 c -1.700321,-1.723157 4.670764,1.297771 0.942584,0.420043 l -0.502223,-0.1862 z m 41.642484,0.19285 c 3.830851,-0.452746 0.253341,0.975389 0,4.75e-4 z M 34.04782,56.939457 c 3.102154,-1.953129 7.877329,-0.401185 11.583778,-0.862173 2.247462,0.427286 7.027577,-0.654859 7.824604,-0.07885 -0.668634,3.606509 -6.732674,1.172514 -9.601175,1.925484 -3.031522,-0.39368 -7.384279,0.799354 -9.807207,-0.984556 z m 29.704387,-0.101413 c 2.074348,-0.726892 2.860687,-1.919047 5.49005,-0.766982 1.944697,-0.04441 4.287017,1.374887 0.796575,1.104826 -1.628989,-0.0304 -6.397395,0.199262 -6.286625,-0.337844 z M 30.277508,55.411429 c -2.016632,-0.344494 -2.568732,-0.566984 -0.194275,-0.545585 1.538596,-0.660036 4.089109,1.894395 1.063549,0.731928 l -0.869298,-0.1862 z M 16.666086,53.87744 c 0.528352,-2.134341 -4.9875,1.437208 -2.95097,-1.633358 1.427538,-0.222063 3.93946,-0.875663 1.033904,-1.72672 2.528296,0.474026 5.104893,0.596148 7.673679,0.673811 -1.014496,0.411089 -5.471275,0.373231 -3.500771,1.396785 0.218475,0.657329 -3.116924,3.122816 -2.255842,1.289482 z m 17.482838,-0.724565 c 2.661829,-2.36911 7.471133,-0.397693 10.9326,-0.918935 2.310234,-0.311338 7.149225,0.903854 7.625223,-1.685181 -1.445378,1.514181 -4.305163,-0.312835 -1.101145,-0.284905 3.151506,-2.717831 7.220332,-4.127322 11.374635,-4.289749 1.80006,0.121125 2.196637,-0.14345 1.666347,-0.874617 1.721139,0.03943 4.628329,-0.985269 2.230291,1.006406 -3.701817,-0.238165 -3.313766,1.477678 -0.86051,0.740121 -1.848415,1.041509 -1.316913,3.870395 -3.472772,3.788315 -2.564644,0.57988 -7.723595,-1.486108 -8.827329,0.74423 4.811631,-0.413392 9.815946,-0.118512 14.598413,0.706159 -1.833192,1.3756 7.255411,0.599379 2.05105,1.493186 -4.158435,0.505899 -8.071509,-0.711716 -12.039612,-1.374745 -4.012918,-0.29146 -7.49265,2.051953 -11.584656,1.629749 -4.045076,0.103075 -8.12041,0.581115 -12.153397,0.181213 -0.431633,-0.02684 -0.571022,-0.52896 -0.439138,-0.861365 z m 39.358453,0.500104 c 0.174325,-2.104915 1.727575,1.97638 0,0 z M 23.138035,51.326928 c 2.953341,-1.744556 3.044053,-7.338418 1.561443,-9.318598 0.121339,2.213833 -0.474221,2.224972 -1.170336,0.262913 -0.600448,3.544379 -6.126048,0.23465 -8.888311,1.205716 -1.825112,0.590045 -6.915974,-1.086396 -2.561378,-1.667297 2.838526,-1.118792 8.904504,1.644141 9.426339,-2.11147 0.243765,-1.881285 0.444151,-3.767795 0.663928,-5.651978 -3.6544,0.0893 -7.344812,-0.2375 -10.967077,0.301411 -3.122277,1.405763 0.0074,6.064967 -2.845661,7.480372 C 8.66615,46.568544 7.1236117,41.214582 7.496487,39.288504 7.507647,36.753975 7.234828,40.187157 7.0856231,41.022824 7.353599,45.831629 1.6511795,43.157569 2.4057455,39.516552 1.2113152,36.689589 3.2522192,36.051854 5.309392,34.472337 4.8095371,32.858287 5.291342,30.614173 1.807502,30.194487 1.3522525,26.753349 1.9520207,22.616527 6.3484402,22.479608 7.493862,20.012125 6.9076406,16.037539 11.4015,15.933989 c 3.457755,-0.479726 -0.12027,-2.310067 -0.604388,-2.477766 2.621891,0.361332 2.188798,-3.9897852 3.38,-1.449866 2.149057,0.163875 2.245366,-1.523514 3.706038,-0.430659 1.830477,-3.3093482 1.030594,2.066867 -1.47501,0.917154 0.12901,1.174485 4.078152,0.399023 3.634188,-1.637396 -0.780697,2.889923 2.009196,0.374324 1.835508,1.040083 2.79395,1.435593 7.481402,0.862861 10.885228,0.279205 1.636066,-2.4970972 4.996953,-1.124443 7.581998,-1.544723 2.750938,0.01425 0.1653,-0.197837 -1.166814,-0.356368 -5.074995,-0.5182492 1.960705,-0.5779092 3.824059,-0.4986312 2.124556,0.216125 8.125065,-0.307539 8.193726,0.8976782 -2.421621,0.219213 -3.237695,0.561118 -0.359551,0.580023 2.441476,0.312121 8.989588,-0.782705 9.189872,0.836735 -1.639581,0.432084 -8.65013,0.908224 -3.697637,1.074996 2.312917,0.06484 4.626001,0.123738 6.939013,0.185725 0.637545,1.366005 1.27509,2.732034 1.912635,4.098039 -1.45996,-0.380238 -5.312566,-0.486946 -1.683875,0.419615 4.117395,1.257135 8.57622,1.639439 12.526463,3.253679 -3.517921,0.248425 -7.329725,-0.872504 -10.922744,-1.396999 -1.683922,-0.736416 -7.786936,-0.378504 -5.288674,-3.27332 -1.682331,2.317287 -3.712362,-0.312146 -3.806673,-0.220638 -2.276723,0.900553 -5.848747,-3.727633 -4.332214,-3.450115 -1.932941,-0.946485 -1.937121,1.62127 -3.673484,2.38279 -0.450229,2.334625 2.096935,4.937815 3.12018,2.133795 2.568064,-0.647472 4.933516,0.485712 7.234511,1.343134 -1.176432,2.820218 5.888053,3.557204 5.268225,7.217768 0.906015,1.929283 -1.725342,1.56712 -0.156987,4.071296 0.270987,3.531577 -0.154138,7.744922 -1.940446,10.92082 -2.259433,3.28491 -5.918785,4.560285 -9.210037,5.882115 -0.843528,2.602335 -2.301826,3.251874 -4.248946,1.21676 -4.528246,-1.142114 7.476453,-3.223683 2.31553,-6.478406 -3.420047,-3.947179 6.106244,-5.077275 3.830068,-0.477803 0.845856,1.148811 0.789948,2.847601 1.890785,3.668853 1.347456,-1.611889 1.244025,-3.909559 3.541196,-4.6816 0.04845,-2.1204 -0.549053,-4.557364 2.406041,-4.414817 1.425048,-2.583073 -0.984841,-3.052112 -2.083706,-4.19539 3.099874,-0.299938 2.847957,-3.75288 0.1235,-4.710076 0.0532,-2.114272 -1.201679,-6.017419 -1.957879,-1.67029 1.148574,-3.487949 -5.939067,-6.105911 -3.837074,-1.104612 2.372412,4.191875 -4.100247,-0.593703 -4.806596,1.016903 -0.08788,-2.207372 2.285344,-6.101208 -1.913751,-4.346558 -3.858069,0.52421 -10.638955,0.161262 -8.629349,6.106457 0.369146,1.101003 -0.50749,3.559603 1.399374,2.984853 2.407205,0.09666 4.924372,-0.29203 7.233015,0.462317 1.160069,1.903848 1.254522,4.882169 -2.221195,3.934425 -2.174099,-1.012106 -8.736746,1.755505 -4.999803,3.772331 1.824238,0.147013 3.788434,0.104738 0.91827,0.553874 -3.954066,0.84132 -1.284613,4.212894 1.560138,3.415535 1.717125,0.286829 7.576559,0.320174 4.119057,1.44552 3.168963,1.37655 -3.47339,0.32775 -4.241488,1.593744 -2.379465,0.542592 -5.398637,2.698807 -1.065924,2.880804 0.892097,2.212407 -2.404949,-0.33744 -2.423664,1.10732 -3.805724,-1.660125 -8.273621,-0.604699 -12.297615,-0.233938 -0.297832,1.294874 6.04063,2.079764 7.12306,2.511016 2.473824,-1.770016 -1.005314,2.141467 -2.663206,1.128624 -2.584893,-0.019 -6.257617,0.791849 -8.24639,-0.891242 z m 5.673248,-4.90124 c -2.782897,-3.447906 -2.993555,3.143645 0,0 z m -0.261828,-2.112966 c -3.378713,-0.406007 -1.06803,0.935346 0,0 z m 24.794362,-4.13231 c -0.701409,-0.919648 -0.05201,5.103186 0.108775,1.324585 l -0.02565,-0.686565 -0.08407,-0.63802 z m -16.21669,1.47516 c 0.577338,-6.064587 -5.216664,-1.049085 -8.534841,-2.9982 1.810028,-1.459699 9.001029,0.396007 6.046838,-3.982662 -1.333681,1.507793 -4.222132,0.643507 -6.304896,0.773633 -1.988305,-0.653101 -0.948604,1.805071 -1.198639,2.938041 v 4.52276 c 3.26948,-0.235125 6.686891,0.246549 9.825739,-0.735941 l 0.138937,-0.231563 0.02684,-0.285973 z M 4.287078,38.925937 c -2.9043381,-1.683709 -0.082793,3.801377 0.2902459,0.25479 L 4.2870704,38.925937 Z M 7.65564,32.333554 C 6.9409096,28.378965 5.8994721,37.665809 7.60377,33.001832 Z m 14.401353,-5.984952 c 0.16834,-3.221332 0.05854,-7.518395 -4.159728,-5.037257 -2.482842,0.1368 -6.807417,-3.179982 -8.378321,0.544849 0.01354,2.808461 0.531466,5.585478 0.819976,8.374915 3.885098,0.168863 7.780626,0.197363 11.65465,0.542806 0.224342,-1.452621 0.05398,-2.959962 0.06343,-4.425313 z M 15.039169,22.28082 c 2.003732,-0.402111 6.868541,0.288658 2.042253,0.253437 -0.06449,0.02137 -3.854008,-0.0304 -2.042253,-0.253437 z m 18.664894,6.637555 c 3.494931,-1.759091 0.08004,-3.686071 -2.325173,-2.68983 -4.723398,-0.414508 5.765432,-2.816346 4.727913,1.062647 0.125875,1.889407 1.211535,-6.268908 0.5016,-6.155834 -3.090659,0.758337 -6.316716,0.386032 -9.472814,0.45847 0.08857,2.54106 -0.264485,5.162466 0.418924,7.634485 1.879561,0.830181 4.269476,0.319722 6.14955,-0.309938 z m 1.65015,-5.292758 c 0.672861,-2.381627 0.323047,2.807606 0,0 z M 6.8281285,27.016262 c -1.0425661,-0.620279 0.38095,2.963501 0,0 z M 4.343527,26.754442 c -2.3150835,-0.706967 -0.9767786,1.138907 0,0 z m 48.555856,-5.590014 c -1.165223,-2.525979 -2.295628,0.79401 -0.03088,0.643981 l 0.03088,-0.643886 z m -28.46225,-3.613206 c -0.687116,-0.434103 -0.0018,5.709096 0.112337,1.413861 L 24.5214,18.211757 Z m 9.158369,-0.3021 c -1.65775,-0.331693 -9.281171,0.13015 -4.078564,0.2318 0.755487,-0.03895 5.558236,0.13015 4.078564,-0.2318 z M 45.71496,14.135069 c -0.598001,-1.571419 -7.586533,0.15865 -3.551883,-1.487937 2.185855,-0.15295 3.109017,-0.446975 0.29507,-0.394488 -1.352587,0.0047 -5.130452,-0.218975 -3.022188,0.97166 -2.420362,-0.389595 -2.051145,4.750048 0.221113,2.212669 2.02768,-0.1197 1.410987,1.562489 3.748771,-0.09025 2.278171,-1.050391 2.32921,3.46066 2.489784,-0.181213 l -0.057,-0.557745 -0.123738,-0.472625 z M 21.48012,15.80467 c -4.082861,-1.841147 3.474277,-0.0931 1.214542,-1.740803 -2.48647,-0.675308 -5.40149,1.535817 -7.237031,0.82479 1.408043,1.163845 4.474184,1.978303 6.022489,0.916013 z m 20.149365,34.943304 c -0.817356,-0.88369 2.747448,-0.628472 2.219224,-1.771821 -0.422322,2.365642 4.929004,1.60113 1.407639,2.647341 -1.221795,-0.0019 -2.651284,-0.03396 -3.626863,-0.87552 z M 69.175092,38.28794 c -1.774149,-2.201268 2.084513,-5.181038 1.73356,-1.890808 -1.536174,0.250657 -0.943137,2.160608 -1.73356,1.890808 z m 1.319098,-2.356451 c -0.632866,-1.973886 -1.528027,2.220245 0,0 z m 11.360552,-0.994935 c 0.672813,-2.381579 0.323095,2.807464 0,0 z m -8.133069,-1.047327 c 0.1064,-3.969219 3.690037,-4.061797 7.140865,-2.68489 1.60303,0.23465 3.526994,1.159095 0.478942,1.005765 -2.673252,-0.26695 -7.203113,0.250942 -7.565918,2.485485 l -0.05391,-0.806289 z M 49.12907,31.747879 c -1.570587,-5.560041 10.418888,-0.688631 4.86989,1.934153 -2.163506,0.285688 -5.632953,1.973743 -4.86989,-1.934153 z m 5.655469,-0.215175 c -2.607774,-2.540632 -1.921565,1.542206 0,0 z m 31.000353,1.570944 c 1.256042,-2.607655 1.938498,1.017307 0.03895,0.665712 z m 11.729854,-1.519549 c -0.330643,-1.157385 -0.633835,-4.958169 0.41734,-1.84794 0.4233,0.859346 -0.0855,4.846283 -0.41734,1.84794 z M 85.57544,30.337794 c 1.484922,-3.132411 2.420577,0.137513 0,0 z M 68.030247,29.490442 c 0.739005,-3.400858 3.097997,2.51237 0.76798,-0.299298 -0.375678,0.121125 -0.754229,1.850838 -0.76798,0.299298 z m 17.702276,-1.515844 c -3.467548,-5.394884 6.473039,1.780181 0,0 z M 68.609034,26.819802 c 2.358066,-2.723864 1.351755,1.645518 -0.42921,0.761615 l 0.07909,-0.287708 0.350288,-0.473907 z m 23.407359,-0.101888 c -2.408606,-0.50597 -3.392284,-2.467435 -0.295688,-1.02353 1.646849,0.430065 6.116051,2.973263 1.88309,1.561753 l -0.739242,-0.244079 z m -10.454394,-0.32718 c 3.60335,-1.067444 0.05154,1.875015 0,0 z M 77.56352,25.433847 c -1.086253,-0.56107 -4.260512,-3.447028 2.151893,-3.601688 2.48919,1.154345 7.25192,1.27376 8.428139,3.03924 -2.695863,-0.543851 -5.131235,-0.77349 -7.338703,-1.271504 -2.480141,-2.207135 2.622689,3.634748 -1.594456,2.10349 L 78.455333,25.593898 77.56352,25.433823 Z M 8.427698,13.688189 c -0.406322,0 -0.54749,-6.3239592 -0.07797,-6.7820017 0.329878,2.4563445 2.102386,6.5509147 0.755296,8.2685617 -0.225768,-0.49552 -0.451543,-0.99104 -0.677315,-1.48656 z M 69.708707,10.37991 c 3.378746,-0.4060062 1.068037,0.935345 0,0 z M 28.863648,9.7242198 C 30.602835,9.6752948 32.612323,5.6700473 31.75566,8.910664 31.71552,10.30771 26.167043,10.27294 28.863648,9.7242198 Z M 61.068409,9.2118615 c 0.782705,-3.5762042 7.747321,1.1685005 2.337784,0.4566883 -0.701361,-0.03325 -2.155883,0.6974192 -2.337784,-0.4566883 z m 11.859159,-0.143925 c -1.806829,-2.4807592 3.177536,2.6421385 0.35359,0.4269533 L 72.927568,9.0679127 Z M 70.834219,8.952749 C 67.759045,8.1507585 64.74593,7.8990798 61.846625,6.6315185 c 3.810355,-0.8550712 5.086752,1.678745 8.875613,0.856425 0.04608,0.7156825 1.97904,2.3339843 0.1121,1.4648055 z M 26.647548,7.3853435 c 1.368689,-3.9894062 0.539007,4.5903515 10e-6,0 z m 6.641032,1.100765 c 0.442202,-2.9670162 5.703895,-1.1495475 8.386244,-1.6092287 3.075459,0.3185587 8.93798,-0.4144375 10.27387,1.010515 C 51.490818,9.5788938 45.586639,8.451671 42.84577,8.8117923 39.664957,8.7419673 36.436999,8.9310177 33.28858,8.4861085 Z M 28.787172,5.6386498 C 27.486574,5.0434985 22.663861,5.0213398 26.71743,3.8662348 29.273516,2.593971 36.668633,3.3805948 31.243325,5.806681 30.115058,4.5994448 29.259646,5.3512035 30.738044,6.2010973 30.281783,6.200456 28.736323,6.453251 28.787172,5.6386498 Z M 50.857144,5.981291 c 3.378794,-0.40603 1.067966,0.9354413 0,0 z M 8.284027,4.8264948 c 1.478939,-1.8966038 3.2767,0.18905 0.359076,0.94259 L 8.389501,5.4922073 Z m 28.864427,0.35302 c 0.740074,-1.1156325 -3.427624,-0.8295163 0.172425,-1.0442163 5.208708,-0.073387 10.474035,-0.44042 15.652485,0.1978375 -2.184786,0.62339 -4.385295,1.10048 -6.357922,0.7706638 -2.73847,0.9623737 -7.132553,0.97033 -9.467083,0.076 z m 5.862498,-0.4811513 c -1.530047,-0.4424862 -5.379637,0.3070163 -1.736695,0.2616775 0.08241,0.00713 2.891253,0.00237 1.736695,-0.2616775 z m 18.854887,0.635265 c 3.830899,-0.45277 0.25327,0.9754363 0,4.513e-4 z m 8.314139,-0.19285 c 1.727646,-1.9764275 0.174087,2.1049388 0,0 z M 19.909156,4.512306 c 0.174182,-2.1049387 1.727643,1.9764038 0,0 z M 15.615189,4.0933798 C 13.935532,0.96702483 21.916814,3.3224785 17.444744,4.512306 16.817623,4.495681 16.162968,4.441768 15.615189,4.0933798 Z M 61.53968,4.0689178 c 2.334863,-0.4716038 4.313333,0.4725775 0.874713,0.26676 -0.182638,0.0095 -1.918715,-0.068638 -0.874713,-0.26676 z M 22.544513,3.4821498 c -0.88766,-2.77022367 3.501244,-0.6242925 1.661366,-0.06935 -1.769875,-2.49165997 -0.428181,1.4098475 -1.661371,0.069587 z"
       id="color-darker"
       sodipodi:nodetypes="cccccccccccccccccccccccccccccccccccccccccccccccccccccccccccccccccccccccccccccccccccccccccccccccccccccccccccccccccccccccccccccccccccccccccccccccccccsccccccccssccscccsccccssccccccccccccccccsccsccccccccccccccccccccccccccccccccsccccsccccccccccccccccccccccccccccccccccccccsccssccccccccsccssccssssscccccccccccccccccccccccccccccccccccccccccc" />
  </g>
</svg>
