<?xml version="1.0" encoding="UTF-8" standalone="no"?>
<!-- Created with Inkscape (http://www.inkscape.org/) -->

<svg
   width="100mm"
   height="50mm"
   viewBox="0 0 100 50"
   version="1.1"
   id="svg1655"
   inkscape:version="1.1.1 (3bf5ae0d25, 2021-09-20)"
   sodipodi:docname="dreadnought-src.svg"
   xmlns:inkscape="http://www.inkscape.org/namespaces/inkscape"
   xmlns:sodipodi="http://sodipodi.sourceforge.net/DTD/sodipodi-0.dtd"
   xmlns="http://www.w3.org/2000/svg"
   xmlns:svg="http://www.w3.org/2000/svg">
  <sodipodi:namedview
     id="namedview1657"
     pagecolor="#ffffff"
     bordercolor="#666666"
     borderopacity="1.0"
     inkscape:pageshadow="2"
     inkscape:pageopacity="0.0"
     inkscape:pagecheckerboard="0"
     inkscape:document-units="mm"
     showgrid="false"
     inkscape:zoom="2"
     inkscape:cx="141.25"
     inkscape:cy="84.75"
     inkscape:window-width="1920"
     inkscape:window-height="1017"
     inkscape:window-x="-8"
     inkscape:window-y="-8"
     inkscape:window-maximized="1"
     inkscape:current-layer="layer1" />
  <defs
     id="defs1652" />
  <g
     inkscape:label="Layer 1"
     inkscape:groupmode="layer"
     id="layer1">
    <path
       style="fill:#430000;stroke-width:0.264583"
       d="M 14.214621,49.003268 C 12.709348,49.363412 12.138105,48.348382 11.741565,47.076136 10.438926,45.451156 10.899095,42.014493 8.290386,42.073205 7.1558827,41.794769 8.050765,39.768848 7.765868,38.758824 8.4876562,35.389028 5.2186497,33.939711 6.3834556,30.418915 6.3107933,28.778632 9.0602124,28.839382 6.31066,28.40603 5.2455989,26.216615 5.3474451,21.688213 7.9181427,21.499302 5.1383956,20.368644 6.5990897,15.903776 8.039397,14.268399 8.8622482,12.576439 7.3106497,9.0111448 8.7828587,8.2757403 11.398078,8.3750734 11.124782,4.7637091 12.458665,3.1270588 c 0.416938,-1.276914 0.989636,-2.30066128 2.497621,-1.8042071 3.999947,0.086593 7.999302,0.1977696 11.998813,0.3020793 0.177868,2.4287479 2.404567,2.9058053 4.51265,2.7163 0.602144,0.6035229 0.158401,2.2488857 0.365699,3.2457265 -0.557981,1.6710053 2.454783,0.3009433 1.861577,1.9629494 0.555986,2.2801311 -1.202271,2.7135251 -2.876148,2.5455131 1.612264,2.12644 -0.645702,6.464347 3.59968,5.728149 3.038864,0.327169 6.162945,0.351123 9.154924,0.166197 0.193866,-2.498177 1.090525,-6.684509 4.296354,-5.336996 3.96119,-1.579452 8.353288,-1.184152 12.528585,-1.263992 3.806932,0.272057 7.226052,1.825727 11.006786,2.256637 3.482503,1.384909 7.041439,2.83337 10.179402,4.893257 3.033092,1.289016 6.359103,2.367727 9.328317,4.039038 1.489192,0.656406 4.468418,2.407976 3.499685,4.244385 -1.673868,2.946461 -5.471703,3.397724 -8.25965,4.873579 -3.720384,0.842553 -6.22851,3.39079 -9.998589,4.386106 -3.090024,1.818481 -6.600772,2.652457 -10.157805,2.822956 -5.083838,2.197507 -10.732137,1.133552 -16.028091,0.588201 -2.44307,-1.563019 -5.893808,0.35378 -6.078619,-3.646746 -0.153039,-1.890283 -0.72343,-3.752773 -2.184859,-1.738088 -2.872664,0.93725 -4.756563,-2.763329 -7.33952,0.08963 -1.368289,1.201145 -3.915678,-0.385532 -2.952892,2.455461 -2.111724,2.617735 0.762591,1.582477 1.638521,2.498072 -0.10924,0.968844 0.402307,2.636075 -0.05901,3.208832 -1.64419,-0.731352 -1.825305,0.303041 -1.654975,1.761583 0.840541,4.095229 -5.136101,0.896931 -4.99728,5.014987 -3.950031,0.106213 -8.115534,-0.03735 -12.125223,-0.133397 z"
       id="color-brighter"
       sodipodi:nodetypes="ccssscssssssscscssssscssscsscsscccccsccsscccsccsssscsssssssscsssssssssscsssssssssccsssccscccssscccccssscscccc" />
    <path
       id="color-primary"
       style="fill:#390000;stroke-width:0.264583"
       d="m 20.048905,1.4009481 c -2.260342,-0.01982 -4.515739,0.1399586 -6.771679,0.2552815 -1.011288,2.1853613 -2.3105,4.407098 -2.851307,6.6487337 -1.9621383,-0.2342184 1.09002,1.585796 -0.023,3.1214127 0.605919,1.984847 -2.5739677,1.625559 -2.0389426,0.606111 0.9201581,2.789516 -2.7325669,3.514037 -1.2247843,6.184848 0.3898466,-2.017881 1.8878971,-0.178954 0.3484047,0.45656 1.9166564,-0.198181 3.7398312,0.572725 0.6752092,0.413829 -2.2540359,-0.08267 -0.2916928,0.172089 0.8348623,0.360954 0.4611785,0.155924 -3.40302,0.06833 -1.8434116,0.295215 2.5953886,0.510044 0.4500552,-0.288748 -0.3316298,0.790573 1.7829649,1.198728 1.0188179,1.190512 -0.4599388,2.134393 -0.5040757,2.852357 1.8525049,1.260726 3.6290258,2.122383 1.7678601,1.889116 -0.3500972,3.896116 -1.5583929,1.951079 -1.2702997,-0.02649 -2.2127077,-0.0288 -0.9236336,0.391821 -2.3953978,0.240959 2.2299982,0.66202 -0.885489,0.668581 -1.2258561,0.91395 2.7451886,0.691817 0.08035,1.556054 -0.3432339,1.936168 -0.212344,2.939034 1.1683535,2.901273 2.1337101,0.139936 4.4463621,4.384008 4.9201131,0.37052 -0.913565,-0.10672 -0.382789,-4.292365 -0.315141,-1.907865 0.230747,3.129647 0.57189,-1.243016 0.495244,-2.298518 0.571768,0.97576 0.400945,5.777304 0.883993,5.98787 0.985052,2.267067 -1.772121,0.764241 -1.170576,0.01954 -0.659363,1.947961 -3.2740788,0.577199 -4.863274,0.745104 0.069728,0.986562 0.074129,5.81874 0.772256,2.771338 1.507922,1.787602 5.127689,-0.657756 5.615646,2.32554 -0.365782,1.20532 3.019894,2.229553 1.989913,-0.137007 0.170996,-0.948838 1.917731,-2.198142 1.860964,-2.584447 0.179246,1.668126 -0.262647,5.510966 -1.071348,3.613324 0.479175,2.724164 2.607535,-2.460262 4.402966,-1.428339 0.783245,-3.838152 1.27037,2.505723 2.558757,-0.207468 0.452412,-1.464858 0.809421,-2.835773 1.18212,-0.625092 1.528881,0.320771 5.03828,-2.293884 4.827722,0.851416 -0.942366,0.629809 -1.521801,2.871073 0.387872,2.393257 -2.396819,-0.709594 -3.855972,6.078321 -1.233022,3.4534 1.920203,-0.17866 2.178682,-1.850213 2.195547,-3.498527 2.273675,0.815874 1.774811,-2.188901 1.402127,-3.274957 -3.745494,0.78441 -0.573519,-2.406454 -1.22786,-4.228711 2.203921,0.879673 2.767587,-2.263608 3.440457,-2.225863 0.171857,1.854216 5.296347,0.04503 2.26501,0.04382 1.655882,-0.30896 1.282878,-0.438452 -0.19,-0.472014 1.56431,-1.476238 2.251896,0.193585 2.201625,0.323728 0.430437,-3.541427 -0.144106,1.602052 0.64213,1.821876 1.585997,-0.925899 1.486009,0.579464 3.075782,-0.947746 1.234527,0.795608 0.969473,4.960552 2.340975,5.150575 -0.958334,-3.51401 2.783527,-1.572633 4.163417,-0.506105 2.964484,1.4054 4.152196,-2.702666 6.379842,-2.421636 0.214418,-2.370802 1.882476,0.441502 2.788087,-0.591437 1.532725,1.917634 0.152079,-2.343589 2.760231,-0.794673 1.394227,2.414791 -0.511315,-2.377633 1.153649,-0.135342 -0.107984,-2.012067 1.188845,2.628712 1.599586,0.933143 0.194808,2.201158 2.218039,-2.308596 -0.776927,-0.858467 1.229172,-1.715863 1.73265,-1.740271 2.643478,-3.495792 1.632231,-0.492318 2.321475,2.028251 3.638021,0.03617 1.161563,0.586222 3.092984,1.768345 3.26527,0.162462 0.523428,-2.03608 4.936215,-2.104792 3.73738,0.565949 -1.574937,-0.299955 -5.648764,0.656469 -1.896099,1.043901 1.713227,0.896704 1.056412,-0.627661 2.422178,-0.06774 0.484082,-0.741334 3.882255,-0.939417 0.859835,-0.502338 0.276487,-0.908172 -0.0036,-2.183064 0.981406,-1.984084 0.787278,-0.720778 1.576009,-1.83883 0.09836,-2.782287 -0.191537,3.215285 -2.85188,1.380149 -4.53462,0.691174 -2.126432,-0.997487 -0.708162,-1.656178 0.04428,-2.438844 0.952098,-0.822122 1.719006,-0.23994 1.215795,-0.936507 1.344099,-0.474211 3.403923,-0.08416 3.827825,-0.485628 -0.289258,-1.711971 1.648939,0.388628 0.434263,-1.722339 1.159428,-0.295175 -1.005885,0.09673 -0.674166,0.209869 -0.493085,-3.170283 -4.071678,-2.686066 -6.196904,-2.470749 -1.082873,0.708558 -4.099139,1.251172 -3.217381,-0.453304 -0.859419,-1.288406 -1.393412,-2.370559 -1.624184,-2.558915 -0.757952,-1.069283 -2.131055,1.661498 -1.723409,0.452169 2.065621,-1.906052 -3.911258,-2.183767 -1.225309,-0.359184 -1.097796,1.675612 -4.154712,-1.148742 -3.707993,-0.30241 1.024938,2.561561 -3.289559,2.535864 -1.767202,-0.0036 2.901498,-0.987584 -1.261615,-2.866354 -2.225048,-0.497555 -1.757201,2.266438 -1.098693,-1.801047 -2.158428,-1.656253 -1.59326,1.736581 -3.10632,-1.067824 -2.803028,-2.20501 2.64477,-0.602658 6.347661,-0.271028 9.372658,-0.231181 4.063974,0.40622 -2.770703,-1.168484 -4.009866,-0.542046 -2.692244,0.340262 -6.447073,-0.400482 -8.454591,1.023342 1.415259,-0.170166 2.966612,0.951151 0.925378,0.928658 -1.888101,-0.06008 -5.47701,3.67067 -5.123588,0.333271 0.281215,-1.985353 -2.150962,2.944833 -1.95799,3.903654 -2.765611,1.627815 -6.425864,0.391933 -9.553954,0.524508 -3.746844,0.354504 -1.9104,-4.583784 -2.828147,-6.155226 1.841783,0.767092 3.812524,-3.0255856 1.809303,-3.3479002 C 30.491684,8.7504113 33.024669,4.9578148 31.114611,4.360211 28.670379,4.78293 27.372468,3.5748359 26.448077,1.7211598 24.332059,1.4334126 22.182256,1.4196337 20.048905,1.4009481 Z m 7.266739,3.6214843 c -0.864395,0.4924952 1.189156,2.1217271 0.01654,2.0644734 2.194518,0.2977419 1.657829,2.2503955 3.057073,4.2631182 0.34331,3.794086 -4.826968,-0.268701 -6.41784,-0.365827 C 22.112559,12.338715 20.470776,9.8161471 19.125755,8.7903366 17.03908,8.6682703 15.503198,7.2801371 14.594183,8.9284986 13.491347,10.071402 11.133769,9.2651095 12.859145,8.055839 13.638287,7.1768675 10.274346,8.3433567 11.983842,6.6444629 10.883098,4.6216432 15.241235,6.00955 16.047368,5.3520453 c 2.142261,0.508122 5.00953,-0.4941789 6.682868,0.3955942 0.397181,-1.0368849 3.513633,-0.268536 4.585408,-0.7252071 z m -6.831106,0.2552817 c 0.844904,1.18072 -0.48792,2.985699 0.712388,0.7673004 L 20.854541,5.5950072 Z m 5.639448,0.085783 c -0.271458,0.8289687 0.990781,0.9810965 0,0 z m 5.326807,0.060978 c 0.320019,1.8299324 -0.286422,1.9877431 -8e-6,0 z M 18.614368,5.5417804 c 0.231704,1.6291197 1.552235,1.0149324 0,0 z m 6.186702,0.0863 c -0.27146,0.8289665 0.990783,0.9810993 0,0 z m -12.448336,0.014986 c -0.973501,0.4583967 0.212703,1.2870937 0,0 z m 9.525,0.2645834 c -0.973501,0.4583972 0.212703,1.2870926 0,0 z m -5.047754,0.00103 c -0.669849,0.6360351 1.169396,0.193615 0,0 z m 1.386996,0.2506308 c -0.874246,0.432157 0.838374,0.4309335 0,0 z m -2.682007,0.011885 c 0.05464,1.3644816 1.179091,1.3690941 0,0 z m -2.594157,0.4294312 c -1.035818,0.6674734 0.556514,0.7285977 0,0 z m 1.008207,0.027388 c -0.06904,0.792125 0.958938,0.8591098 0,0 z m -0.384472,0.7989176 c -0.858928,-0.011365 0.06307,0.4807638 0.214973,0.07183 z M 17.79788,9.1301876 C 19.317867,9.7517515 18.850469,14.370036 16.730354,12.42146 15.669131,12.34141 16.25014,8.6146914 17.726566,9.309505 l -0.03094,-0.1267034 z m 0.422196,0.6046144 c -0.386992,1.780487 0.402154,1.205458 0,0 z m 7.074504,2.161109 c 1.452165,0.610659 -0.890543,0.345564 0,0 z m 38.994518,0.140559 c 0.663085,1.435735 2.766282,2.297507 4.296743,1.349103 3.924017,0.749358 7.364537,2.923208 11.046505,4.336688 -0.461378,-1.067266 -2.59928,-1.199547 -3.633885,-1.975423 C 74.657087,15.065014 72.836192,14.14088 71.062346,13.57622 68.80099,12.851176 66.332647,13.215092 64.289098,12.03647 Z m -18.3441,0.775147 c 0.736245,1.346744 3.187774,-0.06058 0.313159,-0.231511 z m -28.940868,0.17157 c 0.820019,0.3916 -1.15144,0.104431 0,0 z m -2.689242,1.835546 c -1.002666,1.891031 0.04163,1.278816 1.314649,2.087212 -1.67181,0.614257 -2.321919,2.173113 -2.609842,4.287114 -0.07048,1.138096 -0.13125,3.649063 -0.166288,1.101515 -0.15674,-2.756208 -0.08518,-4.176504 -0.08985,-6.849005 0.690237,-0.895159 1.237489,0.630718 1.551326,-0.626836 z m 4.245736,0.275953 c -0.0074,1.81946 -1.407069,-0.06839 -0.183451,0.200504 z m 7.218681,0.766361 c 0.996756,1.706876 -0.533202,8.173856 -1.074536,3.570504 0.21068,-1.080363 -0.634972,-3.544484 1.074536,-3.570504 z m 23.806299,0 c 3.440549,-0.81806 0.446479,4.582571 -0.507836,2.73633 0.84078,-1.871893 -2.381387,-1.309782 -0.393782,-2.722224 l 0.389597,-0.01175 z m -30.310295,0.02481 c 1.560383,0.246005 0.08174,2.847194 0.304534,0.451737 0.356568,-0.234273 -0.699595,-0.341218 -0.304534,-0.451737 z m 8.998933,0.198954 c 0.317831,1.201024 -0.307472,1.459983 0,0 z m -8.032067,0.549836 c 1.397503,0.02998 2.795006,0.05995 4.192509,0.08992 0.135475,1.595004 -0.269496,6.115431 -0.309025,2.150257 -0.158992,-4.053586 -0.393391,1.017252 -0.680783,2.013372 l -3.375817,10e-4 c 0.05745,-1.418192 0.115153,-2.836374 0.173116,-4.254546 z m 33.925579,0.372584 c 1.248674,0.927776 -1.561217,0.753207 0,0 z M 9.4769407,17.30592 c 0.3490301,0.844244 -0.337512,1.058457 0,0 z m 70.9574263,0.639238 c 1.517883,2.85044 2.944971,1.644962 5.190897,2.571936 2.199196,1.376983 2.357356,0.399353 0.350346,-0.1474 -1.850446,-0.905786 -3.870362,-1.191932 -5.541243,-2.424536 z m -59.833041,0.256311 c -0.386992,1.780487 0.402154,1.205456 0,0 z m 9.918774,0.305413 c 0.865156,1.419278 -1.068835,1.921007 0,0 z m -0.916739,0.529166 c 0.715597,1.785183 0.788162,3.972917 -1.815579,3.174296 -0.42259,-1.039783 0.105955,-3.084066 1.815579,-3.174296 z m 16.913696,0.577743 c 0.353896,1.106898 -0.274791,2.31163 0,0 z m -1.283126,0.05271 c 1.319972,0.70402 -0.88995,1.029549 0,0 z m 3.316076,0.197404 c 1.824415,0.215543 -1.994565,0.428274 0,0 z m -1.463993,0.05633 c 1.149493,0.595089 -0.737761,0.521185 0,0 z M 13.457576,20.05356 c 0.31783,1.201025 -0.30747,1.459982 0,0 z m 38.393523,0.42478 c 2.48244,0.785073 -0.975894,1.637693 0,0 z m -21.746477,0.09095 c 0.403963,0.800407 -0.335489,1.731744 0,0 z m 43.601473,0.322978 c 2.032693,-1.036863 4.379103,2.341212 1.479264,1.826853 -1.661734,0.02866 -1.971614,-0.0099 -1.917258,-0.62056 0.172384,-0.677617 -0.168537,-1.008204 0.437994,-1.206293 z m -17.918287,0.260449 c 3.185525,0.64127 -0.714523,4.56897 0.79375,6.883816 -0.815494,1.634112 2.469412,-0.54664 1.391494,2.091177 -0.465759,0.44808 -1.607466,-0.283877 -2.367584,0.492765 -0.366639,-1.107707 0.736142,-5.074726 0.175617,-4.977819 -0.474665,4.157172 -0.16527,-1.365464 0.05677,-3.010375 0.280075,-0.698841 -1.270778,-0.846381 -0.05004,-1.479564 z m 1.931149,0 c 0.473845,2.356566 -0.727348,3.176738 0,0 z m 20.522779,0.13074 c 1.303895,0.714925 0.204996,2.428128 -0.779188,0.203524 0.33763,0.213205 0.505931,-0.0645 0.779188,-0.203524 z m 10.257255,0.303858 c 0.272061,1.496556 4.607105,2.092337 1.95285,1.043862 -0.297222,-0.500592 -1.509914,-0.321364 -1.95285,-1.043862 z m -50.731787,0.46147 c -0.185722,2.023054 0.212384,5.874887 -0.478137,7.059675 0.05555,-2.171679 -0.789561,-5.331191 0.478137,-7.059675 z m 15.786116,0.139526 c -0.110885,2.477422 0.06557,4.986936 -0.340662,7.436242 -2.669852,-0.06018 -0.523036,-4.834225 -1.586383,-6.757329 -0.556255,-1.046892 1.393721,-0.430855 1.927045,-0.678913 z m -37.41477,0.08062 c 1.805103,-0.229988 2.989126,0.310227 2.475301,2.216892 v 4.075231 c -1.679002,-0.175329 -5.344463,0.804863 -4.60606,-1.991357 0.823448,-1.507052 -0.688274,-4.802403 2.130759,-4.300766 z m 30.047262,0.05374 c 0.617521,1.755559 -0.755912,3.286583 -0.234416,0.500693 l 0.17912,-0.480022 0.0553,-0.02067 z m 5.889045,0.274919 c -0.424833,1.385017 0.444185,0.752504 0,0 z m 0.519348,0.08837 c -0.381373,1.533227 0.449276,1.035418 0,0 z m -22.215181,0.17621 c 0.349028,0.844245 -0.33751,1.058456 0,0 z m 22.735045,0.319877 c -0.0033,2.30944 -1.126032,0.01076 -0.48256,2.399317 -0.158946,1.457872 -0.164484,5.89635 0.570407,2.112068 0.02323,-1.500911 0.08238,-3.018244 -0.08785,-4.511385 z m -27.885635,0.05219 c 0.06416,0.73036 -0.0089,3.689712 0.230094,1.580017 0.446907,-2.054115 0.219511,5.465136 -0.127942,1.260131 0.14619,1.930405 -0.633995,2.237171 -2.359379,1.42109 -3.222293,0.826133 -3.186015,-4.706745 0.142705,-3.990335 0.703272,-0.102146 1.409555,-0.181654 2.114522,-0.270903 z m 66.507567,0.171566 c 1.183302,1.350908 2.141509,1.058163 0,0 z m -72.706155,0.194308 c 0.23778,1.504897 -0.07361,5.936388 -0.05065,1.918229 0.0078,-0.639419 -0.01393,-1.280892 0.05065,-1.918229 z m 36.192621,0.289904 c 0.424519,0.6135 -0.287485,0.893865 0,0 z m -21.625035,0.13901 c 3.371976,-1.338104 3.215393,3.256267 2.611209,4.267441 -2.423096,-0.257784 -5.663011,-1.404012 -4.101041,-3.704168 0.245906,1.243404 0.147494,-1.395054 1.489832,-0.563273 z m 9.358084,0.03411 c 1.213856,0.0074 2.842633,-0.408261 2.317205,1.372151 0.09328,1.217058 0.320159,2.564705 -1.334524,2.067434 -1.666113,0.503878 -0.758584,-1.565886 -0.982681,-2.504023 z m 17.969447,0.05633 c 0.999961,1.2492 -0.40586,5.736294 -0.488579,1.984395 0.08826,-0.654001 0.02208,-1.475991 0.488579,-1.984395 z m -48.035827,0.03514 c 0.424504,0.613481 -0.287464,0.893889 0,0 z m 67.059988,0.273383 c -1.567236,0.759777 4.176567,0.97007 1.304829,0.263033 L 80.54909,24.475284 Z M 60.029409,24.85432 c 0.309142,1.725234 -0.220059,2.95221 -0.04038,0.295647 z M 12.92841,25.345223 c 0.317829,1.201023 -0.307471,1.459981 0,0 z m 53.663391,0.04082 c 0.944025,0.235225 3.056922,-0.698419 2.557465,0.980289 0.356113,1.300656 0.623869,3.07532 -0.61287,1.218032 -1.729804,0.326483 -7.261916,-0.490739 -3.702476,-2.149957 0.585208,-0.03764 1.171649,-0.04779 1.757881,-0.04836 z M 6.15673,25.515755 c -1.0298726,0.495355 1.6755094,0.504907 0,0 z m 2.3709148,0.168465 c -1.645603,0.211631 1.4475568,0.211372 0,0 z m 0.2744018,0.528133 c -0.858928,-0.01137 0.063072,0.480763 0.2149739,0.07183 z m -1.3006959,0.0016 c -1.4883985,0.150843 1.3795962,0.223631 0,0 z M 90.029129,26.74153 c -0.858935,-0.01137 0.06309,0.480769 0.214974,0.07183 z m -44.193684,0.2589 c 1.330182,1.846731 -1.03523,3.246858 0,0 z m -32.946309,0.06459 c 0.424504,0.613482 -0.287464,0.893887 0,0 z m -0.489893,0.13229 c 0.317829,1.201026 -0.30747,1.459984 0,0 z m 16.498734,1.130681 c 1.952175,0.2173 -2.255163,0.151114 0,0 z m 0.828373,0.762227 c 0.134292,1.456603 0.05577,4.738823 -1.304904,2.372382 -0.48628,-1.877008 -1.886987,-2.690265 1.304904,-2.372382 z m 0.405143,0.526582 c 0.309142,1.725234 -0.220059,2.95221 -0.04038,0.295648 z m -4.644677,0.180867 c 0.527656,1.865865 0.956885,6.473332 -1.176156,5.391404 -1.713353,0.775073 -6.269405,0.310925 -4.751491,-1.809309 0.556766,1.323682 0.287839,-2.408028 0.377121,-3.218314 1.756492,-0.130123 3.805683,0.296031 5.550526,-0.363781 z m 26.464534,0.350885 c 1.006972,0.699283 -1.046213,1.667362 0,0 z m -27.486177,0.386527 c -0.927136,1.607894 0.380051,6.276715 0.234094,1.9787 -0.05944,-0.633453 0.109193,-1.42276 -0.234094,-1.9787 z m -3.963582,0.02119 c -0.661652,1.015452 -0.08222,3.3723 0.05055,0.786178 0.09979,-0.309849 0.593124,-0.713383 -0.05055,-0.786178 z m 25.764318,0.08062 c 0.317831,1.201023 -0.307472,1.459984 0,0 z m -24.234696,0.07338 c -0.858924,-0.01137 0.06306,0.480764 0.214974,0.07183 z m 26.161193,0.262001 c 0.53598,1.433465 2.107687,1.837188 2.878974,2.802724 -0.689171,0.930489 0.174395,2.540606 -1.81909,1.929804 -3.656041,0.520356 1.93647,-3.827436 -1.497282,-4.012985 1.023575,-0.362519 0.262054,-0.339479 0.437398,-0.719543 z m -1.36839,0.07286 c 0.903089,0.485944 -0.775632,1.200557 0,0 z m -2.473235,0.150379 c 1.018627,0.402185 -0.666007,1.884121 0,0 z m -0.654741,0.121954 c 1.138359,1.151586 -0.943615,1.237427 0,0 z M 23.784078,31.57068 c -0.21387,1.647195 0.146314,3.528057 0.08172,0.695047 l -0.03211,-0.463537 z m 19.030363,0.02273 c 0.349027,0.844245 -0.337511,1.058457 0,0 z m 40.53551,0.614433 c -1.901913,0.128228 -3.321452,2.322317 -0.839227,0.586529 -0.420415,0.08469 1.366676,-0.416396 0.839227,-0.586529 z M 6.5391357,32.621262 c -0.3764415,0.759047 0.4587626,0.921139 0,0 z m 7.4445063,0.173117 c 0.888999,0.89059 -0.886144,0.96439 0,0 z m 27.664462,0 c 0.921703,0.724442 -1.311857,0.548865 0,0 z m -33.08842,0.03411 c -1.4883783,0.150852 1.3795899,0.223628 0,0 z m 45.376041,0.495061 c 1.377756,0.669478 -1.328177,0.539171 0,0 z m -38.775927,0.04496 c 1.133365,0.784032 -1.282625,0.523084 0,0 z m -6.797001,0.01188 c -5.1836179,0.305187 2.530791,0.818788 0,0 z m 60.01184,0.20774 c -1.379778,0.420304 0.545137,2.452717 -0.01342,0.844908 0.538908,0.09249 0.706892,-1.015445 0.01342,-0.844908 z m -34.96634,0.03255 c 0.820012,0.391594 -1.151438,0.104434 0,0 z m 33.239831,0.05633 c -1.25267,1.005874 -1.29789,2.977724 0.380339,1.300181 -1.52766,0.151723 0.235693,-0.504058 -0.380339,-1.300181 z m -38.651904,0.224277 c 0.353901,1.106897 -0.274794,2.311635 0,0 z m -19.43654,0.77928 c -1.4883942,0.150841 1.3795949,0.223631 0,0 z m 9.502779,0.263032 c 0.820014,0.391597 -1.151436,0.104434 0,0 z m 2.668054,0.0016 c -1.48839,0.150844 1.379594,0.223631 0,0 z m 37.712427,0.0708 c -1.234832,1.399889 0.453027,0.333965 0,0 z m 8.236707,2.890779 c -5.120699,1.229162 2.324512,1.316213 0,0 z m -18.760612,0.115756 c 0.349303,1.346237 3.253089,0.910301 0.566063,0.07104 z m 4.934066,0.182417 c -2.174052,0.395009 3.238574,2.111205 0.734219,0.198437 l -0.165367,-0.104733 z m 2.802411,1.204063 c -1.799476,0.677328 1.743451,0.51731 0,0 z m 3.439584,0.377753 c -1.803393,0.542007 1.751332,0.387649 0,0 z M 32.125687,41.33239 c 1.719942,0.476417 -1.347692,0.539658 0,0 z M 9.1549965,41.816599 c -2.0615897,-0.02751 2.3287745,0.697801 0,-1.1e-5 z"
       sodipodi:nodetypes="cccccccccccccccccccccccccccccccccccccccccccccccccccccccccccccccccccccccccccccccccccccccccccccccccccccccccccccccccccccccccccccccccccccccccccccccccccccccccccccccccccccccccccccsccccsscccccccccccccccccccccccccccccccccscccccssccccccccccccccccccccscccsccccccsccssccccccccccccccccccccccccccccccccccccscccsscccccccccccccccccccccccccccccccccccccccccccccccccccccccccccccccccccccccccccccccccccccccccccccccccccccccccccccccccc" />
    <path
       id="color-darker"
       style="fill:#2b0000;stroke-width:0.264583"
       d="m 20.174996,1.3379028 c -3.896003,0.027145 1.392804,0.3057439 1.423169,0.041858 -0.473378,-0.045875 -0.948577,-0.032468 -1.423169,-0.041858 z m 10.587467,2.9140339 c -1.554808,0.4212785 2.140961,0.067882 0,0 z m -2.35903,0.2661338 c -1.488384,0.1508508 1.379591,0.2236284 0,0 z m 3.348117,0.098185 c -0.209063,1.4529811 0.0081,4.341373 -1.65758,2.5352714 -3.102642,-2.2013685 -0.183833,2.420272 0.328962,3.7348501 1.359876,2.689156 -0.307298,-2.4945798 1.44027,-1.6399132 3.131693,0.1663769 -1.242963,-1.1266265 -0.07415,-3.0661819 l -0.0375,-1.5640264 z M 18.220076,9.7348063 c -0.346392,1.2953537 0.330966,1.5935827 0,0 z m 36.927977,1.7580317 c -1.75006,0.498142 1.04358,0.501932 0,0 z m -4.975405,0.515215 c -1.035819,0.667469 0.556509,0.728601 0,0 z M 18.80247,12.852962 c -2.119835,0.921332 -5.178294,0.09754 -7.671084,1.136259 -1.5268143,1.489217 -2.2951157,0.6909 -3.6382479,1.550676 1.3521682,0.475477 2.0526861,0.242734 0.1510789,0.769334 1.9984187,-0.114091 3.026379,-1.471487 5.234398,-1.218246 1.559908,-0.920312 1.716917,1.004365 0.974808,1.114867 3.057314,0.745007 5.531813,-0.849455 8.453276,-0.131187 1.989604,0.0071 4.713612,-1.155556 3.724707,2.021999 -0.2874,5.64476 -0.240872,11.299192 -0.141513,16.946676 1.754893,0.603432 2.437242,-2.40611 2.248957,0.396875 -3.083277,-0.111644 -6.221613,0.257296 -9.260416,-0.264584 -0.583964,-3.049661 -0.712402,2.432868 -1.360714,-0.448114 -1.416488,-0.596707 -3.459726,-0.440042 -3.814254,1.090396 -1.191023,0.119761 -5.6097413,-1.203669 -5.0114909,-0.212334 3.0852699,1.092888 6.4399679,1.575721 9.7141859,1.713058 1.992813,0.04263 3.194727,-1.28923 4.213646,-0.205658 2.324857,-0.936953 5.187787,-0.474646 7.894358,-0.970721 0.652018,1.037571 0.07381,2.670016 0.945719,0.4222 0.522761,-2.916139 -3.216124,-3.221892 -4.545814,-4.517294 0.178437,-1.130933 -0.701228,-3.571764 1.274223,-2.953883 0.956103,0.0863 2.564063,-0.482777 2.070383,1.059736 -0.489355,2.109242 1.013989,2.887443 2.136219,0.764212 2.253107,-1.111126 0.472194,-1.655289 -0.770348,-1.867884 0.206987,-2.270464 0.238104,-4.556515 0.218462,-6.838406 1.828387,-0.04563 3.695154,0.118365 5.493985,-0.142025 -2.744012,0.352179 -4.171571,-1.533775 -6.282626,-2.797618 -0.564542,1.385472 -0.188638,3.421392 -2.270863,2.927657 -1.243539,0.220615 -2.374762,0.329131 -1.796614,-1.26871 -0.706727,-3.69954 5.415238,-2.291348 4.668935,-6.38669 -0.480882,-2.883588 -0.09937,1.702587 -2.031563,0.312869 C 27.796455,15.043977 24.79367,12.8831 24.434675,14.331316 22.656987,12.784943 21.783235,15.160493 19.794326,13.28149 19.451345,13.166028 19.16175,12.925238 18.80247,12.852962 Z m 47.863226,0.120923 c -2.32664,-0.04303 1.040202,1.461577 0.638847,0.09692 z m -48.44872,1.916679 c 1.663977,1.4023 -1.599981,1.776984 0,0 z m 31.617707,0.470772 c -3.251322,0.149423 2.990511,0.181876 0,0 z m -21.609534,0.393258 c 1.084538,2.151795 -1.250511,1.914668 -0.311092,0.142636 l 0.311092,-0.142627 z m 15.698269,0.729671 c -1.585688,2.451924 0.462878,2.596741 2.164945,3.233953 -0.25119,1.045523 -0.08406,2.861282 -0.732991,1.991051 -0.792366,0.417813 -3.269933,1.120041 -3.733713,-0.12347 -0.516773,-1.237052 -1.678548,-3.804003 -1.626227,-0.970983 -0.168823,1.159681 -0.05486,3.506143 -0.836583,2.779105 -0.637228,0.212107 -0.822555,0.54328 -1.142574,-0.293166 0.05857,1.464236 -0.939745,6.162442 0.705908,4.324961 1.997318,0.212458 -0.04437,4.983197 1.256771,5.037936 2.121458,-1.030634 2.507739,-3.528401 1.661599,-5.514991 -0.01472,-1.490951 -0.0052,-2.982022 -0.008,-4.47303 1.500886,-0.191248 3.449211,0.497795 4.625051,-0.535368 -0.133329,-1.419285 0.341765,-4.719175 1.880402,-2.218934 1.141042,0.764466 1.013508,-1.957294 0.441351,-0.190173 -0.803222,-0.886757 0.0091,-4.237573 -1.879557,-2.190614 -1.262018,0.882745 -1.996967,0.0516 -2.776429,-0.856277 z M 8.7922281,16.688387 c -1.678596,0.161882 1.4431649,0.239765 0,0 z m 15.8005859,0.0987 c -0.05875,1.367588 -0.123684,2.734038 -0.180364,4.101041 -1.471598,0.17041 -3.378677,-0.430727 -4.531392,0.470733 -0.736931,-1.81027 0.16557,-4.182727 -0.747355,-1.925941 0.214286,-0.282002 -2.480971,2.986462 -2.239657,2.778125 2.379676,0.973979 3.833097,-1.799253 6.405001,-1.058334 1.322003,0.337812 1.601936,-0.342624 1.362832,-1.527919 -0.02287,-0.945906 -0.04604,-1.891804 -0.06906,-2.837705 z M 8.8242673,17.21807 c -1.4883799,0.150852 1.3795897,0.223628 0,0 z m 43.5715007,0.495061 c -2.782319,0.400702 -0.496811,3.008608 0.250396,3.838274 -2.419673,1.234582 1.547712,-0.670382 0.853046,1.342631 -0.09589,2.73026 1.213405,6.552342 -1.680152,8.162467 -1.595922,0.703 -1.194454,3.048098 0.668332,2.267045 0.986504,-0.08195 2.39373,0.447122 2.445052,-0.992981 0.717753,-1.335151 1.289246,-1.359786 -0.152046,-2.128229 0.41488,-2.903919 -0.429326,-6.569749 0.342543,-9.057016 2.581299,-1.397716 5.701453,1.957471 7.52665,1.487097 2.313871,-0.943884 0.950187,3.007085 3.565919,1.403467 0.786318,-0.694038 -2.51001,-2.962424 -4.315132,-2.788476 -3.096585,-0.874647 -6.173758,-0.980153 -8.611568,-3.067106 -0.227714,-0.30654 -0.237091,-0.650286 -0.89304,-0.467173 z m -32.318441,0.513147 c -0.24728,1.361414 0.160337,2.796499 0.08409,0.611867 l -0.03293,-0.392759 z m 3.677295,0.490926 c -0.381379,1.533222 0.449283,1.035425 0,0 z m 57.985091,0.216007 c -0.0707,0.996071 2.858457,1.729264 1.427937,0.435679 -0.489521,-0.101476 -0.924076,-0.392858 -1.427937,-0.435679 z m -69.388012,0.333313 c -1.453158,2.471216 -4.0963223,-0.197089 -5.5290741,1.267942 1.4839916,0.04449 3.3860231,0.713783 0.8433134,0.772148 1.8186133,0.354988 -1.664163,1.161348 0.9654752,0.901916 2.0121555,0.441841 -2.7791847,0.630114 -0.1640819,0.744138 2.6168174,0.326667 4.5439674,0.843605 3.9219774,-2.547024 l 0.01446,-0.590565 z m 30.970202,0.120406 c -0.31121,0.884745 1.022329,0.88228 0,0 z M 8.261511,19.595186 c -2.7137529,0.170379 2.467006,0.207348 0,0 z m 1.5988689,1.3255 c 0.8200201,0.391603 -1.1514399,0.104431 0,0 z m 3.3553511,0.18862 c -0.0601,1.272512 -0.112747,5.429479 0.03876,4.990909 0.04033,-1.662572 0.07768,-3.330894 -0.03876,-4.990909 z m 44.626215,0.704866 c 0.0068,2.068495 -2.172402,5.233729 0.05079,6.575453 0.855189,0.800629 2.4267,-0.660924 1.223243,-1.867131 -0.719143,-1.783485 0.841115,-2.246519 1.651161,-2.677552 -1.713045,0.0183 -2.912218,-0.125434 -2.925194,-2.03077 z m -27.320812,0.529167 c 1.005965,2.813417 -6.307749,1.221473 -2.388295,0.140195 0.794482,-0.07126 1.59214,-0.09467 2.388295,-0.140195 z m 20.589441,0.198437 c -1.978578,0.878543 -5.613675,-0.125771 -4.715475,3.092835 0.242723,0.809072 -0.62252,2.680655 0.727604,2.427758 1.956763,0.444852 4.453615,1.781599 4.093292,-1.447448 0.319984,-1.328859 -0.01402,-2.729402 -0.105421,-4.073145 z m -9.911024,0.02532 c 0.424519,0.613497 -0.287483,0.893866 0,0 z m -6.080247,0.119373 c -1.26175,-0.01064 -3.815228,1.174205 -1.197623,0.835896 1.192885,0.345952 3.743394,-0.587034 1.197623,-0.835896 z m 8.813932,0.593245 c -1.779246,-0.174389 -2.32824,0.738981 -0.234611,0.514697 1.402025,0.13176 2.984235,-0.487751 0.234611,-0.514697 z m 9.198404,0.03824 c -0.325027,1.925741 0.347149,1.463016 0,0 z m 17.752922,0.03772 c -1.220676,0.598664 0.429768,0.959357 0,0 z m -64.063273,0.09715 c -1.2661551,0.535761 3.755342,0.219581 0.3679362,0.01912 L 6.821289,23.452831 Z m 41.757658,0.738456 c 3.365145,0.165044 0.04167,5.640858 -0.816489,1.99398 -0.07025,-0.661987 -0.174474,-1.983855 0.816489,-1.99398 z m 12.749609,0.489892 c -0.565296,0.723445 1.224317,0.392426 0,0 z m -9.50123,0.159681 c -0.247285,1.361434 0.16029,2.79649 0.08412,0.611868 l -0.03289,-0.39276 -0.05116,-0.219108 z m 17.98805,0.427364 c -0.262448,1.819433 0.317267,2.522936 0,0 z m -14.553634,0.341581 c -0.386993,1.780493 0.402156,1.205455 0,0 z m -18.785416,0.79375 c -0.346387,1.295374 0.330941,1.593559 0,0 z m 34.713642,0.163298 c -1.390962,1.020988 1.202555,0.319024 0,0 z M 7.765934,27.267585 c -3.2513211,0.149423 2.990511,0.181877 0,0 z m 62.802367,0.326596 c -0.376413,0.759005 0.458729,0.921179 0,0 z M 8.0734089,27.793653 c -1.9364012,-0.332896 -1.0939409,0.798224 -0.3581156,1.136873 -2.6187961,0.499218 0.6167723,1.347975 1.1270631,1.46554 0.9670452,0.517025 4.2086896,3.097027 3.4173626,-0.329695 0.488599,-3.223442 -1.884812,-0.0431 -3.1545348,-2.012304 -0.2454198,-0.30357 -0.7009728,-0.224795 -1.0317753,-0.260414 z m 21.3661381,0.0047 c 3.082832,0.997074 -5.072735,0.975632 -1.505646,0.07803 0.500018,-0.05378 1.002898,-0.0779 1.505646,-0.07803 z m 49.682238,0.237196 c -0.132567,0.593858 1.205746,0.360315 0,0 z m -14.156243,0.0181 c -1.255284,2.387523 -3.308151,0.01944 -5.10708,2.194316 -1.161066,0.153882 -4.786593,1.431354 -1.606719,1.413754 2.368722,-1.391174 6.065372,-0.844881 7.564305,-3.293068 L 65.57791,28.200887 64.965542,28.053609 Z m -47.762975,0.568957 c -0.266553,0.07109 1.811632,2.935184 1.675867,3.642672 -0.128686,-3.6875 3.907134,-1.331608 6.129858,-2.488737 -0.729548,-1.091906 -4.859872,0.26198 -6.430737,-1.120029 l -0.691309,-0.03235 -0.683679,-0.0016 z m 58.825866,0.501777 c -1.488364,0.150855 1.379595,0.223626 0,0 z m -29.993519,0.36277 c 0.178449,1.894695 -0.689287,2.865218 -2.388081,2.8287 -2.555113,0.28956 0.678863,1.426792 0.310909,3.053832 -0.293851,-3.30214 3.501409,-0.29854 3.720058,-1.132486 -0.637247,-1.885291 2.499664,-2.541791 0.120705,-2.375855 -2.146985,2.1146 -1.634995,-1.163378 -1.763591,-2.374191 z m -21.45967,1.439188 c -0.247252,1.36143 0.160318,2.79649 0.08409,0.611868 l -0.03292,-0.392761 -0.05116,-0.219107 z m -4.766117,0.16278 c -0.298134,1.789633 0.325224,1.966362 0,0 z m 63.503099,1.069186 c -0.995653,0.236009 -3.077233,1.370883 -0.709001,0.609778 -0.226182,0.07005 1.280332,-0.455486 0.709001,-0.609778 z m -47.567637,0.120904 c -3.242223,1.620002 5.207603,0.34756 1.431435,0.328663 -0.380299,-0.06488 -1.375381,0.360937 -1.431435,-0.328663 z m 18.301208,0.54777 c 0.820012,0.391594 -1.151438,0.104433 0,0 z m 5.959842,0.232029 c -0.96698,0.653097 1.291913,0.517004 0,0 z m 8.406204,0.529166 c -1.815957,1.121646 1.557621,0.83919 0,0 z M 39.857,33.629517 c -1.731756,0.513771 2.179844,0.422511 0,0 z m 26.874326,0.20206 c -2.337366,1.370544 0.904822,1.049359 0,0 z m -2.022099,0.02119 c -2.123056,1.63539 1.5777,0.797293 0,0 z M 7.8320798,34.135906 c -2.8173589,0.263927 2.9540932,0.365046 0.4879809,7.73e-4 z m 58.6207112,4.218348 c -1.915646,0.108828 -0.0205,1.037468 0.482849,0.05637 z m -49.652783,0.03049 c -1.994554,0.428239 1.824416,0.215546 0,0 z m 15.03474,0.239779 c -1.73804,-0.864854 -2.705504,3.87145 -0.980818,1.776119 0.819785,-0.477319 3.963847,-1.619954 0.980818,-1.776119 z m -1.742527,3.63647 c -2.689278,0.305756 -2.166218,3.855038 0.562859,1.794452 0.490585,-0.905375 1.149964,-1.977982 -0.562859,-1.794452 z"
       sodipodi:nodetypes="cccccccscccccscccccccccccccccccccccccccccccccccccccccccccccccccccccccccccccccccccccsccccccsscccccccccccccccccccccccccccccccccccccccccccccccccccccccccccccccccccccccccccccccccccccccccccccccccccccccccccccccccccccccccccccccccccccccccccccccccccccccccccccccccccc" />
  </g>
</svg>
