<?xml version="1.0" encoding="UTF-8" standalone="no"?>
<!-- Created with Inkscape (http://www.inkscape.org/) -->

<svg
   width="100mm"
   height="100mm"
   viewBox="0 0 100 100"
   version="1.1"
   id="svg5"
   inkscape:version="1.1.1 (3bf5ae0d25, 2021-09-20)"
   sodipodi:docname="fighter-src.svg"
   xmlns:inkscape="http://www.inkscape.org/namespaces/inkscape"
   xmlns:sodipodi="http://sodipodi.sourceforge.net/DTD/sodipodi-0.dtd"
   xmlns="http://www.w3.org/2000/svg"
   xmlns:svg="http://www.w3.org/2000/svg">
  <sodipodi:namedview
     id="namedview7"
     pagecolor="#ffffff"
     bordercolor="#666666"
     borderopacity="1.0"
     inkscape:pageshadow="2"
     inkscape:pageopacity="0.0"
     inkscape:pagecheckerboard="0"
     inkscape:document-units="px"
     showgrid="false"
     inkscape:zoom="1.4142136"
     inkscape:cx="131.87541"
     inkscape:cy="186.32264"
     inkscape:window-width="1920"
     inkscape:window-height="1017"
     inkscape:window-x="-8"
     inkscape:window-y="-8"
     inkscape:window-maximized="1"
     inkscape:current-layer="layer1" />
  <defs
     id="defs2" />
  <g
     inkscape:label="Layer 1"
     inkscape:groupmode="layer"
     id="layer1">
    <path
       style="fill:#460000;stroke-width:1.19401"
       d="m 34.022961,96.106813 c -2.016019,-0.203108 -7.546429,-0.5457 -3.37148,-2.821216 2.696931,-3.937044 -0.03112,-8.45108 -4.950719,-7.13438 -7.093971,-0.617556 -14.586151,-0.599964 -21.1436581,-3.605336 -5.07014404,-3.734568 2.686079,-6.187804 5.162475,-7.94286 1.0132461,-4.031404 6.3191211,-3.000804 7.6247451,-6.483632 4.132156,-0.346556 3.900041,-4.786008 4.13055,-7.801232 0.387736,-1.846472 0.418083,-3.350228 -1.956488,-2.547656 -4.575034,0.263176 -9.431892,0.30046 -13.3902881,2.76822 -4.239066,-1.2432 -3.078946,-7.326612 -3.43889,-10.758784 0.349196,-3.789893 -1.420348,-12.104534 5.078067,-11.01194 4.3242711,0.337923 8.6112691,1.074597 12.9002731,1.617504 1.779734,-1.799088 2.880272,-10.77895 -1.814992,-9.281364 -2.880039,-0.234655 -1.02576,-6.049453 -5.625324,-4.531209 -3.8563731,-0.330092 -0.816384,-6.827438 -5.8475061,-6.268055 -5.133094,0.10229 -4.298272,-7.021365 0.748618,-5.640515 4.8283011,-0.05134 9.6352401,-0.471411 14.2579051,-1.864497 3.841635,-1.052274 11.822896,1.19669 10.402071,-5.1656245 -0.072,-2.465355 -2.605959,-5.495864 1.734461,-4.813302 5.935827,-0.05868 11.970819,-0.15114 17.803535,1.045698 3.530488,0.856422 -3.514852,2.743698 0.988744,2.704891 6.24514,0.765096 12.64932,0.19688 18.8256,1.328549 -0.7349,3.4181975 -7.611832,1.390185 -10.714884,1.775524 -2.051244,-0.507824 -7.397044,0.7033895 -3.129696,2.2397285 7.749144,2.685199 16.15756,2.49456 24.253872,3.399759 4.304128,0.783151 9.891036,-0.273096 13.236908,2.632462 -2.986264,2.329283 -7.926312,2.906102 -11.989996,3.524179 -9.989624,0.93977 -20.0985,0.2973 -30.040652,1.708897 2.914248,2.18658 8.132184,5.652776 11.451396,8.761574 4.206288,1.896714 7.582212,5.941968 12.592636,5.481177 4.871264,0.64302 11.07996,-1.082138 14.603668,3.210692 3.902644,3.662492 6.507304,9.843672 3.063504,14.628572 -2.535264,3.8465 -6.699876,6.90744 -11.607296,6.636944 -4.428952,0.3498 -9.057084,-0.0013 -13.286268,1.509584 -2.121552,4.09544 -5.191268,7.708936 -8.605292,10.916764 -3.013028,2.091332 1.472348,1.393512 3.007704,1.790292 8.906604,0.910948 17.90252,1.418064 26.659268,3.300884 3.950092,0.537488 5.371496,4.854532 0.10796,3.833088 -10.653668,1.093768 -21.418244,1.650812 -31.932404,3.7073 -3.05778,-0.0116 -5.776024,3.263248 -0.988224,2.969204 3.220504,0.533212 10.314208,-1.225756 11.336856,1.32474 -5.53518,1.68738 -11.57206,0.34308 -17.085748,2.039112 -2.107796,5.285632 -8.647812,3.661736 -13.322628,3.408008 -1.911805,-0.17512 -3.820741,-0.37868 -5.728399,-0.591744 z"
       id="color-primary"
       sodipodi:nodetypes="ssssssssssscssssssssssssssssssssssssssssccssssccccssssssssss" />
    <path
       style="fill:#340101;stroke-width:1.19401"
       d="m 37.421302,95.228677 c -3.421213,0.599028 -10.958071,0.719564 -5.891759,-3.800756 0.557089,-2.906032 -3.327375,-6.8626 2.164284,-6.259396 7.204201,-0.0072 14.415509,0.706752 21.588245,1.3662 3.083876,0.15064 1.932884,0.511684 0.791252,2.330928 3.346284,2.689544 8.193276,-0.30552 12.144072,0.50036 5.744972,1.61552 -2.660144,2.919516 -4.875868,2.304732 -4.1396,-0.05648 -8.370024,-0.36792 -12.411632,0.712552 0.584996,4.26232 -7.619308,1.90394 -10.727712,2.7435 -0.927048,0.0316 -1.854036,0.06544 -2.780882,0.10188 z m 25.184174,-9.572432 c 1.130816,-2.725408 6.309372,0.10268 1.603704,0.40622 -0.527096,0.06072 -1.245504,0.07424 -1.603704,-0.40622 z m -39.615762,-5.86312 c -4.616178,0.29232 -13.3659091,-1.976328 -15.3488621,-0.536172 1.021393,3.764716 -8.715306,0.37892 -2.684426,-2.030392 3.260542,-0.877308 6.8001631,-1.978744 7.0261911,-5.425156 3.930973,-0.577724 3.920116,-4.778288 7.874282,-3.35662 3.802665,-1.22732 -1.651288,-9.65556 4.007765,-9.279972 0.837746,2.248056 0.503371,7.59204 2.092688,2.60264 3.233894,-1.06388 -1.264362,-3.53552 1.885742,-3.24004 3.175589,-0.809796 6.513231,0.709992 3.587123,2.010568 4.322792,1.714104 3.996345,-4.965808 6.401121,-4.683504 -0.639863,6.281852 7.23855,2.76322 10.62863,5.72884 3.660676,4.810764 8.982768,2.06678 13.033824,-0.59756 2.621244,0.2748 7.136308,-5.047384 5.742624,0.524 -0.67074,2.68034 4.731072,1.919456 1.006032,3.853792 -2.116476,3.523524 -5.910832,7.340264 -6.943188,10.732536 4.720596,0.632464 9.812336,0.36176 14.241532,2.377644 -6.802376,1.409352 -13.815296,1.545136 -20.709236,2.379844 -9.562924,0.971836 -19.160135,0.24544 -28.667291,-0.868876 -1.057045,-0.08016 -2.115359,-0.14652 -3.174551,-0.1916 z m 10.124957,-0.995512 c -2.801232,-1.2333 -3.819842,1.46274 -0.457722,0.546916 0.313904,0.24288 1.342637,-0.480728 0.457722,-0.546916 z M 16.107376,73.463601 c -4.159148,-1.28576 0.261452,3.969852 0.335648,4.482508 0.351348,-1.360348 0.784088,-3.372056 -0.335648,-4.482508 z m 39.714604,1.278872 c -1.92094,-3.563008 -4.300872,4.720616 -0.515504,0.934732 0.2558,-0.27848 0.462728,-0.555416 0.515504,-0.934732 z M 31.600847,70.036549 c -2.13381,-2.72422 -6.234364,1.727728 -1.319792,0.82748 0.512434,-0.0662 1.214644,-0.21704 1.319792,-0.82748 z m -5.17222,-2.942604 c -1.926699,-1.704736 -4.049303,1.909528 -0.795255,0.36512 z m 11.833034,-0.46598 c -1.117968,-4.845148 -2.978274,4.22808 0,0 z M 60.62674,66.170981 c 1.237644,-1.736636 2.96454,-4.081712 -0.3186,-2.07512 -2.444852,1.004632 -4.02226,5.723012 -0.02,2.751592 0.26988,-0.14572 0.27032,-0.424952 0.3386,-0.676472 z m 25.168892,13.752688 c 2.19308,-0.931068 8.473084,0.645724 2.735652,0.494576 -0.2804,-0.1164 -4.141364,0.30616 -2.735652,-0.494576 z M 83.070756,60.741925 c -5.302992,-1.086712 3.115788,-1.456128 4.886224,-1.77136 4.791712,0.647964 -2.497112,2.760004 -4.21962,1.765288 l -0.666604,0.0064 z M 4.2296039,59.043133 c -1.92133,-0.9908 -0.71618,-6.362304 0.625386,-2.501468 2.343231,0.896952 4.740564,4.016576 0.516722,3.821884 -0.612601,-0.16426 -1.050812,-0.723748 -1.142108,-1.320416 z M 92.759212,57.210305 c 1.727184,-2.535016 3.898024,-2.244312 1.037948,0.25072 -1.522344,1.76082 -4.203648,2.986552 -1.037948,-0.25072 z m -73.87446,0 c 1.271479,-1.276848 7.24836,-1.057556 2.750077,0.30748 -0.287268,0.04724 -5.145946,0.633752 -2.750077,-0.30748 z m 20.890728,0.39756 c 2.80128,-1.233292 3.819784,1.462736 0.457676,0.546912 -0.31392,0.24288 -1.342617,-0.480752 -0.457676,-0.546912 z m -8.174633,-1.574768 c -2.886891,-3.339432 5.835344,1.69484 0.76029,0.471104 -0.25344,-0.157 -0.506854,-0.31408 -0.76029,-0.471104 z M 69.644696,44.176785 c -1.146452,-2.092908 -0.84276,-4.299478 -3.493244,-1.660176 -3.234484,2.314856 -9.52928,-1.70032 -10.723072,2.08084 -1.94528,-1.327548 -4.381744,-2.123876 -5.430864,0.329759 -3.292428,1.756388 -7.887572,-0.497159 -9.79684,-1.022435 -2.691629,3.155275 -9.842861,-1.734112 -10.575665,1.012108 3.144364,4.39046 13.164297,-1.13904 13.125173,5.996392 -1.291968,4.305672 -10.581972,4.19836 -12.053567,0.995948 2.500142,-3.370868 9.025067,1.52402 10.261431,-2.355576 -5.055871,-0.63738 -10.22453,-0.230584 -15.002092,-1.8536 -2.355818,-1.126733 -0.417763,-3.98188 -3.981968,-3.426356 -2.70788,-0.433804 -7.52428,-2.445596 -8.59151,0.983671 -1.316592,-4.612195 -6.8834141,-2.011995 -8.5100031,-5.824742 4.526108,-1.224644 10.2153431,1.021759 15.1909851,0.720143 4.406107,0.489448 -0.354872,-8.861709 3.451326,-9.582053 2.467809,2.097083 -1.921362,10.082789 2.695631,8.6645 1.433064,-2.491277 0.97477,-7.338479 1.314093,-8.945042 -3.389812,-1.114288 2.20547,-1.683855 2.008169,-3.234668 3.134779,2.961157 1.44182,-0.441948 0.15027,-2.133923 2.590406,-4.089141 8.407506,-2.630353 12.629371,-2.762573 5.090296,-0.132368 10.476444,-0.09642 14.658112,3.06908 4.62362,3.098649 8.36218,7.331854 13.560808,9.679343 5.212844,4.36804 11.897,2.415176 17.9733,3.214371 2.84978,-0.256768 7.291624,6.240149 3.058804,2.536721 -4.231644,-2.594638 -0.684384,5.455167 -6.138964,3.700856 -5.253332,-0.42842 -10.52606,0.22428 -15.779672,-0.1826 z M 57.860328,35.799841 c -2.146848,-1.388543 0.885216,5.873808 0,0 z m 11.283276,1.344148 c 0.478776,-2.390768 -9.636968,2.036697 -3.053624,1.100723 1.076604,-0.176192 2.12322,-0.543089 3.053624,-1.100723 z M 42.500356,36.678647 c -2.259112,-4.203065 -3.877373,2.055148 0,0 z m 18.857884,-2.50798 c -0.581264,-1.959062 -6.007964,-7.226552 -4.033664,-2.349451 0.521564,1.174122 7.042,6.73443 4.033664,2.349451 z m 25.72414,22.23547 c 3.553416,-1.493712 1.764816,2.4465 0,0 z m -42.462672,-1.15268 c 2.801276,-1.233288 3.81978,1.46274 0.457676,0.546916 -0.31392,0.24288 -1.34262,-0.480756 -0.457676,-0.546916 z M 11.144967,53.582761 c -3.1333101,-0.0124 -10.0130311,-0.58742 -5.6461181,-4.961556 2.780017,-2.000585 5.0075911,3.017312 8.2613691,2.05302 2.626588,0.513832 5.083046,5.844356 0.506208,3.49722 -1.040974,-0.19376 -2.081432,-0.39016 -3.121459,-0.588684 z m 14.097835,0.493484 c 2.801278,-1.233288 3.819783,1.46274 0.457676,0.546916 -0.313906,0.242888 -1.342618,-0.480752 -0.457676,-0.546916 z m 36.028934,-2.751976 c -4.262356,-2.895276 6.748756,1.48732 0.930604,0.38704 z m 34.706328,-1.177212 c 0.789968,-4.693801 0.785672,4.543788 0.0116,0.24656 z M 11.618412,47.792645 c 2.278276,-0.544457 7.361684,-5.864776 6.370838,-0.981581 -1.176245,1.491153 -5.477799,3.762101 -6.370838,0.981581 z M 2.9139399,45.5118 c 0.35199,-2.257699 1.594292,-3.404863 0.955408,-0.35144 -0.233668,1.580136 -0.935808,4.342977 -0.955408,0.35144 z M 17.841274,29.545925 c 2.098633,-4.736357 2.302946,5.14946 -0.105094,0.470775 l 0.0568,-0.254364 z m -5.617332,-5.886039 c -2.7486631,-3.250798 8.779409,-3.268248 2.300333,-0.869965 -0.342834,1.62088 1.732799,3.448417 -1.268943,1.785357 -0.403208,-0.238037 -0.693046,-0.603835 -1.03139,-0.915392 z m 45.314674,-1.95621 c 2.652436,-0.968103 4.884052,1.074182 0.953488,0.584979 0.0092,0.01068 -2.450348,-0.302864 -0.953488,-0.584979 z m 6.656688,-0.291916 c 4.446808,-1.624836 1.52446,2.686671 0,0 z M 54.30816,19.937152 c 2.80128,-1.233294 3.819784,1.462744 0.457676,0.54692 -0.31392,0.242888 -1.342612,-0.480754 -0.457676,-0.54692 z M 5.5631319,16.066356 c -0.462995,-2.720732 6.5728171,-0.714254 8.7770241,-1.667594 5.78484,-1.693875 12.485646,-1.238179 17.795827,-3.256697 3.438565,-2.9111745 -3.156896,-9.3539265 2.867818,-8.3265545 4.826779,-0.256946 9.685443,0.16426 14.441507,0.92733 2.108084,1.486862 1.983596,7.4017255 5.47306,3.959047 5.483784,-0.952846 11.378284,-0.571813 16.768916,0.149096 0.55924,3.3432545 -7.198796,1.5687 -9.921012,1.810834 -2.823524,-0.524148 -7.389388,0.8391275 -2.738624,2.6178025 9.540152,2.678036 19.675936,1.937056 29.31852,4.136472 -10.3075,0.642202 -20.658636,-0.02668 -30.94728,-0.623372 -1.722372,0.09677 -6.349868,-1.439563 -4.846472,0.72192 -4.77522,0.916371 -9.782828,0.287024 -14.648538,0.483424 -2.414205,-0.28164 -7.600344,0.363729 -4.367311,-2.219083 C 27.941399,13.263874 22.04813,14.179453 16.707349,16.113149 13.028755,16.631131 9.2013279,17.059437 5.5631319,16.066389 Z M 47.823408,5.6124435 c -4.016616,-1.786821 -8.63626,-0.761269 -12.926925,-1.041503 4.193582,0.04004 9.212217,2.374364 12.911773,1.060524 z"
       id="color-darker"
       sodipodi:nodetypes="cscscsssscscccssscsscsssssssssscssssssssssssssssssccccccccsscsssscssssssssssssssssssssssssssssssssssssssssssccssssssssssssssscssscsssscsssssssssssssssssssssscsssssssssscsssssssssccsscccccsssssssssssssssssssssssssssssssssssssssssssscsscsscsssscssscsssssssssccssssccsscccssccsscsssssssssssssssssssssscsssscss" />
  </g>
</svg>
