<?xml version="1.0" encoding="UTF-8" standalone="no"?>
<!-- Created with Inkscape (http://www.inkscape.org/) -->

<svg
   width="100mm"
   height="33mm"
   viewBox="0 0 100 33"
   version="1.1"
   id="svg5593"
   inkscape:version="1.1.1 (3bf5ae0d25, 2021-09-20)"
   sodipodi:docname="flagship-src.svg"
   xmlns:inkscape="http://www.inkscape.org/namespaces/inkscape"
   xmlns:sodipodi="http://sodipodi.sourceforge.net/DTD/sodipodi-0.dtd"
   xmlns="http://www.w3.org/2000/svg"
   xmlns:svg="http://www.w3.org/2000/svg">
  <sodipodi:namedview
     id="namedview5595"
     pagecolor="#ffffff"
     bordercolor="#666666"
     borderopacity="1.0"
     inkscape:pageshadow="2"
     inkscape:pageopacity="0.0"
     inkscape:pagecheckerboard="0"
     inkscape:document-units="px"
     showgrid="false"
     inkscape:zoom="2"
     inkscape:cx="154.75"
     inkscape:cy="86.75"
     inkscape:window-width="1920"
     inkscape:window-height="1017"
     inkscape:window-x="-8"
     inkscape:window-y="-8"
     inkscape:window-maximized="1"
     inkscape:current-layer="layer1" />
  <defs
     id="defs5590" />
  <g
     inkscape:label="Layer 1"
     inkscape:groupmode="layer"
     id="layer1">
    <path
       style="fill:#540000;stroke-width:0.204687"
       d="m 12.540288,30.431844 c 0.06599,-0.534749 0.258502,-1.524921 0.427792,-2.200384 0.169294,-0.675473 0.309268,-1.447036 0.311058,-1.714593 0.0017,-0.267556 0.129459,-0.728099 0.283713,-1.023437 0.265056,-0.507472 0.252407,-0.540521 -0.230273,-0.601731 -0.737996,-0.09359 -0.696326,-0.807783 0.05215,-0.893903 0.40641,-0.0468 0.545995,-0.165106 0.502115,-0.425707 -0.03342,-0.19852 0.08171,-0.415621 0.255858,-0.482446 0.174149,-0.06683 0.316634,-0.341923 0.316634,-0.611323 0,-0.386021 -0.108444,-0.489817 -0.511719,-0.489817 -0.369678,0 -0.511718,-0.110033 -0.511718,-0.396411 0,-0.296491 0.165709,-0.412572 0.657448,-0.460543 0.57927,-0.05649 0.687251,-0.167583 0.908095,-0.934063 0.243822,-0.84621 0.237657,-0.869921 -0.22617,-0.869921 -0.498977,0 -0.786625,-0.420786 -0.607228,-0.888293 0.118024,-0.30757 -0.10152,-0.521616 -1.141519,-1.112871 C 5.1308768,12.837577 2.0072608,11.140084 1.642859,11.140084 c -0.4691611,0 -0.69286373,-0.354026 -0.69286373,-1.096508 0,-0.4008453 0.56495003,-0.6547223 5.27069323,-2.3685338 C 9.1195706,6.6192829 12.596692,5.321372 13.947626,4.790792 15.298562,4.2602121 16.759404,3.711189 17.193943,3.5707381 17.628481,3.4302873 18.687737,2.8977191 19.547845,2.3872532 20.407954,1.8767875 21.43406,1.3725802 21.828083,1.2667799 22.405415,1.1117694 37.91809,0.70763786 38.172422,0.84097906 c 0.03944,0.020655 -0.490184,0.85799174 -1.17695,1.86069684 -0.686766,1.0027052 -1.245762,1.9068743 -1.242212,2.0092707 0.01222,0.3529334 3.674847,2.440046 4.16887,2.3755956 0.970853,-0.1266572 5.404587,0.6291317 7.280202,1.2410115 l 1.937571,0.632079 2.258516,-0.359084 c 1.242183,-0.197497 2.765109,-0.442187 3.384293,-0.543748 1.538683,-0.252393 4.674554,-0.7349316 6.652332,-1.0236382 0.900618,-0.1314689 1.821713,-0.3203947 2.04687,-0.4198362 0.225154,-0.099446 1.468625,-0.4584864 2.763272,-0.7978738 l 2.353903,-0.6170784 2.695286,0.6563169 2.695286,0.6563243 0.138672,1.3808274 0.13867,1.380829 0.645726,-0.282287 c 0.355147,-0.155258 2.211583,-0.883204 4.125405,-1.6176572 0,0 3.321371,-1.3577507 3.482876,-1.2953812 0.102355,0.036749 0.355007,0.3848375 0.355007,0.3848375 0.197015,0.2336494 0.358203,0.7369972 0.358203,1.118547 0,0.6373319 0.05089,0.6937299 0.626143,0.6937299 0.344381,0 0.577491,-0.07871 0.518025,-0.174932 -0.05948,-0.09622 0.114728,-0.3842801 0.387094,-0.6401481 l 0.495194,-0.4652165 2.386312,0.374239 c 1.473456,0.2310796 2.425362,0.4759706 2.488351,0.6401556 0.07952,0.207129 1.115216,0.265902 4.685609,0.265902 h 4.583553 v 0.511718 0.511719 h -4.605454 c -3.77396,0 -4.605454,0.05091 -4.605454,0.281793 0,0.185806 -0.622911,0.4298303 -1.828684,0.7164033 -2.084687,0.495457 -2.607422,0.533311 -2.719554,0.196932 -0.04589,-0.137673 -0.702388,0.228341 -1.560316,0.86992 l -1.481087,1.107601 2.157318,0.0581 c 1.988783,0.05353 2.157321,0.08955 2.157321,0.460547 0,0.380466 -0.152464,0.402452 -2.791664,0.402452 H 81.335266 L 79.92352,14.54663 c -0.77646,0.635251 -1.379382,1.252074 -1.339834,1.370725 0.03952,0.11865 0.342203,0.225726 0.672554,0.237949 2.431599,0.08994 2.393596,0.08143 2.281172,0.511332 -0.07943,0.303655 -0.006,0.409377 0.283162,0.409377 0.253758,0 0.390215,0.143158 0.390215,0.40937 0,0.39638 0.136458,0.409377 4.298434,0.409377 4.161969,0 4.298427,0.013 4.298427,0.409377 0,0.394368 -0.136871,0.409415 -3.735538,0.410598 -2.054559,6.12e-4 -4.493809,0.06027 -5.420573,0.132398 -1.609484,0.125296 -1.679935,0.151468 -1.571405,0.583883 0.101062,0.402685 0.01591,0.466554 -0.771219,0.577979 -0.7379,0.104465 -0.944326,0.05454 -1.243046,-0.300752 -0.300536,-0.352137 -0.419843,-0.155374 -0.562885,-0.483018 -0.16619,-0.386741 -0.17671,-0.383245 -0.190304,0.06328 -0.008,0.259944 -0.09685,0.421671 -0.197628,0.359377 -0.255225,-0.157741 -0.430823,0.385944 -0.430823,1.333954 0,0.745097 -0.04131,0.802005 -0.582769,0.802005 -0.320534,0 -1.909411,-0.469209 -3.530859,-1.042694 -5.978346,-2.114468 -8.22836,-2.832967 -8.447481,-2.697545 -0.123492,0.07637 -3.588168,0.118155 -7.699266,0.09295 -4.844659,-0.0297 -7.762811,0.03179 -8.293475,0.174776 -0.45031,0.121334 -1.141129,0.310771 -1.535153,0.420981 -0.394023,0.110202 -1.361169,0.246358 -2.149214,0.302571 -0.788047,0.05624 -1.785209,0.13379 -2.21592,0.172401 -0.430709,0.03861 -1.121526,-0.0069 -1.535153,-0.101694 -0.413625,-0.09453 -2.170105,-0.229821 -3.903288,-0.300637 -3.59891,-0.147034 -3.275181,-0.228931 -6.279807,1.588715 -1.401873,0.848058 -1.506756,0.970003 -3.274996,3.807776 -1.004706,1.612411 -2.425451,3.892326 -3.157207,5.066457 l -1.330466,2.134798 -5.164435,6.19e-4 -5.164433,6.12e-4 0.119989,-0.972264 z M 77.093605,15.962308 c 0,-0.04967 -0.09212,-0.147189 -0.204686,-0.216769 -0.112577,-0.06955 -0.204693,-0.02894 -0.204693,0.09026 0,0.119223 0.09213,0.216769 0.204693,0.216769 0.112579,0 0.204686,-0.04061 0.204686,-0.09026 z m 7.368737,-6.2796273 c 0,-0.273976 -0.147358,-0.384783 -0.511716,-0.384783 -0.438461,0 -0.511716,0.09311 -0.511716,0.650329 0,0.4761103 -0.178207,0.8085183 -0.665236,1.2408483 -0.36588,0.32479 -0.135606,0.205297 0.511716,-0.265545 0.711826,-0.517753 1.176952,-1.0081353 1.176952,-1.2408493 z"
       id="color-brighter"
       sodipodi:nodetypes="cscsccscssscssscssssssccscsccscssscccccsscssscscssscccsssssccsscsscsssssccsscccsssscssscsccssscccccscsssssssss" />
    <path
       style="fill:#450000;stroke-width:0.204687"
       d="m 12.525174,30.534187 c 0.06465,-0.478453 0.265378,-1.514107 0.446067,-2.301444 0.180688,-0.787344 0.345525,-1.616326 0.366305,-1.842185 0.02077,-0.225866 0.131914,-0.640936 0.246972,-0.922378 0.186041,-0.455068 0.155408,-0.518884 -0.276739,-0.576481 -0.715804,-0.09541 -0.654306,-0.809763 0.07695,-0.893903 0.40303,-0.04634 0.581465,-0.195564 0.628299,-0.525311 0.03598,-0.253305 0.15111,-0.460551 0.255857,-0.460551 0.104752,0 0.190452,-0.23027 0.190452,-0.51172 0,-0.409369 -0.102344,-0.511711 -0.511719,-0.511711 -0.375259,0 -0.511718,-0.109166 -0.511718,-0.409377 0,-0.321152 0.136459,-0.409376 0.633225,-0.409376 0.459889,0 0.662363,-0.111425 0.739675,-0.407073 0.05854,-0.223886 0.165063,-0.370851 0.236696,-0.326576 0.07164,0.04425 0.130246,-0.187038 0.130246,-0.514017 0,-0.480077 -0.08865,-0.594519 -0.460546,-0.594519 -0.447933,0 -0.540849,-0.163496 -0.476559,-0.838581 0.03512,-0.368778 -0.184201,-0.578854 -1.212111,-1.16105 -0.394023,-0.223175 -2.374373,-1.352352 -4.400774,-2.509293 -5.9664435,-3.406438 -6.4817396,-3.678557 -6.9658106,-3.678557 -0.5326808,0 -0.76189228,-0.438211 -0.5891711,-1.126393 C 1.1735484,9.6042207 1.7360065,9.3326257 4.9084719,8.1606217 6.9529763,7.4053204 9.961336,6.2840112 11.593716,5.6688283 c 1.63238,-0.615191 3.751675,-1.4089334 4.709549,-1.7638628 0.95787,-0.3549372 2.500072,-1.084972 3.427115,-1.622298 1.577947,-0.9146053 1.819533,-0.9900101 3.784968,-1.181458 2.506255,-0.24412374 6.4594,-0.22242364 6.619322,0.03636 0.06261,0.101337 0.193243,0.1351825 0.290262,0.075195 0.09702,-0.059956 0.235183,-0.013925 0.30703,0.1023421 0.07184,0.1162519 0.232027,0.1486976 0.35596,0.072102 0.146365,-0.09046 0.178094,-0.016169 0.09055,0.2119797 -0.08007,0.2086378 -0.05263,0.3004666 0.06756,0.2261912 0.111287,-0.068775 0.202342,-0.02754 0.202342,0.091704 0,0.1192228 0.331008,0.2167684 0.735568,0.2167684 0.562038,0 0.760681,0.096037 0.842019,0.4070715 0.05855,0.2238936 0.181726,0.3605537 0.273723,0.3036925 0.092,-0.056861 0.233926,0.00464 0.315387,0.1362733 0.09249,0.1496724 0.05938,0.1848181 -0.08821,0.0936 -0.140027,-0.086538 -0.236312,-0.016014 -0.236312,0.1730667 0,0.2201492 0.20629,0.324263 0.665232,0.3357358 l 0.665234,0.016633 -0.53309,0.2392345 c -0.792103,0.3554709 -1.195305,0.7472943 -1.07951,1.0490527 0.147133,0.3834219 -0.464798,1.749365 -0.782029,1.7456359 -0.194147,-0.00233 -0.183111,-0.062972 0.04073,-0.2240018 0.255349,-0.1836804 0.24392,-0.2003838 -0.06792,-0.099212 -0.206218,0.066919 -0.413464,0.1216516 -0.460545,0.1216516 -0.04707,0 -0.08561,0.092113 -0.08561,0.2046921 0,0.1125782 0.230271,0.2046848 0.511717,0.2046848 0.635338,0 0.655599,0.2832926 0.05116,0.7154381 l -0.460546,0.3292851 0.460546,0.380364 c 0.529634,0.437437 0.611071,1.03116 0.141435,1.03116 -0.175511,0 -0.269296,0.0806 -0.208405,0.179124 0.06089,0.09851 -0.256061,0.237764 -0.704328,0.309448 -0.487916,0.07802 -0.815028,0.2423143 -0.815028,0.4093533 0,0.310278 1.023824,0.581484 1.584086,0.41962 0.198244,-0.05725 0.07772,0.04618 -0.267807,0.229874 -0.345537,0.183704 -0.745137,0.521172 -0.887999,0.749932 -0.246591,0.394849 -0.223931,0.409207 0.447255,0.283292 0.388855,-0.07295 0.84186,-0.08089 1.006681,-0.01764 0.519468,0.199338 0.200321,1.33202 -0.449405,1.594981 -0.168867,0.06831 0.06112,0.104879 0.51109,0.08119 0.71664,-0.03776 0.86005,-0.13194 1.156179,-0.759478 0.185933,-0.394028 0.302368,-0.775052 0.258739,-0.846729 -0.04363,-0.07172 0.05681,-0.243311 0.223207,-0.381394 0.166389,-0.138092 0.252047,-0.332749 0.190352,-0.432571 -0.0617,-0.09982 -0.01462,-0.18149 0.104594,-0.18149 0.11922,0 0.216767,-0.117699 0.216767,-0.261546 0,-0.143848 0.182302,-0.417633 0.405118,-0.608414 0.248521,-0.2127853 0.358916,-0.4875133 0.285601,-0.7107173 -0.06573,-0.20012 0.112616,0.0032 0.396334,0.451259 0.283716,0.4483063 0.47214,0.8858273 0.41872,0.9722633 -0.05344,0.08643 -0.0072,0.157155 0.102583,0.157155 0.109843,0 0.244786,-0.115139 0.299879,-0.25586 0.06497,-0.165964 0.275181,-0.04602 0.598275,0.341345 0.478598,0.573809 0.502545,0.580207 0.611563,0.163326 0.0624,-0.238631 0.01858,-0.465502 -0.09739,-0.504152 -0.133852,-0.04464 -0.110858,-0.230385 0.06298,-0.508734 l 0.273817,-0.4384483 0.527332,0.5517913 c 0.31452,0.329122 0.690239,0.522441 0.931017,0.479058 0.600807,-0.108277 0.810197,-0.382927 0.540075,-0.708405 -0.129344,-0.1558553 -0.174566,-0.3439753 -0.100491,-0.4180493 0.07405,-0.07412 0.03721,-0.134688 -0.08192,-0.134688 -0.228645,0 -0.481807,-0.749112 -0.569748,-1.685905 -0.02892,-0.3080721 0.02085,-0.5147444 0.110602,-0.4592688 0.08976,0.055468 0.200248,-0.01029 0.245537,-0.1461821 0.132477,-0.397433 5.16612,0.3464503 7.496112,1.1077869 l 1.960544,0.640619 2.258517,-0.359084 c 1.24219,-0.197497 2.765117,-0.442186 3.384298,-0.543746 1.538686,-0.252394 4.674557,-0.7349336 6.652334,-1.0236403 0.900618,-0.1314687 1.821714,-0.3203956 2.046867,-0.4198372 0.225156,-0.099435 1.468627,-0.4584854 2.763273,-0.7978727 l 2.353904,-0.6170785 2.728203,0.6644002 2.66237,0.6482166 -0.04587,0.5748627 c -0.06142,0.3072737 -0.02267,0.6137362 0.08626,0.6810342 0.108887,0.0673 0.197978,0.437815 0.197978,0.823373 v 0.701015 l 0.665237,-0.291596 c 2.100753,-0.92081 7.622956,-2.8997085 7.737555,-2.781074 0.07444,0.077054 0.188936,1.0168463 0.227076,2.12359 l 0.06929,2.0122643 -2.353903,1.012708 c -1.294649,0.556992 -2.998673,1.318481 -3.786713,1.692202 -0.78805,0.373713 -1.870331,0.844153 -2.40508,1.045402 -0.534744,0.201256 -0.972263,0.477294 -0.972263,0.613418 0,0.13612 -0.182049,0.412248 -0.404551,0.613606 -0.2225,0.201366 -0.360088,0.438047 -0.305751,0.525963 0.05429,0.08791 0.01454,0.190743 -0.08842,0.228502 -0.102959,0.03776 -0.218671,0.252874 -0.257136,0.478029 -0.06259,0.366418 0.0697,0.420107 1.260546,0.51172 1.286498,0.09895 1.30341,0.10734 0.511718,0.253599 -0.450308,0.0832 -1.187181,0.153689 -1.637492,0.15665 -0.473533,0.0032 -0.712551,0.07287 -0.566877,0.165385 0.138524,0.088 1.082627,0.155668 2.098004,0.150385 1.015377,-0.0054 1.846153,0.05772 1.846178,0.140002 4.4e-5,0.205147 -0.621117,0.334684 -2.660901,0.554887 l -1.739841,0.187835 2.353903,-0.0807 c 1.294646,-0.0444 2.130458,-0.01237 1.857353,0.07118 -0.727249,0.222464 -0.740315,0.58686 -0.02182,0.607292 0.709419,0.0202 0.690605,0.0891 0.401998,-1.472122 -0.188129,-1.017643 -0.171134,-1.235511 0.121566,-1.558945 0.187147,-0.20679 0.473533,-0.324836 0.636437,-0.262328 0.170381,0.06538 0.270875,0.0082 0.236619,-0.135199 -0.03272,-0.136861 0.123384,-0.355408 0.346953,-0.485654 0.22357,-0.130248 0.568984,-0.412094 0.76758,-0.626332 0.198595,-0.214238 0.361087,-0.315281 0.361087,-0.224544 0,0.09075 0.17199,-0.03334 0.382207,-0.27571 0.210216,-0.242376 0.463515,-0.443245 0.562894,-0.44638 0.09937,-0.0032 0.44933,-0.279454 0.777679,-0.61406 0.32835,-0.334607 0.689056,-0.608376 0.801575,-0.608376 0.112519,0 0.350468,-0.142277 0.528778,-0.316178 0.178312,-0.173895 0.899884,-0.735598 1.603501,-1.248214 1.370186,-0.998272 1.696929,-1.7106003 0.784623,-1.7106003 -0.272056,0 -0.536092,0.115139 -0.586722,0.25586 -0.131206,0.364592 -0.412185,-1.964717 -0.293039,-2.4292394 0.05432,-0.2118628 0.109502,-0.039763 0.122559,0.3823697 0.02209,0.7145167 0.06696,0.7675717 0.649892,0.7675717 0.344373,0 0.577482,-0.07871 0.518025,-0.174931 -0.05948,-0.09622 0.116413,-0.3858675 0.390835,-0.6436764 l 0.498949,-0.4687361 2.394582,0.3881482 c 1.429522,0.231716 2.42892,0.4911263 2.479763,0.6436693 0.0576,0.172557 -0.152996,0.255526 -0.648286,0.255526 -0.490466,0 -0.733459,0.09447 -0.733459,0.285134 0,0.381782 0.437619,0.527113 1.705411,0.566375 0.738554,0.0229 0.857071,0.05772 0.392632,0.115307 -0.365882,0.04541 -0.665231,0.196563 -0.665231,0.335892 0,0.148357 -0.751022,0.4398503 -1.812394,0.7034383 -2.042877,0.507348 -2.622139,0.553517 -2.734003,0.217936 -0.09221,-0.276661 -2.936347,1.747494 -3.117055,2.218381 -0.103219,0.268987 -0.07169,0.279818 0.18768,0.06452 0.177588,-0.147383 0.311717,-0.169261 0.311717,-0.05084 0,0.240046 -0.482017,0.456335 -1.016959,0.456335 -1.475491,0.733911 -2.223824,1.433048 -3.511537,2.085721 -0.594196,0.333948 -0.762989,0.543328 -0.6982,0.866029 0.04696,0.234073 0.193892,1.049935 0.326421,1.813019 0.166699,0.959769 0.355534,1.448728 0.612623,1.586325 0.529782,0.283524 0.807938,0.246296 0.807938,-0.108137 0,-0.168866 -0.130842,-0.307027 -0.290767,-0.307027 -0.29409,0 -0.409329,-0.370418 -0.639373,-2.055078 l -0.126889,-0.929295 0.797317,0.03102 c 0.433857,-0.01865 0.629909,0.07388 0.460092,0.153696 -0.168878,0.07938 -0.314242,0.189954 -0.328314,0.377611 -0.02074,0.276787 0.11445,0.322553 0.716404,0.242476 0.657603,-0.08748 0.695442,-0.06955 0.332623,0.157277 -1.099366,0.687424 -1.015398,0.794214 0.624509,0.794214 1.37664,0 1.542764,0.03861 1.320021,0.307028 -0.140146,0.168871 -0.496837,0.317934 -0.792635,0.331247 -0.526629,0.02376 -0.525039,0.02747 0.07626,0.180472 0.504691,0.128428 0.403752,0.160565 -0.566797,0.180469 -1.130235,0.02322 -1.175706,0.04472 -1.06097,0.501826 0.07995,0.318523 0.03009,0.478677 -0.149619,0.480827 -0.148216,0.0014 -0.559879,0.06854 -0.914793,0.148342 -0.53362,0.120005 -0.701884,0.06428 -0.972263,-0.321688 -0.272887,-0.412517 -0.384536,-0.141626 -0.531649,-0.478058 -0.166188,-0.386741 -0.17671,-0.383243 -0.190302,0.06328 -0.008,0.259945 -0.09685,0.42167 -0.197629,0.359379 -0.255225,-0.157741 -0.430824,0.385943 -0.430824,1.333954 0,0.745096 -0.0413,0.802004 -0.582768,0.802004 -0.320534,0 -1.909411,-0.469208 -3.530859,-1.042693 -5.978346,-2.114468 -8.228359,-2.832968 -8.447482,-2.697546 -0.123492,0.07636 -3.588167,0.118155 -7.699263,0.09295 -4.844667,-0.0297 -7.762818,0.03179 -8.293481,0.174777 -0.450313,0.121334 -1.141131,0.310771 -1.535153,0.420979 -0.394023,0.110204 -1.361169,0.246361 -2.149216,0.302572 -0.788046,0.05624 -1.785209,0.133791 -2.215919,0.172403 -0.430708,0.03861 -1.121528,-0.0076 -1.535152,-0.102906 -1.279198,-0.294439 -7.336999,-0.460769 -7.494592,-0.205776 -0.629528,0.370774 -1.351517,0.657809 -1.891012,1.011873 -0.655284,0.433158 -1.405642,0.900673 -1.667464,1.038926 -0.455275,0.240403 -0.465079,0.230895 -0.224797,-0.218076 0.138183,-0.258204 0.559646,-0.951568 0.936585,-1.54082 0.629084,-0.983419 0.832429,-1.500399 0.590154,-1.500399 -0.05237,0 -0.535637,0.149533 -1.073956,0.332294 -0.538319,0.182767 -1.50794,0.34396 -2.154711,0.358201 -0.646768,0.01423 -1.177256,0.07195 -1.178864,0.128252 -0.0015,0.05631 -0.449922,0.111061 -0.996256,0.121713 -0.874478,0.01702 -2.069855,0.516949 -1.920933,0.80332 0.02814,0.05415 0.04048,0.397757 0.02744,0.763634 -0.01306,0.365876 -0.06224,0.522905 -0.10928,0.34894 -0.06219,-0.229958 -0.279184,-0.29368 -0.795006,-0.233463 -0.897327,0.104753 -0.931057,0.446967 -0.04423,0.448762 l 0.665232,0.0014 -0.575187,0.379254 -0.57519,0.379243 0.779877,0.12887 c 0.428932,0.07086 1.931242,0.140567 3.338464,0.154861 1.407224,0.01431 2.396271,0.06831 2.197882,0.120092 -0.198391,0.05176 -0.322517,0.156201 -0.275841,0.232115 0.07554,0.12286 -1.090709,0.179102 -4.78766,0.230872 -0.805729,0.0113 -1.038494,0.07218 -0.818748,0.214178 0.264598,0.171002 0.259193,0.198851 -0.0391,0.201558 -0.190368,0.0014 -0.402399,0.0942 -0.471179,0.205474 -0.06879,0.111293 -0.0018,0.155081 0.148669,0.0973 0.168938,-0.06483 0.285802,0.05531 0.305273,0.313796 0.01843,0.244595 -0.05742,0.363857 -0.182305,0.286673 -0.402814,-0.24896 -1.562101,-0.314036 -1.697297,-0.09528 -0.08718,0.141061 0.15477,0.218594 0.682172,0.218594 0.779581,0 0.812573,0.02592 0.715344,0.562112 -0.05606,0.309154 -0.23418,0.636119 -0.39582,0.726571 -0.161639,0.09045 -0.293889,0.257446 -0.293889,0.371066 0,0.113629 0.09212,0.149672 0.204687,0.08009 0.174797,-0.108027 0.279269,0.114923 0.243408,0.519449 -0.01051,0.118866 0.718277,0.236806 1.70112,0.275271 0.337733,0.01322 0.741697,0.145091 0.897696,0.293054 0.186437,0.176819 0.352815,0.199841 0.48549,0.06716 0.111019,-0.111023 0.336515,-0.150176 0.501101,-0.08702 0.16459,0.06313 0.172009,0.139429 0.106697,0.230817 -0.06805,0.09522 -0.749023,1.124248 -1.478902,2.334463 l -1.327057,2.200384 h -5.172654 -5.172658 l 0.117544,-0.869919 z m 8.688841,-4.086125 c 0,-0.08862 -0.235709,-0.16113 -0.523798,-0.16113 -0.288089,0 -0.470494,0.08625 -0.405344,0.191657 0.140691,0.227646 0.929142,0.201736 0.929142,-0.03056 z m 0.344513,-0.404203 c -0.06534,-0.163278 -0.113845,-0.11478 -0.123666,0.123673 -0.009,0.21577 0.03949,0.336665 0.107506,0.268647 0.06802,-0.068 0.0753,-0.244557 0.01614,-0.39232 z m -6.894501,-2.508122 c 0,-0.04967 -0.09212,-0.147191 -0.204687,-0.216769 -0.112578,-0.06955 -0.204688,-0.02894 -0.204688,0.09026 0,0.119223 0.09212,0.216768 0.204688,0.216768 0.112577,0 0.204687,-0.04063 0.204687,-0.09025 z m 56.02884,-4.741211 c -0.068,-0.068 -0.244558,-0.07528 -0.392318,-0.01618 -0.163281,0.06538 -0.114783,0.113839 0.123669,0.123663 0.215771,0.009 0.336665,-0.03954 0.268649,-0.10751 z m -2.605501,-0.695083 c 0,-0.112578 -0.09212,-0.204685 -0.204685,-0.204685 -0.112577,0 -0.204684,0.09212 -0.204684,0.204685 0,0.112577 0.09212,0.204692 0.204684,0.204692 0.112578,0 0.204685,-0.09212 0.204685,-0.204692 z M 32.881182,15.233828 c 0.252627,-0.163264 0.23449,-0.194682 -0.102343,-0.177338 -0.225157,0.0116 -0.685702,0.09139 -1.023436,0.177338 l -0.614061,0.156248 0.716405,0.02112 c 0.394022,0.0116 0.854568,-0.06824 1.023435,-0.177329 z M 32.583725,14.43057 c -0.06432,-0.104063 0.04539,-0.231538 0.243779,-0.283293 0.215074,-0.0561 0.123325,-0.103666 -0.227244,-0.11783 -0.500469,-0.0202 -0.550038,0.02196 -0.333138,0.283285 0.279266,0.336494 0.503269,0.419867 0.316603,0.117838 z m 39.597387,-0.220181 c 0,-0.112577 -0.138161,-0.204685 -0.307028,-0.204685 -0.168866,0 -0.307034,0.09212 -0.307034,0.204685 0,0.112577 0.138168,0.204685 0.307034,0.204685 0.168867,0 0.307028,-0.09212 0.307028,-0.204685 z M 74.346987,12.3508 c 0.0092,-0.49703 -0.05639,-1.133958 -0.145689,-1.415402 -0.123502,-0.389309 -0.15197,-0.286897 -0.118999,0.42809 0.03482,0.754311 -0.01826,0.923689 -0.268709,0.858117 -0.171636,-0.04494 -0.566839,0.05051 -0.878246,0.212049 -0.456591,0.236883 -0.501901,0.318406 -0.234097,0.421175 0.182651,0.07009 0.623918,0.128845 0.980589,0.130572 0.514031,0.0022 0.584833,0.04819 0.34146,0.220271 -0.272918,0.193013 -0.272918,0.207779 0,0.132971 0.210324,-0.05764 0.31228,-0.368792 0.323691,-0.987843 z m -8.441401,0.31336 c -0.144126,-0.375569 -1.120218,-0.326883 -1.247997,0.06227 -0.05663,0.172433 0.153044,0.25586 0.643026,0.25586 0.573407,0 0.70124,-0.06723 0.604971,-0.318104 z m -19.45589,-0.925164 c 0.569386,0.05926 0.566957,-0.03868 -0.0082,-0.322111 -0.365879,-0.180365 -0.665232,-0.405649 -0.665232,-0.500633 0,-0.09498 -0.129851,-0.122868 -0.288557,-0.06197 -0.158706,0.06088 -0.561519,-0.03041 -0.895142,-0.202946 -0.33362,-0.172525 -0.671992,-0.248269 -0.751937,-0.168323 -0.07995,0.07995 -0.126768,0.05322 -0.104051,-0.05934 0.08534,-0.422975 -0.01384,-0.7364543 -0.197131,-0.6231673 -0.104477,0.06461 -0.248845,-0.06815 -0.320826,-0.29495 -0.143955,-0.453566 -0.269994,-0.494962 -0.6924,-0.227413 -0.164323,0.104084 -0.215209,0.286874 -0.121889,0.437869 0.09806,0.158654 0.07755,0.20812 -0.05286,0.127524 -0.117175,-0.07241 -0.258869,0.04355 -0.31488,0.2577543 -0.07,0.267674 0.02516,0.422622 0.304356,0.495635 0.223404,0.05841 0.351882,0.194094 0.285505,0.301497 -0.184569,0.298641 0.302609,0.597444 1.157793,0.710107 0.424195,0.05584 0.884743,0.194789 1.023437,0.308681 0.400414,0.328812 1.263983,0.377187 1.385937,0.07763 0.06069,-0.149053 0.175823,-0.264192 0.255859,-0.25586 z M 29.53796,10.833047 c 0,-0.168865 -0.07677,-0.307026 -0.170576,-0.307026 -0.204422,0 -0.224908,0.286805 -0.03412,0.477602 0.189732,0.189731 0.20469,0.177261 0.204691,-0.170576 z m -1.865493,-0.289542 c -0.06364,-0.102958 9e-6,-0.233858 0.141433,-0.290874 0.141426,-0.05702 0.03862,-0.110937 -0.228473,-0.119827 -0.409043,-0.01362 -0.445433,0.03226 -0.230797,0.290874 0.278335,0.335373 0.50352,0.420271 0.317837,0.119827 z m 42.052399,-0.03938 c 0,-0.124622 0.129844,-0.176757 0.288545,-0.115857 0.297636,0.11421 1.348954,-0.9777943 1.348954,-1.4011733 0,-0.12754 -0.223668,-0.442017 -0.497034,-0.698836 -0.432609,-0.406406 -0.545381,-0.430936 -0.869922,-0.189195 -0.205087,0.152757 -0.382099,0.392881 -0.393355,0.533603 -0.04727,0.590969 -0.100613,0.665236 -0.477695,0.665236 -0.310493,0 -0.375817,0.110311 -0.303028,0.51172 0.07025,0.3872833 0.0047,0.5124783 -0.269413,0.5148533 -0.308713,0.0022 -0.316859,0.03242 -0.05515,0.20155 0.419147,0.270877 1.228123,0.256448 1.228123,-0.02189 z M 29.196814,9.9119677 c 0,-0.112578 -0.09212,-0.204685 -0.204688,-0.204685 -0.112578,0 -0.204686,0.09212 -0.204686,0.204685 0,0.1125763 0.09212,0.2046843 0.204686,0.2046843 0.112579,0 0.204688,-0.09212 0.204688,-0.2046843 z m 12.281228,-0.409378 c -0.400854,-0.259047 -0.671821,-0.259047 -0.511717,0 0.06957,0.112578 0.282258,0.203278 0.472626,0.201552 0.298284,-0.0022 0.303689,-0.03057 0.0391,-0.201552 z M 25.581135,26.180119 c 0.138848,-0.139887 0.30401,-0.202774 0.367031,-0.139756 0.06302,0.06306 -0.05057,0.177477 -0.252447,0.254345 -0.29172,0.111076 -0.315231,0.08756 -0.114584,-0.114589 z M 33.456864,10.18152 c 0.147758,-0.0591 0.324301,-0.05184 0.392318,0.01617 0.06802,0.068 -0.05288,0.116398 -0.268651,0.107509 -0.238451,-0.0099 -0.286952,-0.05832 -0.123667,-0.123663 z M 94.440851,9.1498347 c 0.365865,-0.04541 0.964583,-0.04541 1.330466,0 0.365862,0.04541 0.06654,0.08257 -0.665229,0.08257 -0.731769,0 -1.031122,-0.03713 -0.665237,-0.08257 z m 2.763278,0.0069 c 0.197001,-0.05153 0.519387,-0.05153 0.71639,0 0.197013,0.05153 0.03576,0.09361 -0.358191,0.09361 -0.394026,0 -0.555224,-0.04218 -0.358199,-0.09361 z M 34.333287,8.7861697 c -0.0071,-0.225153 0.06778,-0.536953 0.166526,-0.692884 0.143455,-0.226516 0.226571,-0.195656 0.413442,0.153517 0.188903,0.352964 0.176729,0.437026 -0.06328,0.437026 -0.163447,0 -0.343634,0.115137 -0.400415,0.255861 -0.05678,0.140721 -0.109104,0.07164 -0.116268,-0.15352 z"
       id="color-primary"
       sodipodi:nodetypes="csssccssssssscsssscscscccssccssssssscssscsscccssssccssssccsscccsccssssscssssscscccscssscscscssscccccscssccssssscsssscccssccccssscsssscssscscccscscscssccsssssscccscsssccccscsscscscccccsssscssscscccsssssccccssscccccccccccscscsssssssccscssccccccsscccscccscsssccsccssssscccccccscccsssssscscscsccccssssscssccsccssssscscssccsssssssssscsssssscccccssssssscsscsscssccsssscsscsssssss" />
    <path
       style="fill:#380000;stroke-width:0.204687"
       d="m 12.525174,30.534187 c 0.08782,-1.259447 1.3338,-6.116175 0.831919,-2.138435 1.943197,0.587372 0.747747,-2.690336 3.036298,-1.677829 1.25812,0.101817 4.509151,-0.223969 1.799447,0.558555 -0.729507,1.047613 0.05459,2.888971 1.633359,2.339344 2.480755,-1.164601 6.149507,-1.935668 3.157326,1.413103 -0.672569,0.838173 -2.202732,0.152867 -3.22198,0.375183 h -7.353911 c 0.03918,-0.289976 0.07837,-0.579944 0.117542,-0.869921 z m 1.687854,-4.600482 c -1.600307,-0.115803 0.435032,-2.420118 -0.287265,-0.431858 1.578103,0.299792 2.98132,0.311614 2.000498,-0.524299 0.992804,-1.10336 -1.653907,-1.169412 0.982523,-1.077707 1.549597,0.01322 2.504075,-0.177732 2.163215,0.544907 -0.963068,1.653784 1.387295,1.014937 2.046461,1.499672 -2.294169,0.163682 -4.611257,0.144775 -6.905432,-0.01075 z m -0.25775,-2.115411 c 1.080394,-0.771919 0.682182,0.729609 0,0 z m 8.077485,-0.379516 c -1.47616,-0.692329 -6.628901,0.359548 -6.365366,-0.573229 1.537839,0.116793 2.988274,-0.423851 0.557517,-0.507401 -2.958177,-0.752819 2.905101,-0.772484 3.864952,-0.629164 3.256076,0.05493 -0.271305,0.846735 -1.455285,0.928539 0.742375,0.216984 3.992829,0.255781 3.398182,0.781255 z M 14.45934,22.309765 c -1.579403,-1.135382 1.224948,0.0076 0,0 z m 59.563956,-1.044744 c -3.754807,-1.5304 2.568451,0.451268 2.494168,-1.417823 0.12258,-2.682963 0.576141,-3.88489 1.596554,-5.125623 1.56153,-1.898667 5.540002,-3.10427 6.232152,-5.3750633 -1.915751,0.372839 -0.848283,-1.465083 0.05742,-1.134591 0.630123,-2.071872 5.184927,-0.5865596 5.408719,-0.03272 -1.736702,0.983442 -5.033737,-0.6152984 -5.153363,0.709365 0.400142,1.6399123 5.486441,1.006689 2.243457,1.6931923 -2.293846,-0.56985 -4.175705,1.695491 -6.047429,2.904482 -3.2856,0.854695 -4.1691,4.308795 -1.988176,6.601915 -1.85221,-1.641353 -1.924845,-0.329145 -2.474233,1.674099 -0.815257,0.06885 -1.609193,-0.24974 -2.369277,-0.497205 z m 9.925878,-10.327279 c -0.211938,-0.471452 -0.854379,0.712667 0,0 z m -69.154481,9.92498 c 0.582607,-0.991634 0.04139,1.024359 0,0 z m 3.202974,0.155545 c 1.919936,-0.128939 3.34413,0.131856 0.639017,0.07327 -0.174141,0.0022 -1.393956,-0.01245 -0.639017,-0.07327 z m 11.479853,-0.40052 c 0.377372,-2.556406 3.952292,-1.248577 0.901214,-0.106813 -0.422965,0.247411 -1.666453,1.137857 -0.901214,0.106813 z M 18.553083,20.351004 c -1.341805,-0.408225 -4.034372,0.0082 -1.239006,-0.718856 2.114577,-0.804791 -0.585134,0.420764 2.199186,0.115198 1.573975,-0.125488 5.455322,0.444384 1.849287,0.398973 -1.006347,-0.247195 -1.987403,0.573206 -2.809467,0.204685 z m 52.950005,-0.09594 c -0.661748,-0.631392 1.931985,0.659032 0,0 z m 8.413132,-0.717471 c 0.262283,-0.596678 0.07134,0.840624 0,0 z M 15.399902,19.384755 c 1.19522,-0.660643 -0.543611,0.703963 0,0 z m 25.832873,-0.165964 c -2.346837,-0.595497 -4.360964,-0.348433 -6.53992,-0.778093 -2.47987,-0.148358 1.343502,0.0047 2.056598,-0.08259 1.569427,-0.506876 2.896261,-1.548277 5.051888,-1.063659 2.475629,0.659784 5.174077,-0.578203 7.6448,0.272757 4.675447,0.319156 9.409409,-0.246098 14.052936,0.360707 -2.98798,0.344919 -6.564305,0.06151 -9.772476,0.120066 -3.154514,-0.394522 -6.132982,0.431975 -9.178252,0.982947 -1.103692,0.04494 -2.211463,0.257097 -3.315574,0.187867 z m 28.850292,-0.231447 c 1.273745,-0.203052 0.01586,0.354166 0,0 z m -3.367261,-0.295513 c -1.454143,-0.516888 -3.140752,-0.968457 -0.772978,-2.027738 3.190519,-1.064626 0.433776,0.74802 -0.02297,0.9406 1.521232,-0.02151 1.496043,0.281039 1.586665,0.851654 1.481035,0.0022 3.764099,0.186064 0.952351,0.416889 -0.585245,0.02607 -1.177775,-0.01973 -1.7431,-0.181405 z m 12.599195,0.08934 c -1.98251,-1.385037 3.583957,-0.874632 2.054475,-0.673785 -1.197763,0.346358 -2.339012,0.685729 -0.38681,0.643181 2.796148,0.109319 -0.715196,0.160177 -1.667665,0.03056 z M 13.639715,17.660475 c -2.310438,-1.694486 -6.7512783,-3.407823 -8.0030411,-5.049662 4.0791654,-0.03164 -2.75892,-0.1598 -2.3327835,-1.456295 -3.98822357,0.05563 1.6605794,-0.91052 2.8313731,-0.921754 2.0431013,-0.08152 5.8678785,0.410592 4.2828475,-2.656071 C 8.8376087,7.3036969 4.5382483,8.3262527 8.3475373,6.9401273 11.242156,6.0728435 14.436743,4.3023356 17.117483,3.8770764 16.118149,4.9607564 12.461365,5.519357 13.321454,6.7121481 14.03053,6.2436205 12.358447,10.569244 12.489763,7.9803597 14.036404,5.2947284 8.5056212,10.792728 12.163406,10.377679 c 2.090774,0.733865 2.707299,0.517745 2.017067,-1.5117633 2.491778,-0.728279 -3.091428,0.148017 0.167025,-0.690991 1.998386,-0.4340313 3.170433,1.479744 4.499906,1.011331 -0.560429,1.5861093 1.614253,0.603758 2.161886,1.0200423 0.578824,0.218386 3.449334,0.293202 3.214733,0.436617 -1.654061,0.564961 -3.699071,1.744763 -4.284658,0.235615 -0.875547,0.445851 -3.972685,-0.790571 -3.049217,0.388565 0.893323,1.200033 6.66646,1.439524 3.409211,1.595075 0.818689,0.730537 2.891181,2.672573 3.504541,1.671531 -0.459425,-0.444328 4.988468,-0.615362 4.806951,-0.388141 -2.212482,-0.675975 -3.681587,1.51437 -1.038669,2.09478 1.898484,0.497522 3.878572,-0.885356 2.307015,0.778508 -4.327619,0.464591 -8.710443,0.434737 -13.060101,0.496557 -1.503881,-1.041781 -0.136425,2.249789 -3.179381,0.14507 z m 11.668042,-2.22194 c -0.884838,-0.720604 -1.1265,0.384993 0,0 z M 10.514849,15.11018 c -0.6668064,-0.225551 -0.5504754,0.380064 0,0 z m 14.485878,-0.490413 c -0.858314,-0.721255 -0.294788,0.738304 0,0 z M 9.1376788,13.906232 C 10.851702,12.5569 5.3596976,13.544324 8.703858,13.749823 8.4135422,14.209221 9.1705024,14.32788 9.1376788,13.906232 Z m 7.7041112,-0.0022 c 0.584701,-0.595416 4.165544,0.175961 1.622959,-0.81996 2.679663,-0.641617 -5.8258,-2.307432 -1.870713,-0.775501 -0.277871,-0.03404 -2.700342,2.719231 0.247754,1.595461 z m -0.804587,-3.170913 c -0.309599,-1.9035393 -2.115988,0.579095 -0.04272,0.583365 l 0.04272,-0.583372 z M 11.681815,7.3944907 c -1.717215,-0.2081577 0.05951,1.298562 0,0 z M 78.731104,17.41711 c 0.703514,-1.098626 0.455244,0.604972 0,0 z m -0.172371,-0.955205 c 0.153456,-1.131341 0.153441,1.131382 0,0 z m 0.49873,-0.242978 c 1.63855,-0.161285 -0.126788,0.330049 0,1.55e-4 z M 50.650585,15.912719 c 1.258626,-0.205272 -0.380263,0.395945 0,0 z m 6.065687,-0.04486 c -0.34265,-0.426822 -0.731868,-0.77858 0.79324,-0.445373 0.03628,0.433729 -0.195717,0.919656 -0.79324,0.445373 z M 45.162411,15.643158 c -1.00505,-0.713797 -4.736244,-0.05631 -4.707804,-0.511689 0.02025,-1.436481 -4.858838,-0.26433 -6.550178,-0.767571 0.832166,-0.408673 4.611993,0.171094 2.251748,-0.74324 2.85676,-0.229479 4.956029,-1.580459 7.486112,-0.613751 2.034042,0.220164 4.082913,0.19923 6.125582,0.258381 -1.518435,0.100358 -4.461433,0.330917 -1.169787,0.232163 1.804623,-0.0054 3.598812,-0.01848 0.789777,0.451392 -1.843203,0.247575 -3.186616,-0.182458 -1.590434,0.636303 -0.409296,0.570987 -2.757458,1.067118 -2.635016,1.058012 z m -5.855083,-1.672282 c 1.510954,-0.218971 0.470296,-0.718213 -0.67956,0.186713 0.133354,-0.015 0.812969,0.21714 0.67956,-0.186713 z m 2.839842,-0.304164 c -1.44892,-0.153308 -0.07957,0.328688 0,0 z m 15.91053,1.66942 c 1.189913,-1.823819 1.393345,1.955403 0,0 z m -29.358328,-0.03659 c 0.426958,-0.973764 2.60846,0.917607 0,0 z m 21.541837,-7.74e-4 c 1.258634,-0.205273 -0.380262,0.395948 0,0 z m 21.402129,-0.562065 c 1.579701,-0.777001 3.480897,-1.234521 2.686914,-3.31436 -0.217085,-1.306189 -0.346789,-2.5910813 1.346063,-2.7217003 2.188441,-0.504013 5.311852,-2.733332 6.914174,-2.0960852 0.351052,1.8677752 -3.077193,1.7710482 -4.542253,2.3370442 -1.263361,-1.6335994 -5.25e-4,2.5121483 -1.82146,1.5271053 1.795785,0.0047 0.91545,1.571858 1.632326,1.632533 -1.633479,1.100709 -6.81068,3.514768 -6.666368,2.903383 l 0.450586,-0.26786 z m -37.943408,0.29251 c 1.791153,-1.011965 0.580357,0.919341 0,0 z m 14.917923,0.0853 c -0.333642,-0.579373 -0.76154,-0.565872 0.354971,-0.410313 0.202114,-0.18406 -0.286894,0.827566 -0.354971,0.410313 z m 3.606268,-0.103874 c -0.507146,-0.482747 4.196683,-0.2848 1.119398,0.207647 l -0.404055,-0.02484 -0.715328,-0.182899 z m 7.487239,-0.100817 c 0.199092,-0.725786 0.127207,0.888527 0,0 z m 0.614951,0.246398 c 1.576438,-0.406948 5.244877,-0.176747 1.466902,0.05964 -0.486887,-0.013 -0.990219,0.0913 -1.466902,-0.05964 z m -3.900178,-0.323683 c -0.540883,-1.199291 2.593518,0.821568 0,0 z M 36.825304,14.682684 c 1.638549,-0.161291 -0.126783,0.330058 0,1.47e-4 z m 27.094165,-0.205226 c -3.952481,0.323815 -0.354643,-4.421427 -2.677864,-4.9346933 -4.390854,-0.191077 -8.803006,-0.05368 -13.17949,-0.474989 -2.527497,-1.3757913 2.531323,0.587513 3.506157,-0.507595 3.766067,-0.518326 7.515358,-1.2627958 11.281605,-1.702212 1.840404,1.331578 -0.08758,2.567724 2.260405,2.760495 0.773141,-1.717067 2.055997,-3.6066821 -1.14882,-3.0025619 -0.375686,-0.5147898 4.61628,-0.7044584 5.996165,-0.6006925 1.357262,0.201257 4.015607,-0.2122662 2.327901,0.9797507 -0.401719,1.4124847 1.688031,2.8864497 1.465987,2.6713357 -1.555829,-0.710818 -2.326493,3.6001983 -0.993731,3.3311403 1.227806,0.409595 -3.509933,0.342197 -4.863923,0.314927 -1.481662,-0.02491 -4.542467,-0.179218 -1.392882,0.491496 1.641044,0.356872 2.370421,0.974484 0.252092,0.338846 -0.958507,-0.366395 -1.974472,0.759503 -2.833602,0.334753 z m 4.37259,-1.699799 c -2.60372,0.550563 -2.568306,-3.6726163 -3.6844,-2.660938 -0.147157,1.161329 -2.02472,1.522146 -0.376219,2.792647 1.29231,0.04116 2.912154,0.241525 4.060619,-0.131709 z m 2.235447,-2.094825 C 72.434047,9.9144427 69.80786,5.405333 69.299375,8.0698527 c -2.646726,-2.6735711 -3.154748,3.5041003 0.118464,3.1355703 0.529195,0.503169 0.768995,-0.391939 1.109667,-0.522589 z M 69.343478,7.0898607 c -1.1117,0.081521 -0.201697,0.5817084 0,0 z m 0.483731,7.2172163 c 0.652896,-0.407745 4.999191,-1.264483 2.061628,-0.316279 -0.16861,0.09545 -4.000894,1.053724 -2.061628,0.316279 z M 53.098428,14.177224 c 1.173164,-0.488526 3.088224,0.5559 0.498172,0.12207 z m 6.528538,-0.103219 c -0.338992,-1.291466 -0.0093,-4.3023503 0.123068,-1.357023 -0.141835,0.07559 0.388775,1.947954 -0.123068,1.357023 z M 30.783139,13.861324 c 2.057029,-0.119262 0.361985,0.272625 0,0 z m -8.333026,-0.508199 c -0.394627,-1.444335 4.109165,-0.334314 5.63188,-0.675039 4.211411,0.329717 -4.339833,-0.27547 -3.762621,1.07292 -0.630974,0.06986 -1.393209,0.137889 -1.869259,-0.397881 z m 12.146405,-0.615121 c 1.537785,-0.506018 3.294478,0.315938 0,0 z m 2.378407,0.06281 c 1.757346,0.471638 1.394378,-1.558537 1.525476,-1.998976 0.81516,1.640812 1.008659,2.616882 -1.525476,1.998976 z m 10.234357,-0.637232 c 0.525213,-0.577292 3.775167,0.07257 1.004105,0.180826 L 47.62359,12.299228 Z M 79.716163,11.4097 c 1.258576,-0.20528 -0.380289,0.395986 0,0 z M 12.838003,9.8608487 c 1.029683,-1.522469 1.663072,0.7608343 0,0 z m 65.381383,-0.02917 c 2.981929,-0.977035 0.876944,0.03118 0,0 z m -66.092864,-0.09021 c 0.283326,-0.65056 0.554356,0.5421313 0,0 z m 9.292181,-0.419315 c 0.600682,-1.185179 0.440856,0.545455 0,0 z m 59.116208,-0.163986 c 1.258646,-0.205263 -0.380269,0.39594 0,0 z M 27.35463,8.2693467 c 1.834565,-0.7359926 2.829053,-0.0349 0,0 z m 16.808413,-0.279107 c -0.408584,-0.8700454 1.24607,0.342109 0,0 z M 41.068667,7.4557132 c 0.712159,-0.9194551 1.953791,0.8225755 0,0 z m 22.515585,-0.080439 c 0.871577,-0.7422882 0.494909,0.3708735 0,0 z M 13.845278,5.8182147 c 1.489902,-0.6898995 -0.537967,0.8107308 0,0 z M 67.025556,5.6783902 c 1.258566,-0.205288 -0.380265,0.3959857 0,0 z m 0.652441,-0.086738 c 1.278532,-0.9442735 3.344927,0.5991689 0,0 z M 21.528702,4.602485 c 0.682259,-0.729617 1.080316,0.771911 0,0 z M 21.756896,3.9660659 C 19.211131,3.416014 24.498656,3.818668 25.389171,3.8171208 26.75486,3.8693398 32.315328,4.1534756 28.182422,4.124341 26.040835,4.118151 23.892004,4.159154 21.756896,3.9660659 Z m 2.218455,-0.5719222 c -4.090417,-0.3445165 1.926051,-2.1090522 2.412648,-0.5641551 0.414012,0.5037277 -2.021636,0.707979 -2.412648,0.5641551 z M 18.962456,3.0621444 c 1.001506,-1.7274484 0.637023,0.8243547 0,0 z m 3.274995,-1.7574959 c 1.402322,-0.46745254 5.520709,0.079612 1.887067,0.1915021 -0.09536,-0.047345 -3.147173,0.086808 -1.887067,-0.1915021 z"
       id="color-darker"
       sodipodi:nodetypes="csssccssccscsssscssccscccccccsccccscssscssccscscccscccsccccccccccsscccccssccssssscsssssssssssssssssssscccsssssssssscsccsccsccssccccsssssssssccccssssscccssccccccsccssssssscccscsscsscccscccscsscccscscscscccscccccsscssscsccccscssccsccccccccccccccccccccssccccssssccssccsscsscsssccscs" />
  </g>
</svg>
