<?xml version="1.0" encoding="UTF-8" standalone="no"?>
<!-- Created with Inkscape (http://www.inkscape.org/) -->

<svg
   width="100mm"
   height="100mm"
   viewBox="0 0 100 100"
   version="1.1"
   id="svg2677"
   inkscape:version="1.1.1 (3bf5ae0d25, 2021-09-20)"
   sodipodi:docname="groundforce-src.svg"
   xmlns:inkscape="http://www.inkscape.org/namespaces/inkscape"
   xmlns:sodipodi="http://sodipodi.sourceforge.net/DTD/sodipodi-0.dtd"
   xmlns="http://www.w3.org/2000/svg"
   xmlns:svg="http://www.w3.org/2000/svg">
  <sodipodi:namedview
     id="namedview2679"
     pagecolor="#ffffff"
     bordercolor="#666666"
     borderopacity="1.0"
     inkscape:pageshadow="2"
     inkscape:pageopacity="0.0"
     inkscape:pagecheckerboard="0"
     inkscape:document-units="mm"
     showgrid="false"
     width="100mm"
     inkscape:zoom="1.4823793"
     inkscape:cx="145.37439"
     inkscape:cy="182.47691"
     inkscape:window-width="1920"
     inkscape:window-height="1017"
     inkscape:window-x="-8"
     inkscape:window-y="-8"
     inkscape:window-maximized="1"
     inkscape:current-layer="layer1" />
  <defs
     id="defs2674" />
  <g
     inkscape:label="Layer 1"
     inkscape:groupmode="layer"
     id="layer1">
    <path
       style="fill:#d10000;stroke-width:0.48006"
       d="m 37.508354,94.82955 c -6.186191,0.0205 -12.125192,-3.284264 -16.046224,-7.950793 -4.249442,-5.969429 -4.099338,-15.060462 1.195408,-20.386941 5.542499,-5.616586 13.605315,-7.300511 20.80705,-9.818626 4.129029,-1.451085 -1.508186,-6.563212 -2.345984,-9.149112 -4.748588,-7.791416 -9.605651,-15.516079 -14.4116,-23.272166 -1.278656,0.01814 -2.872794,0.726885 -3.972326,0.35241 -1.912754,-3.227636 -4.412858,-6.179792 -5.710864,-9.713941 1.961339,-3.72607 -1.434195,-6.6928864 -1.367694,-10.06455 2.611658,-4.28370772 6.610861,2.3148109 8.036685,4.7890176 1.489231,4.3100894 6.134262,-1.4197316 9.596507,-0.3038752 12.846677,-0.2052089 24.513144,7.6933646 37.446092,6.5763656 3.961703,-0.549273 8.878405,-3.33641 10.12376,2.370702 3.297093,6.346571 6.88933,12.532224 10.415907,18.749901 -6.462046,4.542314 -14.947074,2.598148 -21.986005,0.69116 -8.101737,-2.149956 -16.494511,-5.855596 -24.994415,-3.727685 -3.6317,0.916417 -6.489337,4.257852 -2.911194,7.384353 3.01903,4.716335 6.050356,9.538429 10.025478,13.510513 3.588005,1.137665 7.548811,1.390102 11.030989,3.092336 5.807086,2.411048 12.608639,5.709627 14.045541,12.483907 1.59507,5.054083 0.508158,10.850094 -3.346797,14.612107 C 66.293532,93.021409 55.25663,95.75375 45.112484,95.169441 42.575437,95.119001 40.040698,94.988183 37.508354,94.82955 Z M 38.65012,34.907229 c -1.541053,-3.236181 -3.472433,-6.974226 -6.181948,-9.186832 0.937386,3.265865 3.275608,6.959475 5.743214,9.510884 l 0.233895,-0.07893 z m -6.719664,-11.25592 c -2.062023,-2.438571 -3.498289,-7.795631 -6.069808,-8.430127 1.096103,2.430306 3.951856,9.088428 6.069808,8.430127 z m -6.699297,-1.680207 c -1.608392,-1.476468 -3.530355,-8.56686 -5.747049,-5.723986 0.50623,3.106532 2.581574,7.719953 6.428933,7.04369 0.462117,0.07838 -0.653854,-1.108798 -0.681884,-1.319704 z"
       id="color-brighter"
       sodipodi:nodetypes="ssssssscccsssssssssssssssssssssssss" />
    <path
       style="fill:#ab0000;stroke-width:0.48006"
       d="m 37.508354,94.82955 c -6.031894,0.0597 -11.751768,-3.146297 -15.720103,-7.533934 -4.6048,-5.938258 -4.537907,-15.358678 0.871396,-20.806759 5.434664,-5.55689 13.323878,-7.338177 20.435885,-9.74173 4.609962,-1.557971 2.300969,5.534173 3.553261,4.712159 C 47.6569,57.098321 44.28278,53.41088 42.462,49.764426 37.361587,41.470459 32.445024,33.03544 26.842076,25.069589 c -1.795038,-1.265091 -4.796446,-1.76102 -5.728714,-3.096327 -2.133161,-3.055378 -3.868998,-5.090271 -3.425524,-7.881217 1.392166,-3.541546 -4.196339,-8.8445475 0.04795,-10.5670481 1.289402,0.4667181 -0.498329,3.6225951 2.37314,3.2667006 1.663839,-2.2469715 3.000725,3.6062465 4.215798,4.9723085 1.312688,0.711335 3.396219,-1.372232 5.209794,-1.728489 10.776009,-2.1168415 20.645263,3.378468 30.991393,5.209651 5.022103,1.096205 10.223626,1.037728 15.233464,-0.337242 1.735606,-0.476353 1.766052,0.187717 1.028196,0.684664 -2.025583,1.364228 -6.790126,0.969977 -3.651228,4.254103 3.140915,5.027504 6.567784,9.878337 9.862978,14.830452 1.546031,2.323413 5.449802,4.820516 -4.103719,4.906828 -9.77704,0.08837 -18.649141,-5.764675 -28.433431,-6.209367 -3.699171,-0.570573 -8.686835,2.673846 -10.046117,-2.626254 -2.217694,-2.516173 -2.501216,-7.5188 -6.268119,-7.938018 1.371209,4.401409 3.781912,8.404973 6.019272,12.395709 0.56013,3.279673 -3.43297,1.877323 -1.657421,-0.375272 -1.095444,-3.302227 -3.600613,-6.557079 -5.367954,-9.297131 -2.877049,-0.578667 -1.972701,1.86377 -0.262184,2.411121 -0.274882,1.492452 2.500546,4.606633 3.700932,6.868048 1.847821,3.002486 3.645841,6.403706 5.606883,9.482109 3.036195,5.023655 6.198675,10.003966 9.466871,14.855091 0.491924,2.007652 -0.294873,5.706052 2.27408,5.103708 0.174909,2.974146 1.785549,1.53422 2.758745,3.610855 1.230386,-1.151418 2.753917,-2.948654 0.878433,-4.241595 -1.905328,-2.616656 -3.934774,-5.152388 -5.655443,-7.895725 3.372022,-0.8241 7.177472,1.188994 10.499889,2.215293 1.79237,0.376831 7.430996,4.082144 3.074817,3.034275 1.758838,2.806822 1.404625,6.521297 0.1008,9.611239 -0.807032,1.508183 -0.923562,2.807747 0.836333,3.571156 1.446762,3.528356 -3.83603,6.432611 -5.180833,8.727156 1.582484,0.447613 1.624889,2.556961 3.967263,0.848558 2.955655,-1.678483 1.835697,6.129098 3.983117,2.000031 -2.127499,0.409547 3.415217,-0.999371 2.659652,-3.249174 3.423583,-1.52248 4.506233,-5.478652 5.294628,-8.78594 0.237549,4.160201 -0.913288,8.444235 -4.035805,11.382565 C 66.38717,92.885801 55.59826,95.684948 45.625414,95.178296 42.91717,95.136926 40.211122,94.99867 37.508345,94.82955 Z M 31.519036,24.548584 c 0.282974,-3.036435 2.470444,2.313016 1.898712,-1.382718 0.970717,-4.207485 -0.1789,-8.403619 -2.528208,-12.04287 -1.979118,-0.04246 -6.853793,1.65711 -7.200412,3.221849 1.760622,3.536545 5.010577,6.516008 6.246211,10.04721 0.210078,1.050684 1.066703,0.895807 1.583697,0.156584 z m -6.111161,-2.337438 c -1.806344,-1.694468 -3.156351,-7.929605 -5.802598,-6.33395 -1.045928,2.761488 1.983362,6.212023 4.3066,7.352047 0.797497,0.06622 2.742984,0.345371 1.495998,-1.018097 z m 43.549248,41.893336 c 0.382667,-0.869606 -1.51682,-2.215963 0.688875,-0.756352 0.689008,0.574258 -0.09191,1.52455 -0.688875,0.756352 z"
       id="color-primary"
       sodipodi:nodetypes="ssssssssssssscssssssssscssssssccssssssssssssssssssssssssscsc" />
    <path
       style="fill:#940000;stroke-width:0.48006"
       d="m 37.463211,94.795493 c -5.686506,0.05823 -11.033961,-2.814551 -14.949167,-6.77916 -2.8741,-2.875462 -3.881031,-6.828132 -4.028884,-10.727495 1.925054,-0.77308 1.119014,3.466139 1.260974,4.089748 0.533333,0.651026 2.398957,4.804096 4.646071,5.142318 1.548832,3.031227 6.132887,4.18651 9.393647,5.181818 7.632996,0.565204 15.413419,1.161596 23.002174,-0.15368 3.793464,-0.579847 7.106077,-2.718497 10.677317,-3.854076 0.135808,1.451284 4.009278,-3.353048 0.768267,-0.560903 0.762006,-1.026769 2.066341,-2.617346 1.821876,-1.029854 1.64137,-0.178173 5.678687,-5.261125 3.471562,-1.470717 -6.903919,8.115885 -18.085177,11.169701 -28.429539,10.559898 -2.547772,-0.06424 -5.092502,-0.216185 -7.634298,-0.397969 z m 4.958638,-5.170188 c -1.483832,-1.294627 -3.67699,-0.139708 -5.866264,-1.937996 1.655489,-3.039736 -4.441898,-4.281494 -6.1171,-3.341162 -0.53526,-1.572759 -5.073446,-2.458931 -2.051273,-0.807318 2.969311,1.058484 -0.867156,2.804137 -1.807462,0.465212 -2.67112,-2.070158 -4.076517,-5.026723 -4.532182,-8.223278 -2.091676,0.64667 0.147542,-3.718776 0.282093,-5.203573 2.088314,-4.096696 -2.710348,0.789483 -2.280589,2.639372 -1.125174,1.228077 -0.873524,4.926115 -1.384493,1.430382 0.898225,-4.938832 4.583118,-9.079856 8.694681,-11.752485 3.93195,-2.036791 8.179732,-3.513532 12.464157,-4.510598 2.139433,-2.003934 7.264703,-2.304705 6.037116,2.118655 -0.08384,2.032547 -0.220019,4.062515 -0.330025,6.093773 1.773562,-0.848377 3.777345,-3.193327 5.739915,-1.876235 0.854718,1.756447 2.033656,6.303189 4.000144,3.546263 -0.944152,1.863133 -4.144146,2.330977 -5.344419,3.200402 -2.689932,-1.325093 -7.895337,-0.344863 -9.154952,-4.606382 -0.559323,-2.637102 1.72066,-3.935795 1.068343,-6.33505 1.531233,-2.740233 -1.050914,1.555848 -1.754026,1.570291 -1.523978,-1.442212 -2.904141,-3.185524 -4.146703,-0.495294 -1.487808,-2.138089 -3.279965,3.708578 -1.592598,3.033768 -2.426565,2.194517 -0.71266,-5.003662 -4.248831,-2.187006 -2.829708,1.636934 -4.858147,4.118942 -5.130348,7.552766 -0.288588,1.57138 0.45701,3.245527 -1.038837,2.828759 -0.342498,2.998132 0.294061,6.102607 2.08704,8.070559 1.281483,3.028144 0.304157,-2.802902 2.253018,-0.897311 3.237377,3.02163 7.337385,5.208163 11.858727,5.206112 2.405495,0.115757 4.815099,0.08854 7.222591,0.132633 -2.56032,0.36435 -5.120638,0.728718 -7.680958,1.093067 4.158981,0.640248 8.320732,1.81235 12.550522,1.489514 2.450284,-1.341839 7.7933,-3.740277 9.263873,-1.743275 0.352826,1.663459 -5.297876,1.667215 -7.185231,2.257947 -3.81837,0.388427 -7.530233,1.718618 -11.465372,1.23225 l -0.410568,-0.04409 z m -11.29042,-3.007022 c -3.67474,-2.726064 1.543481,-0.749601 2.41244,0.927105 -0.86487,-0.0254 -1.640846,-0.595234 -2.41244,-0.927105 z m 16.937589,-2.239315 c 1.671932,-0.541689 6.29162,-0.133539 6.175871,0.21 -2.043832,0.03793 -4.187707,0.302024 -6.175871,-0.21 z m 8.521719,-0.437959 c 1.905017,-0.406336 1.609425,0.755715 0,0 z m 2.400302,-0.480054 c 1.904452,-0.406426 1.610072,0.755734 0,0 z M 42.116968,79.626111 c -2.116924,-0.927049 -4.682608,-0.910501 -3.613667,-3.375636 -2.355858,-3.260586 2.94335,1.555702 4.70195,1.353325 3.466827,0.389841 6.313496,2.943845 9.893419,2.246808 1.673357,0.189659 6.576535,-1.028657 5.819928,-0.364115 -4.407471,1.216954 -9.225017,1.095336 -13.688668,0.170735 -1.365784,-0.19532 -5.848161,-2.466567 -5.299668,-1.294175 1.527687,-0.151139 5.844299,3.133432 2.186706,1.263094 z m -6.368835,-5.760846 c 0.339109,-1.175496 2.242145,1.589106 0.188024,0.446686 z m 41.098636,1.098728 c 0.513986,-1.81939 0.246919,2.144802 0,0 z M 34.367737,73.66499 c -2.211728,0.871947 -2.53653,-3.278765 0.0027,-2.360642 0.5148,0.201162 1.213823,4.140642 -0.0027,2.360642 z m 0.100233,-1.121662 c -1.835555,-2.263464 -0.637438,2.514597 0,0 z m 31.665143,-7.726731 c -0.457547,-1.42864 -1.864881,-5.205422 -0.07083,-1.840345 0.763561,0.724616 0.701016,5.024291 0.07083,1.840345 z M 34.767148,63.712609 c -0.484101,-1.382737 2.398313,-1.501852 0.580927,-0.09634 0.470799,0.256174 -0.137925,1.226081 -0.580927,0.09634 z m 6.232059,-1.51575 c 0.794233,-2.222822 0.482777,2.849315 0,0 z M 51.021953,60.876338 C 47.493831,53.432545 42.670085,46.673088 38.547387,39.54705 c -1.019501,-2.244576 -4.647115,-6.640142 -4.40614,-7.544565 6.14,8.745444 11.203089,18.193387 17.105661,27.088428 0.261571,0.183382 -0.06766,3.479621 -0.224955,1.785425 z m 2.132488,-3.740713 c -1.644906,-3.538987 3.170793,3.101917 0.34156,0.465993 z m 4.871123,0.642625 c -1.288182,-1.691856 3.540005,0.308139 3.50961,0.513839 -1.17495,-0.08763 -2.41054,-0.03121 -3.50961,-0.513839 z M 75.673114,39.125329 C 67.066127,37.226976 58.778218,33.651992 49.937498,32.955262 45.393229,34.701895 44.807667,29.683735 42.82102,26.976214 39.406317,21.626983 36.491773,15.986513 33.628413,10.329778 c 9.07914,-0.4786038 17.387894,3.80583 26.06403,5.710895 3.633345,0.931151 7.611924,2.777474 8.481793,6.819121 2.057339,4.420097 3.525743,9.131404 5.76866,13.445867 0.724897,2.510548 3.970839,1.845952 5.097171,3.134738 -1.10947,0.268259 -2.268243,-0.156582 -3.366953,-0.31507 z m -36.95361,-2.35736 c 0.2435,-4.240452 2.129925,0.344518 0.28091,0.885064 -0.09364,-0.29502 -0.187274,-0.590042 -0.28091,-0.885064 z M 32.890776,30.372481 C 31.92279,28.863428 30.647031,26.4037 32.662324,29.234853 c 0.51042,0.442515 1.398876,2.673555 0.228455,1.137628 z m -3.211178,-5.04062 c -0.721531,-0.996832 -2.498163,-4.233486 -0.440808,-1.472259 1.179642,1.254277 3.030137,5.369626 0.440808,1.472259 z m 1.882794,-0.329748 c 2.308427,-1.734714 0.458372,2.03483 0,0 z m -6.477471,-6.991176 c -1.281558,-1.739254 -3.219329,-5.651627 -0.726836,-1.858261 0.825112,1.486964 3.53473,4.967019 3.107473,5.395707 -0.848083,-1.141094 -1.613565,-2.341192 -2.380637,-3.537446 z M 16.705745,8.0896827 c -1.138806,-2.1198732 4.805344,-0.9014305 1.004494,0.2857138 l -0.542204,-0.01633 z"
       id="color-darker"
       sodipodi:nodetypes="ssssssscscsssssssssssssssssssscsssssssssscsscsssssssssssssssssscsssssssssssssssssscssssssssssssssssscsssssssscsscscsssscscccssc" />
  </g>
</svg>
