<?xml version="1.0" encoding="UTF-8" standalone="no"?>
<!-- Created with Inkscape (http://www.inkscape.org/) -->

<svg
   width="100mm"
   height="100mm"
   viewBox="0 0 100 100"
   version="1.1"
   id="svg6841"
   inkscape:version="1.1.1 (3bf5ae0d25, 2021-09-20)"
   sodipodi:docname="mech-src.svg"
   xmlns:inkscape="http://www.inkscape.org/namespaces/inkscape"
   xmlns:sodipodi="http://sodipodi.sourceforge.net/DTD/sodipodi-0.dtd"
   xmlns="http://www.w3.org/2000/svg"
   xmlns:svg="http://www.w3.org/2000/svg">
  <sodipodi:namedview
     id="namedview6843"
     pagecolor="#ffffff"
     bordercolor="#666666"
     borderopacity="1.0"
     inkscape:pageshadow="2"
     inkscape:pageopacity="0.0"
     inkscape:pagecheckerboard="0"
     inkscape:document-units="mm"
     showgrid="false"
     width="100mm"
     inkscape:zoom="1.4823793"
     inkscape:cx="128.50962"
     inkscape:cy="201.36546"
     inkscape:window-width="1920"
     inkscape:window-height="1017"
     inkscape:window-x="-8"
     inkscape:window-y="-8"
     inkscape:window-maximized="1"
     inkscape:current-layer="layer1" />
  <defs
     id="defs6838" />
  <g
     inkscape:label="Layer 1"
     inkscape:groupmode="layer"
     id="layer1">
    <path
       style="fill:#d40000;stroke-width:0.830376"
       d="m 38.538016,96.094499 c -2.827363,-2.698203 -2.968817,-7.096805 -5.8093,-9.897821 -2.274192,-4.347758 -7.122036,-4.916851 -10.896163,-7.327416 -3.492679,-2.116679 -4.209488,-8.660647 -1.415172,-11.423093 0.95221,-2.474335 7.113171,-1.592128 6.410918,-3.486167 -2.958248,-2.626489 1.082621,-5.098157 1.003085,-7.143031 -2.528386,-3.723597 -6.910364,-5.343285 -10.718475,-7.420637 0.135664,-3.041301 -0.354878,-6.175077 0.430745,-9.135008 1.328694,-2.620371 11.14665,-4.296114 5.415497,-7.044376 -4.622667,-0.620268 -6.723451,-7.643339 -1.694364,-9.241746 3.3509,-2.534379 -0.499299,-8.430648 3.376285,-11.302235 0.141241,-2.8632293 0.728456,-5.0758971 2.021157,-6.9211042 0.898481,-3.8855725 6.845149,-1.985462 9.894599,-3.1109655 3.184118,-0.2297816 8.451989,-2.48044881 7.963979,2.6557382 2.028854,2.9724222 6.841527,4.2839522 6.478442,8.6140875 -0.497416,2.26541 1.638202,1.514368 3.109849,1.523965 5.291991,-0.102718 10.576673,-0.556312 15.743931,-1.696935 3.904207,-0.270849 10.119519,-0.288642 11.597591,3.510532 0.772569,4.426615 -4.648779,5.10368 -8.040021,5.343089 -2.987914,0.07859 -5.977545,0.04672 -8.966278,0.07164 4.526597,3.757925 10.488549,7.611466 10.524789,14.151723 0.895887,3.428671 -4.202586,8.874656 0.557658,9.696667 3.065327,3.756491 -2.419637,6.295669 -5.433527,6.632857 -2.700125,-0.329307 -3.145048,1.477413 -0.173683,1.06557 0.825636,3.34174 -7.775983,0.571555 -10.370885,2.502054 -0.274183,4.863497 7.432213,0.899726 10.374664,1.651316 6.319913,-0.30223 12.71109,-1.023632 19.017079,-0.349686 2.053702,0.78395 7.517223,-0.698174 5.310859,3.267415 -4.058288,0.488436 -7.812783,2.247774 -12.016009,2.34723 -4.334125,0.636948 -8.684648,0.63563 -13.026555,0.314853 -5.894385,0.283399 -12.272409,0.551233 -17.231203,4.248113 -4.507946,1.97988 -9.624243,1.76866 -13.955657,4.165071 -6.05405,-0.333302 1.898869,2.845958 3.886975,3.0777 4.571278,-0.04959 8.398784,2.399009 12.472248,4.084787 3.342806,1.174903 10.477107,2.794301 7.51076,7.597696 3.517977,3.518742 -0.625191,6.301588 -4.036839,7.067551 -2.795994,2.258384 -9.891038,5.819657 -10.961087,0.209345 -0.280263,-0.829926 -1.142604,-4.865253 -0.989647,-3.376598 l 0.706615,6.324523 c -2.727063,-0.0189 -5.64139,0.244176 -8.072855,-1.246708 z M 55.957384,50.807118 c -2.569802,-4.619948 0.75623,5.356436 0,0 z m -4.383865,-8.637004 c -1.99201,-3.051606 -2.331246,1.613243 0,0 z"
       id="color-brighter"
       sodipodi:nodetypes="sccccccccccccccccccccccccccccccccccccccsscccc" />
    <path
       style="fill:#ab0000;stroke-width:0.830376"
       d="m 38.538016,96.094499 c -2.827363,-2.698203 -2.968817,-7.096805 -5.8093,-9.897821 -2.27752,-4.351368 -7.128886,-4.919235 -10.910917,-7.326629 -3.354285,-2.319422 -3.74924,-9.544151 -0.630762,-12.055297 1.726084,-1.979785 8.378597,-0.731695 4.868396,-4.194767 -1.445374,-3.41809 4.634247,-5.227929 0.06931,-7.833755 -2.611353,-2.31062 -5.829914,-3.700165 -8.876682,-5.318453 0.16913,-3.198282 -0.674002,-6.623943 0.596928,-9.623231 2.186212,-2.534686 7.607783,-4.673493 6.533764,0.78919 1.440357,-2.415603 0.977547,-7.716608 -3.417199,-8.388638 -4.659864,-1.690779 -1.99788,-8.016072 1.715606,-8.899664 0.88108,-4.203278 0.783325,-8.580114 2.307376,-12.61412 -0.25865,-3.0900089 1.981939,-4.0070272 2.720833,-6.6533756 4.89198,-1.1620152 9.720554,-1.3721619 14.694148,-2.1765106 3.033999,-0.1422227 0.945283,4.642976 3.825854,5.5737927 0.313154,4.3857065 4.202958,8.9696125 8.940446,8.1589495 4.958306,-0.136132 9.848927,-0.972392 14.697352,-1.904686 3.900663,-0.25434 10.112196,-0.279521 11.587462,3.518828 0.747243,4.59575 -5.011067,5.177338 -8.514034,5.343144 -3.442093,0.219453 -8.192612,-0.929066 -10.027655,2.886044 -1.503127,2.211355 0.65157,-2.79461 -0.281888,-3.351462 -3.551592,4.08332 1.489479,8.616081 3.857586,11.880976 1.031498,2.20449 -7.114227,-0.17897 -5.463001,-2.969288 -1.499998,-3.021825 -3.716253,-0.358423 -2.621424,1.988385 -1.290349,5.69917 -2.552762,-5.354868 -4.193669,-0.146278 -1.62929,3.890198 1.61651,8.831314 5.670727,5.923327 1.592839,-0.791219 3.058308,-2.174538 3.058308,-2.174538 3.827373,0.431156 5.353505,2.253791 8.560777,4.267472 1.902607,1.514576 2.507673,1.783661 1.066596,4.542276 -0.584074,2.137409 1.759543,-1.101887 3.767887,2.744958 0.148103,3.468315 -4.656637,5.22661 -7.8927,5.067201 -5.181035,0.701923 4.202051,0.946333 0.316003,2.48591 -2.780517,0.932369 -12.077837,-1.72818 -8.537939,3.240403 7.205539,-0.134637 14.404757,-1.21043 21.636234,-1.197718 3.973029,-0.493769 7.80587,0.730059 11.740022,0.578037 3.71686,2.803554 -2.164174,3.442164 -4.169758,3.999673 -5.253044,1.401687 -10.805417,1.737466 -16.234952,1.850075 -5.329427,-0.584097 -10.832103,-0.08163 -16.059539,1.076036 -3.038057,0.01251 -8.395119,7.235872 -7.969591,0.644322 -0.931765,-3.647668 1.002437,-9.344138 -2.201572,-11.649229 -1.032998,2.523651 2.113535,10.289379 -2.196757,9.757009 -5.460661,-1.277749 4.964543,1.804909 1.72878,4.854175 -2.834699,1.120449 -5.391636,2.484537 -8.467231,3.467022 -1.831173,-0.287793 -4.095482,0.508613 -4.202356,2.340135 -2.791067,-2.687872 -5.531529,-1.543037 -4.082054,2.351438 0.633272,3.406138 1.177517,0.626494 1.299778,-1.068793 2.348709,1.828702 3.714969,1.107552 4.601239,3.674754 2.325091,1.55412 7.474077,7.291043 9.270988,3.334772 -1.170409,-3.420635 -9.702133,-3.521507 -6.689899,-8.067363 3.777561,-0.794178 3.712325,7.002747 7.17132,4.295945 0.152031,-1.244449 -5.001789,-3.76398 -2.034584,-3.465577 2.869135,-0.255768 6.92311,0.414019 4.238998,3.834092 -1.369553,3.698826 -0.912814,8.308236 4.079104,7.981023 3.62317,-0.751657 0.481791,-7.118742 -0.186221,-8.82429 3.046335,1.187772 8.530449,1.71424 9.073384,5.163969 4.26936,-0.994752 0.958345,5.346343 -1.944059,2.634555 -1.598178,-0.70599 -3.858236,-0.769569 -1.79518,0.731254 -0.703194,1.610544 -0.511209,6.864968 0.850342,3.217895 0.892385,-0.625114 4.754587,-0.07345 5.468088,-0.792078 -0.141476,4.341202 -6.546952,3.92467 -9.143831,6.81971 -3.563972,2.112823 -7.834596,0.534942 -7.305693,-4.002249 -2.217165,-3.371613 -0.409413,2.573072 -0.301319,3.993403 -2.036095,1.398669 -5.784296,0.641959 -7.851878,-0.41434 z m 17.187379,-33.21399 c -3.074788,-4.797465 -3.100987,4.691731 0,0 z M 55.769555,52.1129 c 3.441449,-3.521694 -4.356451,-5.305924 -5.234002,-7.124695 2.957913,2.331033 -1.091562,6.577698 -1.921864,1.907563 0.362505,-2.192314 -2.932285,-6.793762 -2.727173,-2.205485 -0.142837,4.332038 2.510571,7.887473 5.56348,10.65833 1.656947,1.31266 3.362678,6.185293 3.163067,1.514805 0.283969,-1.433813 -0.08036,-3.848023 1.156492,-4.750518 z M 22.006329,47.865822 c 1.818266,-4.701421 -4.682692,1.969073 -0.573115,0.930124 l 0.309007,-0.393095 0.264148,-0.537037 z m 3.562402,-3.824474 c -1.433313,-0.69954 0.604085,3.718867 5e-6,0 z m 12.594661,-6.601912 c -0.223863,-1.642196 -3.183068,-6.215189 -1.904208,-1.886708 0.354088,1.717298 1.421291,9.81784 2.385744,4.287375 -0.03954,-0.818687 -0.224312,-1.624694 -0.481536,-2.400667 z m 13.410127,4.730678 c -1.99201,-3.051606 -2.331246,1.613243 0,0 z M 30.814118,31.039728 c -0.201585,-2.164039 -5.324635,-4.455048 -2.187599,-1.102382 -0.174463,1.529628 0.681841,2.779548 2.187599,1.102382 z M 52.075202,20.34104 c -2.51574,-1.206569 0.31939,4.659216 0.251616,0.662555 l -0.251616,-0.662451 z m 18.333827,-3.702091 c -1.433321,-0.699544 0.604087,3.718862 3e-6,0 z m 0.984623,14.818463 c 0.196782,-1.695898 0.705878,-2.989532 1.29423,-0.650977 -0.203167,0.89065 -3.068041,2.823121 -1.29423,0.650977 z m -5.30833,-1.890799 c 3.581171,-2.902938 0.814545,2.668947 -0.698303,0.876234 l 0.251696,-0.382379 z m -0.334068,-3.148719 c -1.428115,-6.283036 5.886382,4.436892 0,0 z"
       id="color-primary"
       sodipodi:nodetypes="scccccccccccccccccccccccccccccccccccccccccccccccccccccccccccccsscccccccccscccsssscccccccccccccsssccccccccc" />
    <path
       id="color-darker"
       style="fill:#920000;stroke-width:0.830376"
       d="m 26.243369,10.60258 c -0.144447,2.985638 -1.396252,5.288747 -2.774739,7.114506 0.09033,3.385786 -0.184835,6.501274 -3.015078,8.45241 -2.093476,3.370071 0.922711,6.851135 4.333291,7.432786 1.760917,0.103488 3.012468,-1.236104 2.677304,1.616866 -0.395613,1.213137 0.771263,7.767047 1.319942,3.57217 -0.486667,-2.760877 0.713626,-7.662178 -1.29191,-9.125774 -2.522223,-0.94579 1.934281,-2.808901 0.929784,-4.802916 2.486045,-2.276536 6.225163,-1.051367 8.815409,-2.124244 2.934524,0.154127 8.485149,-2.501499 9.336303,1.51444 -0.159988,2.551721 0.515705,5.455159 0.766962,7.123339 -1.023693,3.447477 -4.99471,6.031103 -8.276735,3.657628 -3.593357,-1.370308 1.454932,5.035993 0.883902,7.061439 -0.549801,2.529379 -3.87785,0.815425 -3.66022,-1.02464 -2.285133,2.282125 -5.585951,5.621778 -8.966592,4.536647 -1.80809,-1.891126 -1.06211,-7.782949 -2.155605,-7.94689 -0.110231,2.177185 1.023645,5.858276 -0.04993,7.174648 -2.697542,-2.080835 0.300724,-9.648864 -4.754286,-6.795873 -4.192596,1.644782 -2.755454,6.955167 -2.208818,10.367648 2.276196,4.464625 0.393099,-3.988434 3.474802,-4.101234 2.220533,2.763369 -1.563218,6.983625 2.614582,8.697755 1.608886,-0.622342 3.079683,-2.230671 2.009954,0.58035 0.558015,1.942355 3.753506,4.036709 3.391073,5.282881 1.98787,-1.107208 0.08606,-8.258913 2.713146,-4.32192 2.859014,-1.805934 -0.470893,-6.499828 1.157479,-9.255871 2.583429,2.066161 6.57622,0.521296 9.288931,-1.041628 1.752701,-0.487983 3.679118,2.930396 2.512464,-0.460862 -3.859771,-2.330453 4.475752,-0.404483 3.968868,-0.34632 -0.988941,-0.861784 -1.910463,-2.523154 -0.75514,-3.168757 -2.200791,1.50169 -5.490397,-2.0865 -3.217742,-3.07031 2.475583,0.235133 6.384992,-2.371744 6.876361,-5.565097 -1.564944,-2.119629 2.032389,-3.91106 -0.01346,-5.432229 -2.727396,2.572602 0.743475,-5.662511 -2.867798,-4.814682 3.338758,-1.258442 -4.475075,-2.463203 -0.519233,-2.526191 3.361974,1.439536 6.5944,1.05941 9.525304,3.249584 2.82684,1.319408 5.240753,-0.384366 8.355787,0.342683 3.633132,0.05335 7.571941,0.283659 10.96042,-1.036437 -2.590408,-1.430761 -5.292228,-3.243214 -7.772889,-4.075109 0.967248,-4.93146 -4.999813,-1.953144 -7.807123,-2.129071 -3.386049,0.390719 -6.796684,0.550861 -10.188503,0.819052 -1.398028,0.96083 -1.518052,3.78379 -3.784573,1.387699 -2.769712,-1.22841 -3.649623,-4.18786 -4.187947,-6.389268 -1.79987,0.06841 -2.759634,3.617032 -3.013585,0.855493 -1.962935,-0.312303 -1.13491,2.465308 -3.744921,1.790028 -2.277067,2.550088 -7.115374,0.151951 -9.095631,3.466908 -0.85877,2.080208 -0.313276,7.824099 -3.662707,6.696748 -0.596347,-1.997387 0.09604,-1.974808 1.249972,-1.045168 1.423319,-3.477116 0.826892,-7.464695 0.805004,-11.148709 l -0.08536,-0.746752 -0.09623,-0.298025 z m 39.079563,5.361762 c 1.686729,2.249173 -3.061817,2.065417 0,0 z m -8.005335,0.932544 c 2.53263,0.782283 -3.175724,0.843053 -0.454763,0.03078 z m 5.001711,0.728207 c 3.350849,1.972396 -2.097333,2.028422 0,0 z m -2.718181,6.180786 c -0.68511,1.841046 3.845945,1.195817 0.648734,0.14597 z m 6.540835,0.784967 c -3.477542,1.010332 4.374487,4.783769 0.554717,1.628689 0.754805,-0.526482 0.251593,-1.56783 -0.554717,-1.628689 z m -8.441623,1.660747 c -2.381902,1.091971 1.578701,3.476819 0.371364,0.240647 l -0.163127,-0.174837 z m 10.113722,2.168389 c -3.050902,1.992444 1.614365,2.330783 0,0 z m -6.231062,0.06327 c -2.350375,2.037816 1.309341,6.544761 3.003868,5.237237 -1.530558,-1.915134 -0.04246,-4.395449 -3.003868,-5.237237 z m 1.587774,8.380551 c -1.935688,1.482701 -6.043737,5.361665 -6.070129,6.380909 2.146234,-1.962856 4.450659,-3.966809 6.070129,-6.380909 z m 11.12573,1.807767 c -1.10001,1.911959 0.735499,2.250454 0.264344,0.387597 L 74.296503,38.67155 Z m -22.778567,3.864814 c -2.303915,2.053902 2.524183,5.747388 4.434042,6.127194 1.879738,2.858895 -2.267772,4.462274 -1.057438,7.940475 -0.549629,2.764706 1.649168,6.11539 1.436971,7.684224 0.439688,-1.706113 3.841457,1.919145 2.240684,-1.07265 -2.452163,-3.291551 4.944,-2.055328 6.917777,-2.547276 3.591269,0.312272 6.753247,-0.670903 9.387058,-2.586349 -4.931717,0.34397 -10.071363,1.060759 -15.016945,0.924926 -3.060563,-3.694035 3.92615,-3.332516 6.270452,-3.220551 1.576255,0.391936 5.660018,-1.176932 2.024594,-1.323992 -2.506982,1.09535 -5.380687,-0.2553 -2.777037,-1.577226 -2.716961,-2.074719 3.82619,-1.718436 4.670841,-3.530671 1.270253,-1.164825 1.918437,0.226881 2.925072,-1.50488 1.455425,2.291666 -1.957651,3.996105 -3.173216,2.599612 -1.379566,2.727194 2.31074,3.171719 4.373379,0.756784 3.89322,-0.988785 0.855833,-6.998068 -2.617753,-4.538612 -4.895698,0.327499 -9.949341,0.512141 -14.745711,-0.643934 -1.767121,-1.018964 -3.947376,-0.771991 -4.920383,-3.305707 l -0.372397,-0.181382 z m -7.653407,9.249286 c -3.055237,0.422693 -9.247937,-1.063237 -9.142352,3.56471 3.598644,0.809416 7.621525,0.616262 11.28231,0.04102 1.073794,-4.402312 4.842404,2.007054 3.715982,4.468681 0.381053,3.029585 -1.23724,6.441027 0.23561,8.705684 0.892317,-1.177223 1.46354,-0.690172 2.85439,-1.105134 0.136557,-1.497535 -3.64731,-0.807959 -0.40787,-1.573765 2.681862,-0.323196 -0.777,-0.843766 -1.508346,-1.534347 4.055147,-0.459023 2.789163,-6.895157 0.329717,-8.816149 -1.929511,-2.116174 -4.284,-4.122145 -7.359447,-3.750709 z m 18.503439,0.715226 c 3.253222,2.942332 -3.148423,3.285798 0,0 z m -31.374266,8.754621 c -2.46001,1.109656 4.716068,3.062731 1.144443,0.462071 l -0.380614,-0.25452 z m 47.882852,0.484922 c -5.743901,0.71647 4.623085,0.686463 0,0 z m -6.592735,0.724978 c -2.224222,1.656053 3.305527,2.288698 0,0 z M 34.37846,64.322383 c 0.805303,2.834658 -4.842999,2.581105 -4.268989,5.461777 -2.323583,-1.386531 -5.050258,4.192467 -4.7194,-0.621002 -0.215092,-1.732415 2.294757,-4.152206 -1.206447,-3.305396 -0.966884,1.391392 0.03231,4.594942 0.503673,6.339405 3.167338,0.06934 6.734784,-0.0747 9.0104,2.249787 -0.758323,-5.014522 7.283829,-0.118628 6.038901,-4.844511 -1.359258,-2.075663 -3.252001,-3.971964 -5.358138,-5.28006 z m -7.596635,10.707314 c -3.207942,0.112687 -1.270405,1.638327 0.824524,0.68895 0.955883,-0.372157 2.385357,-0.468789 -0.824524,-0.68895 z m 11.620389,0.369771 c -3.722143,1.796623 4.932127,2.867327 1.360064,0.338383 l -0.644837,-0.226598 z m 4.009155,0.322756 c 2.047588,1.734232 3.803632,4.208692 3.014847,7.051703 0.06059,3.971112 -6.769315,0.803938 -5.500047,4.218675 1.442448,-1.064621 3.582765,-1.285662 0.932092,0.179204 -1.921805,1.319616 -5.64164,-0.07849 -6.667264,0.414427 1.913842,2.947738 1.681588,7.55994 5.345902,9.035599 2.152807,0.846781 7.884022,0.474534 6.280317,-1.3923 -1.568464,-1.004395 -0.799579,-5.136634 -4.03381,-3.822512 -2.668943,-2.716655 4.775334,-4.424338 4.871334,-7.78503 0.757072,-2.585876 1.670075,-8.222838 -2.587145,-7.771153 -0.552074,-0.04301 -1.104152,-0.08568 -1.656226,-0.128668 z m 12.110191,7.590165 c -3.820348,1.854964 2.514372,3.260886 4.501371,2.98599 2.056988,-0.330037 3.766018,0.247628 2.81467,-0.997612 -1.317379,-2.236949 -5.096337,-1.280769 -7.316041,-1.988389 z m -6.599217,6.767859 c -1.873618,1.518847 -1.452162,6.738803 1.227733,7.181483 3.03471,0.672685 6.520902,-1.359385 6.228857,-3.916228 -2.514121,3.29058 -7.906331,0.810968 -7.308344,-3.18811 l -0.148215,-0.0772 z m 13.070313,0.901733 c -2.111838,-0.778833 -5.155439,3.123181 -1.439022,2.287288 1.563912,-0.405141 5.086906,-3.301347 1.938039,-2.261049 z m -18.55371,3.144738 c 4.338925,0.84402 -4.203856,0.600506 0,0 z"
       sodipodi:nodetypes="ccccccccccccccccccccccccccccccccccccccccccccccccccccccccccccccccccccccccccccsccssccccccccccccccccccssccccccccsscccccccccccccccccccccccccscccccccccssccccsccccscccccc" />
  </g>
</svg>
