<?xml version="1.0" encoding="UTF-8" standalone="no"?>
<!-- Created with Inkscape (http://www.inkscape.org/) -->

<svg
   width="100mm"
   height="55mm"
   viewBox="0 0 100 55"
   version="1.1"
   id="svg5"
   sodipodi:docname="pds-src.svg"
   inkscape:version="1.1.1 (3bf5ae0d25, 2021-09-20)"
   xmlns:inkscape="http://www.inkscape.org/namespaces/inkscape"
   xmlns:sodipodi="http://sodipodi.sourceforge.net/DTD/sodipodi-0.dtd"
   xmlns="http://www.w3.org/2000/svg"
   xmlns:svg="http://www.w3.org/2000/svg">
  <sodipodi:namedview
     id="namedview7"
     pagecolor="#ffffff"
     bordercolor="#666666"
     borderopacity="1.0"
     inkscape:pageshadow="2"
     inkscape:pageopacity="0.0"
     inkscape:pagecheckerboard="0"
     inkscape:document-units="px"
     showgrid="false"
     fit-margin-top="0"
     fit-margin-left="0"
     fit-margin-right="0"
     fit-margin-bottom="0"
     inkscape:zoom="2"
     inkscape:cx="154.25"
     inkscape:cy="111.25"
     inkscape:window-width="1920"
     inkscape:window-height="1017"
     inkscape:window-x="-8"
     inkscape:window-y="-8"
     inkscape:window-maximized="1"
     inkscape:current-layer="layer1" />
  <defs
     id="defs2" />
  <g
     inkscape:label="Layer 1"
     inkscape:groupmode="layer"
     id="layer1">
    <path
       id="color-brighter"
       style="fill:#d00000;stroke-width:0.459398"
       d="m 92.98826,9.6217972 c -5.940392,-1.52691 -11.879788,-3.32308 -18.044072,-3.55425 -0.327388,-2.69804 -3.058766,-3.17135 -3.951404,-0.18143 -2.567645,0.61693 -5.737399,0.005 -8.197857,-0.48791 -0.07804,-3.12676 -3.482817,-2.03626 -3.359704,0.28099 -2.940169,-0.20584 -7.688743,1.12536 -9.611824,-1.20921 -0.712901,-2.66688 -3.358256,-0.47439 -3.595491,1.0145 -2.828905,-0.33583 -7.854657,1.37051 -8.716856,-2.28218 -2.637823,-1.59468 -2.039423,2.94903 -4.270554,1.78983 -1.97687,-0.14359 -4.173708,3.20449 -5.920916,1.82351 -3.351815,0.108 -5.011637,3.6338898 -7.722674,5.0046498 -3.769939,0.95844 -1.767669,5.46532 -4.087746,7.64975 -0.322506,2.87213 -3.83167,4.07224 -2.629924,7.18402 -2.820317,2.50693 4.451497,5.18095 0.164483,7.70599 -1.739996,3.05001 -3.648565,6.30929 -7.6544141,4.91949 -3.842284,1.87269 -2.340267,5.32402 -0.365706,7.8547 0.213444,1.79751 -2.664657,5.56453 -2.445563,5.72923 1.959731,-1.43336 4.347166,-4.80168 6.547964,-2.99599 3.0524681,0.28258 7.3130701,-1.17134 5.6114661,-5.16719 -2.169914,-2.91171 2.038207,-6.07564 4.544833,-7.30314 3.615078,-1.43209 7.355396,0.35014 10.118755,-3.1802 1.485727,-0.86972 4.008215,-0.65876 3.206018,-3.05167 -0.866402,-3.05564 2.053547,-3.74888 4.327377,-4.31934 2.064315,-0.1033 6.024342,-3.23466 6.652226,-0.13307 0.942475,0.9402 4.708919,0.35164 6.621462,0.60377 4.823858,-0.0209 9.687984,0.40658 14.483971,0.2302 1.551348,-3.28154 6.236442,0.68323 9.025688,0.5891 3.314885,0.46254 6.707083,1.77526 7.084154,5.6582 0.03361,1.867 1.834553,1.75469 3.228104,2.09858 1.276222,-0.0198 2.991152,1.32901 3.926282,0.24451 2.026882,-2.24417 4.053202,-4.48888 6.079412,-6.73369 0.0336,-3.29712 -0.23166,-6.61268 0.11676,-9.89426 0.91777,-1.42721 3.66368,-3.32093 0.15466,-2.77341 -0.99926,-2.17433 -1.18565,-4.72404 -1.31896,-7.1141098 z m -46.906876,17.5593198 -0.0044,-8.1e-4 z" />
    <path
       style="fill:#900000;stroke-width:0.459398"
       d="m 3.7553769,51.391307 c 1.600855,-0.8701 -1.276238,1.61634 0,0 z m 1.460336,-2.05878 c 2.302096,-1.63582 -1.701738,1.99134 0,0 z m 0.975938,-1.97276 c 0.695099,-2.00704 0.868098,0.22503 -0.02115,0.73038 l -0.119203,-0.21463 z m 2.155844,1.14347 c 2.2819081,-0.90654 -0.554696,1.83366 0,0 z m -5.039159,-6.28002 c 1.873074,-1.35126 -0.454927,2.6248 0,0 z m 1.05594,1.64756 c 1.282816,0.49786 3.332807,-3.08877 3.400881,-0.55031 -0.841471,0.79971 -2.995002,2.88838 -3.400881,0.55031 z m 2.749233,1.51235 c 2.1837641,-0.43442 -0.499255,2.0303 0,0 z m 2.6802111,1.78593 c 0.714994,-1.9507 -0.446221,-2.71451 -0.9725541,-3.00751 0.3997471,-2.34567 3.4421281,-3.92516 2.1686851,-0.42442 -1.257516,3.88723 1.865565,-1.38914 1.139709,-2.42258 2.880688,1.69711 -2.506659,-2.30839 0.372412,-2.79919 2.51407,-1.77072 0.751432,-0.20722 0.199184,1.10159 2.563816,0.73577 -1.41097,3.0153 0.875529,4.80215 0.988764,1.73704 1.714394,2.07138 0.329353,3.64258 -0.292194,0.27523 -0.370447,0.35685 -0.788722,0.406 -2.616401,1.06565 -1.103813,0.098 -3.55746,-0.2084 l -0.0086,-0.37869 0.242729,-0.7116 z m -5.5588561,-6.93849 c 1.629496,-1.50422 -0.673872,2.32312 0,0 z m 4.463094,-0.33002 c 4.9425561,-1.60439 -0.355289,1.87276 0,0 z m 4.2061031,-4.60628 c 1.927556,-2.81809 0.932538,0.49107 -0.207853,0.59145 z m 1.951621,0.12709 c 0.956414,-1.5802 4.853103,-6.15063 2.251214,-1.75033 -1.927407,1.14382 -1.87284,2.08785 -1.385376,3.59483 -0.923685,0.17287 -1.47679,-1.21261 -0.865547,-1.84465 z m 3.464936,1.02854 c 1.409931,-0.93667 -0.221561,1.88385 0,0 z m -0.109739,-3.05842 c 0.69514,-2.00705 0.868108,0.22503 -0.02117,0.73039 l -0.119217,-0.21464 z m 1.246687,1.59664 c 2.080788,-0.31869 -0.727338,1.34807 0,0 z m 0.649659,-1.29934 c 2.34016,-0.0391 -0.320907,1.82789 0,0 z m -7.318528,-8.76122 c 1.02921,-2.54407 2.53817,1.36593 0.275809,0.78642 z m 6.861355,4.56823 c 4.2275,-2.62562 -2.159617,-4.72464 -3.455235,-6.11278 1.304789,-1.50857 3.103981,-5.31403 4.577348,-2.84672 1.279844,-0.78318 -2.007771,-0.37162 0.827945,-1.55588 1.961007,0.93649 4.725628,3.16975 5.975173,4.59117 -1.480338,0.99341 -2.794924,-0.0473 -1.216876,1.86349 -1.913576,1.7946 -4.969376,-1.50956 -5.063312,-3.27709 2.268423,-2.00602 0.523243,-2.77448 -0.901631,-0.39481 -0.608076,1.77164 -3.553364,1.01923 -0.633995,0.53315 -2.712485,-0.73854 -2.465758,2.31941 -0.604331,1.72926 1.265086,1.60823 6.544628,2.23236 2.547639,3.90911 -0.629852,0.94351 -4.598263,4.86192 -2.052731,1.5611 z m -0.11764,-7.96801 c 0.582861,-1.48211 -1.740179,-0.0194 0,0 z m 4.635408,1.92837 c -0.429806,-2.69234 -0.703669,1.18946 0,0 z m -7.608435,3.82461 c 2.532372,-2.18057 -0.161827,3.03377 0,0 z m 4.898572,3.8605 c 2.302862,-1.63639 -1.702145,1.9916 0,0 z m -7.279526,-8.27874 c 0.730075,-0.80339 4.977882,-5.16457 4.820263,-3.76546 -1.408251,0.20731 -4.648727,7.10871 -4.820263,3.76546 z m 12.120048,12.43125 c 1.413827,0.006 -0.367436,1.89253 0,0 z m -6.902131,-7.90386 c 0.739593,-2.06313 0.348104,2.64956 0,0 z m 2.550287,1.26232 c 1.600924,-0.8701 -1.276326,1.6164 0,0 z m -6.388175,-9.41078 c 1.755598,-2.31458 1.437481,-5.92011 5.129845,-7.03808 2.729606,-1.46603 4.953265,-2.6031398 7.990559,-4.1470998 2.183278,-0.68317 4.697815,-2.25278 5.883721,-2.57958 0.805843,1.5082 -3.339141,4.7881598 -1.314048,5.3347798 -0.981446,1.75423 -2.224576,3.04497 -0.366343,3.65422 0.603123,2.27905 1.124945,1.05795 1.534067,0.12203 -0.937768,2.37657 -0.127638,5.29903 -0.341569,7.85736 0.386814,1.75999 -0.253682,3.26568 1.556726,4.71477 -1.510027,0.38481 -4.156999,1.01644 -4.631285,1.27591 -1.193874,-2.64016 -3.409097,7.15148 -3.494365,2.06837 2.011561,-2.78404 4.98021,-5.33517 3.8808,-8.88438 -3.866517,0.54038 2.543612,-0.65273 0.102868,-2.76029 -1.825297,0.0699 -2.435787,5.18463 -4.923496,1.82013 -4.194582,-1.36771 0.667309,-4.5152 0.272324,-5.26712 -2.894693,2.91678 -6.389084,-0.0663 -8.590806,2.83484 -0.745344,0.25067 -3.426147,3.56455 -2.802176,1.53549 0.03773,-0.18039 0.07546,-0.36089 0.113179,-0.54132 z m 17.8674,5.6765 c 0.318724,-2.08076 -1.348045,0.72727 0,0 z m -3.276911,-11.23559 c -0.875582,-0.19387 -1.313265,1.94997 0,0 z m -3.382362,15.94582 c 1.744692,-1.25723 -0.874012,2.3696 0,0 z m -0.07268,-1.69681 c 0.740367,-2.23545 3.101482,-4.78439 2.733089,-1.39831 -0.365263,1.25461 -4.827811,4.31138 -2.778998,1.48612 z m 1.830778,-0.93042 c -0.875593,-0.19387 -1.313234,1.94996 0,0 z m 1.809536,4.31167 c 0.7949,-1.42679 2.541898,-5.17015 2.075088,-1.07292 -0.230347,2.13065 0.62456,2.29238 -1.123878,1.67114 -0.515624,0.333 -1.235433,0.13395 -0.951222,-0.5982 z m 1.123377,0.12138 c 1.015761,-2.23459 -1.93287,0.24245 0,0 z m -8.274503,-13.34801 c 1.181746,-0.70699 -2.868507,-0.66353 0.463095,-0.79643 2.788834,-0.22695 -2.477136,2.71951 -0.463095,0.79643 z m 0.98344,1.02661 c 1.683087,1.20612 -0.775707,0.40863 -1.9e-5,2e-5 z m 13.319404,5.80119 c -0.21182,-1.74723 3.830989,-7.40476 0.589359,-3.6264 -1.68278,-0.57818 4.864675,-6.67533 -0.0029,-5.23686 2.549195,-0.69554 1.210104,-7.2049898 -0.111277,-3.56842 -1.08341,-1.46099 0.244652,-2.6057897 -0.714585,-4.2442898 0.649419,0.89834 3.105839,2.6918598 1.484206,-0.33358 0.07696,-2.11879 -1.935712,-1.02931 -1.257187,-0.3622 -1.436143,-0.79634 -1.509389,-6.66647997 0.77959,-2.59604 2.478294,1.7625 10.969562,-1.44093 7.499324,3.59892 -0.650129,2.3672098 2.207462,0.7557 0.786919,3.4905098 -1.01955,2.67131 -1.037766,-4.1731298 -1.324396,-0.61847 -0.329052,2.00679 -0.818825,2.93237 1.417012,1.98385 -0.553125,2.82291 0.08635,5.56765 -0.426674,8.29475 0.308292,1.25949 0.456565,3.37979 -0.209377,2.83389 -0.413066,2.72928 -3.425022,-0.96151 -5.287364,1.10012 -1.077978,0.17054 -3.778238,1.64096 -3.222635,-0.7158 z m 7.269768,-2.14725 c 1.959195,-0.5938 -3.30669,0.0264 0,0 z m -2.237696,-5.22489 c 5.588209,0.63791 -2.287841,-4.12141 -2.618042,-0.20352 -1.243044,0.31806 2.386971,0.21209 2.618042,0.20352 z M 22.618543,9.4001572 c 1.187683,-0.69226 4.656408,-3.77398 4.749064,-1.85351 -0.443772,0.49604 -7.08892,4.4194898 -4.749064,1.85351 z m 11.227426,2.1889098 c 1.300779,-3.2425498 0.14748,3.61597 0,0 z m 16.211241,11.32018 c 1.112923,-1.89143 2.088546,-4.74872 -0.134246,-1.65707 -1.815086,2.2163 1.635843,-2.70767 1.545308,-3.59424 2.376105,-0.25134 6.040472,0.33787 6.674392,-0.30456 -0.618468,-2.96844 -6.963491,-0.16321 -7.116253,-1.90345 -0.121523,-1.60281 0.990614,-3.88843 -0.08441,-5.44917 -0.390034,-1.5329698 -0.452369,-4.9216098 -1.701473,-2.1227498 -0.811451,-1.61753 -1.148439,-6.34151 1.094073,-2.49532 3.170958,0.60428 6.440359,0.39484 9.65623,0.57556 -0.573439,1.71355 -2.304263,3.74015 -1.82329,5.3038298 0.913248,-1.5223398 2.369961,-2.2489198 1.716527,0.42263 -0.420922,2.69251 -1.366091,-1.54524 -1.386504,1.34996 -2.485815,2.46632 2.331545,-0.85198 1.360024,2.28453 0.05899,0.66525 -0.100832,3.53461 -0.418198,1.21319 -0.570502,3.01989 0.459372,6.27845 -0.258688,9.38044 -2.443825,-1.58327 -6.312015,-0.67879 -7.988382,0.22893 -0.18326,-1.74914 -3.27728,-0.5466 -1.135207,-3.23215 z m -0.494581,-12.22344 c -0.805596,-3.3698398 2.410713,1.63806 0.301877,0.64355 0.410019,3.51122 -0.594284,0.82756 -0.301877,-0.64355 z m 12.602618,14.43398 c 1.303971,-0.74312 1.116036,-3.47043 1.796489,-4.5489 -2.063752,4.46301 -0.64549,-4.48381 1.670712,-2.41506 2.185546,1.03083 6.283477,-0.95752 2.124081,-1.71219 -1.796571,-0.77357 -6.949662,1.7466 -3.775824,-1.08668 1.475684,-1.55902 -1.212164,-6.1205998 -1.166532,-2.6515 -0.921992,-1.91747 -0.03151,-5.3462698 1.209876,-1.68288 1.38888,-0.18319 -1.14769,-4.8120498 -1.767841,-3.3297098 -0.970343,-4.14916 5.21292,-0.9149 7.588788,-1.45073 2.253332,0.13738 2.054971,-2.81254 2.026265,0.73663 0.12067,2.34021 -0.716849,-0.89816 -1.341634,2.02872 -1.154348,1.6813598 -1.044071,4.5012598 0.126935,2.1135798 -1.146474,-1.3064698 1.73075,-0.14213 0.353609,-2.0478598 2.098784,2.4987098 0.165206,6.6744498 0.222275,9.6642398 1.54794,1.35378 -1.53754,5.48348 0.234601,4.13332 -0.05718,2.12568 0.446975,5.06243 -2.607107,3.94882 -1.860201,-1.60192 -5.160586,-0.18867 -6.694911,-1.69942 z m 9.295002,-12.01653 c -0.417352,-2.68782 -3.360587,3.10104 -0.05733,0.83192 l 0.105308,-0.30852 z m 2.043996,13.96594 c -0.463209,-1.5078 3.003245,-5.6956 1.471144,-5.4301 -1.085974,0.21606 2.36441,-4.4075 0.730807,-5.4599 0.470292,-1.40877 -2.573074,-0.72491 0.0318,-1.47496 0.96265,-1.52438 -0.263104,-3.45056 0.396107,-4.6346 -0.820414,-1.1529098 -1.134759,-4.0872298 -1.956847,-1.5999898 -1.329959,-4.35082 5.826569,-1.4977 8.071136,-1.59563 3.364696,0.85469 6.894146,1.79438 10.086948,2.84229 1.03671,3.5727198 2.09616,7.1911798 1.51634,10.7863198 -0.24983,3.89442 0.77685,8.71397 -2.94553,11.3412 -1.933772,0.95679 1.5029,-2.64733 -1.15828,-2.51172 -2.018942,-0.93785 -3.490752,-1.44592 -5.844666,-1.11926 -4.268796,-1.81635 -2.055231,3.50478 -2.23146,4.44819 2.189241,0.28973 -0.958626,4.19478 -0.953475,0.93788 -0.319042,-3.15128 -2.292073,-4.88817 -4.655135,-5.2019 -0.579508,-0.37076 -3.30475,0.0297 -2.558842,-1.32766 z m 18.318895,-0.77736 c -3.135582,-0.98708 -0.0727,-2.23715 -0.3713,-3.31386 -1.51137,-2.38356 5.05413,-6.11001 0.28238,-5.04825 1.2815,-1.27097 -1.83041,-2.26583 0.006,-4.255 -1.98447,1.18971 -6.072072,0.72521 -8.892938,0.17891 -0.734031,1.47898 3.338766,1.78851 0.594117,3.64004 -0.654309,-0.6532 -1.653696,3.19548 -0.914085,2.65714 2.440354,-1.9407 2.754114,1.86062 0.0828,1.24802 1.269027,2.39439 2.829154,2.24424 2.173356,0.48845 2.536148,2.15116 5.34714,-2.28281 4.97275,2.10726 0.28954,1.50452 -2.344652,0.403 -3.326322,0.77441 -1.58676,-0.30406 -7.191382,0.98565 -2.59429,1.26937 2.65656,0.15274 5.32658,0.34514 7.987132,0.25351 z m -5.309782,-8.57944 c 1.30453,-1.35519 7.132652,0.13038 2.78018,0.54616 -0.8576,-0.0901 -2.17799,0.20649 -2.78018,-0.54616 z m -3.424324,6.2689 c 0.05643,-3.46114 -2.935544,-0.44755 0,0 z m 8.808656,-12.05712 c 2.09607,-0.42768 -3.334492,-1.32957 0,0 z m -2.557282,21.63064 c 0.27193,-1.1499 -0.0401,-1.85865 0.762232,-0.08 0.16689,0.60423 -1.598032,0.34891 -0.762232,0.08 z M 60.851631,3.7465072 c 2.88508,-0.31465 -0.775126,1.62205 0,0 z M 95.32765,16.940157 c 1.87172,-0.52527 -1.1877,1.78857 0,0 z"
       id="color-primary"
       sodipodi:nodetypes="cccccccccccccccccscccccccccccsccccccccccccccccccccccccccccccccccccccssscccccccccccccccccccccccccccccccccccccccccccccccccccccscccccccccccccccccccccccccccscccccccccccccccsscccccccccccccccccccccccccccccccccccccccccccccccccccccccccccccccccccc" />
    <path
       style="fill:#670000;stroke-width:0.459398"
       d="m 19.457564,34.988127 c 1.937734,-0.35783 -0.693289,1.34755 0,0 z m 0.649659,-1.29935 c 2.343352,-0.10474 -0.181329,1.86777 0,0 z m -6.733609,-9.14195 c 1.197263,-1.56065 -0.540592,2.36458 0,0 z m 0.628221,-1.02401 c 1.172119,-1.33178 3.473027,-4.80668 4.71882,-4.19293 -1.735866,1.01761 -2.969967,4.57396 -4.662902,4.36352 l -0.05602,-0.17064 z m 1.596123,0.33514 c 0.236657,-1.28015 3.885407,-3.41834 3.61303,-1.75073 -1.126578,-0.34505 -2.111726,1.10236 -0.999216,1.54638 -0.665277,0.29862 -2.089092,0.79014 -2.613814,0.20435 z m 0.269502,-4.82024 c 0.918676,-1.99398 3.079708,-3.95833 5.740122,-3.93335 1.26272,-1.68501 2.869559,-1.6094 3.439402,-0.6252 1.51263,-1.38013 2.30127,-3.0834 4.672772,-3.20509 2.435384,-0.47612 -0.517874,-3.8480698 2.481876,-4.5798898 2.592696,-0.11408 -0.07625,4.5655298 -0.431773,6.1754598 -2.770097,1.33635 -5.573228,3.03097 -8.197638,4.46596 -2.826339,-1.76879 -5.046916,0.47559 -7.082923,2.26986 -0.680007,0.5873 -0.679135,-0.009 -0.621781,-0.56783 z m 11.876879,12.52567 c -0.802832,-0.80742 -0.905078,-3.35902 -0.365406,-1.36095 0.60413,-1.30228 3.743204,-3.33808 1.886381,-0.66542 -0.170055,0.40779 -1.777478,4.16624 -1.520975,2.02637 z m -1.403787,-3.06387 c 0.627997,-1.28743 1.367902,-1.90586 1.475417,-0.56767 2.049797,-0.83193 -0.623594,0.74251 -1.16701,0.92933 -0.553875,1.16514 -0.611883,0.12728 -0.308594,-0.36152 z m -5.357905,-7.90353 c 1.79563,-1.55948 -1.078084,1.77162 -0.338697,0.35495 z m 9.355724,10.33766 c 1.150995,-0.13926 0.159485,2.16867 0,0 z m 1.302814,-0.0146 c -0.994845,-1.34751 0.846401,-1.84154 0.341918,0.16575 0.03527,1.08701 -0.613621,0.44768 -0.341918,-0.16575 z m -3.329952,-5.59327 c 2.861206,-2.57327 -1.795176,3.27057 0,0 z m 2.552162,2.37543 c 0.462869,-1.72308 0.519608,-3.64846 0.558371,-5.19902 1.622947,0.38439 1.010798,4.2058 1.993615,2.22051 -1.281989,-2.31243 -1.376171,-5.22605 -2.802608,-7.38504 -2.156388,-0.55467 -2.594437,-2.31333 -0.335308,-3.07042 0.922902,-0.90404 4.203293,-0.17201 1.470073,0.34535 -0.932238,2.53762 4.012511,4.51743 1.614321,6.76392 1.751598,1.81244 0.226576,4.18322 2.062762,5.59328 -1.520404,-0.0635 -4.026806,1.74857 -4.452195,1.61909 l -0.05044,-0.37666 -0.05856,-0.51116 z m 1.717745,-1.30507 c -0.64977,-1.94224 -1.884793,2.38094 -0.055,0.25053 z m 4.90016,-1.48061 c -0.274031,-1.86429 2.904305,-4.90429 1.991167,-5.60242 -0.937423,0.84028 -2.929415,3.25789 -1.257283,0.79852 0.390755,-2.44418 2.894317,-3.19647 4.540192,-1.55717 1.800975,0.5495 -0.648992,-1.60068 1.59659,-1.05277 2.203325,1.82005 0.240932,3.74716 2.006771,6.10284 0.475961,0.85111 -0.02833,1.73488 -0.298841,0.38801 0.255909,1.86551 -1.223973,2.42108 -2.113773,0.82761 -2.214425,0.205 -4.331074,1.07757 -6.510287,1.55162 0.01512,-0.48537 0.03034,-0.97099 0.04545,-1.45626 z m 1.271846,-1.3173 c -0.729511,-0.81863 -0.975188,2.61431 0,0 z m 5.554842,-0.79163 c 3.129413,-0.24563 -2.488892,-0.56677 -0.921789,-0.005 l 0.428421,0.0153 z M 26.279188,7.0516472 c 2.574291,0.3218 -0.72714,1.63915 0,0 z M 39.10463,14.748677 c 1.202974,-0.97218 0.432932,-2.74855 0.498628,-3.50901 0.962265,1.39009 2.43078,1.24205 3.772942,2.35161 1.969483,-2.33059 2.457762,3.33886 -0.644801,2.05204 -1.03808,-0.23354 -3.503669,0.64412 -3.626771,-0.89463 z m 10.282993,10.05147 c 0.06931,-1.51037 2.937257,-4.64546 1.500522,-5.6619 0.38707,-1.85237 5.093759,-1.79177 2.96748,-0.0326 1.192993,0.58402 5.480228,-0.66114 2.115238,-0.37987 -2.549214,-1.49929 4.58915,-0.32336 1.931721,1.44445 0.266748,1.13104 1.962309,4.39528 1.362892,4.24581 -0.105059,-1.04926 -0.847353,2.67013 -1.74617,0.86994 -2.036213,-0.67362 -4.838886,0.12136 -6.180954,0.50142 0.02124,-0.73055 -2.557664,-0.66109 -1.950718,-0.9873 z m 8.036792,-1.70856 c 2.063216,-0.50421 -3.388314,-0.044 -3e-6,-10e-6 z M 40.075507,10.178097 C 39.813689,7.9977372 38.247297,6.7304472 37.96748,4.9038772 c 2.052453,1.36457 5.017103,0.39243 7.424146,0.73719 2.850584,-0.33593 -0.09696,3.45389 -0.864727,4.8919798 -1.462653,0.48507 1.038199,-1.6405198 -1.022261,-0.9968298 -1.186771,-1.00217 -3.829642,2.0707998 -3.429077,0.6417998 z m 1.918829,-0.3254998 c 1.719843,-0.23278 2.327411,0.4426298 0.106157,0.2667198 l -0.176924,-0.0994 0.07088,-0.1675298 z m 9.102896,5.3015798 c 0.545775,-3.5011 3.807762,1.87598 5.902282,-0.56441 1.229161,-0.23388 1.739565,2.84191 -0.284106,1.42957 -1.712698,-0.47142 -4.404545,0.56936 -5.618171,-0.86516 z m 11.550661,8.96818 c 0.520305,-1.82316 2.514455,-4.1231 1.315478,-5.23575 1.454074,-1.28769 6.606661,-0.57954 5.761934,0.79161 -0.06428,2.13942 2.62019,5.47008 0.569205,7.03108 -2.578917,-0.56642 -5.167872,-0.98477 -7.81586,-0.99719 -0.909961,0.17139 0.199581,-1.16593 0.16925,-1.58975 z M 51.130921,8.9995172 c 0.409158,-1.619 -2.698878,-3.56253 0.242769,-3.15442 2.814432,0.0298 5.684403,-0.14171 8.462056,0.27312 -1.062719,0.94165 -1.218109,5.1094198 -3.54394,4.2793898 0.196917,-1.6459298 -4.006965,0.95217 -4.906597,-1.0323398 l -0.254174,-0.36578 z m 12.07073,11.5317098 c 1.578965,-0.88334 -1.284321,1.61844 0,0 z m 10.179315,6.66125 c 0.364259,-2.7341 2.298072,-4.78537 2.95815,-7.31635 -2.549938,2.4404 0.809154,-4.1743 1.063316,-1.40727 1.893495,-2.79477 4.711785,-0.31599 3.934842,2.37793 0.09473,2.36052 -0.536375,2.6991 -1.319734,4.37599 -1.120011,-1.40694 -4.036687,-0.96023 -3.472425,0.70892 0.887478,0.36767 1.792517,-0.33346 2.646719,0.58 1.553329,-0.29959 0.36855,4.12884 -1.700196,2.23791 -1.320911,-0.48681 -3.18881,-0.51869 -4.11068,-1.55711 z m 6.934314,-6.93433 c 0.103007,-1.1123 -0.146894,-4.07228 -0.224111,-1.46181 0.07233,0.30375 -0.324656,1.62034 0.224111,1.46181 z M 64.1476,15.196897 c 1.425241,-0.97837 -0.777396,-4.89385 1.10663,-2.38928 1.702257,0.23674 2.955774,1.86103 4.04357,-0.0175 -0.0659,0.96627 1.244602,3.91415 -0.678306,3.43368 -1.418567,-0.28352 -4.376361,0.83558 -4.47191,-1.02681 z M 63.625357,8.1845072 c -0.162137,-0.72434 -1.551678,-2.30867 -0.907559,-2.46836 2.945367,0.48744 5.990147,0.19061 8.892678,0.84403 -0.848419,0.60602 -0.460495,2.29286 -1.838465,3.11182 0.08609,1.8325598 -2.984442,1.1277198 -4.387081,1.0670598 -1.061694,-0.0275 -1.043973,-1.6270798 -1.645457,-2.3248298 l -0.07533,-0.15172 z m 3.523357,2.2172198 c 1.038895,-0.0539 2.864061,-0.10772 0.825209,-0.16155 -1.105445,-0.21466 -4.595571,0.0585 -1.61361,0.193 l 0.382598,-0.0131 z m 9.744978,4.83209 c 1.176843,-1.40209 6.283002,0.85279 2.640642,1.00128 -0.867947,-0.20724 -3.778329,1.16916 -2.640642,-1.00128 z m 8.234886,8.07205 c 1.31092,-1.51454 6.543522,-1.12288 3.84931,1.38905 -1.33332,0.37064 -3.14538,-1.23702 -2.25984,-0.0127 -3.104818,1.12697 1.22054,-2.84076 -1.32357,-1.08659 -1.199416,0.64524 -1.283953,0.78823 -0.26549,-0.29011 z m -3.53799,-6.55514 c 1.197261,-1.56065 -0.540622,2.36459 0,0 z M 75.905381,9.4149972 c 0.06949,-2.6728 4.594392,1.2532898 1.22382,1.3211798 -0.422928,0.66328 -1.142543,-0.9860998 -1.22382,-1.3211798 z m 4.339453,3.2221698 c 0.365958,-2.6494597 6.188734,0.51794 2.514908,1.32391 -0.943443,0.82303 -3.891973,0.3588 -2.514908,-1.32391 z M 75.17001,7.5304872 c -1.930187,-1.7001 1.680717,-0.99413 3.025087,-0.9421 2.05761,0.0199 -0.844586,0.51698 -1.468612,0.8435 -0.623311,-0.251 -1.88674,1.80842 -1.556473,0.0986 z"
       id="color-darker"
       sodipodi:nodetypes="cccccccccccccccccccccccccsccsccsscccccccccccccccccccccccscsccccccccssccccccccccccccccccccccccccscccccscccscccccccccccccccccccccccccccccscscccssccccccccccccccccccccccccccccccccccc" />
  </g>
</svg>
