<?xml version="1.0" encoding="UTF-8" standalone="no"?>
<!-- Created with Inkscape (http://www.inkscape.org/) -->

<svg
   width="100mm"
   height="100mm"
   viewBox="0 0 100 100"
   version="1.1"
   id="svg9592"
   inkscape:version="1.1.1 (3bf5ae0d25, 2021-09-20)"
   sodipodi:docname="shocktroop.svg"
   xmlns:inkscape="http://www.inkscape.org/namespaces/inkscape"
   xmlns:sodipodi="http://sodipodi.sourceforge.net/DTD/sodipodi-0.dtd"
   xmlns="http://www.w3.org/2000/svg"
   xmlns:svg="http://www.w3.org/2000/svg">
  <sodipodi:namedview
     id="namedview9594"
     pagecolor="#ffffff"
     bordercolor="#666666"
     borderopacity="1.0"
     inkscape:pageshadow="2"
     inkscape:pageopacity="0.0"
     inkscape:pagecheckerboard="0"
     inkscape:document-units="mm"
     showgrid="false"
     width="100mm"
     inkscape:zoom="1.0482005"
     inkscape:cx="79.660333"
     inkscape:cy="224.67076"
     inkscape:window-width="1920"
     inkscape:window-height="1017"
     inkscape:window-x="-8"
     inkscape:window-y="-8"
     inkscape:window-maximized="1"
     inkscape:current-layer="layer1" />
  <defs
     id="defs9589" />
  <g
     inkscape:label="Layer 1"
     inkscape:groupmode="layer"
     id="layer1">
    <path
       style="fill:#d70101;stroke-width:0.655068"
       d="m 50.159981,96.72119 c -5.962117,0.687794 -4.926174,-5.876984 -5.897447,-9.779742 -3.35694,-2.559585 -9.150333,0.139489 -13.388531,-0.150318 -3.957514,1.015414 -7.779372,0.345323 -7.913814,-4.464866 -0.627648,-4.223467 -1.679922,-10.45752 2.468255,-13.108522 4.508854,-0.588978 7.357382,-4.519644 11.723789,-5.486696 1.363534,-0.656495 3.944809,-0.508696 3.05925,-2.650667 -1.647916,-4.417326 3.297508,-4.392499 6.086131,-5.799727 2.265065,-0.848228 2.703879,-2.228834 0.917264,-3.873757 C 43.198344,45.580762 39.694139,39.355816 35.137015,33.937728 30.501782,32.025619 28.40485,38.609581 27.316824,42.036569 24.998554,48.371096 24.174799,55.399721 20.491098,61.148021 17.352366,67.323067 13.88717,59.615448 11.360833,57.096917 9.3692296,53.416022 1.752111,48.89599 7.5833813,45.251098 11.273383,41.05798 11.990025,35.207782 13.847533,30.100205 c 1.696344,-4.935733 2.437541,-10.637122 6.545258,-14.289109 2.630792,-3.982134 -4.26395,-7.1722678 -1.872576,-10.7631187 3.298203,-2.0050269 6.577698,2.6743931 8.37028,5.0517007 1.087649,4.257078 2.785062,8.291677 5.397924,11.890773 6.138993,9.399901 12.261126,18.837143 18.946891,27.855964 3.620728,-1.386127 5.412801,-5.467994 5.395139,-9.10264 -0.988888,-1.841384 -5.886227,-0.58998 -3.765772,-4.252958 1.353995,-3.245475 4.403839,-5.740056 6.681581,-4.942085 4.739944,-2.621597 7.352833,-7.733465 11.125573,-11.499712 3.383893,-2.884585 5.615091,-6.914969 9.743557,-8.572505 1.954639,-1.377985 5.084935,1.21523 6.488478,-0.772377 2.569926,-3.0643743 4.76813,-6.5377191 7.92579,-9.0278406 2.85262,2.8433355 -4.811279,6.7339868 -5.220761,10.4380646 5.231278,1.140179 -0.476801,6.647479 -1.035456,9.878873 -4.424642,6.982244 -9.796961,13.193466 -15.829911,18.850617 -2.001302,1.276657 -5.362342,4.244313 -5.008596,6.191414 1.457868,-0.01258 2.921934,-2.754745 1.648728,0.379051 -1.21315,3.257752 6.352571,6.133966 1.116746,9.031252 -4.335933,1.821065 -5.358088,-7.956768 -9.379985,-4.086714 -1.176798,1.297054 1.557668,3.858564 1.911742,5.44097 3.353659,0.341 7.017924,1.334253 10.409632,2.453703 3.897958,1.223856 7.940121,3.370534 9.91676,7.263882 2.391534,4.03935 2.145163,9.191708 1.326031,13.632349 -5.692484,1.007136 -11.483524,1.322013 -17.22809,1.94218 l 0.885799,12.067291 c -5.783241,1.980926 -12.146066,1.98361 -18.182314,1.56196 z M 74.62517,25.020545 c 1.833493,-1.102227 4.070714,-6.558916 0.477239,-3.096739 -3.9417,4.385889 -8.067449,8.829537 -10.85731,14.039925 3.864264,-3.108715 7.014266,-7.264378 10.380071,-10.943186 z M 25.207182,18.345962 c -2.350244,-3.59347 -0.834966,0.920384 0.794551,1.588345 -0.120583,-0.592603 -0.490319,-1.083067 -0.794551,-1.588345 z"
       id="color-brighter"
       sodipodi:nodetypes="scccccccccccccccccccccccccccccccccccccccssccccccc" />
    <path
       style="fill:#ab0000;stroke-width:0.655068"
       d="m 50.159981,96.72119 c -5.962117,0.687794 -4.926174,-5.876984 -5.897447,-9.779742 -3.35694,-2.559585 -9.150333,0.139489 -13.388531,-0.150318 -3.957514,1.015414 -7.779372,0.345323 -7.913814,-4.464866 -0.627648,-4.223467 -1.679922,-10.45752 2.468255,-13.108522 4.507923,-0.588555 7.355701,-4.518255 11.720792,-5.485682 1.36092,-0.657262 3.942247,-0.508219 3.06319,-2.645408 -1.724959,-4.721162 3.788955,-4.296479 6.535079,-5.848881 2.052566,-1.061603 2.054532,-2.426434 0.466864,-3.937496 C 43.156263,45.258653 39.11901,39.202882 35.032547,33.180411 31.837886,32.30175 29.903562,37.339375 28.154669,37.686425 23.92683,33.882664 20.642127,29.226667 17.147109,24.790418 c -2.661118,-2.379673 2.898897,-7.254001 4.236899,-9.99081 -0.200889,-3.471747 -5.362397,-7.5279533 -1.594035,-10.1775404 4.205608,0.5036528 -2.672011,3.4564197 1.960332,3.798222 0.469421,2.9319974 1.218579,-3.5624461 3.043215,-0.3079513 2.685189,3.9018317 1.236819,8.2498497 4.228581,11.9494807 9.783203,14.931969 20.42418,29.333073 29.37392,44.794034 1.057377,2.708727 2.336747,6.925524 4.856108,2.656487 -3.161433,3.672453 2.319572,2.262289 1.354701,-0.566386 -1.246693,-1.243996 -5.350455,-7.885831 -1.402934,-5.089733 -1.113896,-2.203667 -3.200236,-6.936327 -5.484613,-6.63998 -0.858097,2.399675 4.662624,3.620514 2.524579,5.155355 -2.834848,-3.004919 -6.514761,-5.820242 -7.961347,-9.214927 -0.126034,-2.819415 4.471819,-5.400881 4.498234,-8.9434 0.710947,-3.907047 -7.383498,-1.88354 -3.346275,-6.629067 1.928933,-2.46085 3.190973,-5.281923 6.158167,-3.898245 6.714431,-4.225283 10.213959,-11.876032 16.713354,-16.350672 0.723029,-1.992503 4.444957,-4.921579 5.874563,-3.756807 -1.695852,3.73684 1.183961,-0.374621 2.852874,0.906293 1.421897,-2.8045096 6.260023,-5.551925 8.033467,-9.1287093 2.434618,-3.51352152 3.407736,0.1872417 1.13154,2.0533347 -1.74494,2.9537144 -7.895584,6.8836496 -3.307896,9.8898866 -0.421754,3.916884 -4.388482,5.115958 -6.1698,8.193792 -2.169247,2.681384 0.595774,-0.19733 1.659399,-1.068227 4.34727,-3.153746 -0.571599,3.914225 -1.822039,4.994432 -4.528616,5.294162 -8.692037,11.09771 -14.328763,15.277615 -0.959309,1.528679 -4.995436,5.518375 -0.905188,3.605742 2.130606,-1.491471 -3.126672,4.42641 0.04587,5.161706 4.094354,1.442768 2.277316,7.052803 -1.697332,4.366195 -1.880314,-1.827843 -5.24978,-7.073992 -6.968509,-2.74609 1.019135,3.475625 1.899286,5.616169 6.48645,5.304511 3.379254,1.906703 9.104643,1.136792 9.70511,5.320504 2.685244,1.816691 4.979792,8.628663 0.869934,9.989439 0.590157,-3.769726 0.410422,-10.345118 -4.046247,-10.839874 2.960887,4.078235 -3.127553,10.492735 3.565886,12.149945 2.851054,0.13573 11.673709,5.202396 5.396897,6.516213 -4.970443,0.872093 -10.148365,0.680708 -15.005931,2.035151 -0.70704,2.988866 0.396239,6.424668 0.476141,9.606946 0.287811,2.40425 -1.641355,2.545188 -3.389464,3.020928 -4.811506,0.753299 -9.751199,1.001256 -14.602997,0.532981 z m 5.233462,-19.746721 c 1.746904,-2.682706 -1.067366,-3.909143 -1.246493,-0.545875 -1.678894,2.767019 0.211145,4.283569 1.246493,0.545875 z M 44.020393,59.451425 c 1.291752,-2.558455 -3.292334,3.357817 1.4e-5,0 z M 74.62517,25.020545 c 1.833493,-1.102227 4.070714,-6.558916 0.477239,-3.096739 -3.9417,4.385889 -8.067449,8.829537 -10.85731,14.039925 3.864264,-3.108715 7.014266,-7.264378 10.380071,-10.943186 z m 2.39257,8.719479 c 2.984363,-4.37733 -4.506454,4.316288 0,0 z M 33.45576,31.394036 c -2.8631,-5.068088 -6.172377,-9.92175 -9.737156,-14.521994 -3.770554,-2.084518 2.019158,3.544016 2.579668,5.006352 2.634713,2.878311 4.139835,7.881467 6.965063,9.784581 z m 46.182251,-0.929333 c 2.984398,-4.377327 -4.506443,4.316203 0,0 z m 2.947803,-3.602874 c 4.095885,-5.338886 -5.590059,5.273817 0,0 z m 5.540092,-11.418422 c -0.158313,-3.246362 -1.646467,2.135742 0,0 z m -77.521,40.745155 C 9.1186212,53.243024 2.5189215,48.949361 7.7472747,46.580547 c 2.7222683,-5.46272 6.7816913,1.923443 9.2918973,4.131325 3.170324,3.341636 7.25225,8.888938 1.782299,12.323074 -3.023514,2.389803 -6.088039,-5.407989 -8.216565,-6.846384 z"
       id="color-primary"
       sodipodi:nodetypes="scccccccccccccccccccccccccccccccccccccccccccccccccsscccssscccccccccccccccccccccc" />
    <path
       id="color-darker"
       style="fill:#940000;stroke-width:0.655068"
       d="M 19.299194,8.3885135 C 19.526578,9.8388684 22.90162,11.938595 20.70217,9.1028144 20.319018,8.7337209 19.828587,8.4690957 19.299194,8.3885135 Z m 3.56577,1.1143829 c -1.7249,1.3056206 1.919869,2.9080856 0.212022,0.07753 z m 1.628704,6.5506746 c 1.622714,3.143444 3.718493,6.74708 5.879164,9.686821 3.174526,3.906552 5.086457,8.601399 8.269925,12.515264 2.353544,3.222127 5.21216,7.591582 7.600458,9.194958 2.174319,1.701839 -1.733986,-3.473929 -2.255352,-4.439891 C 40.521373,38.0443 37.555825,32.646023 33.465027,28.167197 29.881684,24.656989 27.735504,19.87356 24.493668,16.053571 Z m -2.849287,0.9826 c 0.539056,1.267507 2.466022,3.861727 1.987082,4.341738 -1.427324,-0.618218 -2.400508,-4.94227 -3.874352,-3.417242 -0.65956,0.983392 -2.905207,1.827716 -1.345795,3.007395 1.481987,2.246173 3.274681,4.329281 4.424834,6.760638 -3.121187,-1.115176 1.823285,3.806882 2.524975,4.690042 1.73877,3.501714 5.557595,4.292125 7.39237,0.723093 C 30.290717,27.078536 26.127088,21.761117 21.644381,17.036171 Z m 65.600134,0.766383 c -2.518628,1.242051 -4.556587,4.950264 -5.720317,6.328507 2.12181,-1.708592 4.777611,-3.895652 5.720317,-6.328507 z m -6.356196,0.642266 c -2.264131,0.505241 -4.232572,1.816507 -2.557376,3.708241 -0.650907,0.678627 -4.484944,5.876562 -1.865214,3.618125 1.800408,-1.553197 6.475317,-5.104304 4.42259,-7.326366 z m -6.288393,2.194223 c -1.629693,0.737249 -3.499493,4.151016 -0.857218,1.310132 0.21587,-0.396007 0.904907,-0.811228 0.857218,-1.310132 z m -4.792739,2.182701 c -1.156753,1.600863 -4.448049,6.181201 -4.496971,7.109178 1.379277,-2.016001 5.092912,-4.977533 4.496971,-7.109178 z m 2.456499,1.101597 c -1.11585,0.451567 -4.517117,4.116482 -1.746415,1.827933 0.508556,-0.459091 1.939556,-1.158612 1.746415,-1.827933 z m -38.68735,4.893809 c 1.662932,1.922807 5.252606,6.734219 4.888713,7.859877 -1.82394,-2.45815 -3.756643,-5.009305 -4.888713,-7.859877 z m 37.873632,2.302965 c -3.103865,1.046037 -5.627224,3.168142 -7.627431,5.986985 -0.01984,1.744597 -3.607623,4.20477 -0.303159,2.574205 2.763644,-3.106348 6.947734,-5.139423 7.93059,-8.56119 z m -13.509479,0.254613 c -2.172803,1.262981 1.828897,2.765219 0,0 z m 5.958296,3.152518 c -3.541467,-0.172752 -4.917114,2.015191 -7.135734,4.307993 -1.036403,2.73813 5.578653,5.377924 3.407484,1.64006 -2.942961,-1.064163 3.063098,-5.258476 3.72825,-5.948053 z m 7.274834,1.486689 c -2.424932,-0.758381 -4.793799,5.111449 -1.053906,3.490838 1.113922,-0.02328 2.604297,-3.234961 1.053906,-3.490838 z m -3.615665,1.001789 c -3.522388,1.48066 2.316096,1.640964 0,0 z m -23.994403,6.550672 c 1.854183,1.415759 1.526619,3.974661 0.127234,0.801437 0.03623,-0.208893 -0.38036,-0.589942 -0.127234,-0.801437 z m 15.074227,0.875133 c -1.101642,1.652877 2.589671,0.817453 0,0 z m 4.082651,0.03072 c -1.747946,0.263074 -1.788652,3.622174 -0.08106,1.195137 l 0.11949,-0.518324 z m -5.443965,0.630755 c -1.055132,2.247327 1.217659,1.985009 0,0 z m 12.489144,1.05087 c -1.71104,1.757061 -7.012258,1.604628 -5.490151,5.655005 1.633165,0.667052 2.709228,4.275943 3.427069,3.548741 2.719912,-2.584744 0.29754,-5.455988 -1.488832,-7.011649 1.639126,0.165586 2.586219,0.417208 3.551914,-2.192097 z M 9.098307,46.32869 c -4.4946508,2.623654 2.282573,6.703433 3.560782,9.555989 2.046572,1.574887 5.374282,9.636009 7.563633,5.048133 -1.220525,-1.709922 -4.885963,1.681276 -1.477786,-1.33191 -1.097657,-3.141586 -5.01273,-4.93877 -6.915402,-7.841074 C 10.662379,50.188815 8.8129758,48.418032 9.098307,46.32869 Z m 45.10881,4.575236 c -2.504047,1.494872 4.283296,8.458591 2.602356,3.183217 0.263033,-4.773424 -2.203791,1.281108 -2.602356,-3.183217 z m -3.916333,1.271749 c -0.887996,1.075743 -2.567228,1.198877 -0.11386,1.447038 0.710072,-0.1769 0.834113,-1.203444 0.11386,-1.447038 z m 0.740789,1.870524 c 0.584326,1.352457 0.466037,4.491213 2.037194,3.640996 -0.754727,3.034711 5.539771,5.080961 3.338967,8.151618 -1.462191,-1.029827 -3.054398,-1.704596 -3.936689,-1.275452 -0.02162,-2.831217 0.04338,-4.396632 -1.856046,-6.882689 -1.704735,0.862743 0.854253,-2.975363 -1.616902,-1.253586 -2.887755,1.993766 -3.496451,6.493068 -6.771475,8.803982 -1.271697,2.869784 -7.017123,3.519283 -5.066628,6.974182 0.698037,-0.0778 -0.456538,3.224392 2.165817,2.316487 0.783667,-3.435809 5.335766,-3.971087 8.377898,-4.110868 1.881626,1.457073 7.430774,1.439289 8.157697,4.49694 1.267909,-0.226141 1.670153,-4.125293 2.133076,-0.644856 1.913857,-3.007473 -1.295886,-7.700787 -0.969027,-11.487846 -1.543582,-3.145802 -3.51659,-6.252031 -5.993882,-8.728913 z m 9.506154,0.0013 c -1.897072,2.235988 4.076378,6.67484 2.532342,8.162993 -4.25568,-3.854304 1.107389,6.525153 3.736312,2.201821 1.973486,-5.05608 7.635235,0.453685 6.827318,4.076411 1.014176,-3.120981 0.05282,-8.184111 -3.892335,-9.310479 -3.005204,-1.982922 -8.084538,0.533405 -8.518207,-4.429426 l -0.288041,-0.533317 -0.397389,-0.167987 z m -15.612861,2.109786 c -2.55249,-0.682923 -7.355831,4.399307 -3.322663,4.440875 -1.344402,-0.588845 -0.499171,-3.03849 -0.05243,-0.849474 3.256047,-2.564019 0.06477,0.80943 0.666351,0.438508 0.832143,-0.927651 3.635108,-2.841774 2.708726,-4.029909 z m -3.295804,4.430658 0.115154,-0.07292 z m -1.748987,2.630501 c -4.503385,0.46686 -7.988654,3.562945 -11.776761,5.455527 -4.759223,0.06979 -5.566638,5.377563 -5.548453,9.10448 0.237285,-1.978259 3.023109,-4.981638 2.969979,-1.224261 0.817176,1.800109 3.043264,7.309375 4.190181,5.791707 -1.140683,-2.201613 4.252697,-1.939751 1.691131,0.487867 -3.321652,1.65059 -7.166904,2.069546 -8.257157,-1.398813 -0.962466,-3.50024 0.368657,3.276692 1.305645,4.527295 2.83569,2.38195 9.766053,-0.07721 11.936405,-0.113155 2.780497,-0.428969 6.385268,0.400459 8.136118,-0.423302 0.94648,-1.363898 -1.945024,-6.852237 0.964711,-5.114772 1.822672,1.006171 4.961354,1.704351 1.732478,-0.492949 -2.33138,-1.703472 1.429085,0.367827 2.240261,0.760731 0.653237,2.84175 5.859251,1.98405 7.445548,1.11396 -3.456633,-0.45244 -6.416561,-2.284522 -9.58085,-3.642645 -2.075157,-2.47258 -4.082382,-2.60295 -6.638719,-0.249837 -3.030559,1.076494 -8.338371,4.896824 -10.080932,0.291858 -0.734566,-2.414497 -0.215669,4.722513 -1.43968,2.202691 -0.430073,-1.524807 -1.668023,-7.129911 -0.273798,-6.922989 1.27947,1.464779 -0.719749,-4.482836 1.939608,-3.651481 0.899727,-3.354324 5.718791,-4.442958 7.096977,-2.732992 0.843436,-0.709445 2.691026,-2.717084 1.947308,-3.76893 z m 11.569874,10.181652 c -1.960992,-0.05501 -5.265809,2.46435 -1.457803,1.007519 0.225451,-0.18216 1.765366,-0.607259 1.457803,-1.007519 z m 20.253351,0.07676 c -1.891057,0.03195 -3.771174,0.262339 -5.656351,0.397901 0.428363,2.86919 0.530947,5.847121 1.029918,8.651862 4.25039,0.896428 8.671026,-0.434841 12.975553,-0.627978 2.374458,-0.340788 7.155715,-1.860511 3.143572,-3.983884 C 79.469481,76.333023 75.880601,73.511888 71.7033,73.476861 Z m -18.650227,8.164077 c 2.17874,0.897337 -2.970755,0.302654 0,0 z m 10.456766,0.0025 c -6.109116,0.131005 4.255376,0.818384 0,0 z m -10.220073,4.321906 c -3.87753,0.690976 6.217807,1.325547 1.719351,0.183482 l -0.872366,-0.122082 -0.846985,-0.06137 z m 9.644329,0.264844 c -3.450664,0.551243 3.39966,0.562135 0,0 z m -16.765631,0.148383 c -4.036697,0.881483 1.198905,9.783709 0.507935,3.370014 2.177992,0.37461 4.952196,2.282405 7.961883,2.047082 3.987694,0.271323 7.311708,-1.923475 11.444332,-1.907606 1.545996,-1.748199 -4.361828,-1.610125 -6.592739,-1.523818 -4.430145,0.56196 -8.480313,-0.836881 -12.627503,-1.957639 z m 21.408675,6.475191 c -6.94958,2.181773 -14.404582,1.507327 -21.518073,0.630336 -1.660045,0.310623 1.796132,3.388577 3.36039,3.129119 5.510219,0.607347 11.368548,0.323176 16.782921,-0.871022 1.484112,-0.415716 2.690502,-2.214903 1.374762,-2.888433 z"
       sodipodi:nodetypes="cccccccccccccccccccccccccccccccccccccccccccccccccccccccccccccccccccccccccccccccccccccccccccccccccscccccccsccccccccsccccccccccccccccccccsccccccccccccccsccccccccccccccccc" />
  </g>
</svg>
