<?xml version="1.0" encoding="UTF-8" standalone="no"?>
<!-- Created with Inkscape (http://www.inkscape.org/) -->

<svg
   width="100mm"
   height="100mm"
   viewBox="0 0 100 100"
   version="1.1"
   id="svg10406"
   inkscape:version="1.1.1 (3bf5ae0d25, 2021-09-20)"
   sodipodi:docname="warsun-src.svg"
   xmlns:inkscape="http://www.inkscape.org/namespaces/inkscape"
   xmlns:sodipodi="http://sodipodi.sourceforge.net/DTD/sodipodi-0.dtd"
   xmlns="http://www.w3.org/2000/svg"
   xmlns:svg="http://www.w3.org/2000/svg">
  <sodipodi:namedview
     id="namedview10408"
     pagecolor="#ffffff"
     bordercolor="#666666"
     borderopacity="1.0"
     inkscape:pageshadow="2"
     inkscape:pageopacity="0.0"
     inkscape:pagecheckerboard="0"
     inkscape:document-units="mm"
     showgrid="false"
     inkscape:zoom="1.4823794"
     inkscape:cx="77.915278"
     inkscape:cy="177.08018"
     inkscape:window-width="1920"
     inkscape:window-height="1017"
     inkscape:window-x="-8"
     inkscape:window-y="-8"
     inkscape:window-maximized="1"
     inkscape:current-layer="layer1" />
  <defs
     id="defs10403" />
  <g
     inkscape:label="Layer 1"
     inkscape:groupmode="layer"
     id="layer1">
    <path
       id="color-brighter"
       style="display:inline;fill:#550000;stroke-width:0.269875"
       d="M 48.363461,3.2418541 C 42.416453,2.3269753 44.767012,10.194725 43.539823,13.458031 40.849609,17.391783 36.929022,12.88422 37.562277,9.4848353 c -0.566362,0.206122 0.176333,6.5033367 -3.572858,6.8359277 -2.807242,1.639242 -6.150843,9.548597 -9.225897,5.286252 -2.475651,-4.289865 -5.999691,1.624789 -4.430998,4.614592 -1.904742,4.401433 -3.890103,8.478465 -6.585212,12.461055 -3.649014,2.789251 -7.2326425,5.797445 -9.18561,10.251958 -3.73490027,4.509777 -3.56999077,11.802502 1.1275641,15.599421 3.7324646,3.00849 7.3125359,6.239769 11.4230929,8.472304 2.731543,3.31603 6.02162,6.064583 10.071888,7.620155 3.426553,2.141357 5.648193,5.999946 9.919441,6.919313 3.256965,1.214667 8.103934,1.642098 10.463959,2.83921 -1.695271,4.341967 4.323229,4.914503 6.100008,3.008796 -0.779831,-2.246539 -0.244658,-7.323426 1.241003,-7.949553 -1.604399,6.636773 8.881415,5.105824 7.257677,-0.321341 2.536098,-5.962084 -0.79509,7.121834 3.408402,3.46596 4.623252,-1.06691 3.095628,-7.281484 8.287469,-7.923982 2.839619,-2.741597 5.162587,-6.090002 8.872419,-7.996198 1.847914,-1.924669 9.054601,-1.293483 5.650351,-4.609952 3.643461,-1.495167 7.496654,-5.303581 9.280623,-7.280556 -0.104937,-3.92142 1.509774,-8.294181 -0.698169,-12.364868 -2.521736,-4.125625 -5.45289,-7.301252 -10.317831,-9.147584 -4.349994,-2.361147 -4.512021,-7.680794 -6.01293,-11.802145 0.08925,-2.84633 -4.195413,-7.569002 -3.196078,-2.004208 -1.56263,4.857556 -2.945424,-4.383154 -4.088538,-6.021723 -1.935001,-0.976314 2.06601,-3.277087 -1.811683,-2.045967 -3.661137,2.813843 -8.269262,1.40096 -11.351468,-1.7488 C 58.851223,12.640348 56.254609,13.210446 54.038149,14.701319 52.99373,11.059491 54.304573,5.2221739 50.292067,3.2692615 l -0.967389,-0.027234 -0.961217,-2.04e-4 z" />
    <path
       id="color-primary"
       style="display:inline;fill:#460000;stroke-width:0.269875"
       d="m 48.363461,3.2418541 c -5.97141,-0.8378382 -3.327067,7.0261679 -4.725593,10.3891789 -1.805931,3.664228 -6.330886,-2.100353 -5.779811,2.648981 -0.17625,-5.356724 -6.047924,2.508282 -8.013776,4.394701 -1.070382,3.571703 -7.692513,1.898597 -7.464426,0.289547 0.87635,-2.019202 -3.35852,1.023672 -2.086848,3.00287 -0.01535,4.94139 -3.354521,8.79496 -5.425409,13.161274 -3.863253,3.987996 -8.4501977,7.197202 -10.8040446,12.437186 -3.24741377,4.806393 -2.540005,11.747871 2.0847954,15.435365 3.7027825,3.111387 7.5008702,5.976496 11.5526952,8.628577 2.781837,4.675844 8.606201,5.524208 12.221312,9.224931 3.381045,4.358562 9.101278,4.905211 13.858862,6.64734 2.841215,-0.259437 4.696595,-0.09955 3.891448,3.397049 1.532529,4.873764 8.422844,-2.029953 4.883556,-2.872391 -2.122559,2.819361 1.610447,-3.044976 -0.892153,-2.279527 2.687047,-3.034418 5.331387,-4.064057 4.723977,0.700791 2.97024,4.566397 6.734386,-2.044539 6.779603,-5.32337 0.796804,1.60698 -1.001487,8.231696 2.278588,4.926978 0.01061,-4.486562 -0.474983,-9.77619 4.05959,-12.461656 1.49482,-1.259405 5.642416,-3.376761 3.343846,0.377899 -0.914685,2.324244 -0.562959,4.542764 0.599454,0.914043 0.683114,-2.535577 5.088627,-9.246443 3.877162,-3.467643 1.643761,2.612536 1.96246,-3.886629 4.149646,-4.66802 1.295839,-0.950426 1.91759,-8.669255 2.827073,-4.021738 -2.842842,1.351776 2.376977,0.598057 -0.193933,3.283605 -1.744424,2.228843 -1.679369,4.803363 1.65441,3.462298 2.802735,0.206111 4.41713,-2.687037 2.622032,-3.612871 -2.923504,-3.520428 1.603532,-6.203589 3.396467,-2.208422 0.332847,-2.790353 -1.411363,-2.284555 -2.280026,-4.067566 -2.520522,-1.412568 -0.704963,-7.653876 -0.07375,-10.793263 0.459898,-2.137481 -3.01408,-10.294666 1.470146,-6.404835 1.438435,2.592167 2.726358,4.283205 2.625837,6.741813 2.076578,-0.717897 0.229164,-6.024936 2.053556,-2.070672 0.777505,4.141057 0.439151,7.102525 -0.704351,11.034656 0.531216,-2.567483 3.673622,-2.188318 2.479284,-5.350798 0.553227,-3.836862 -0.575882,-7.50163 -3.692339,-10.488517 0.444567,-2.68361 -3.633628,-2.327477 -1.564394,-0.130672 -2.991385,-0.821498 -6.200723,-7.855663 -8.072699,-5.722996 1.208323,1.34997 0.869387,7.58625 0.17034,3.464502 -0.483306,-6.375949 -3.895584,4.162497 1.049489,2.47146 -0.167362,3.313133 -2.092255,8.303238 0.549933,10.864316 -0.902629,2.642595 -1.376511,6.809632 -3.635066,7.202515 1.203794,4.397985 -5.150449,4.431809 -5.805677,7.645013 -2.350692,2.493777 -5.026805,2.695666 -4.581157,-1.036127 -0.646802,-2.648011 -0.813674,-6.105913 -3.162744,-6.444839 -1.578052,1.508886 -2.117643,5.57379 0.03325,7.15069 -1.632949,1.89619 2.158942,0.984963 -0.701842,2.294092 -3.55775,2.173426 -0.01703,-5.238843 -3.976001,-6.024498 -1.016695,-2.182565 -0.921621,-0.946294 -1.410231,-0.888664 -0.741652,-3.81529 2.948738,2.480507 2.559506,-1.713978 2.550133,-2.123252 -4.560124,-5.909247 -1.472584,-6.969762 1.35148,3.328505 1.077916,-3.273618 2.12209,0.129907 1.310394,-3.745746 -4.771683,-1.656724 -2.801196,-5.588743 -0.529002,-3.881069 -2.476458,-8.790972 3.753151,-7.63982 3.200913,-1.678879 7.078127,5.741723 8.142956,-0.354654 0.223452,-3.941464 2.506926,-10.230304 -2.089031,-11.114206 -5.101744,4.056163 -6.376051,-3.072281 -3.470234,-3.231003 -0.862685,-1.474838 -7.161267,-0.517844 -4.122085,-2.367767 3.820236,1.990377 5.402807,-1.862499 2.222753,-3.480321 2.805276,-0.563163 7.181524,7.427038 6.828645,1.937582 1.121276,-1.910073 -1.594148,-7.891383 -3.113407,-4.265528 1.094378,2.151343 -2.173028,-3.221283 -3.977439,-1.30353 -2.956705,-2.145192 -10.444739,-0.07599 -10.774505,-4.0219 3.441154,-2.346337 -0.783268,-1.627441 -2.14148,-0.367333 -0.67015,-2.924105 -1.418493,-7.2338295 -1.810765,-8.9544471 0.79763,-2.180097 -2.583915,-2.82183 -4.046442,-2.5470828 z m 2.999728,1.1290482 c 0.538407,1.1684304 -0.501218,1.552848 0,0 z m -0.244576,2.2754874 c 0.308091,1.5594372 -0.355745,2.2335246 0,0 z m -1.844843,1.569168 c 3.435003,1.039839 3.097964,9.7486903 0.648016,6.3420743 -0.787909,4.120076 -1.399338,-3.845655 -1.314545,-5.2173203 -0.68949,-0.7268826 0.330765,-0.8036274 0.666529,-1.124754 z m 2.365094,0.3099372 c 0.417456,1.9605421 -0.357459,1.3336704 0,0 z m -6.617739,0.090678 c 1.344931,2.0798711 -0.75347,7.6177781 -0.355215,2.1064631 0.169942,-0.691142 -0.17545,-1.5190145 0.355215,-2.1064631 z m 1.192829,0.737409 c 0.603075,2.3908901 -0.636644,6.5211961 -0.259356,1.7534001 0.02315,-0.589468 0.02846,-1.1980607 0.259356,-1.7534001 z m 5.664213,7.1595941 c 2.631824,0.69769 0.62323,4.140384 -1.119563,2.135798 -0.898905,2.901186 -1.479785,-3.78164 1.119563,-2.135798 z m 20.535802,0.834921 c -4.031743,0.0041 -1.775707,2.668085 0,0 z m -17.823877,1.920752 c 3.302443,0.868458 0.862155,2.85346 0,0 z m -5.091779,1.338831 c 0.791734,3.124944 -3.691023,0.705412 0,0 z m 16.431272,1.091104 c 2.375773,2.408169 -3.401843,0.725333 0,0 z m -9.69969,0.190802 c 4.497394,-0.496842 2.412218,9.398769 -0.190016,3.08295 0.902241,-0.872835 0.302338,-2.191715 0.810206,-2.622512 z m 7.213358,1.209169 c 2.567136,0.328256 -1.139717,0.564672 0,0 z m 14.758798,0.668365 c -0.973345,1.574166 -0.595058,6.427224 -3.422467,3.619062 -0.384907,1.167074 1.81915,3.612728 -0.974559,2.416176 2.505528,0.687868 7.223528,3.066854 5.947977,-1.473604 0.05926,-1.619393 -0.146809,-3.507025 -1.550951,-4.561634 z M 28.83495,24.020131 c -1.207985,1.666119 -1.49802,0.435581 0,0 z m 12.502804,0.354736 c -0.922762,1.348236 -2.685469,0.453522 0,0 z m 6.286717,0.996744 c 0.661368,0.85174 -1.122888,1.15464 0,0 z m 7.351986,0.745844 c 6.542464,1.025794 -3.507504,8.502638 -3.430107,2.664179 0.960269,-2.684579 4.195005,1.533662 2.48777,-1.412262 2.041143,1.165075 -0.246911,-0.780626 1.380703,-0.489712 z m -1.578664,0.06375 c 0.980567,0.858942 -1.152294,1.328876 0,0 z m 14.978058,0.0082 c 0.180468,1.001426 1.741578,0.06375 0,0 z M 47.848483,26.58944 c 0.506063,0.849527 -0.854974,0.850241 0,0 z m 28.542446,0.42484 c -1.507458,0.591987 1.783919,1.736152 0,0 z m -5.80125,1.074753 c -5.632103,-0.873895 2.081891,1.926393 0,0 z M 64.415752,28.1934 c 0.457582,2.698002 -5.00462,1.114748 -0.700159,0.88589 L 63.9837,28.829298 Z m 7.429996,0.497586 c 0.687266,1.73092 1.10569,0.0061 0,0 z m 8.876886,0.568742 c -0.860084,0.716917 0.002,3.368142 0.08497,1.046724 z m -28.134466,0.430114 c -1.17758,0.69666 1.145328,0.652137 0,0 z m 12.322539,0.61301 c 3.394427,-0.61404 1.411047,1.84265 0,0 z m 15.06134,2.355608 c -3.973226,-1.254457 -2.493767,5.450645 0.888298,4.067056 1.161351,3.339766 -3.63679,1.9334 -0.724231,5.132926 3.251944,4.082295 1.577756,-4.285693 2.217307,-6.219654 -0.06589,-1.788468 -0.327002,-3.415011 -2.381374,-2.980328 z m -36.228083,1.079507 c 0.260814,0.877669 -1.508011,1.072734 0,0 z M 16.576196,35.89696 c -1.222371,2.637496 -0.849403,9.038332 -2.415527,9.391742 -0.01528,-3.361033 0.47903,-6.627103 2.415527,-9.391742 z m 13.779437,0.269882 c 4.757073,2.90597 -0.929424,7.920228 -2.623813,10.810113 -3.933811,-3.772001 -0.174762,-8.191171 2.623813,-10.810113 z m 25.559061,2.676082 c 0.341486,4.543753 5.139066,7.637332 4.454259,12.473376 -0.607339,5.087831 -1.337445,-3.817646 -3.661392,-4.254491 1.318064,-2.774064 -1.436732,-5.40701 -0.792867,-8.218885 z m 10.675351,0.292536 c 1.609427,2.01655 -2.675032,1.408895 0,0 z m 20.408241,1.94922 c 1.336476,2.080117 0.338192,4.342987 -0.225593,0.951935 0.07517,-0.317311 0.150399,-0.634623 0.225593,-0.951935 z m -2.718779,1.019408 c -0.05018,1.317902 1.452939,1.219931 0,0 z m 7.754162,1.086351 c 1.255325,0.535113 1.148337,2.010114 0,0 z m -78.118272,0.343965 c 0.222262,1.450603 -1.273878,0.797752 0,0 z m 62.476593,0.45646 c 0.0152,4.410154 8.157429,7.290562 4.410388,1.394003 -2.253741,-3.017394 -2.339054,1.811541 -4.410388,-1.394003 z M 13.312395,44.927 c 0.341007,1.267329 -0.372003,0.646629 0,0 z m 46.805913,0.147063 c 1.175683,0.57731 -0.788225,1.536742 0,0 z m -36.578074,0.36159 c 0.560313,0.79509 -0.471266,0.779678 0,0 z m 69.431142,0.0358 c 2.254995,0.990583 -0.340782,1.626462 0,1e-5 z m -5.012719,0.273564 c 0.291394,2.292205 0.385897,7.943332 -1.320675,7.720084 -0.501728,-2.670431 1.478122,-4.892328 1.320675,-7.720084 z M 7.9992316,46.205702 c 0.089638,1.738233 -0.982614,0.849089 0,0 z m 6.3837014,0.827016 c 0.232043,0.858422 -1.545626,-0.359101 0,0 z m 0.02583,0.680483 c 0.265126,0.898324 -0.749234,2.838007 -0.278201,0.83639 z m -7.0610279,0.421158 c 0.5603155,0.7951 -0.4712666,0.779678 0,0 z m 87.9444609,0.28358 c -0.79202,0.849589 1.039819,1.481387 0,0 z m -23.347351,0.09598 c -2.004463,0.515682 -2.756611,2.825972 -0.02662,1.293952 1.974679,3.628201 3.431657,-2.345235 0.311396,-1.053844 l -0.28479,-0.240106 z m -65.0867884,0.2314 c 0.228176,1.243798 -0.9743774,3.336644 -0.3709475,0.800394 z m 7.8875174,0.650964 c -0.08321,1.284057 -1.240746,1.572258 0,0 z m 35.238187,0.899762 c 0.837706,2.761089 -0.04182,3.945064 -0.06956,0.602483 l -0.07018,-0.381255 z m 13.708811,0.04529 c -0.735135,0.49573 0.746466,0.794784 0,0 z m 19.69877,0.297809 c -1.287301,1.678431 2.069223,1.040666 0,0 z m 11.314187,0.364232 c -0.894326,0.675648 1.006893,0.958188 0,0 z m -32.57317,1.988776 c 0.560307,0.7951 -0.471281,0.779688 0,0 z m 11.640995,0.663622 c -2.137614,3.122781 -5.556787,0.795263 -6.562109,4.024675 -0.866041,-5.151428 -2.018355,4.872683 0.160681,0.650515 1.435558,1.895324 2.627418,-3.273588 3.290673,-0.154468 0.80888,-1.359813 1.601583,-4.407155 2.798278,-2.461505 0.458806,-0.579768 0.45289,-1.373777 0.312477,-2.059217 z m 19.249675,0.270402 c -2.635425,0.889889 -0.05457,4.631004 -2.666066,5.678972 2.396765,1.561712 2.068968,-3.42469 4.565489,-3.806752 -0.625882,-0.611765 -1.572187,-0.951864 -1.899423,-1.87222 z m -43.065094,0.187117 c 0.830433,1.997568 0.173828,10.532785 -0.170442,4.558451 0.04243,-1.520004 0.231693,-3.036009 0.170442,-4.558451 z m 3.941647,0.539753 c 0.533164,2.008278 -1.290422,3.860384 -0.242291,0.723119 z m 25.550633,1.656664 c -2.336351,0.633349 -7.018834,5.415404 -3.301546,6.162442 0.769733,-3.097995 2.761374,-3.330228 3.932967,-6.213575 z m 1.910205,0.444873 c -0.374789,1.158995 1.844089,1.363057 0,0 z M 34.284629,58.16458 c 3.76409,-0.04009 1.717523,5.230448 0,0 z m -0.09014,1.21127 c 3.473167,1.307518 1.625783,7.842199 -0.26849,2.770178 -0.317408,-0.906434 -0.219254,-1.941244 0.26849,-2.770178 z m -17.121777,0.541865 c 3.485718,1.220073 0.837023,5.001958 0,0 z m 78.689044,0.594895 c -2.899635,1.504194 4.773654,0.394138 0,0 z m -50.264661,0.315404 c 0.809502,0.91953 -1.130688,2.010104 0,0 z m 48.611231,0.436968 c -1.533335,1.05315 -1.5157,2.121243 0,0 z m -75.155978,0.633043 c 0.560317,0.7951 -0.471266,0.779688 0,0 z m 50.435533,0.180795 c -1.65294,0.614325 2.112257,0.333703 0,0 z m -6.139135,0.415884 c 1.178763,1.226918 -1.067715,1.121337 0,0 z m -29.935567,0.220851 c 0.406779,2.738149 -1.226831,4.563959 -0.563872,0.774547 l 0.196959,-0.459857 z m 17.276745,0.02315 c 3.964709,1.529286 -7.367173,0.885064 -1.142828,0.19889 0.376981,-0.09721 0.753953,-0.170963 1.142828,-0.19889 z m 2.839486,0.423259 c 0.9644,1.63862 1.026977,10.11281 -0.400411,4.459889 1.560692,-3.793207 -2.011552,-2.344062 -4.463948,-2.823921 1.433385,-0.752067 4.023471,-0.116637 4.864359,-1.635968 z m 39.736456,0.123869 c 0.147758,1.762356 2.068244,0.927771 0,0 z m -3.429311,2.858458 c -1.1516,1.804604 2.08181,0.347147 0,0 z m -37.16421,0.51815 c 1.020877,0.540998 -0.645119,0.708828 0,0 z m -0.462794,1.097948 c 0.07528,4.248678 2.869045,7.619094 1.824616,11.685957 0.214262,2.007696 0.425432,9.212476 -0.944377,3.972022 -0.175062,-5.069593 -0.158334,-10.184914 -1.346196,-15.136677 l 0.341078,-0.156611 z m 11.195071,0.898171 c 2.641841,2.772524 -5.213944,7.359005 -1.90942,2.929797 0.540131,-0.983575 0.741918,-2.470083 1.90942,-2.929797 z m -16.527733,0.287273 c 0.341037,1.267269 -0.372005,0.646639 0,0 z m 4.153021,0.550821 c 1.965255,2.268806 -1.730511,3.440307 -1.480601,2.847381 0.28612,1.682949 0.857534,9.657268 -0.494731,4.08615 -0.713673,-2.971035 -1.135443,-5.373329 1.975332,-6.933531 z m -5.398033,1.894915 c 0.735134,0.49573 -0.746467,0.794794 0,0 z m 18.29932,0.668365 c 1.710122,3.317652 -4.380288,2.66271 0,0 z m 14.05563,2.715617 c -2.237288,1.398135 0.861635,1.877882 0,0 z m -14.454644,0.29781 c 1.285547,2.841251 -4.390182,3.065039 -1.143869,0.280602 0.340038,-0.21778 0.765653,-0.180683 1.143869,-0.280602 z m 0.198186,0.258284 c -3.15638,-0.165893 1.203059,0.440701 0,0 z m -3.350771,0.506542 c 1.908562,0.862166 -1.785408,0.334479 0,0 z m 10.587324,0.05794 c -4.557054,-0.257213 -0.726903,5.177704 0.35086,1.075631 L 71.019055,76.41189 Z m 5.849221,0.757442 c -2.069142,0.968745 -1.976709,2.711711 -0.689082,0.721803 0.211916,-0.244188 0.783524,-0.268882 0.689082,-0.721803 z m -2.615994,0.129142 c -2.894679,2.247397 2.13387,1.78395 0.0357,0.02295 z M 60.677561,77.2202 c 3.920686,3.581709 -7.381179,1.942987 -1.524543,1.175794 3.83063,-0.418414 -2.015357,-0.541742 0.552044,-1.039369 z m -11.242512,2.554324 c 1.102824,1.54273 1.274552,6.215585 0.0817,2.792556 -0.749455,4.422231 -1.810367,-1.913265 -0.0817,-2.792556 z m -0.499157,1.315647 c -0.371994,0.646609 0.340976,1.267361 0,0 z m 19.067299,0.444873 c -2.847259,2.502907 1.35915,4.322057 0,0 z m -2.066755,0.639897 c -0.747884,2.202782 2.105759,0.820845 0,0 z m 3.252199,1.447941 c -0.373922,0.854505 0.379032,1.737581 0,0 z m -8.215376,0.290435 c 0.640754,0.872518 -1.994896,0.480369 0,0 z m -12.307246,1.224979 c 0.341037,1.267269 -0.372004,0.64664 0,0 z m -0.02744,1.318269 c 0.560307,0.79511 -0.471281,0.779698 0,0 z m 0,1.079507 c 0.560307,0.7951 -0.471281,0.779688 0,0 z m 7.573898,0.121227 c -0.318485,0.747904 0.350523,1.583019 0,0 z m -7.807406,0.86498 c 0.966011,0.48706 -0.923335,0.463876 0,0 z m 1.349378,0 c 0.966011,0.48706 -0.923345,0.463876 0,0 z"
       sodipodi:nodetypes="cccccccccccccccccccccccccccccccccccccccccccccccccccccccccccccccccccccccccccccccccccccccccccccccccccccccccccccccccccccccccccccccccccccccccccccccccccccccccccccccccccccccccccccccccccccccccccccccccccccccccccccccccccsssscccccccccccccccccsccsscccccccccccccccccccccccccccccccccccccccccccccccccccccccccccccccccccccccccccccccccccccccccccsssscccccccc" />
    <path
       id="color-darker"
       style="display:inline;fill:#2b0000;stroke-width:0.269875"
       d="m 52.117469,4.3756453 c -1.304631,0.5640906 0.937339,2.593605 0,0 z m -7.008318,0.215577 c -3.744636,2.7010926 4.115037,5.5738207 1.017756,2.1099006 -0.08272,-0.7966608 -0.462744,-1.5411384 -1.017756,-2.1099006 z m 5.847639,2.0240676 c -0.598464,1.669944 -4.481421,-0.291057 -1.366024,1.5856206 1.132404,0.6391422 1.846302,-0.5874486 1.366024,-1.5856206 z m -5.529267,0.259335 c 0.340986,1.2673398 -0.372004,0.6466188 0,0 z m 5.960962,0.311508 c -0.382684,1.5680664 0.349187,2.7023984 0,0 z m 1.035759,0.3737178 c -1.630001,3.6951023 -1.140972,9.8090333 2.843903,11.3264363 0.904097,2.325815 2.917842,1.610019 1.717925,-0.699842 1.660243,-0.256938 3.862128,-1.096735 0.654411,-0.444679 -2.676327,0.878903 -3.514859,-0.460612 -2.333036,-2.044947 0.523617,-0.824344 2.971373,-1.295074 0.270453,-1.45705 4.349362,-1.263759 -1.297582,-0.243515 -2.060196,1.480959 0.370893,-2.326508 -0.06375,-6.6045511 -1.09346,-8.1608773 z M 44.32272,10.517932 c 1.083179,4.595549 -4.517483,5.167126 -5.929095,4.325759 0.571641,1.779176 0.07459,7.397917 -0.612937,3.847511 -3.566203,1.50244 -8.747953,2.407139 -12.562297,4.736034 -5.992496,-1.693884 -6.429344,8.211448 -6.954801,9.472729 1.415486,1.520902 -4.650075,8.357258 0.701216,10.560264 2.166136,1.000457 0.904639,5.590243 2.13627,1.344258 1.063337,-2.736129 1.943855,4.200024 2.488481,0.08578 0.237466,-3.873541 2.75805,-8.162794 6.034984,-9.769519 4.44044,2.24248 4.497517,6.922128 1.092322,10.186557 -0.596099,2.780662 -4.130895,6.631091 -4.663957,7.778173 -0.241074,-1.284925 1.961097,-6.7794 0.320469,-3.068293 -1.577193,-3.300801 -0.838552,7.637199 -3.940877,3.40067 -2.336045,-0.185405 -4.307085,-3.941464 -5.183669,-0.08456 -0.01199,3.589288 6.182646,3.48737 5.614932,7.107901 -2.479534,2.667922 -6.808496,-5.99962 -7.391295,-2.323285 3.526852,2.287585 4.71756,5.020828 8.012687,7.202098 1.777306,1.46374 4.436184,3.746031 4.370298,-0.3427 -0.181026,-4.128277 2.795702,-9.487785 7.470336,-6.543392 3.899634,0.419618 2.27421,6.398277 1.689416,8.607178 -1.198941,-1.173316 -4.224195,-7.249762 -3.084255,-2.103678 0.253145,1.650329 -0.996578,10.355937 -1.306181,4.492376 -0.112383,-2.315696 0.506687,-7.656814 -2.918618,-5.215199 -0.294766,-4.164232 0.07423,6.504907 -2.458767,4.450321 1.544042,1.690813 4.260632,2.722329 4.394973,5.426777 1.767891,0.455145 -0.856198,1.874159 1.917524,1.542526 2.472634,0.215648 4.333949,3.391847 0.501657,2.286034 -2.346878,-2.333036 -5.62676,-0.678922 -7.634954,-3.871604 -4.16923,-1.501246 -7.835723,-3.26962 -9.639156,-7.588096 -3.524233,1.969987 2.065988,6.663997 4.097683,8.672815 0.926883,1.38873 5.959955,3.011265 3.911203,4.074207 -1.391835,0.467425 6.042063,0.948947 4.339983,1.948628 0.688633,2.746371 6.890404,7.888945 8.586833,4.618366 -0.295606,2.014857 1.572277,3.03244 1.967643,0.780657 -2.635647,-0.02438 1.989914,-2.352528 1.076149,0.398871 2.475154,0.68695 5.713753,1.705675 1.248755,1.669893 1.271725,1.35299 4.638103,1.122714 4.49874,0.502503 2.543329,0.136803 2.306608,-5.649035 1.408946,-1.578062 0.258611,-3.161725 1.018266,-6.51016 -1.868487,-8.989444 4.19269,0.908892 -2.363611,-3.292223 0.046,-3.922654 1.469229,2.239491 1.910267,-0.237722 2.124477,2.231709 1.808205,-4.378881 -5.832293,-5.040443 -1.644944,-8.527323 0.693447,1.022397 0.988625,6.237984 2.016815,2.237788 1.656735,-2.11245 1.110179,-1.511935 2.565025,-2.796432 1.998792,-0.445485 1.734122,8.102738 2.289166,2.472185 -0.665867,-2.877359 -1.465006,-5.916327 -4.531605,-3.116376 -6.274755,-4.47884 -3.592134,7.072507 -4.391743,7.037113 0.220891,-2.709436 -0.542149,-4.56043 -1.885238,-5.547586 2.123622,-1.326011 -0.931158,-3.982274 2.817691,-4.238978 2.43626,-0.0611 7.942159,-0.721986 2.556008,-0.704361 -6.653111,2.033013 -1.973475,-6.304589 -2.386616,-9.738776 0.322024,-2.716719 0.391547,4.442712 0.75942,0.564754 -0.130305,-2.197743 0.589152,-9.733697 0.630666,-3.512401 -0.07783,1.898006 -0.455287,9.070748 0.959678,3.533994 0.467772,-2.225538 2.951971,-8.844502 2.525489,-3.084582 0.481409,2.408077 -1.022132,7.828949 0.695589,8.514603 1.205497,-3.701753 0.748456,6.570432 2.109156,1.393024 -0.660307,-2.080065 0.751903,-10.156548 0.573087,-3.831497 -0.676892,6.646126 0.788236,13.243782 0.411631,19.903923 0.372035,2.172059 -0.974589,8.492948 0.10149,8.136734 2.2435,-2.741852 1.821832,2.006992 2.972678,0.05692 1.192186,1.527541 4.066954,0.441252 1.458161,0.01714 0.452421,-3.02428 4.613664,-0.280582 2.608018,-3.204473 0.774537,-3.959324 -5.986819,-1.453796 -5.604533,-3.535188 3.212613,0.195677 -0.714867,-2.441472 2.995251,-1.851147 -4.630913,-1.180272 4.92559,-0.875772 0.505308,-2.376467 2.027035,-4.058682 -0.554177,-1.851065 -1.036076,0.225828 1.279182,-2.872514 -1.770842,-0.214924 -1.188442,-2.608201 -0.303328,1.33979 0.757635,-3.158869 1.958757,-3.992025 0.495393,-1.825413 -4.272383,-2.234769 -0.658492,-3.116529 0.912002,2.090113 1.993845,4.69349 4.706484,2.217021 -1.371747,-1.795924 -7.498877,-6.782408 -2.433098,-5.584102 -2.517503,-3.348507 3.854325,-3.960558 1.053436,-0.444597 -1.180212,1.631082 0.193524,4.382511 0.665468,0.988227 1.027456,-4.763074 2.823105,3.536564 2.856531,-1.364862 -1.697627,-1.080262 -4.188947,-4.167282 -1.741518,-5.137261 0.395209,3.196384 2.181637,-1.106904 1.719455,-1.084066 -3.364878,-0.369618 -4.977702,5.743834 -6.61774,5.159466 0.841082,-2.372316 -0.231876,-4.6624 1.763193,-5.51973 -0.897539,-1.289148 -2.167,-5.231244 -2.12364,-0.986871 -0.416691,3.74388 -4.772754,-2.140459 -2.772891,-3.91173 0.109691,-2.77539 -1.433242,-9.469446 -3.058694,-9.613459 1.136127,6.159259 -7.195039,8.254074 -9.438243,2.496674 -1.636097,0.436305 0.557193,3.164866 -1.538984,3.879805 -0.691387,1.635243 -0.35906,8.141895 -0.926006,6.56931 -1.491221,-2.490983 0.123665,-4.924234 -0.594549,-7.698705 -1.520362,0.877271 1.044397,-4.672631 -0.124913,-4.238202 1.216923,-2.454324 3.483788,-2.01806 1.482349,0.698251 -1.790314,2.564331 -0.611792,3.409533 0.573108,0.512305 0.554036,-3.882202 6.347202,-7.805968 9.698953,-6.036921 0.147492,2.025955 1.265361,-2.683712 3.586922,-1.515302 4.346974,-2.590178 4.780617,6.603592 8.840176,7.268428 2.311606,1.510733 4.565194,0.748415 1.916274,-1.746331 -1.401316,-3.608638 -10.390913,-4.851569 -6.761151,-8.908742 2.898768,-0.151051 7.522377,2.687925 8.723295,4.876416 -2.856327,3.116264 2.862722,6.003027 4.021686,8.857262 4.663542,2.302181 -3.264683,-8.193384 1.430408,-4.078857 2.731743,3.50985 2.75349,-9.986117 1.843313,-3.849776 -2.194428,2.133095 -2.300447,-6.8406 -4.653587,-2.075884 -2.962865,-2.67548 -6.225294,-5.157589 -9.925589,-5.466802 2.062685,0.544955 5.77116,-2.209524 2.362983,-2.774951 -3.400792,0.960422 -1.821516,-3.86477 -1.630011,-3.554435 2.684589,-0.699159 -4.571916,-2.168479 -0.34219,-2.286156 -1.947068,1.010055 -6.606397,0.03601 -2.83818,2.007798 2.726082,3.226393 -0.37587,7.923289 -1.421217,8.250301 -5.045889,1.825984 -10.656012,2.041438 -15.588255,-0.412845 -5.582776,-2.029035 5.999612,-8.33695 5.015669,-3.340459 0.730799,1.521554 0.920356,-1.397706 2.581416,-0.757942 2.300375,1.564242 5.610265,1.261169 3.279688,-1.756297 0.602085,0.04723 3.571132,0.20704 1.346685,-0.70737 1.696403,-0.0155 5.498943,6.004342 3.166753,1.584927 -1.277529,-2.461862 -0.190607,-4.277156 -2.595981,-5.766652 -3.668053,2.082422 -6.521034,-2.757182 -5.081987,-6.171418 -0.212701,-4.6232107 -0.918959,3.566777 -2.878654,3.478588 -2.503144,1.932298 -1.219237,-5.667467 -1.631175,-6.715823 z m -0.271987,3.342336 c 0.560321,0.7951 -0.471265,0.779688 0,0 z m -6.749508,0.244576 c -2.0092,1.452194 -5.32739,3.522294 -0.598253,3.076146 1.761209,0.05743 0.811629,-2.151516 0.598253,-3.076146 z m 13.912269,1.678818 c -2.844056,1.42395 -0.0154,1.710815 0,0 z m -1.137484,0.146533 c -0.270086,0.666529 1.519382,0.297136 0,0 z m -13.163257,0.29886 c 0.79709,0.474657 -1.235711,0.0031 0,0 z m 35.409498,1.169114 c -1.797005,0.175572 0.510571,0.763337 0,0 z m -6.840171,0.956678 c -1.054874,1.851769 3.100933,1.418708 1.853136,3.49657 2.646227,0.05569 3.853662,5.20607 6.299836,2.651235 -2.04921,-0.208671 -1.279202,-4.832525 -2.408118,-1.160413 -1.42803,-1.386802 -1.267136,-6.411679 -2.506028,-2.710997 -1.061452,-0.777811 -1.830563,-2.06194 -3.238826,-2.276395 z m -1.762091,0.145483 c -2.519645,1.163136 -0.183865,6.140226 0.05559,2.061654 0.464518,-0.614733 1.381968,-1.859052 -0.05559,-2.061654 z m -1.884909,0.228235 c -4.362438,0.245249 -1.518749,2.603978 0,0 z m 10.599442,0.0031 c -2.764689,1.677114 3.73932,3.050575 0.297514,0.127255 l -0.244484,-0.104438 -0.05314,-0.02275 z m -9.945316,0.3305 c -3.477037,0.936085 1.943182,1.22602 0,0 z m -14.013994,0.17288 c 1.410599,1.154783 1.833991,6.059524 -0.905821,3.273343 -0.523485,-1.870221 -1.798954,0.693151 -1.045072,-2.087797 0.365752,-0.695742 1.109872,-1.329509 1.950893,-1.185546 z m 17.332615,0.888165 c -1.698014,0.525637 0.706075,1.692292 0,0 z m -25.534814,1.105293 c 3.192235,1.676748 -2.114499,2.626235 -2.71456,3.91271 -1.285798,-1.888448 1.13917,-3.540787 2.71456,-3.91271 z m -11.030088,0.302022 c 0.426245,0.479931 -0.557351,0.243862 0,0 z m 37.128371,0.468068 c -1.529011,2.238778 3.822776,5.871344 1.790487,1.869833 -0.61305,-0.590529 -1.620015,-0.931321 -1.790487,-1.869833 z m -23.934539,0.222962 c 0.973989,0.749924 -0.254474,0.983484 0,0 z m 0.806988,0.545547 c 1.601175,0.690764 -0.306423,1.070357 0,0 z m -14.011361,0.02111 c 1.285523,4.195892 -6.413894,7.905979 -3.019692,1.892141 1.427145,-0.157264 2.140417,-0.909769 3.019692,-1.892141 z m 25.128422,0.61301 c 1.591506,-0.133539 0.635011,0.880943 0,0 z M 42.3598,23.648433 c 3.492706,1.523768 -3.657514,4.169678 -2.668866,3.347813 -2.151553,4.156266 -1.570693,-1.481132 -0.10437,-2.271825 -2.258428,1.700901 2.012274,-1.925352 2.773236,-1.075988 z m -6.571351,0.04162 c -1.532264,2.375049 -4.397138,3.235695 -1.714572,0.396759 0.380011,-0.508419 1.140575,-0.753004 1.714572,-0.396759 z m 19.986566,0.25195 -0.08752,0.05906 z m 22.681088,0.620395 c -1.336629,1.219563 -0.81904,4.605585 -2.767332,3.500833 0.894469,2.763527 4.95208,4.594193 3.425997,0.05875 -0.110517,-1.202386 -0.280143,-2.408679 -0.658665,-3.559565 z m -34.857092,0.0041 c 1.471716,0.306326 -0.231135,0.676147 0,0 z m -18.642986,0.358428 c 1.259051,0.381622 -0.757684,0.680493 0,0 z m 22.314761,0.138108 c 1.936419,0.954526 -1.32394,1.9875 0,0 z m -8.489993,0.578748 c -0.243185,1.262046 -1.755409,0.888746 0,0 z m -2.607036,0.808574 c 0.50444,1.113758 -1.369807,0.495506 0,0 z m 14.899528,0.410081 c 1.515811,0.729647 -0.347657,0.896957 0,0 z m 2.489493,0.223492 c -0.764694,0.670466 1.250398,0.40036 0,0 z m -29.780603,0.01734 c -1.693977,2.186615 1.020125,10.004588 -2.258534,4.537246 -4.347268,-0.132101 0.837641,-3.904734 2.258534,-4.537246 z m 39.886682,0.159712 c 0.633277,0.620741 -1.002813,0.465619 0,0 z M 34.696826,27.37009 c -0.02781,1.218635 -2.467697,0.893194 0,0 z m 13.216499,0.249319 c -1.764611,1.567332 -0.935616,3.18856 0.05008,0.518659 l -0.0256,-0.264628 z m 18.792153,0.203459 c 1.801738,1.960175 3.062326,0.169463 0,0 z m -34.540838,0.03264 c 1.204934,0.583073 -0.404683,0.980546 0,0 z m 32.395544,0.0306 c -0.08435,2.469757 5.22089,3.484922 1.948373,0.806545 -0.629381,-0.312783 -1.26682,-0.6222 -1.948373,-0.806545 z m 16.17774,1.361496 c -0.707502,2.324009 0.330419,2.478743 0,0 z m -52.178647,0.218749 c 5.191809,0.507511 -5.936895,8.311358 -2.78156,1.702431 0.368054,-1.789855 3.131857,-1.137106 2.78156,-1.702431 z m 35.064771,0.763246 c 1.595943,1.777146 -1.119766,2.598593 0,0 z m -31.872654,0.484904 c 0.07243,1.780941 -2.681018,-0.17955 0,0 z m 41.356757,1.134322 c -1.67281,1.512711 -0.204684,1.94617 0,0 z M 51.013727,32.65845 c 0.866255,0.647771 -0.896815,0.76401 0,0 z m 28.969387,0.02693 c -1.689926,0.465212 -3.203494,2.062756 -1.066594,2.403875 -2.301762,2.56532 4.752497,1.537119 3.007481,-1.135087 0.05539,-1.005169 -0.941022,-2.013908 -1.940887,-1.268788 z m -28.148695,5.4e-4 c 1.923771,0.585358 -1.435854,1.501032 0,0 z m -7.578116,0.254062 c -0.361941,1.467454 -0.255517,7.086899 -2.978618,3.938506 -2.534925,1.93292 2.997427,-4.489112 2.978618,-3.938506 z m -27.381242,0.528156 c -1.254297,3.820961 -5.338078,6.754491 -6.9268417,9.249146 1.3176307,-1.14088 1.3743277,-1.577053 1.9244517,-0.457154 1.267254,0.03815 -4.6313851,3.25685 -4.229652,5.949354 -0.4608278,4.459399 2.932767,7.797625 1.0165157,12.363522 -0.6256323,1.903014 -5.4655945,4.02238 -1.2389512,4.838829 3.0664975,-2.719636 3.7509565,1.280314 3.4301685,2.876839 1.925499,1.854115 5.218415,1.621769 2.879297,-1.458927 0.328349,-4.225646 1.174513,-8.38643 0.55261,-12.634821 -1.127781,-5.248145 -1.801827,-10.985349 0.989246,-15.872108 1.072976,-1.813183 2.421089,-3.747664 1.436135,-4.109121 0.736764,0.276858 0.856847,-0.845815 0.167021,-0.745559 z m 7.518548,0.635154 c 0.977861,1.63201 -1.732038,0.794192 0,0 z m 19.885361,0.194494 c 0.310103,0.716488 -1.401181,0.152877 0,0 z m -9.95164,0.631471 c 1.158035,1.142666 -1.495019,1.438272 0,0 z m 4.800296,0.158131 c -0.311278,4.102063 -4.265366,2.128893 0,0 z m -0.152334,0.539743 c -1.118265,0.594528 0.617083,0.728362 0,0 z m 43.449875,0.539754 c -1.118256,0.594527 0.61709,0.728361 0,0 z M 81.58075,36.97704 c -2.381883,1.242391 -1.539261,7.592778 0.09007,5.244361 -3.009959,-1.735173 1.704685,-4.441529 -0.09007,-5.244361 z m 2.38882,0.813307 c 1.688559,1.612967 1.087616,9.14427 -0.21827,3.837638 -0.03448,-5.737531 -2.638485,4.006213 1.369952,2.811579 0.92871,3.862954 -2.968802,7.304373 0.212762,9.77567 2.345469,0.211558 -1.606949,3.802754 -0.927242,5.70538 -1.363362,3.291917 -3.890514,7.127627 -6.629622,8.769093 -1.119022,2.842699 -6.989826,6.126834 -6.167032,0.755626 0.198155,-1.726319 -2.336453,-8.976173 -2.073038,-4.199595 0.973161,1.758409 -1.94206,6.240819 0.736205,4.435766 0.882973,4.168189 -8.511176,5.212129 -3.839198,9.013352 1.093419,-2.236268 5.645475,-5.62636 7.16754,-4.525709 -0.919755,1.748372 -2.318317,7.837517 -0.482705,3.199546 1.21175,-1.558703 3.240999,-8.564307 4.39212,-5.833829 -0.947631,4.087956 1.522309,2.961958 1.930799,-0.214291 3.125729,-2.40461 2.219438,-7.14255 5.451053,-9.3075 0.864277,3.10594 -2.661608,8.290539 -1.1582,9.648781 5.37334,0.407521 6.347287,-3.706567 2.059258,-4.819092 -0.06599,-2.344215 0.399361,-4.225635 1.070623,-5.744497 -2.751379,-2.401202 1.87579,-4.872438 -0.583848,-7.966016 1.391983,-1.677186 -0.572486,-3.549366 1.508488,-4.552179 0.173634,-3.893646 -0.776914,-8.169465 -3.819645,-10.789723 z m -28.42279,0.131254 c -1.22044,1.572085 1.863224,1.9314 0,0 z m -37.756675,0.94403 c 0.633327,0.620701 -1.002864,0.465661 0,0 z m 22.637875,1.61925 c -0.633327,0.620701 1.002864,0.465661 0,0 z m 43.851527,1.61925 c -0.05018,1.317901 1.452939,1.21993 0,0 z m 7.426304,0.09965 c 0.308397,2.222845 1.828013,2.463035 -1.247766,1.192686 1.359884,1.10363 1.134831,5.557134 4.355186,4.287183 1.935745,3.721929 1.682887,8.54914 -0.365956,12.416776 2.851481,-2.578948 4.052909,-6.82483 2.22105,-9.794928 1.479479,-1.941733 -3.241764,-5.93131 -4.405298,-8.042067 z m -2.75041,0.170259 c -0.09496,1.242972 1.587742,0.31163 0,0 z m 3.200026,0.986727 c 0.766316,0.27745 0.02183,0.580727 0,0 z m -54.156322,0.902925 c 0.217391,5.081099 -1.740373,10.922272 -7.991721,10.367983 -1.576085,1.072765 -5.616173,2.793944 -4.694789,-0.61917 4.859017,1.653104 7.201338,-4.257093 10.559763,-6.610192 0.649689,-1.083474 1.292267,-2.183014 2.126747,-3.138621 z m -12.004166,0.07752 c -0.208204,0.809349 0.971424,2.253384 0.344895,0.652055 z M 78.6875,44.630586 c -4.667714,0.506593 4.786023,6.97837 2.2491,1.526297 -0.334326,-1.322471 -1.621423,-0.724618 -2.2491,-1.526297 z m -62.894047,0.01683 c -2.897676,0.0206 -0.039,6.461761 -0.373183,1.837468 1.669169,0.682472 0.715823,-1.220032 0.373183,-1.837468 z m 76.885907,0.584031 c 2.63821,1.337618 0.516477,2.430303 0,0 z m -79.097089,0.23561 c -0.371996,0.646609 0.34099,1.26735 0,0 z m 28.589882,0.505481 c 0.923111,0.833575 -1.193481,0.60739 0,0 z m -30.722001,0.42432 c 2.209528,1.942499 -1.434701,2.985153 0,0 z m 26.169442,0.132825 c -1.461946,1.192176 0.434041,0.615651 0,0 z m 3.999105,0.528156 c 0.857907,0.759635 -0.724644,1.803635 0,0 z m -5.131844,0.276736 c -0.979547,0.466946 0.318096,1.175234 0,0 z m -22.960457,0.208723 c -0.555718,0.860288 1.391661,1.701839 0,0 z m 23.813832,0.04845 c -0.94458,0.409264 0.897563,0.435631 0,0 z m 56.896191,0.719497 c -3.268305,2.60455 2.362564,2.632855 0,0 z m -62.397002,0.269872 c 1.21632,0.917633 -1.950946,0.180795 0,0 z m 63.487565,0.09333 c -0.47124,0.779688 0.560347,0.795059 0,0 z m -21.550988,0.253011 c -1.333701,-0.532675 -4.530453,2.031758 -1.318809,0.733196 0.959289,3.465563 1.169267,0.630738 1.318809,-0.733196 z m -62.606262,0.02846 c 0.728849,1.885521 2.363941,6.804665 1.070012,7.827429 C 11.661883,54.220505 10.76686,51.6182 11.169734,48.955918 Z m 30.369371,0.164985 c 0.63333,0.62069 -1.002872,0.465661 0,0 z m 4.447144,0.06222 c 0.469975,1.333619 -0.478911,1.726024 0,0 z M 31.79567,52.544431 c -1.869342,0.433123 -0.76727,1.460222 0,0 z m -1.573919,1.017307 c -1.795379,0.176562 0.509636,0.762838 0,0 z m 43.686539,0.164975 c -1.735857,0.554554 -4.704097,3.941117 -1.306763,1.282211 0.908381,0.777424 1.510222,-0.565171 1.306763,-1.282211 z m -43.164186,0.25196 c -1.020858,0.541008 0.645125,0.708839 0,0 z m 62.238869,0.114383 c -2.69027,1.489782 -0.355715,6.063013 0.798721,2.166858 -1.245868,-1.047806 2.133789,-0.189547 -0.526136,-1.525043 z m -35.289848,0.458572 c -3.142232,-0.165046 1.197093,0.440283 0,0 z m -30.203333,0.23667 c -1.177574,0.69666 1.14532,0.652137 0,0 z m -6.959822,0.559776 c 0.310071,0.716469 -1.40116,0.152888 0,0 z m 49.041351,0.38451 c -2.830663,1.242921 0.273789,4.293272 0,0 z m -2.823676,0.259335 c -0.371994,0.646619 0.340996,1.26734 0,0 z m 13.454218,0.419046 c -2.374172,-0.20196 -7.134318,5.450432 -2.187145,2.410515 0.900558,-0.614754 1.735051,-1.398868 2.187145,-2.410515 z m -9.440885,0.908718 c -0.979547,0.466956 0.318097,1.175234 0,0 z M 20.457231,57.48677 c 1.020856,0.541018 -0.645127,0.708838 0,0 z m 45.894562,0.539753 c -1.194563,1.203314 0.960249,0.981791 0,0 z m -52.028422,0.575596 c 0.120245,2.17563 2.501114,1.306141 0,0 z m 81.919634,2.020743 c -3.242019,0.452574 3.163204,0.705462 0,0 z m -65.824648,0.300594 c -1.240248,3.632862 6.65223,0.429675 1.59101,0.431939 l -0.783483,-0.232886 z m 17.393233,0.01948 c -6.939423,1.455397 7.201006,1.312627 0,0 z m 46.016321,0.591936 c -1.255763,0.704861 -0.896336,1.621086 0,0 z M 69.8375,62.377698 c -3.156461,-0.165893 1.203101,0.440712 0,0 z m 23.666775,1.139065 c -0.764715,0.669915 1.250561,0.400737 0,0 z m -86.9514055,0.23614 c 2.0407273,1.158251 -0.3728814,2.14556 0,0 z m 52.9461045,1.020469 c 0.661368,0.851772 -1.122959,1.15462 0,0 z m 8.70979,0.14179 c -1.693077,4.353207 2.552224,0.756463 0,0 z m 15.73656,0.147064 c -0.597597,0.563499 1.977536,0.213608 0,0 z m 7.752051,0.284101 c -3.156379,-0.165893 1.20306,0.440701 0,0 z m -45.608341,1.349378 c 0.794478,0.476401 -1.236485,10e-4 0,0 z m -14.909546,0.02377 c 3.267697,1.025161 -2.272309,6.208771 -0.704313,2.265267 1.259289,1.548554 -0.107862,-1.58714 0.704313,-2.265267 z m 13.166951,0.263027 c -0.435156,1.159496 0.518269,1.506581 0,0 z m 0.955104,1.029425 c 1.017144,1.128304 -1.209474,1.663926 0,0 z m -15.778199,0.37688 c 0.340515,0.697405 -0.982914,0.657421 0,0 z m 21.664323,0.716326 c 0.941124,3.350159 -2.605324,6.1042 -1.14344,9.747936 0.02285,2.582527 1.488425,9.723027 -1.163698,9.28405 -1.736182,1.984083 1.430285,3.644705 1.64984,2.73769 1.315719,1.187923 -5.207457,-0.521169 -1.578582,2.486607 1.083352,2.617799 6.858775,-1.13373 3.77607,-3.509055 -2.929052,3.599794 2.026118,-3.680221 -1.196378,-1.455601 1.723157,-4.007152 1.65853,-7.752806 1.032944,-12.51844 -1.616955,-1.996007 1.144746,-5.620791 -1.376756,-6.773187 z M 27.3849,69.723926 c -0.764687,0.670466 1.250403,0.40036 0,0 z m 32.588456,0.270402 c -0.467272,1.046306 0.532307,0.545741 0,0 z m -28.162926,0.05641 c 0.927564,1.749728 -1.986175,1.207568 0,0 z m 0.635679,0.213476 c 0.560317,0.79509 -0.471266,0.779677 0,0 z m 24.328282,0.134946 c 0.346453,1.024947 -0.361814,1.611885 0,0 z m 13.974989,2.212237 c -0.829372,2.304639 -3.582444,2.671665 -0.66914,0.465416 0.171268,-0.2249 0.441731,-0.316027 0.66914,-0.465416 z m -33.175647,0.891321 c 0.560318,0.79509 -0.471265,0.779678 0,0 z m 1.707279,0.217688 c 0.526364,2.123671 -2.717113,7.145518 -2.085105,2.252446 0.31506,-1.050916 1.299683,-1.599279 2.085105,-2.252446 z m 21.232097,0.05222 c -0.47124,0.779688 0.560347,0.79506 0,0 z m -12.9851,0.02846 c 0.685879,1.133547 -1.303641,1.074631 0,0 z m 30.535404,1.497493 c -1.215504,0.635735 -0.743091,1.968498 0,0 z m -45.282068,0.539753 c -1.067953,0.780943 0.663176,1.145287 0,0 z m 13.869577,0.539754 c -1.17758,0.69666 1.145307,0.652137 0,0 z m -11.775938,0.09333 c -0.471245,0.779688 0.560353,0.795069 0,0 z m 34.856039,0.626728 c -3.724163,1.15105 2.404415,2.063287 0,0 z m 4.122452,0.436958 c -1.768109,1.659357 1.149265,1.02306 0,0 z m 1.872781,0.02948 c -0.923559,0.603147 -0.528329,2.682774 -0.103958,0.636562 z m -30.578631,1.187035 c 0.504054,1.489823 -0.443098,0.795621 0,0 z m 4.030734,0.418517 c -0.47126,0.779728 0.560347,0.795039 0,0 z M 60.95429,79.65137 c -1.290708,0.20401 1.29131,0.204132 0,0 z m -20.427217,0.3157 c 2.21002,2.808274 -6.35986,5.911349 -2.666651,1.531101 0.798966,-0.490936 -0.398922,2.026108 1.025974,-0.03774 -0.249189,-1.029873 0.725217,-1.542556 1.640677,-1.493402 z m -10.098171,0.313099 c 1.533872,1.897873 -0.463339,0.719294 -0.410893,1.057363 l 0.15912,-0.567794 z m 30.042571,0.166036 c 0.31007,0.716468 -1.401164,0.152887 0,0 z m -28.861868,0.405868 c 2.273162,-0.02519 -0.66611,0.834115 0,0 z m 17.298883,0.207152 c -0.471261,0.779739 0.560326,0.795039 0,0 z m -16.170363,0.300441 c 3.152619,3.679864 -2.506048,2.36695 -1.598876,0.627167 0.473659,-0.247268 1.316819,-0.09343 1.598876,-0.627167 z m 13.472667,0.17395 c 0.768437,0.271504 0.08884,1.256783 0,0 z m -10.679569,0.547128 c 0.970624,0.330888 -1.155646,0.141566 0,0 z m 14.086216,0.103836 c -1.918508,2.18738 0.36366,8.933711 0.263833,2.797911 0.01071,-0.935686 0.03805,-1.896108 -0.263833,-2.797911 z m -3.791963,0.400595 c 1.020867,0.541018 -0.645119,0.708829 0,0 z m 19.191168,0.169728 c -2.568146,0.560541 -0.554972,5.765397 -1.02001,1.140676 -0.369128,-1.542923 2.377599,0.357949 1.02001,-1.140676 z M 46.61771,83.248267 c 1.79669,0.175144 -0.510102,0.762481 0,0 z m -5.507664,0.814368 0.0063,0.001 z m 4.609483,0.09598 c 0.866245,2.337605 -0.561,1.897414 0,0 z m -5.089672,0.111751 c 1.187483,-0.06324 -0.647828,0.467905 0,0 z M 49.479861,85.44 c 0.417466,1.960532 -0.357459,1.333671 0,0 z m -1.893344,3.747154 c -0.372362,0.646965 0.341751,1.264565 0,0 z"
       sodipodi:nodetypes="ccccccccccccccccccccccccccccccccccccccccccccccccccccccccccccccccccccccccccccccccccccccccccccccccccccccccccccccccccccccccccccccccccccccccccccccccccccccccccccccccccccccccccccccccccccccccccccccccccccccccccccccccccccccccccccccccccccccccccccccccccccccccccccccccccccccccccccccccccccccccccccccccccccccccccccccccccccccccccccccccccccccccccccccccccccccccccccccccccccccccccccccccccccccccccccccccccccccccccccccccccccccccccccccccccccccccccccccccccccccccccccccccccccccccccccssccccccccccccccccccccccccccccccccccccccccccccccccccccccccccccccccccccccccccss" />
  </g>
</svg>
