<?xml version="1.0" encoding="UTF-8"?>
<!-- Created with Inkscape (http://www.inkscape.org/) -->
<svg width="20.005" height="20.002" version="1.1" viewBox="0 0 5.293 5.2923" xmlns="http://www.w3.org/2000/svg">
 <g transform="translate(-9.8717 -103.63)" stroke-width=".26458">
  <path id="color-primary" d="m12.518 103.63c-0.13229 0-0.26458 0.0503-0.37306 0.1561l-2.1167 2.1167c-0.20902 0.20637-0.20902 0.53975 0 0.74612l2.1167 2.1167c0.20638 0.20902 0.53975 0.20902 0.74612 0l2.1167-2.1167c0.20902-0.20637 0.20902-0.53975 0-0.74612l-2.1167-2.1167c-0.10848-0.10583-0.24077-0.1561-0.37306-0.1561"/>
  <path id="color-text" d="m12.254 104.95a0.52917 0.52917 0 0 0-0.52917 0.52916v0.39739a0.39688 0.39688 0 0 0 0.39688 0.39636 0.39688 0.39688 0 0 0-0.39688 0.39739v0.39636c0 0.29369 0.23813 0.52969 0.52917 0.52969h0.52917a0.52917 0.52917 0 0 0 0.52917-0.52969v-0.39636a0.39688 0.39688 0 0 0-0.39688-0.39739 0.39688 0.39688 0 0 0 0.39688-0.39636v-0.39739c0-0.29369-0.23812-0.52916-0.52917-0.52916zm0 0.52916h0.52917v0.52969h-0.52917zm0 1.0583h0.52917v0.52916h-0.52917z" fill="#c50000"/>
 </g>
</svg>
